<svg width="24" height="25" viewBox="0 0 24 25" fill="none" xmlns="http://www.w3.org/2000/svg">
<path fill-rule="evenodd" clip-rule="evenodd" d="M21.8394 12.5022C21.8368 11.9365 21.7858 11.3721 21.687 10.815L23.9552 8.76178L23.749 8.19938C23.264 6.84014 22.5416 5.5769 21.6152 4.4679L21.2297 4.00369L18.2981 4.97673C17.4265 4.24707 16.4347 3.67322 15.3665 3.28061L14.712 0.298991L14.1203 0.200794C12.7045 -0.0669314 11.2507 -0.0669314 9.83489 0.200794L9.28801 0.298991L8.63354 3.28061C7.56532 3.67322 6.57345 4.24707 5.7019 4.97673L2.72544 4.0394L2.33993 4.4679C1.41719 5.56615 0.695012 6.81702 0.206201 8.16367L0 8.72607L2.26821 10.7793C2.06498 11.895 2.06498 13.038 2.26821 14.1537L0 16.2069L0.206201 16.7693C0.687385 18.1411 1.40989 19.4167 2.33993 20.5365L2.72544 21.0007L5.7019 20.0276C6.57345 20.7573 7.56532 21.3312 8.63354 21.7238L9.28801 24.7054L9.87971 24.8036C11.2961 25.0655 12.7488 25.0655 14.1651 24.8036L14.7568 24.7054L15.4113 21.7238C16.4795 21.3312 17.4714 20.7573 18.3429 20.0276L21.2746 20.965L21.6601 20.5008C22.5828 19.4025 23.305 18.1516 23.7938 16.805L24 16.2426L21.7318 14.1894C21.8156 13.631 21.8516 13.0666 21.8394 12.5022ZM7.495 12.5022C7.495 10.0371 9.50194 8.0387 11.9776 8.0387C13.1665 8.0387 14.3067 8.50896 15.1473 9.34603C15.988 10.1831 16.4603 11.3184 16.4603 12.5022C16.4603 14.9673 14.4533 16.9657 11.9776 16.9657C9.50194 16.9657 7.495 14.9673 7.495 12.5022ZM9.28805 12.5022C9.28805 13.9813 10.4922 15.1803 11.9776 15.1803C13.463 15.1803 14.6672 13.9813 14.6672 12.5022C14.6672 11.0231 13.463 9.8241 11.9776 9.8241C10.4922 9.8241 9.28805 11.0231 9.28805 12.5022ZM20.6022 18.8939C21.0939 18.225 21.5089 17.5033 21.8394 16.7425L19.7057 14.7786L19.8222 14.2697C20.1034 13.0959 20.1034 11.8727 19.8222 10.6989L19.7057 10.1901L21.8394 8.26187C21.5117 7.50144 21.0997 6.77983 20.6112 6.11046L17.8588 7.00316L17.4733 6.64608C16.5748 5.82461 15.5025 5.21447 14.3355 4.86068L13.8334 4.70893L13.2238 1.91478C12.3965 1.80767 11.5588 1.80767 10.7315 1.91478L10.1218 4.70893L9.61976 4.86068C8.4528 5.21447 7.38049 5.82461 6.48192 6.64608L6.09642 7.00316L3.34408 6.11046C2.85551 6.77983 2.44355 7.50144 2.11584 8.26187L4.24061 10.208L4.12406 10.7168C3.84288 11.8906 3.84288 13.1138 4.12406 14.2876L4.24957 14.8143L2.11584 16.7425C2.44072 17.5025 2.84967 18.2241 3.33512 18.8939L6.08745 18.0012L6.47296 18.3583C7.37153 19.1798 8.44384 19.7899 9.6108 20.1437L10.1129 20.2954L10.7225 23.0896C11.5498 23.1967 12.3875 23.1967 13.2148 23.0896L13.8245 20.2954L14.3265 20.1437C15.4935 19.7899 16.5658 19.1798 17.4644 18.3583L17.8499 18.0012L20.6022 18.8939Z" fill="#FF9595"/>
</svg>
