<svg width="276" height="250" viewBox="0 0 276 250" fill="none" xmlns="http://www.w3.org/2000/svg">
<path d="M31.3788 165.89C54.9422 220.769 117.142 244.34 165.876 240.32C179.183 239.223 205.956 237.015 226.861 217.318C267.006 179.49 260.823 100.419 222.393 53.8666C217.443 47.8725 183.186 7.7066 129.803 8.24411C90.7189 8.63801 63.2854 30.6367 59.9495 33.3763C55.7358 36.8383 46.4419 45.0656 38.065 58.1172C18.3835 88.785 16.6534 131.596 31.3788 165.89Z" fill="url(#paint0_linear_122_20662)"/>
<g opacity="0.3">
<path d="M78.1359 28.2878C78.0619 28.3728 77.9719 28.4424 77.871 28.4927C77.7701 28.5429 77.6602 28.5728 77.5478 28.5806C77.4353 28.5884 77.3224 28.574 77.2155 28.5382C77.1086 28.5023 77.0099 28.4458 76.9248 28.3718C76.2303 27.767 75.4971 27.1825 74.7521 26.6357C74.5707 26.503 74.4486 26.3045 74.412 26.0828C74.3754 25.861 74.4273 25.6338 74.5564 25.4499L74.5656 25.4364C74.6322 25.3454 74.7161 25.2684 74.8125 25.2098C74.9088 25.1512 75.0158 25.1121 75.1273 25.0949C75.2387 25.0776 75.3525 25.0825 75.4621 25.1093C75.5716 25.136 75.6748 25.1841 75.7658 25.2508C76.5519 25.8261 77.3221 26.4409 78.0528 27.0775C78.2125 27.2168 78.3151 27.4104 78.3407 27.6208C78.3662 27.8312 78.3131 28.0437 78.1913 28.2172C78.1745 28.242 78.156 28.2656 78.1359 28.2878ZM70.9282 24.222C70.1143 23.7827 69.2728 23.3737 68.4279 23.0067C68.3245 22.9617 68.2309 22.8969 68.1526 22.8158C68.0743 22.7347 68.0127 22.6389 67.9714 22.5341C67.93 22.4292 67.9098 22.3171 67.9117 22.2044C67.9137 22.0917 67.9378 21.9805 67.9828 21.8771C68.0277 21.7737 68.0926 21.6801 68.1737 21.6018C68.2548 21.5235 68.3505 21.4619 68.4554 21.4205C68.5603 21.3792 68.6723 21.3589 68.785 21.3609C68.8977 21.3628 69.009 21.387 69.1124 21.4319C70.001 21.8183 70.8862 22.2483 71.7437 22.711C71.8429 22.7646 71.9306 22.8371 72.0018 22.9246C72.073 23.012 72.1262 23.1126 72.1585 23.2206C72.1908 23.3286 72.2015 23.442 72.19 23.5541C72.1784 23.6663 72.145 23.7751 72.0914 23.8743C72.0749 23.9031 72.0569 23.9312 72.0376 23.9582C71.9171 24.1304 71.7375 24.2524 71.533 24.301C71.3285 24.3496 71.1133 24.3215 70.9282 24.222ZM64.1714 21.5C63.282 21.2539 62.3716 21.0431 61.4637 20.8734C61.2432 20.8283 61.0492 20.6984 60.9235 20.5116C60.7978 20.3249 60.7506 20.0962 60.7919 19.875C60.8332 19.6537 60.9598 19.4575 61.1443 19.3286C61.3289 19.1998 61.5567 19.1486 61.7786 19.1861C62.7344 19.3642 63.6935 19.5859 64.63 19.8454C64.7386 19.8755 64.8403 19.9267 64.9291 19.9961C65.018 20.0655 65.0923 20.1517 65.1478 20.2498C65.2033 20.3479 65.239 20.456 65.2528 20.5679C65.2665 20.6798 65.2581 20.7933 65.228 20.902C65.1979 21.0106 65.1467 21.1122 65.0773 21.2011C65.0079 21.2899 64.9217 21.3642 64.8236 21.4198C64.7254 21.4753 64.6174 21.511 64.5055 21.5247C64.3936 21.5385 64.2801 21.5301 64.1714 21.5ZM56.9796 20.3586C56.0558 20.3174 55.1202 20.3157 54.198 20.3527C54.0842 20.3593 53.9702 20.3432 53.8627 20.3053C53.7552 20.2674 53.6564 20.2085 53.5719 20.132C53.4874 20.0554 53.419 19.9629 53.3707 19.8596C53.3224 19.7564 53.2951 19.6445 53.2905 19.5307C53.2858 19.4168 53.3039 19.3031 53.3437 19.1963C53.3835 19.0895 53.4442 18.9916 53.5221 18.9085C53.6001 18.8254 53.6939 18.7586 53.798 18.7121C53.902 18.6656 54.0143 18.6403 54.1283 18.6377C55.0992 18.5982 56.0843 18.5999 57.0561 18.6436C57.2835 18.6537 57.4976 18.7538 57.6512 18.9217C57.8049 19.0897 57.8855 19.3119 57.8754 19.5393C57.8652 19.7667 57.7652 19.9808 57.5972 20.1344C57.4292 20.2881 57.2071 20.3687 56.9796 20.3586ZM49.7081 20.8482C48.801 21.012 47.8881 21.2169 46.9953 21.4588C46.7754 21.5182 46.541 21.4878 46.3436 21.3743C46.1461 21.2608 46.0019 21.0735 45.9425 20.8537C45.8831 20.6338 45.9136 20.3994 46.027 20.202C46.1405 20.0045 46.3278 19.8603 46.5476 19.8009C47.4874 19.5489 48.4483 19.3314 49.4032 19.1584C49.5141 19.1384 49.628 19.1404 49.7381 19.1644C49.8483 19.1883 49.9527 19.2338 50.0453 19.2981C50.1379 19.3624 50.2169 19.4443 50.2779 19.5391C50.3388 19.634 50.3805 19.7399 50.4005 19.8509C50.4206 19.9618 50.4185 20.0756 50.3946 20.1858C50.3706 20.296 50.3252 20.4003 50.2608 20.493C50.1965 20.5856 50.1146 20.6646 50.0198 20.7256C49.9249 20.7865 49.819 20.8282 49.7081 20.8482ZM42.7271 22.9336C41.8771 23.2947 41.0331 23.697 40.2167 24.1287C40.117 24.1829 40.0075 24.2168 39.8947 24.2284C39.7818 24.24 39.6677 24.2291 39.5591 24.1963C39.4505 24.1635 39.3494 24.1096 39.2618 24.0375C39.1741 23.9654 39.1016 23.8767 39.0485 23.7764C38.9954 23.6761 38.9627 23.5663 38.9522 23.4534C38.9418 23.3404 38.9539 23.2264 38.9878 23.1181C39.0217 23.0098 39.0767 22.9094 39.1497 22.8225C39.2227 22.7356 39.3121 22.664 39.413 22.6119C40.2721 22.1567 41.1616 21.7334 42.0552 21.3521C42.1589 21.308 42.2703 21.2848 42.383 21.2837C42.4957 21.2826 42.6076 21.3038 42.7121 21.3459C42.8167 21.3881 42.9119 21.4504 42.9923 21.5294C43.0728 21.6083 43.1369 21.7024 43.181 21.8061C43.2251 21.9098 43.2484 22.0212 43.2495 22.1339C43.2505 22.2467 43.2294 22.3585 43.1872 22.463C43.1451 22.5676 43.0827 22.6628 43.0038 22.7432C42.9248 22.8237 42.8308 22.8878 42.7271 22.9319V22.9336ZM22.4745 47.551C22.2507 47.5088 22.0528 47.3795 21.9242 47.1914C21.7957 47.0034 21.7471 46.772 21.7892 46.5482C21.9689 45.5941 22.1931 44.6341 22.4543 43.6926C22.4846 43.584 22.536 43.4825 22.6055 43.3938C22.675 43.305 22.7613 43.2309 22.8595 43.1755C22.9577 43.1201 23.0659 43.0846 23.1778 43.071C23.2897 43.0575 23.4031 43.066 23.5117 43.0963C23.6203 43.1266 23.7219 43.178 23.8106 43.2475C23.8993 43.317 23.9735 43.4033 24.0289 43.5015C24.0842 43.5997 24.1197 43.7078 24.1333 43.8197C24.1469 43.9316 24.1383 44.0451 24.108 44.1537C23.8561 45.044 23.6469 45.9552 23.4765 46.8615C23.456 46.9724 23.4138 47.0782 23.3523 47.1728C23.2907 47.2673 23.2111 47.3488 23.118 47.4125C23.0249 47.4762 22.9201 47.5209 22.8097 47.5439C22.6992 47.5669 22.5853 47.5679 22.4745 47.5468V47.551ZM36.3852 26.514C35.6377 27.0548 34.9045 27.6343 34.2016 28.2374C34.1168 28.3143 34.0174 28.3734 33.9094 28.4113C33.8014 28.4493 33.6868 28.4652 33.5726 28.4582C33.4583 28.4512 33.3466 28.4214 33.244 28.3706C33.1414 28.3197 33.05 28.2489 32.9752 28.1622C32.9004 28.0756 32.8437 27.9748 32.8085 27.8659C32.7732 27.757 32.7601 27.6421 32.7699 27.528C32.7797 27.4139 32.8122 27.303 32.8655 27.2017C32.9188 27.1004 32.9919 27.0108 33.0803 26.9381C33.8152 26.3032 34.5921 25.6917 35.3749 25.1223C35.4662 25.0561 35.5698 25.0086 35.6795 24.9824C35.7893 24.9563 35.9031 24.952 36.0145 24.9698C36.1259 24.9876 36.2327 25.0272 36.3288 25.0863C36.4249 25.1454 36.5084 25.2228 36.5746 25.3142C36.6408 25.4056 36.6883 25.5091 36.7145 25.6189C36.7407 25.7286 36.745 25.8424 36.7271 25.9538C36.7093 26.0652 36.6697 26.172 36.6106 26.2682C36.5515 26.3643 36.4741 26.4478 36.3827 26.514H36.3852ZM24.4927 40.3474C24.3894 40.3023 24.296 40.2372 24.2179 40.156C24.1397 40.0747 24.0783 39.9789 24.0372 39.8739C23.9961 39.7689 23.9761 39.6569 23.9783 39.5442C23.9805 39.4314 24.0049 39.3203 24.0501 39.217C24.4389 38.3276 24.8715 37.4423 25.3351 36.5873C25.3888 36.4881 25.4615 36.4004 25.5491 36.3292C25.6368 36.2581 25.7375 36.2049 25.8457 36.1727C25.9539 36.1404 26.0673 36.1299 26.1796 36.1415C26.2918 36.1531 26.4007 36.1868 26.5 36.2405C26.5992 36.2942 26.687 36.3669 26.7581 36.4545C26.8293 36.5422 26.8825 36.6429 26.9147 36.7511C26.9469 36.8593 26.9575 36.9727 26.9458 37.085C26.9342 37.1972 26.9006 37.3061 26.8468 37.4054C26.4059 38.2184 25.9952 39.0591 25.6257 39.9048C25.6029 39.9577 25.5747 40.008 25.5417 40.0552C25.4275 40.2176 25.2606 40.3354 25.0694 40.3887C24.8782 40.442 24.6744 40.4274 24.4927 40.3474ZM31.0042 31.4196C30.3961 32.1134 29.8107 32.8432 29.264 33.5873C29.1294 33.7675 28.9296 33.8876 28.7073 33.922C28.4851 33.9563 28.2583 33.9021 28.0756 33.7709C27.893 33.6397 27.7691 33.4422 27.7306 33.2206C27.6921 32.9991 27.7421 32.7713 27.8698 32.5862C27.873 32.5811 27.8766 32.5763 27.8807 32.5719C28.456 31.7875 29.0725 31.019 29.7116 30.2892C29.8565 30.1247 30.0588 30.0218 30.277 30.0017C30.4952 29.9816 30.7129 30.0457 30.8854 30.1809C31.0579 30.3161 31.1721 30.5122 31.2046 30.7289C31.2372 30.9457 31.1856 31.1666 31.0605 31.3466C31.0428 31.3718 31.0244 31.3961 31.0042 31.4196Z" fill="#91B3FA"/>
<path d="M22.762 53.1974C22.8628 53.0543 22.917 52.8837 22.9174 52.7086C22.9174 52.266 22.9308 51.8167 22.951 51.3716C22.9613 51.1441 22.8809 50.9219 22.7274 50.7538C22.574 50.5856 22.36 50.4854 22.1325 50.475C21.9051 50.4647 21.6829 50.5451 21.5147 50.6986C21.3466 50.852 21.2463 51.066 21.236 51.2935C21.215 51.7613 21.2032 52.2341 21.2007 52.7002C21.1997 52.8832 21.2572 53.0616 21.3647 53.2096C21.4723 53.3576 21.6243 53.4673 21.7986 53.5228C21.9729 53.5783 22.1604 53.5767 22.3337 53.5181C22.507 53.4596 22.657 53.3473 22.762 53.1974Z" fill="#91B3FA"/>
</g>
<g opacity="0.3">
<path d="M32.8638 77.3435C32.9811 77.1765 33.035 76.9732 33.0159 76.77C32.9968 76.5668 32.906 76.3771 32.7597 76.2349C32.4422 75.9266 32.1264 75.6066 31.8199 75.2833C31.7448 75.1933 31.6522 75.1196 31.5476 75.0668C31.4431 75.014 31.3288 74.9831 31.2119 74.9761C31.0949 74.9691 30.9778 74.9862 30.8677 75.0261C30.7576 75.0661 30.6568 75.1282 30.5716 75.2086C30.4864 75.289 30.4185 75.386 30.3722 75.4936C30.3259 75.6012 30.3021 75.7171 30.3022 75.8343C30.3024 75.9514 30.3266 76.0673 30.3732 76.1747C30.4199 76.2822 30.488 76.379 30.5735 76.4591C30.896 76.7951 31.2286 77.1369 31.5629 77.4619C31.6518 77.5488 31.7586 77.6152 31.8759 77.6567C31.9931 77.6981 32.1179 77.7135 32.2417 77.7019C32.3655 77.6902 32.4853 77.6517 32.5927 77.5891C32.7001 77.5265 32.7926 77.4412 32.8638 77.3393V77.3435Z" fill="#91B3FA"/>
<path d="M82.5185 74.0004C82.3787 74.18 82.1731 74.2968 81.9472 74.3249C81.7212 74.353 81.4934 74.2902 81.3138 74.1503C81.1341 74.0104 81.0174 73.8049 80.9893 73.579C80.9612 73.353 81.0239 73.1252 81.1638 72.9455C81.7181 72.2333 82.2506 71.4867 82.7537 70.7174C82.8154 70.623 82.8951 70.5417 82.9882 70.4782C83.0813 70.4146 83.1861 70.37 83.2964 70.3469C83.4068 70.3238 83.5206 70.3227 83.6314 70.3436C83.7422 70.3645 83.8478 70.4071 83.9421 70.4688C84.0365 70.5305 84.1178 70.6102 84.1813 70.7033C84.2449 70.7964 84.2895 70.9011 84.3125 71.0115C84.3356 71.1218 84.3368 71.2357 84.3158 71.3464C84.2949 71.4572 84.2524 71.5628 84.1907 71.6572C83.9729 71.9931 83.749 72.3212 83.5188 72.6415C83.2014 73.1026 82.8629 73.5603 82.5185 74.0004ZM85.3346 67.9836C85.1292 67.8858 84.971 67.7105 84.8948 67.4962C84.8186 67.2818 84.8306 67.046 84.9281 66.8405C85.3178 66.0183 85.6781 65.1709 85.9973 64.3209C86.0803 64.1119 86.242 63.9437 86.4477 63.8527C86.6533 63.7617 86.8865 63.755 87.0971 63.8341C87.3076 63.9133 87.4787 64.0719 87.5735 64.2758C87.6683 64.4798 87.6792 64.7128 87.6039 64.9248C87.268 65.8192 86.8892 66.7112 86.4785 67.5762C86.4577 67.6206 86.433 67.6631 86.4046 67.7031C86.288 67.8681 86.117 67.9867 85.9216 68.038C85.7262 68.0893 85.5189 68.07 85.3363 67.9836H85.3346ZM79.3984 77.4859C78.7139 78.1519 77.9925 78.7986 77.2517 79.4066C77.1646 79.4783 77.0642 79.5322 76.9563 79.565C76.8483 79.5979 76.735 79.6092 76.6227 79.5983C76.5104 79.5874 76.4013 79.5545 76.3017 79.5014C76.2022 79.4483 76.114 79.3762 76.0423 79.2891C75.9706 79.2019 75.9168 79.1015 75.8839 78.9936C75.851 78.8857 75.8397 78.7723 75.8506 78.66C75.8615 78.5477 75.8945 78.4386 75.9475 78.3391C76.0006 78.2395 76.0728 78.1513 76.1599 78.0796C76.8629 77.5027 77.5482 76.8887 78.1983 76.2563C78.3514 76.1069 78.5547 76.02 78.7685 76.0127C78.9823 76.0055 79.1911 76.0783 79.354 76.2169C79.5169 76.3555 79.6222 76.55 79.6492 76.7622C79.6762 76.9744 79.623 77.189 79.5001 77.3641C79.4707 77.4077 79.4372 77.4485 79.4001 77.4859H79.3984ZM87.9206 61.0925C87.8105 61.0678 87.7065 61.0216 87.6143 60.9566C87.5222 60.8916 87.4437 60.8091 87.3835 60.7138C87.3233 60.6185 87.2825 60.5122 87.2634 60.4011C87.2443 60.2899 87.2473 60.1761 87.2722 60.0662C87.4721 59.1793 87.6359 58.2739 87.7602 57.3786C87.7913 57.153 87.9108 56.9491 88.0924 56.8117C88.2739 56.6743 88.5026 56.6146 88.7281 56.6458C88.9536 56.677 89.1575 56.7965 89.295 56.978C89.4324 57.1595 89.4921 57.3882 89.4609 57.6137C89.3299 58.5611 89.1569 59.5144 88.9469 60.4483C88.8964 60.6701 88.76 60.8629 88.5677 60.9845C88.3753 61.106 88.1426 61.1463 87.9206 61.0967V61.0925ZM73.448 82.1177C72.6341 82.6166 71.7875 83.0878 70.9284 83.5186C70.725 83.621 70.4893 83.6384 70.2731 83.5669C70.0569 83.4955 69.878 83.3411 69.7756 83.1378C69.6733 82.9344 69.6559 82.6987 69.7273 82.4825C69.7988 82.2663 69.9532 82.0874 70.1565 81.985C70.9695 81.576 71.7733 81.1284 72.5459 80.6547C72.7143 80.5516 72.913 80.5097 73.1086 80.536C73.3042 80.5623 73.4848 80.6553 73.6199 80.7992C73.755 80.943 73.8364 81.1291 73.8504 81.326C73.8643 81.5228 73.81 81.7185 73.6966 81.8801C73.6308 81.9755 73.5462 82.0563 73.448 82.1177ZM66.6224 85.3311C65.717 85.641 64.7881 85.919 63.8617 86.1499C63.641 86.2056 63.4071 86.1713 63.2117 86.0546C63.0162 85.9379 62.8751 85.7483 62.8194 85.5276C62.7637 85.3069 62.798 85.073 62.9147 84.8776C63.0315 84.6821 63.221 84.541 63.4418 84.4853C64.322 84.2636 65.2055 84.0016 66.0647 83.7076C66.1719 83.6683 66.286 83.6507 66.4001 83.656C66.5142 83.6613 66.6262 83.6893 66.7293 83.7385C66.8325 83.7876 66.9248 83.8568 67.0008 83.942C67.0769 84.0273 67.1352 84.1269 67.1722 84.235C67.2093 84.343 67.2244 84.4574 67.2167 84.5714C67.209 84.6854 67.1786 84.7967 67.1273 84.8988C67.076 85.0009 67.0048 85.0917 66.918 85.1659C66.8311 85.2402 66.7303 85.2963 66.6215 85.3311H66.6224ZM59.2542 86.9814C58.3026 87.0872 57.3359 87.1494 56.3818 87.1796C56.2691 87.1827 56.1569 87.1636 56.0516 87.1233C55.9463 87.083 55.8499 87.0224 55.768 86.9448C55.6861 86.8673 55.6203 86.7744 55.5743 86.6715C55.5283 86.5685 55.5031 86.4575 55.5 86.3448C55.4969 86.2321 55.516 86.1198 55.5563 86.0145C55.5966 85.9092 55.6572 85.8128 55.7348 85.731C55.8123 85.6491 55.9052 85.5833 56.0081 85.5373C56.1111 85.4913 56.2221 85.466 56.3348 85.4629C57.2427 85.4386 58.1607 85.3789 59.0652 85.2748C59.2915 85.2497 59.5185 85.3156 59.6963 85.4579C59.874 85.6002 59.988 85.8073 60.013 86.0336C60.0381 86.2599 59.9722 86.4869 59.8299 86.6647C59.6876 86.8424 59.4805 86.9564 59.2542 86.9814ZM51.7063 86.9814C50.7547 86.8764 49.7964 86.7295 48.8583 86.5447C48.6349 86.5001 48.4383 86.3687 48.3118 86.1792C48.1854 85.9897 48.1393 85.7577 48.1839 85.5343C48.2284 85.3109 48.3599 85.1143 48.5494 84.9879C48.7389 84.8614 48.9708 84.8154 49.1942 84.8599C50.0845 85.0354 50.9949 85.1749 51.8986 85.2748C52.1243 85.3005 52.3306 85.4147 52.4723 85.5923C52.614 85.7699 52.6795 85.9964 52.6545 86.2222C52.6383 86.3656 52.5866 86.5027 52.5042 86.6211C52.4163 86.7477 52.2961 86.8483 52.156 86.9124C52.0159 86.9765 51.8612 87.0018 51.708 86.9856L51.7063 86.9814ZM44.3373 85.326C43.4344 85.0144 42.5333 84.66 41.6573 84.2728C41.449 84.1807 41.2859 84.0097 41.2037 83.7973C41.1216 83.5849 41.1272 83.3485 41.2193 83.1403C41.3114 82.932 41.4825 82.7689 41.6948 82.6867C41.9072 82.6046 42.1436 82.6102 42.3518 82.7023C43.1833 83.071 44.04 83.4069 44.8975 83.7026C45.0041 83.7393 45.1024 83.7968 45.1868 83.8715C45.2712 83.9463 45.3401 84.037 45.3894 84.1384C45.4388 84.2398 45.4677 84.3499 45.4745 84.4624C45.4813 84.575 45.4659 84.6878 45.4291 84.7944C45.3923 84.901 45.3349 84.9993 45.2601 85.0837C45.1854 85.1681 45.0947 85.237 44.9933 85.2863C44.8919 85.3357 44.7818 85.3646 44.6692 85.3714C44.5567 85.3782 44.4439 85.3628 44.3373 85.326ZM37.5192 82.0959C36.9196 81.7272 36.3241 81.335 35.7496 80.931C35.5414 80.7849 35.3353 80.6368 35.1315 80.4867C35.0397 80.4208 34.9619 80.3372 34.9029 80.2409C34.8438 80.1445 34.8046 80.0373 34.7875 79.9256C34.7705 79.8138 34.7759 79.6998 34.8036 79.5902C34.8312 79.4806 34.8804 79.3777 34.9484 79.2874C35.0151 79.1964 35.0991 79.1196 35.1955 79.0611C35.292 79.0027 35.399 78.9639 35.5105 78.9469C35.622 78.9299 35.7357 78.935 35.8452 78.962C35.9547 78.989 36.0578 79.0374 36.1486 79.1043C36.3429 79.2465 36.5388 79.3865 36.7365 79.5242C37.2832 79.908 37.8485 80.2801 38.4162 80.6312C38.5122 80.6902 38.5957 80.7676 38.6618 80.8589C38.7279 80.9502 38.7753 81.0537 38.8015 81.1633C38.8276 81.273 38.8319 81.3867 38.814 81.498C38.7962 81.6093 38.7566 81.716 38.6976 81.812C38.6875 81.8271 38.6783 81.8423 38.6682 81.8565C38.5437 82.0352 38.3558 82.1599 38.1427 82.2051C37.9296 82.2504 37.7073 82.2128 37.5209 82.1001L37.5192 82.0959Z" fill="#91B3FA"/>
<path d="M89.6256 53.409C89.7274 53.2648 89.782 53.0926 89.7818 52.916C89.7818 52.4516 89.7717 51.9779 89.7524 51.5093C89.7395 51.2844 89.6387 51.0737 89.4718 50.9224C89.3049 50.7712 89.0852 50.6917 88.8602 50.7009C88.6352 50.7102 88.4228 50.8075 88.2689 50.9719C88.1149 51.1363 88.0318 51.3547 88.0374 51.5798C88.0559 52.0258 88.0651 52.4751 88.0651 52.9169C88.0654 53.0991 88.1238 53.2766 88.2317 53.4235C88.3396 53.5703 88.4914 53.6791 88.6653 53.7339C88.8391 53.7887 89.0258 53.7868 89.1985 53.7284C89.3711 53.67 89.5207 53.5581 89.6256 53.409Z" fill="#91B3FA"/>
</g>
<path d="M79.2293 42.9938C79.2066 42.9135 79.1595 42.8422 79.0945 42.7898C79.0295 42.7374 78.9498 42.7066 78.8665 42.7015L73.9952 42.4177C72.8796 40.3921 71.4411 38.5621 69.7362 36.9997L70.6038 32.2007C70.6186 32.1187 70.6075 32.0342 70.5719 31.959C70.5364 31.8837 70.4783 31.8214 70.4056 31.7807L65.3009 28.9092C65.2282 28.8683 65.1445 28.851 65.0616 28.8599C64.9786 28.8688 64.9005 28.9033 64.8381 28.9588L61.1897 32.2007C58.9681 31.5591 56.6567 31.2836 54.3465 31.3851L51.5657 27.3714C51.518 27.3029 51.4502 27.2508 51.3717 27.2225C51.2931 27.1942 51.2077 27.1911 51.1273 27.2135L45.4884 28.8C45.4081 28.8227 45.3368 28.8698 45.2844 28.9348C45.232 28.9998 45.2012 29.0795 45.1961 29.1629L44.9123 34.0341C42.8865 35.1495 41.0565 36.588 39.4943 38.2931L34.6927 37.4213C34.6108 37.4067 34.5264 37.418 34.4512 37.4535C34.376 37.489 34.3136 37.547 34.2728 37.6195L31.4038 42.7309C31.3629 42.8038 31.3457 42.8876 31.3546 42.9706C31.3635 43.0537 31.398 43.132 31.4534 43.1945L34.6978 46.8396C34.0561 49.0612 33.7809 51.3726 33.8831 53.6828L29.8685 56.4636C29.7999 56.5112 29.7479 56.579 29.7198 56.6576C29.6916 56.7363 29.6887 56.8217 29.7115 56.902L31.2946 62.5409C31.3173 62.6212 31.3644 62.6925 31.4294 62.7449C31.4944 62.7973 31.5741 62.8281 31.6574 62.8332L36.5329 63.1171C37.6483 65.1428 39.0868 66.9728 40.7919 68.535L39.9201 73.3366C39.9057 73.4185 39.917 73.5028 39.9525 73.578C39.988 73.6532 40.0459 73.7156 40.1183 73.7565L45.228 76.6297C45.3009 76.6706 45.3847 76.6878 45.4678 76.6789C45.5508 76.67 45.6291 76.6355 45.6917 76.5801L49.3375 73.3357C51.5592 73.9774 53.8705 74.2528 56.1808 74.1512L58.9616 78.165C59.009 78.2336 59.0767 78.2856 59.1551 78.3139C59.2335 78.3422 59.3188 78.3454 59.3991 78.3229L65.038 76.7389C65.1185 76.7164 65.1899 76.6694 65.2423 76.6043C65.2947 76.5393 65.3255 76.4594 65.3303 76.3761L65.615 71.5048C67.6403 70.3891 69.4702 68.9509 71.033 67.2467L75.8345 68.1176C75.9165 68.1324 76.0009 68.1213 76.0762 68.0857C76.1515 68.0502 76.2138 67.9921 76.2545 67.9194L79.1218 62.8122C79.1627 62.7393 79.1799 62.6555 79.171 62.5725C79.1621 62.4894 79.1276 62.4111 79.0722 62.3486L75.8278 58.7035C76.4691 56.4796 76.7431 54.1658 76.6391 51.8536L80.6529 49.0728C80.7214 49.0251 80.7734 48.9573 80.8017 48.8788C80.83 48.8002 80.8332 48.7148 80.8107 48.6344L79.2293 42.9938Z" fill="#91B3FA"/>
<path d="M59.5347 56.8187C58.4878 57.9256 57.0526 58.5835 55.5308 58.654C54.009 58.7245 52.5191 58.2022 51.3744 57.1969C50.2297 56.1915 49.5194 54.7815 49.3929 53.2633C49.2664 51.7451 49.7334 50.237 50.6959 49.0561C51.6584 47.8751 53.0412 47.1134 54.5538 46.931C56.0663 46.7486 57.5906 47.1598 58.8062 48.0781C60.0218 48.9964 60.8339 50.3503 61.0719 51.8551C61.3099 53.3598 60.9551 54.8983 60.0822 56.1469C59.9164 56.384 59.7334 56.6085 59.5347 56.8187ZM50.7496 52.8873C50.7773 53.9314 51.1661 54.9335 51.8498 55.723C52.5336 56.5125 53.4699 57.0405 54.4993 57.2171C55.5286 57.3936 56.5874 57.2078 57.4951 56.6912C58.4028 56.1746 59.1033 55.3593 59.4773 54.3842C59.8513 53.409 59.8756 52.3343 59.546 51.3433C59.2164 50.3522 58.5534 49.5061 57.67 48.9491C56.7865 48.3921 55.7372 48.1586 54.7009 48.2885C53.6646 48.4184 52.7054 48.9036 51.9868 49.6614C51.8329 49.8236 51.6912 49.9968 51.5626 50.1796C51.0063 50.9707 50.7211 51.9206 50.7496 52.8873Z" fill="#BDD0FB"/>
<path d="M66.9705 61.1367C67.2533 60.7336 67.5175 60.3137 67.7633 59.8769C67.8398 59.7392 67.9145 59.6015 67.9876 59.457C68.3448 58.7706 68.6464 58.0567 68.8896 57.3221L68.8997 57.2918L68.9274 57.2078C68.945 57.1524 68.9627 57.097 68.9795 57.0399C68.9949 56.9962 69.0013 56.9499 68.9984 56.9038C68.9955 56.8576 68.9833 56.8125 68.9625 56.7711C68.9417 56.7298 68.9128 56.6931 68.8774 56.6632C68.8421 56.6333 68.8011 56.6109 68.7569 56.5972C68.7126 56.5836 68.6661 56.579 68.6201 56.5838C68.5741 56.5886 68.5295 56.6026 68.489 56.625C68.4486 56.6475 68.413 56.6779 68.3846 56.7144C68.3562 56.7509 68.3354 56.7927 68.3235 56.8375C67.7567 58.6886 66.8064 60.3996 65.5346 61.8592C64.2628 63.3189 62.698 64.4944 60.9419 65.3093C59.1858 66.1242 57.2778 66.5603 55.342 66.5891C53.4062 66.618 51.4861 66.2389 49.7065 65.4767C47.9269 64.7145 46.3277 63.5861 45.013 62.165C43.6983 60.7439 42.6975 59.062 42.0757 57.2286C41.4539 55.3952 41.2251 53.4514 41.4042 51.5237C41.5832 49.596 42.1661 47.7276 43.1149 46.0401C46.8397 39.4052 55.2602 37.0443 61.8902 40.7666C62.2977 40.9955 62.6934 41.2447 63.076 41.5132C64.7286 42.6739 66.1051 44.1845 67.1074 45.9376C67.1323 45.9814 67.1668 46.019 67.2082 46.0477C67.2721 46.0923 67.3492 46.1139 67.427 46.1088C67.5047 46.1038 67.5785 46.0725 67.6361 46.0201C67.6937 45.9676 67.7318 45.8972 67.7441 45.8202C67.7564 45.7433 67.7421 45.6644 67.7037 45.5967C66.4009 43.3261 64.5082 41.4502 62.2261 40.1677C55.2653 36.2598 46.4223 38.7459 42.5152 45.7042C40.7626 48.8277 40.2298 52.49 41.0196 55.9835C41.8095 59.477 43.866 62.5539 46.7918 64.6197C47.1983 64.9051 47.6187 65.17 48.0516 65.4134C51.1754 67.1672 54.8385 67.7006 58.3328 66.9105C61.827 66.1205 64.9043 64.063 66.9697 61.1359L66.9705 61.1367Z" fill="#BDD0FB"/>
<g opacity="0.3">
<path d="M113.542 17.2556C113.608 17.1617 113.642 17.0491 113.638 16.9345C113.635 16.8199 113.595 16.7095 113.523 16.6198C113.243 16.2679 112.948 15.9194 112.646 15.5851C112.6 15.532 112.544 15.4886 112.481 15.4575C112.418 15.4264 112.349 15.4081 112.279 15.4038C112.208 15.3995 112.138 15.4092 112.072 15.4324C112.005 15.4556 111.944 15.4918 111.892 15.5388C111.839 15.5859 111.797 15.6429 111.767 15.7065C111.737 15.7701 111.72 15.8391 111.717 15.9094C111.714 15.9797 111.725 16.0499 111.749 16.1159C111.773 16.1819 111.81 16.2424 111.858 16.2939C112.146 16.6131 112.426 16.9448 112.698 17.2808C112.742 17.3352 112.795 17.3806 112.856 17.4143C112.917 17.448 112.984 17.4693 113.053 17.4771C113.123 17.4849 113.193 17.479 113.259 17.4597C113.326 17.4405 113.389 17.4082 113.443 17.3648C113.481 17.3334 113.515 17.2966 113.542 17.2556Z" fill="#91B3FA"/>
<path d="M110.686 14.3553C110.594 14.4613 110.463 14.5263 110.323 14.5362C110.182 14.5462 110.044 14.5001 109.938 14.4082C109.377 13.9224 108.792 13.4652 108.185 13.0384C108.057 12.9482 107.928 12.8598 107.798 12.773C107.741 12.7342 107.691 12.6844 107.652 12.6264C107.614 12.5684 107.587 12.5034 107.574 12.435C107.56 12.3667 107.561 12.2964 107.574 12.2282C107.588 12.1599 107.615 12.095 107.654 12.0372C107.736 11.9244 107.857 11.8468 107.993 11.82C108.13 11.7931 108.272 11.8192 108.39 11.8928C108.526 11.9841 108.661 12.0767 108.795 12.1708C109.431 12.6181 110.044 13.0974 110.632 13.607C110.731 13.6933 110.794 13.8131 110.809 13.9432C110.825 14.0733 110.792 14.2045 110.716 14.3116C110.709 14.3267 110.698 14.341 110.686 14.3553ZM105.479 11.4099C104.678 11.0038 103.853 10.647 103.009 10.3416C102.881 10.29 102.779 10.1912 102.723 10.0659C102.667 9.94053 102.662 9.79837 102.709 9.66925C102.755 9.54013 102.85 9.43409 102.973 9.37341C103.096 9.31272 103.238 9.30211 103.369 9.34379C104.254 9.66426 105.119 10.0387 105.959 10.465C106.021 10.4965 106.077 10.54 106.122 10.5929C106.167 10.6458 106.202 10.7071 106.223 10.7733C106.245 10.8395 106.253 10.9094 106.248 10.9788C106.242 11.0483 106.223 11.116 106.192 11.1781C106.18 11.2005 106.167 11.2221 106.152 11.2427C106.079 11.3478 105.97 11.4226 105.845 11.4533C105.721 11.484 105.589 11.4686 105.475 11.4099H105.479ZM100.424 9.58651C99.5472 9.38886 98.6594 9.24553 97.7654 9.15734C97.6961 9.1505 97.6289 9.13009 97.5675 9.09726C97.5061 9.06444 97.4518 9.01985 97.4077 8.96604C97.3635 8.91222 97.3304 8.85024 97.3102 8.78363C97.29 8.71703 97.2832 8.64709 97.29 8.57783C97.2969 8.50857 97.3173 8.44133 97.3501 8.37995C97.3829 8.31858 97.4275 8.26427 97.4813 8.22013C97.5351 8.17599 97.5971 8.14287 97.6637 8.12268C97.7303 8.1025 97.8003 8.09563 97.8695 8.10246C98.8071 8.19444 99.7381 8.3445 100.657 8.55179C100.794 8.58286 100.913 8.66708 100.989 8.78597C101.064 8.90485 101.089 9.04869 101.058 9.18589C101.042 9.25344 101.014 9.31733 100.974 9.37402C100.913 9.46048 100.828 9.52689 100.729 9.56474C100.631 9.60259 100.523 9.61017 100.42 9.58651H100.424ZM95.0744 9.06075C94.1769 9.08365 93.2815 9.1619 92.3936 9.29508C92.3234 9.30841 92.2513 9.30744 92.1815 9.29224C92.1117 9.27703 92.0457 9.2479 91.9875 9.20659C91.9292 9.16528 91.8799 9.11264 91.8425 9.05181C91.805 8.99099 91.7802 8.92324 91.7696 8.85261C91.759 8.78199 91.7627 8.70995 91.7806 8.6408C91.7985 8.57165 91.8301 8.50682 91.8736 8.45019C91.9171 8.39356 91.9716 8.34629 92.0338 8.31122C92.0961 8.27615 92.1647 8.25399 92.2357 8.24608C93.1671 8.10687 94.1061 8.02469 95.0476 8C95.1855 8.00074 95.3178 8.05516 95.4163 8.15173C95.5148 8.2483 95.5719 8.37943 95.5754 8.51734C95.5789 8.65526 95.5285 8.78911 95.435 8.89055C95.3415 8.99198 95.2122 9.05303 95.0744 9.06075ZM89.7564 9.86031C88.8911 10.1013 88.0413 10.3946 87.2116 10.7388C87.1473 10.7655 87.0784 10.7793 87.0087 10.7793C86.9391 10.7794 86.8702 10.7657 86.8058 10.7391C86.7415 10.7125 86.683 10.6735 86.6338 10.6243C86.5845 10.5751 86.5454 10.5167 86.5187 10.4524C86.492 10.3881 86.4782 10.3192 86.4782 10.2496C86.4781 10.1799 86.4918 10.111 86.5184 10.0467C86.545 9.98232 86.584 9.92384 86.6332 9.87458C86.6824 9.82531 86.7408 9.78621 86.8051 9.75952C87.6744 9.39773 88.5649 9.08921 89.4717 8.83567C89.6056 8.80302 89.7469 8.82372 89.8658 8.89337C89.9846 8.96303 90.0718 9.07619 90.1088 9.20892C90.1457 9.34166 90.1296 9.48357 90.0639 9.60466C89.9981 9.72575 89.8879 9.81652 89.7564 9.85779V9.86031ZM84.7953 11.9222C84.0155 12.3642 83.2635 12.8536 82.5436 13.3878C82.4878 13.4294 82.4243 13.4596 82.3568 13.4767C82.2894 13.4938 82.2191 13.4975 82.1502 13.4875C82.0813 13.4775 82.0151 13.454 81.9553 13.4183C81.8954 13.3827 81.8432 13.3356 81.8016 13.2798C81.7599 13.224 81.7297 13.1606 81.7126 13.0931C81.6955 13.0256 81.6918 12.9554 81.7019 12.8865C81.7119 12.8176 81.7354 12.7513 81.771 12.6915C81.8066 12.6317 81.8537 12.5794 81.9095 12.5378C82.6641 11.9752 83.4528 11.4599 84.2712 10.995C84.3759 10.9353 84.4979 10.9131 84.6169 10.932C84.7359 10.951 84.8449 11.0099 84.926 11.0992C85.007 11.1884 85.0552 11.3026 85.0626 11.4229C85.07 11.5432 85.0361 11.6624 84.9666 11.7609C84.9221 11.8256 84.8636 11.8793 84.7953 11.918V11.9222ZM80.491 15.1338C79.8428 15.7557 79.2341 16.4174 78.6685 17.1151C78.6243 17.1692 78.57 17.2141 78.5085 17.2472C78.4471 17.2803 78.3797 17.3009 78.3102 17.308C78.17 17.3222 78.0298 17.2802 77.9206 17.1911C77.8113 17.102 77.7419 16.9732 77.7277 16.8329C77.7134 16.6926 77.7554 16.5525 77.8445 16.4432C78.439 15.7127 79.0774 15.0191 79.7561 14.3662C79.8586 14.2747 79.9926 14.2266 80.1299 14.2318C80.2672 14.2371 80.3971 14.2955 80.4923 14.3946C80.5875 14.4937 80.6405 14.6258 80.6403 14.7632C80.64 14.9006 80.5865 15.0326 80.491 15.1313V15.1338ZM75.1158 21.9275C75.053 21.8978 74.9966 21.856 74.95 21.8045C74.9033 21.753 74.8673 21.6928 74.8439 21.6274C74.8205 21.562 74.8102 21.4926 74.8136 21.4232C74.8171 21.3538 74.8341 21.2857 74.8638 21.2229C75.21 20.4817 75.5955 19.7595 76.0187 19.0594C76.0817 18.9527 76.1472 18.8477 76.2127 18.7428C76.2874 18.6236 76.4064 18.539 76.5435 18.5076C76.6806 18.4761 76.8246 18.5005 76.9438 18.5752C77.063 18.6499 77.1476 18.7689 77.179 18.9061C77.2104 19.0432 77.1861 19.1871 77.1113 19.3063C77.0492 19.4048 76.9879 19.5048 76.9274 19.6061C76.5235 20.2747 76.1551 20.964 75.8238 21.6714C75.8109 21.7007 75.7955 21.7288 75.7776 21.7554C75.7044 21.8576 75.5973 21.9306 75.4754 21.9613C75.3534 21.9921 75.2246 21.9786 75.1116 21.9233L75.1158 21.9275Z" fill="#91B3FA"/>
</g>
<g opacity="0.3">
<path d="M114.162 44.32C113.62 45.0704 113.033 45.7876 112.404 46.4675C112.358 46.5217 112.301 46.5659 112.237 46.5975C112.173 46.6291 112.103 46.6475 112.032 46.6516C111.961 46.6557 111.89 46.6454 111.822 46.6212C111.755 46.5971 111.694 46.5597 111.641 46.5112C111.589 46.4628 111.547 46.4042 111.518 46.3391C111.488 46.274 111.473 46.2037 111.471 46.1323C111.47 46.061 111.483 45.9901 111.509 45.9238C111.536 45.8576 111.576 45.7974 111.626 45.7469C112.227 45.0987 112.788 44.4147 113.306 43.6985C113.387 43.584 113.511 43.5066 113.65 43.4834C113.788 43.4601 113.931 43.493 114.045 43.5746C114.16 43.6562 114.237 43.78 114.26 43.9187C114.283 44.0574 114.251 44.1996 114.169 44.3141L114.162 44.32ZM114.929 42.1817C114.806 42.1134 114.716 41.9992 114.677 41.8641C114.638 41.729 114.655 41.5841 114.722 41.4611C115.15 40.6878 115.53 39.8896 115.861 39.0708C115.914 38.9405 116.017 38.8365 116.146 38.7818C116.276 38.7271 116.422 38.726 116.552 38.7789C116.682 38.8318 116.786 38.9343 116.841 39.0639C116.896 39.1934 116.897 39.3394 116.844 39.4697C116.496 40.3279 116.096 41.1645 115.648 41.9751C115.638 41.9919 115.628 42.0078 115.617 42.0238C115.542 42.13 115.43 42.2048 115.303 42.2339C115.176 42.263 115.043 42.2444 114.929 42.1817ZM110.394 48.3875C109.686 48.9849 108.943 49.5391 108.168 50.047C108.05 50.1224 107.908 50.1482 107.771 50.119C107.634 50.0898 107.515 50.0078 107.438 49.891C107.362 49.7741 107.334 49.6317 107.362 49.4947C107.39 49.3577 107.47 49.2372 107.586 49.1593C108.325 48.6751 109.035 48.1467 109.71 47.577C109.809 47.4941 109.934 47.4499 110.062 47.4526C110.191 47.4553 110.314 47.5047 110.409 47.5915C110.504 47.6784 110.564 47.7969 110.578 47.9248C110.592 48.0527 110.559 48.1813 110.485 48.2867C110.46 48.3238 110.431 48.3576 110.397 48.3875H110.394ZM117.078 37.2105C116.942 37.1739 116.827 37.0849 116.757 36.963C116.686 36.8411 116.667 36.6963 116.704 36.5604C116.933 35.7072 117.11 34.8408 117.235 33.9661C117.244 33.8971 117.268 33.8308 117.303 33.7709C117.338 33.7109 117.385 33.6585 117.441 33.6167C117.496 33.5748 117.56 33.5444 117.627 33.527C117.695 33.5096 117.765 33.5057 117.834 33.5155C117.903 33.5253 117.969 33.5485 118.029 33.5839C118.089 33.6193 118.141 33.6661 118.183 33.7218C118.225 33.7774 118.256 33.8408 118.273 33.9082C118.29 33.9756 118.294 34.0458 118.284 34.1147C118.154 35.0323 117.968 35.941 117.728 36.8359C117.711 36.8959 117.685 36.9528 117.649 37.0039C117.587 37.092 117.499 37.1589 117.398 37.1958C117.296 37.2328 117.186 37.2379 117.082 37.2105H117.078ZM105.762 51.4227C104.931 51.8321 104.077 52.1911 103.203 52.4978C103.137 52.5208 103.068 52.5307 102.998 52.5269C102.929 52.523 102.861 52.5055 102.798 52.4754C102.735 52.4453 102.679 52.4031 102.632 52.3512C102.586 52.2993 102.55 52.2388 102.527 52.1732C102.504 52.1075 102.494 52.0379 102.498 51.9684C102.502 51.8989 102.519 51.8308 102.55 51.7681C102.58 51.7054 102.622 51.6492 102.674 51.6027C102.726 51.5563 102.786 51.5205 102.852 51.4975C103.685 51.205 104.5 50.8622 105.292 50.4712C105.418 50.414 105.561 50.4079 105.691 50.4543C105.821 50.5006 105.927 50.5957 105.988 50.7194C106.05 50.8431 106.06 50.9857 106.018 51.117C105.975 51.2482 105.884 51.3579 105.762 51.4227ZM100.533 53.2579C99.6282 53.4562 98.7126 53.6006 97.7908 53.6904C97.6508 53.7039 97.5111 53.6612 97.4026 53.5717C97.2941 53.4822 97.2256 53.3533 97.2121 53.2133C97.1986 53.0733 97.2413 52.9337 97.3308 52.8252C97.4202 52.7167 97.5491 52.6481 97.6891 52.6347C98.5686 52.5495 99.4423 52.4118 100.305 52.2223C100.373 52.2074 100.444 52.2059 100.512 52.2182C100.581 52.2304 100.646 52.256 100.705 52.2935C100.763 52.331 100.814 52.3797 100.854 52.4368C100.894 52.4939 100.922 52.5583 100.937 52.6263C100.952 52.6943 100.953 52.7645 100.941 52.8331C100.929 52.9016 100.903 52.9671 100.866 53.0257C100.828 53.0844 100.78 53.1351 100.722 53.1749C100.665 53.2147 100.601 53.2429 100.533 53.2579ZM95.015 53.7886C94.0872 53.765 93.1616 53.6853 92.2434 53.5501C92.1043 53.5296 91.979 53.4547 91.8952 53.3419C91.8113 53.229 91.7757 53.0875 91.7962 52.9484C91.8167 52.8093 91.8916 52.684 92.0045 52.6001C92.1173 52.5162 92.2589 52.4806 92.398 52.5011C93.2722 52.6301 94.1534 52.7058 95.0368 52.7279C95.1745 52.7356 95.3038 52.7966 95.3973 52.8979C95.4908 52.9993 95.5412 53.133 95.5378 53.2709C95.5344 53.4088 95.4775 53.5399 95.3792 53.6365C95.2808 53.7332 95.1487 53.7877 95.0108 53.7886H95.015Z" fill="#91B3FA"/>
<path d="M118.412 31.6126C118.473 31.5262 118.507 31.4235 118.509 31.3178C118.517 30.8643 118.509 30.4082 118.493 29.9623C118.482 29.8254 118.419 29.6982 118.316 29.6071C118.213 29.5161 118.079 29.4684 117.942 29.4741C117.805 29.4797 117.675 29.5383 117.58 29.6375C117.486 29.7366 117.433 29.8687 117.433 30.0059C117.451 30.4309 117.456 30.866 117.448 31.2993C117.446 31.4129 117.481 31.5241 117.547 31.6165C117.612 31.709 117.706 31.7778 117.814 31.8129C117.922 31.848 118.039 31.8475 118.146 31.8114C118.254 31.7754 118.347 31.7057 118.412 31.6126Z" fill="#91B3FA"/>
</g>
<path d="M111.494 24.2651C111.479 24.2113 111.448 24.1636 111.404 24.1286C111.361 24.0937 111.307 24.0732 111.252 24.0702L107.989 23.8796C107.243 22.524 106.281 21.2993 105.14 20.2538L105.723 17.0414C105.733 16.9864 105.725 16.9297 105.701 16.8791C105.677 16.8286 105.639 16.7867 105.59 16.7592L102.172 14.8409C102.123 14.8135 102.067 14.8019 102.012 14.8078C101.956 14.8136 101.904 14.8367 101.862 14.8737L99.4262 17.0447C97.9396 16.6152 96.393 16.4311 94.8472 16.4996L92.9869 13.8121C92.955 13.7661 92.9095 13.7312 92.8568 13.7122C92.8041 13.6933 92.7469 13.6912 92.6929 13.7062L88.9203 14.7661C88.8664 14.7811 88.8186 14.8126 88.7835 14.8561C88.7484 14.8996 88.7278 14.9531 88.7246 15.0089L88.5348 18.2709C87.1791 19.017 85.9544 19.9796 84.909 21.1206L81.6957 20.5377C81.6407 20.5279 81.584 20.5354 81.5335 20.5591C81.4829 20.5829 81.441 20.6218 81.4135 20.6704L79.4953 24.0895C79.4678 24.1382 79.4563 24.1943 79.4623 24.2499C79.4684 24.3054 79.4916 24.3577 79.5289 24.3994L81.6991 26.8351C81.2696 28.3216 81.0855 29.8682 81.154 31.414L78.4664 33.2752C78.4204 33.3069 78.3855 33.3522 78.3665 33.4048C78.3475 33.4573 78.3455 33.5145 78.3606 33.5683L79.4205 37.3418C79.4357 37.3955 79.4673 37.443 79.5108 37.4779C79.5543 37.5129 79.6076 37.5334 79.6632 37.5367L82.9253 37.7273C83.6719 39.0836 84.6347 40.3091 85.7758 41.3555L85.1879 44.5689C85.178 44.6239 85.1855 44.6805 85.2093 44.7311C85.2331 44.7817 85.272 44.8236 85.3206 44.8511L88.7389 46.7693C88.7876 46.7968 88.8436 46.8083 88.8992 46.8022C88.9548 46.7962 89.0071 46.773 89.0488 46.7357L91.4844 44.5655C92.9709 44.995 94.5175 45.1791 96.0633 45.1106L97.9245 47.7982C97.9564 47.8459 98.0027 47.8821 98.0566 47.9016C98.1105 47.9211 98.1693 47.9228 98.2243 47.9065L101.998 46.8466C102.052 46.8314 102.099 46.7999 102.134 46.7564C102.169 46.7129 102.19 46.6596 102.194 46.6039L102.383 43.3418C103.739 42.5952 104.963 41.6327 106.009 40.4922L109.222 41.075C109.277 41.0849 109.333 41.0774 109.384 41.0536C109.434 41.0298 109.476 40.991 109.504 40.9423L111.423 37.5249C111.45 37.4761 111.461 37.4201 111.455 37.3646C111.449 37.3091 111.426 37.2569 111.389 37.215L109.218 34.7794C109.648 33.2929 109.832 31.7462 109.763 30.2004L112.451 28.3393C112.497 28.3076 112.532 28.2623 112.551 28.2097C112.57 28.1572 112.572 28.0999 112.557 28.0461L111.494 24.2651Z" fill="#91B3FA"/>
<path d="M98.3685 33.5648C97.6554 34.3155 96.679 34.7606 95.6446 34.8065C94.6102 34.8523 93.5983 34.4954 92.8216 33.8107C92.0449 33.126 91.5639 32.1669 91.4796 31.1349C91.3953 30.1029 91.7144 29.0784 92.3697 28.2768C93.0251 27.4752 93.9657 26.9588 94.9938 26.8363C96.0219 26.7137 97.0576 26.9945 97.883 27.6195C98.7084 28.2446 99.2594 29.1654 99.4201 30.1883C99.5808 31.2111 99.3387 32.2565 98.7447 33.1046C98.6305 33.2668 98.5047 33.4206 98.3685 33.5648ZM93.4284 32.9458C93.7095 33.2125 94.0403 33.4211 94.4021 33.5599C94.7639 33.6986 95.1494 33.7648 95.5367 33.7545C95.924 33.7442 96.3055 33.6577 96.6594 33.4999C97.0133 33.3421 97.3326 33.1162 97.5992 32.835C98.1375 32.267 98.4282 31.5084 98.4073 30.726C98.3863 29.9437 98.0555 29.2017 97.4874 28.6633C96.9194 28.125 96.1608 27.8343 95.3785 27.8552C94.5962 27.8762 93.8542 28.207 93.3158 28.775C93.2164 28.8803 93.1246 28.9926 93.0412 29.111C92.6362 29.6908 92.4526 30.3966 92.5237 31.1002C92.5947 31.8038 92.9157 32.4587 93.4284 32.9458Z" fill="#BDD0FB"/>
<path d="M103.544 36.5679C103.737 36.2936 103.918 36.0072 104.086 35.7087C104.419 35.1157 104.69 34.4904 104.897 33.8426L104.925 33.7586C104.958 33.6518 104.956 33.5375 104.92 33.4319C104.883 33.3263 104.815 33.2349 104.723 33.1707C104.678 33.1384 104.627 33.1137 104.574 33.0976C104.439 33.0564 104.294 33.0701 104.17 33.1358C104.046 33.2014 103.953 33.3136 103.911 33.4478C103.724 34.0549 103.473 34.6402 103.161 35.1939L103.109 35.2846C102.374 36.5694 101.328 37.6492 100.067 38.4249C99.3811 38.8459 98.6415 39.1728 97.8683 39.3966L97.849 39.4025L97.791 39.4184C96.6628 39.7387 95.4822 39.832 94.3176 39.6929C93.153 39.5538 92.0277 39.185 91.0066 38.608C90.7392 38.4584 90.4796 38.2953 90.2289 38.1192C89.1375 37.3483 88.2331 36.3423 87.5823 35.1753C86.9315 34.0084 86.5509 32.7102 86.4687 31.3766C86.3864 30.043 86.6046 28.7079 87.107 27.4698C87.6094 26.2317 88.3834 25.1222 89.3717 24.2231C90.3601 23.3239 91.5377 22.6581 92.8176 22.2747C94.0976 21.8912 95.4473 21.8 96.7672 22.0077C98.0871 22.2154 99.3436 22.7166 100.444 23.4746C101.544 24.2326 102.461 25.2278 103.125 26.387C103.164 26.454 103.217 26.5114 103.28 26.555C103.379 26.6242 103.498 26.6577 103.619 26.65C103.739 26.6423 103.853 26.5939 103.942 26.5127C104.031 26.4315 104.09 26.3224 104.108 26.2034C104.127 26.0843 104.105 25.9625 104.045 25.8579C103.302 24.5603 102.277 23.4461 101.046 22.5975C99.8145 21.7489 98.4086 21.1875 96.9315 20.9548C95.4545 20.722 93.944 20.8238 92.5116 21.2528C91.0791 21.6817 89.7613 22.4267 88.6552 23.4329C87.5491 24.4391 86.6831 25.6808 86.1209 27.0664C85.5588 28.452 85.3149 29.9461 85.4073 31.4385C85.4996 32.9309 85.9259 34.3835 86.6545 35.6892C87.3832 36.9949 88.3958 38.1204 89.6174 38.9825C89.8979 39.1795 90.188 39.3623 90.4867 39.5301C92.6444 40.7377 95.1729 41.1032 97.5842 40.5562C99.9955 40.0091 102.119 38.5883 103.544 36.5679Z" fill="#BDD0FB"/>
<path d="M183.665 25.6719V236.489C183.665 237.881 183.101 239.139 182.142 239.915C181.415 240.503 180.495 240.88 179.483 240.839L177.174 240.755C174.84 240.671 172.735 238.531 172.735 236.091V26.0288L183.665 25.6719Z" fill="url(#paint1_linear_122_20662)"/>
<path d="M188.06 18.1087C188.057 19.804 187.644 21.4734 186.855 22.974C186.066 24.4745 184.925 25.7613 183.529 26.724C181.968 27.8072 180.127 28.4153 178.227 28.4752C177.288 28.5051 176.349 28.3945 175.442 28.1468C174.785 27.9668 174.15 27.715 173.547 27.3959C173.397 27.3119 173.246 27.2321 173.098 27.144C170.314 25.4642 168.463 22.3676 168.463 18.7663C168.463 13.2383 172.83 8.59883 178.227 8.39894C183.648 8.19569 188.06 12.542 188.06 18.1087Z" fill="url(#paint2_linear_122_20662)"/>
<path d="M183.555 17.7431C183.553 19.0612 183.232 20.3592 182.618 21.5259C182.005 22.6926 181.118 23.6932 180.033 24.4419C178.819 25.2835 177.388 25.7563 175.912 25.8034C174.647 25.8452 173.392 25.5557 172.274 24.9635C172.157 24.8997 172.039 24.8358 171.925 24.7644C169.76 23.461 168.32 21.0514 168.32 18.2513C168.32 13.9537 171.714 10.3464 175.912 10.1885C180.128 10.0365 183.555 13.4153 183.555 17.7431Z" fill="url(#paint3_linear_122_20662)"/>
<path d="M104.665 33.2085L105.505 33.6418L121.404 23.8901L199.269 35.4005L210.159 36.6469L209.517 38.6802C209.433 38.8986 197.039 47.928 197.039 47.928L206.682 60.5882L206.218 61.89C206.193 61.9633 206.144 62.0256 206.078 62.0665C206.012 62.1073 205.934 62.1242 205.857 62.1142L195.844 60.563L117.937 48.4941C117.717 48.4596 117.515 48.3536 117.362 48.1926L104.833 35.0738C104.751 34.9867 104.688 34.8836 104.647 34.7711C104.607 34.6586 104.589 34.539 104.597 34.4196L104.665 33.2085Z" fill="url(#paint4_linear_122_20662)"/>
<path d="M122.282 23.0345L210.159 36.6471C210.177 36.6508 210.194 36.6597 210.208 36.6729C210.221 36.6861 210.23 36.7029 210.235 36.7212C210.239 36.7396 210.237 36.7588 210.23 36.7763C210.224 36.7939 210.212 36.8091 210.197 36.8201L197.814 45.8789C197.732 45.9395 197.677 46.0283 197.658 46.1279C197.639 46.2274 197.659 46.3304 197.712 46.4165L206.567 60.4053C206.577 60.4206 206.582 60.4383 206.582 60.4565C206.583 60.4747 206.578 60.4926 206.568 60.5082C206.559 60.5237 206.545 60.5363 206.529 60.5444C206.512 60.5525 206.494 60.5558 206.476 60.554L118.549 46.9321C118.296 46.893 118.063 46.773 117.885 46.5903L104.783 33.3204C104.77 33.3069 104.761 33.2907 104.755 33.2729C104.749 33.2551 104.747 33.2363 104.75 33.2178C104.752 33.1993 104.759 33.1815 104.769 33.1658C104.779 33.1502 104.792 33.137 104.808 33.1272L121.488 23.1907C121.726 23.0472 122.007 22.9919 122.282 23.0345Z" fill="url(#paint5_linear_122_20662)"/>
<path d="M112.31 115.383L113.201 115.601L125.973 102.723L202.112 95.7517L212.275 94.4826C212.324 94.4764 212.375 94.4812 212.422 94.4965C212.47 94.5119 212.514 94.5375 212.55 94.5715C212.587 94.6055 212.615 94.6472 212.634 94.6935C212.653 94.7398 212.661 94.7897 212.659 94.8396L212.571 96.5008C212.539 96.7276 202.882 108.123 202.882 108.123L214.888 117.892L214.748 119.231C214.742 119.306 214.71 119.377 214.657 119.431C214.604 119.485 214.534 119.519 214.459 119.527L204.651 120.356L128.343 126.813C128.128 126.831 127.913 126.776 127.732 126.659L112.897 117.111C112.799 117.047 112.716 116.964 112.652 116.867C112.588 116.77 112.544 116.661 112.524 116.546L112.31 115.383Z" fill="#7D97F4"/>
<path d="M126.607 101.711L212.424 94.4493C212.463 94.4463 212.502 94.4549 212.536 94.474C212.57 94.4931 212.598 94.5218 212.616 94.5566C212.634 94.5913 212.641 94.6306 212.637 94.6695C212.632 94.7084 212.617 94.7451 212.592 94.7752L203.143 106C203.081 106.076 203.049 106.173 203.054 106.272C203.059 106.37 203.1 106.463 203.17 106.533L214.742 117.748C214.754 117.76 214.763 117.776 214.767 117.793C214.771 117.81 214.77 117.828 214.764 117.845C214.758 117.862 214.748 117.876 214.734 117.887C214.72 117.898 214.703 117.904 214.686 117.906L128.56 125.193C128.312 125.214 128.065 125.155 127.854 125.025L112.44 115.467C112.424 115.457 112.411 115.444 112.401 115.429C112.392 115.413 112.386 115.396 112.384 115.378C112.382 115.359 112.384 115.341 112.39 115.324C112.396 115.306 112.406 115.291 112.419 115.278L125.895 102.043C126.086 101.853 126.338 101.735 126.607 101.711Z" fill="#91B3FA"/>
<path opacity="0.56" d="M177.354 104.287L129.52 108.027C129.343 108.041 129.211 108.195 129.225 108.372L129.397 110.576C129.411 110.753 129.566 110.886 129.743 110.872L177.576 107.133C177.753 107.119 177.886 106.964 177.872 106.787L177.699 104.583C177.686 104.406 177.531 104.273 177.354 104.287Z" fill="white"/>
<path opacity="0.56" d="M177.609 114.684L130.156 118.393C130.071 118.399 129.987 118.371 129.923 118.316C129.858 118.261 129.817 118.182 129.81 118.097L129.65 116.041C129.647 115.999 129.652 115.956 129.665 115.916C129.678 115.876 129.699 115.839 129.726 115.807C129.753 115.775 129.787 115.748 129.825 115.729C129.862 115.71 129.903 115.698 129.946 115.695L177.398 111.985C177.483 111.979 177.567 112.007 177.632 112.062C177.697 112.118 177.737 112.197 177.744 112.282L177.905 114.338C177.911 114.423 177.884 114.507 177.828 114.572C177.773 114.636 177.694 114.677 177.609 114.684Z" fill="white"/>
<path d="M250.841 72.3715L249.918 72.7394L233.888 62.3628L150.468 68.7634L138.853 69.4261L139.326 71.2436C139.4 71.4602 151.789 80.9953 151.789 80.9953L140.524 92.6342L140.907 93.9192C140.931 93.9947 140.981 94.0596 141.047 94.103C141.113 94.1464 141.192 94.1657 141.271 94.1577L152.004 93.2666L235.516 86.3293C235.748 86.3116 235.969 86.2237 236.15 86.0773L250.511 74.1697C250.603 74.0945 250.678 74.0006 250.731 73.8941C250.783 73.7876 250.813 73.6711 250.816 73.5524L250.841 72.3715Z" fill="url(#paint6_linear_122_20662)"/>
<path d="M233.028 61.4827L139.026 69.2934C138.991 69.2953 138.958 69.3079 138.93 69.3295C138.903 69.3511 138.883 69.3806 138.873 69.4139C138.864 69.4473 138.865 69.4829 138.876 69.5157C138.887 69.5486 138.908 69.5771 138.937 69.5975L151.136 78.9695C151.175 78.9995 151.208 79.0371 151.232 79.0801C151.257 79.1231 151.273 79.1705 151.278 79.2197C151.284 79.2688 151.28 79.3186 151.266 79.3661C151.252 79.4136 151.229 79.4578 151.198 79.4961L140.661 92.4629C140.649 92.4774 140.642 92.4951 140.64 92.5138C140.638 92.5324 140.642 92.5512 140.651 92.5676C140.66 92.584 140.674 92.5974 140.691 92.606C140.707 92.6145 140.726 92.6179 140.745 92.6157L235.002 84.7865C235.27 84.765 235.524 84.6641 235.734 84.4967L250.715 72.4732C250.73 72.4616 250.741 72.4468 250.749 72.4299C250.756 72.4131 250.759 72.3947 250.758 72.3763C250.757 72.3579 250.752 72.34 250.742 72.3242C250.733 72.3083 250.72 72.2949 250.705 72.285L233.854 61.68C233.607 61.5266 233.317 61.4573 233.028 61.4827Z" fill="url(#paint7_linear_122_20662)"/>
<path opacity="0.56" d="M232.46 67.4904L185.598 71.2394C185.42 71.2536 185.288 71.4091 185.302 71.5868L185.486 73.8855C185.5 74.0632 185.656 74.1957 185.833 74.1815L232.696 70.4325C232.873 70.4183 233.006 70.2627 232.991 70.0851L232.808 67.7864C232.793 67.6087 232.638 67.4762 232.46 67.4904Z" fill="white"/>
<path opacity="0.56" d="M231.569 75.6326L185.223 79.2557C185.046 79.2695 184.914 79.4243 184.927 79.6014L185.095 81.7416C185.109 81.9187 185.263 82.0511 185.44 82.0372L231.787 78.4141C231.964 78.4003 232.096 78.2455 232.082 78.0684L231.915 75.9282C231.901 75.7511 231.746 75.6187 231.569 75.6326Z" fill="white"/>
<path d="M181.483 44.9186C181.778 43.0991 180.542 41.3846 178.723 41.0893C176.903 40.794 175.189 42.0295 174.894 43.849C174.598 45.6686 175.834 47.383 177.653 47.6783C179.473 47.9737 181.187 46.7381 181.483 44.9186Z" fill="url(#paint8_linear_122_20662)"/>
<path d="M178.408 45.896C179.539 45.896 180.456 44.9792 180.456 43.8484C180.456 42.7175 179.539 41.8008 178.408 41.8008C177.277 41.8008 176.36 42.7175 176.36 43.8484C176.36 44.9792 177.277 45.896 178.408 45.896Z" fill="url(#paint9_linear_122_20662)"/>
<path d="M180.772 79.0091C181.18 77.2814 180.11 75.5503 178.382 75.1425C176.655 74.7348 174.923 75.8047 174.516 77.5324C174.108 79.2601 175.178 80.9912 176.906 81.399C178.633 81.8067 180.364 80.7367 180.772 79.0091Z" fill="url(#paint10_linear_122_20662)"/>
<path d="M177.871 79.7382C178.961 79.7382 179.844 78.8549 179.844 77.7653C179.844 76.6758 178.961 75.7925 177.871 75.7925C176.782 75.7925 175.898 76.6758 175.898 77.7653C175.898 78.8549 176.782 79.7382 177.871 79.7382Z" fill="url(#paint11_linear_122_20662)"/>
<path d="M180.211 111.042C181.515 109.738 181.515 107.623 180.211 106.319C178.907 105.015 176.792 105.015 175.488 106.319C174.184 107.623 174.184 109.738 175.488 111.042C176.792 112.346 178.907 112.346 180.211 111.042Z" fill="url(#paint12_linear_122_20662)"/>
<path d="M180.065 108.613C180.325 107.511 179.642 106.407 178.541 106.147C177.439 105.887 176.336 106.57 176.076 107.671C175.816 108.773 176.498 109.876 177.599 110.136C178.701 110.396 179.805 109.714 180.065 108.613Z" fill="url(#paint13_linear_122_20662)"/>
<path opacity="0.56" d="M168.606 36.4279L125.853 29.6795C125.678 29.6518 125.513 29.7717 125.485 29.9471L125.162 31.9987C125.134 32.1742 125.254 32.3389 125.429 32.3666L168.182 39.115C168.357 39.1427 168.522 39.0229 168.55 38.8474L168.873 36.7958C168.901 36.6203 168.781 36.4556 168.606 36.4279Z" fill="white"/>
<path opacity="0.56" d="M166.97 43.5781L124.559 36.8836C124.384 36.856 124.219 36.9758 124.192 37.1512L123.89 39.0643C123.862 39.2398 123.982 39.4045 124.157 39.4322L166.568 46.1266C166.743 46.1543 166.908 46.0345 166.936 45.859L167.238 43.946C167.265 43.7705 167.146 43.6058 166.97 43.5781Z" fill="white"/>
<path d="M106.514 134.161C80.0489 133.471 50.7711 140.58 50.7711 140.58C43.8002 179.04 46.8683 222.543 48.055 235.718C48.1646 236.917 48.6645 238.048 49.478 238.937C50.2915 239.825 51.3739 240.422 52.5592 240.637C66.2348 243.151 80.657 241.625 87.9126 240.521C89.2904 240.311 90.5716 239.686 91.5859 238.73C92.6002 237.774 93.2995 236.532 93.591 235.169C98.3866 212.857 112.082 163.622 112.082 163.622C125.029 162.14 135.719 158.51 144.539 153.661C137.921 145.84 134.86 135.94 133.545 130.092C124.161 132.91 114.677 134.373 106.514 134.161Z" fill="url(#paint14_linear_122_20662)"/>
<path d="M185.07 95.9196C182.5 92.7541 180.086 92.891 180.086 92.891C176.034 109.307 154.592 123.77 133.547 130.091C134.861 135.939 137.923 145.84 144.541 153.661C179.55 134.412 185.07 95.9196 185.07 95.9196Z" fill="url(#paint15_linear_122_20662)"/>
<path d="M184.432 96.7121C184.695 97.5797 181.532 98.8663 179.712 95.3112C179.663 93.6155 178.704 86.3422 179.727 84.9707C185.192 77.6639 195.741 68.5454 195.741 68.5454C197.493 70.3091 196.02 72.0065 196.02 72.0065L190.897 77.2448C191.941 79.1765 193.22 80.8041 193.805 83.1297C194.247 84.8934 193.948 86.7664 193.049 88.3571C192.149 89.9478 190.908 92.0281 189.743 93.6482C187.533 96.7188 184.432 96.7121 184.432 96.7121Z" fill="url(#paint16_linear_122_20662)"/>
<path d="M188.642 80.6528L183.98 84.5297L182.491 88.4183L186.57 93.0317C186.57 93.0317 188.031 85.3049 189.077 83.6344C190.124 81.9639 189.602 81.1526 188.642 80.6528Z" fill="url(#paint17_linear_122_20662)"/>
<path d="M60.6818 166.306L50.7713 140.58C50.7713 140.58 25.8877 157.142 21.6187 178.402C26.2866 178.791 34.776 180.087 43.0563 184.365C44.9821 174.329 60.6818 166.306 60.6818 166.306Z" fill="url(#paint18_linear_122_20662)"/>
<path d="M82.0565 190.629C82.0565 190.629 54.1485 206.054 44.9108 192.567C42.9926 189.767 42.5542 186.999 43.0581 184.367C34.7778 180.084 26.2884 178.791 21.6204 178.404C20.3338 184.814 20.9158 191.649 24.623 198.587C40.7434 228.755 85.6646 197.51 85.6646 197.51L82.0565 190.629Z" fill="url(#paint19_linear_122_20662)"/>
<path d="M79.9081 112.417L71.2533 136.689C71.1831 136.883 71.1838 137.096 71.2553 137.29C71.3267 137.484 71.4643 137.647 71.6438 137.749C73.9274 139.04 82.1632 142.789 92.1912 136.564C92.7089 136.247 93.1504 135.82 93.4843 135.313C93.8182 134.806 94.0362 134.232 94.1229 133.631L97.0481 112.576L79.9081 112.417Z" fill="url(#paint20_linear_122_20662)"/>
<path d="M98.4482 90.0366C98.4482 90.0366 107.531 107.534 106.278 114.555C105.026 121.575 93.5686 120.961 83.6145 115.155L76.7998 96.2903L98.4482 90.0366Z" fill="url(#paint21_linear_122_20662)"/>
<path d="M84.1442 105.928C84.2403 105.887 84.3263 105.826 84.3962 105.748C84.4662 105.671 84.5183 105.579 84.5491 105.479C84.5799 105.379 84.5886 105.274 84.5745 105.171C84.5604 105.067 84.5239 104.968 84.4676 104.88C83.7377 103.741 82.3679 101.418 81.948 99.3926C81.948 99.3926 80.2951 98.3126 86.2027 96.957C92.1104 95.6015 100.921 93.4959 102.816 88.497C104.664 83.6258 100.045 71.2797 92.4018 81.0054C92.3348 81.0925 92.2487 81.1631 92.1501 81.2116C92.0515 81.2602 91.9431 81.2854 91.8332 81.2854C91.7233 81.2854 91.6149 81.2602 91.5163 81.2116C91.4177 81.1631 91.3316 81.0925 91.2646 81.0054C90.0426 79.3828 86.82 76.0073 82.2831 77.992C78.0367 79.8481 77.5311 82.9421 77.5739 84.5043C77.5774 84.6116 77.5566 84.7183 77.513 84.8164C77.4695 84.9145 77.4043 85.0016 77.3225 85.071C77.2406 85.1404 77.1441 85.1905 77.0402 85.2174C76.9363 85.2444 76.8276 85.2475 76.7223 85.2266C74.5882 84.7982 69.4617 84.3993 67.0176 89.6392C65.002 93.9545 66.2618 96.4203 67.4183 97.6314C67.5041 97.7203 67.5654 97.8298 67.5964 97.9494C67.6273 98.0689 67.6268 98.1945 67.5948 98.3138C67.5629 98.4331 67.5006 98.5421 67.414 98.6302C67.3274 98.7183 67.2195 98.7825 67.1008 98.8165C65.6915 99.2364 63.8665 100.407 64.0159 103.7C64.2242 108.253 69.3155 107.9 70.766 107.706C70.8827 107.69 71.0017 107.703 71.1124 107.743C71.2231 107.784 71.3222 107.851 71.4009 107.938C72.6296 109.325 78.1694 115.214 84.219 115.975C84.34 115.989 84.4626 115.972 84.5753 115.926C84.6881 115.88 84.7875 115.806 84.8641 115.712C84.9408 115.617 84.9923 115.505 85.0138 115.385C85.0354 115.265 85.0263 115.141 84.9875 115.026L82.4393 107.383C82.3822 107.212 82.3914 107.025 82.4651 106.861C82.5389 106.696 82.6717 106.565 82.8374 106.493L84.1442 105.928Z" fill="url(#paint22_linear_122_20662)"/>
<path d="M85.1876 107.019C85.1876 107.019 78.6467 102.438 78.1327 106.239C77.6187 110.039 84.0118 111.806 87.2033 110.418L85.1876 107.019Z" fill="url(#paint23_linear_122_20662)"/>
<path d="M76.353 215.003L91.5546 161.911C91.6384 161.617 91.8075 161.354 92.0405 161.156C92.2735 160.958 92.56 160.833 92.8639 160.797C95.6187 160.476 103.6 159.573 112.815 158.794C123.916 157.855 136.806 157.094 144.509 157.742C144.762 157.762 145.006 157.844 145.22 157.98C145.433 158.116 145.611 158.303 145.736 158.523C145.861 158.744 145.93 158.992 145.938 159.245C145.945 159.498 145.89 159.75 145.778 159.977C141.398 168.839 123.381 204.888 114.357 216.697C114.21 216.89 114.021 217.046 113.803 217.153C113.586 217.259 113.346 217.314 113.104 217.312L77.8295 216.984C77.5904 216.982 77.3551 216.924 77.142 216.815C76.9289 216.707 76.7437 216.551 76.6009 216.359C76.458 216.167 76.3613 215.945 76.3183 215.71C76.2753 215.475 76.2872 215.233 76.353 215.003Z" fill="url(#paint24_linear_122_20662)"/>
<path d="M80.0266 202.176C80.0266 202.176 77.9084 193.468 78.7668 190.379C79.6251 187.29 81.2763 183.318 86.7934 184.2C92.3105 185.083 98.8119 187.409 98.8119 187.409C98.8119 187.409 98.4827 191.432 94.29 190.134L96.8936 192.15C96.8936 192.15 96.5216 195.371 92.9807 193.65L95.3987 196.318C95.3987 196.318 93.8777 198.964 91.2716 197.267C88.6654 195.57 87.4157 203.225 80.0266 202.176Z" fill="url(#paint25_linear_122_20662)"/>
<path d="M111.802 174.642C111.802 175.525 112.064 176.388 112.554 177.122C113.045 177.856 113.742 178.428 114.557 178.766C115.373 179.103 116.27 179.192 117.136 179.02C118.002 178.847 118.797 178.422 119.421 177.798C120.045 177.174 120.47 176.379 120.643 175.513C120.815 174.647 120.726 173.75 120.389 172.934C120.051 172.119 119.479 171.422 118.745 170.931C118.011 170.441 117.148 170.179 116.265 170.179C115.082 170.179 113.946 170.649 113.109 171.486C112.272 172.323 111.802 173.459 111.802 174.642Z" fill="#91B3FA"/>
<path d="M93.2761 177.582L96.371 167.084C96.5507 166.457 96.8973 165.891 97.3738 165.446C97.8503 165.001 98.4387 164.694 99.0762 164.557C108.778 162.533 135.331 162.104 135.598 162.1L135.58 160.913C134.488 160.93 108.646 161.349 98.8335 163.397C97.9862 163.577 97.2038 163.984 96.5697 164.575C95.9357 165.165 95.4737 165.916 95.233 166.748L92.1372 177.247L93.2761 177.582Z" fill="#BDD0FB"/>
<path d="M182.511 240.517C182.357 240.491 182.209 240.434 182.077 240.35C181.945 240.266 181.831 240.157 181.741 240.029C179.104 236.226 159.996 206.518 187.513 180.809C213.633 156.399 225.276 151.587 227.276 136.818C227.51 135.094 229.862 134.753 230.582 136.338C235.957 148.18 244.054 175.673 213.824 192.581C180.481 211.232 182.469 232.911 183.854 239.097C183.897 239.286 183.893 239.482 183.842 239.668C183.791 239.854 183.694 240.025 183.561 240.166C183.429 240.306 183.263 240.411 183.08 240.473C182.897 240.534 182.701 240.549 182.511 240.517H182.511Z" fill="#91B3FA"/>
<path d="M186.551 241.199C186.191 241.138 185.86 240.963 185.607 240.698C185.355 240.434 185.194 240.095 185.15 239.732C184.531 234.654 183.219 215.707 197.29 211.144C212.782 206.121 224.691 220.781 236.306 209.977C236.917 209.408 237.897 209.952 237.734 210.77C236.545 216.569 231.65 229.935 211.705 232.018C190.358 234.248 187.888 236.61 188.22 239.648C188.242 239.867 188.213 240.087 188.136 240.293C188.058 240.499 187.934 240.684 187.773 240.834C187.612 240.984 187.419 241.095 187.208 241.158C186.997 241.221 186.775 241.234 186.558 241.197L186.551 241.199Z" fill="#91B3FA"/>
<path opacity="0.47" d="M225.884 151.851C225.564 152.897 225.167 153.919 224.695 154.906C224.232 155.892 223.721 156.857 223.172 157.799C222.623 158.741 222.037 159.663 221.401 160.551C220.765 161.439 220.113 162.315 219.411 163.155C216.625 166.523 213.321 169.454 209.718 171.922C207.912 173.145 206.04 174.269 204.112 175.29C202.235 176.303 200.424 177.434 198.69 178.675C195.211 181.157 192.036 184.039 189.229 187.262C186.42 190.483 184.029 194.045 182.113 197.864C178.228 205.542 176.696 214.195 177.708 222.739C178.187 226.998 179.298 231.179 180.816 235.201C180.837 235.256 180.835 235.318 180.812 235.372C180.788 235.426 180.743 235.468 180.688 235.489C180.634 235.51 180.574 235.508 180.521 235.485C180.467 235.462 180.425 235.42 180.402 235.367C178.737 231.365 177.529 227.153 176.945 222.835C176.644 220.675 176.504 218.496 176.525 216.316C176.553 214.132 176.745 211.954 177.099 209.799C177.814 205.479 179.15 201.286 181.068 197.351C182.976 193.416 185.445 189.765 188.291 186.455C191.149 183.146 194.386 180.183 197.935 177.628C199.708 176.349 201.559 175.182 203.478 174.134L204.893 173.362C205.365 173.11 205.825 172.84 206.283 172.568L206.973 172.162L207.65 171.735L208.322 171.307L208.985 170.861C210.758 169.674 212.455 168.379 214.069 166.983C215.685 165.589 217.204 164.086 218.614 162.484C220.032 160.885 221.332 159.184 222.502 157.396C223.664 155.608 224.712 153.713 225.482 151.735V151.722C225.502 151.674 225.539 151.635 225.586 151.613C225.634 151.592 225.687 151.589 225.737 151.606C225.786 151.623 225.827 151.658 225.851 151.704C225.875 151.75 225.881 151.803 225.867 151.854L225.884 151.851Z" fill="white"/>
<path opacity="0.47" d="M185.91 237.739C185.938 237.567 185.947 237.392 185.939 237.217V236.697C185.939 236.351 185.952 236.004 185.964 235.658C185.99 234.966 186.031 234.275 186.086 233.585C186.198 232.204 186.365 230.826 186.6 229.46C187.075 226.731 187.797 224.023 188.991 221.499C189.582 220.23 190.322 219.037 191.196 217.944C192.077 216.843 193.139 215.899 194.337 215.154C195.546 214.419 196.883 213.92 198.278 213.682C198.972 213.56 199.674 213.496 200.378 213.491C201.08 213.483 201.781 213.522 202.478 213.608C203.177 213.692 203.852 213.817 204.536 213.932L206.579 214.293C207.94 214.541 209.298 214.801 210.653 215.073C213.365 215.61 216.066 216.2 218.776 216.699C220.131 216.945 221.49 217.166 222.855 217.303C224.22 217.44 225.592 217.485 226.941 217.329C228.293 217.192 229.605 216.792 230.805 216.153C232.001 215.513 233.057 214.628 233.996 213.633C234.03 213.598 234.076 213.578 234.124 213.576C234.173 213.575 234.22 213.593 234.255 213.627C234.29 213.66 234.31 213.706 234.312 213.755C234.313 213.803 234.295 213.85 234.262 213.885C233.315 214.908 232.238 215.834 231.002 216.515C229.762 217.193 228.402 217.624 226.997 217.784C225.601 217.952 224.196 217.902 222.812 217.771C221.427 217.64 220.056 217.416 218.696 217.173C215.971 216.679 213.27 216.097 210.56 215.568C207.851 215.039 205.131 214.528 202.419 214.125C201.745 214.036 201.066 213.993 200.387 213.997C199.709 213.996 199.033 214.052 198.365 214.165C197.027 214.382 195.742 214.851 194.579 215.547C193.42 216.257 192.391 217.16 191.535 218.216C190.674 219.277 189.943 220.436 189.356 221.67C188.159 224.136 187.417 226.81 186.921 229.513C186.675 230.867 186.494 232.234 186.37 233.605C186.309 234.292 186.262 234.979 186.229 235.667C186.213 236.011 186.201 236.355 186.193 236.699L186.185 237.215C186.175 237.387 186.188 237.56 186.222 237.728C186.228 237.749 186.23 237.77 186.227 237.791C186.225 237.812 186.218 237.833 186.208 237.851C186.198 237.87 186.183 237.886 186.167 237.899C186.15 237.912 186.13 237.921 186.11 237.927C186.089 237.932 186.068 237.933 186.047 237.93C186.026 237.926 186.005 237.919 185.987 237.908C185.969 237.897 185.954 237.882 185.941 237.864C185.929 237.847 185.921 237.827 185.916 237.807C185.91 237.785 185.908 237.762 185.91 237.739Z" fill="white"/>
<defs>
<linearGradient id="paint0_linear_122_20662" x1="7.72728" y1="271.239" x2="178.882" y2="86.5005" gradientUnits="userSpaceOnUse">
<stop stop-color="#DAE3FE"/>
<stop offset="1" stop-color="#E9EFFD"/>
</linearGradient>
<linearGradient id="paint1_linear_122_20662" x1="172.735" y1="133.258" x2="183.665" y2="133.258" gradientUnits="userSpaceOnUse">
<stop stop-color="#FE7062"/>
<stop offset="1" stop-color="#FF928E"/>
</linearGradient>
<linearGradient id="paint2_linear_122_20662" x1="166.697" y1="-0.921082" x2="190.848" y2="39.5034" gradientUnits="userSpaceOnUse">
<stop stop-color="#E1473D"/>
<stop offset="1" stop-color="#E9605A"/>
</linearGradient>
<linearGradient id="paint3_linear_122_20662" x1="166.95" y1="2.94802" x2="185.726" y2="34.3776" gradientUnits="userSpaceOnUse">
<stop stop-color="#FE7062"/>
<stop offset="1" stop-color="#FF928E"/>
</linearGradient>
<linearGradient id="paint4_linear_122_20662" x1="162.885" y1="1.19879" x2="153.005" y2="73.3997" gradientUnits="userSpaceOnUse">
<stop stop-color="#E1473D"/>
<stop offset="1" stop-color="#E9605A"/>
</linearGradient>
<linearGradient id="paint5_linear_122_20662" x1="158.336" y1="23.1472" x2="153.767" y2="84.5279" gradientUnits="userSpaceOnUse">
<stop stop-color="#FE7062"/>
<stop offset="1" stop-color="#FF928E"/>
</linearGradient>
<linearGradient id="paint6_linear_122_20662" x1="193.63" y1="-66.5964" x2="194.193" y2="-3.01255" gradientUnits="userSpaceOnUse">
<stop stop-color="#4F52FF"/>
<stop offset="1" stop-color="#4042E2"/>
</linearGradient>
<linearGradient id="paint7_linear_122_20662" x1="251.717" y1="27.1455" x2="355.812" y2="-53.3181" gradientUnits="userSpaceOnUse">
<stop stop-color="#4F52FF"/>
<stop offset="1" stop-color="#4042E2"/>
</linearGradient>
<linearGradient id="paint8_linear_122_20662" x1="180.309" y1="34.6172" x2="170.6" y2="79.3688" gradientUnits="userSpaceOnUse">
<stop stop-color="#E1473D"/>
<stop offset="1" stop-color="#E9605A"/>
</linearGradient>
<linearGradient id="paint9_linear_122_20662" x1="178.24" y1="36.2098" x2="178.457" y2="46.0572" gradientUnits="userSpaceOnUse">
<stop stop-color="#E1473D"/>
<stop offset="1" stop-color="#E9605A"/>
</linearGradient>
<linearGradient id="paint10_linear_122_20662" x1="179.679" y1="68.8808" x2="170.327" y2="111.985" gradientUnits="userSpaceOnUse">
<stop stop-color="#E1473D"/>
<stop offset="1" stop-color="#E9605A"/>
</linearGradient>
<linearGradient id="paint11_linear_122_20662" x1="177.709" y1="70.4081" x2="177.917" y2="79.8936" gradientUnits="userSpaceOnUse">
<stop stop-color="#E1473D"/>
<stop offset="1" stop-color="#E9605A"/>
</linearGradient>
<linearGradient id="paint12_linear_122_20662" x1="179.968" y1="98.9172" x2="170.253" y2="143.695" gradientUnits="userSpaceOnUse">
<stop stop-color="#E1473D"/>
<stop offset="1" stop-color="#E9605A"/>
</linearGradient>
<linearGradient id="paint13_linear_122_20662" x1="177.896" y1="100.507" x2="178.112" y2="110.361" gradientUnits="userSpaceOnUse">
<stop stop-color="#E1473D"/>
<stop offset="1" stop-color="#E9605A"/>
</linearGradient>
<linearGradient id="paint14_linear_122_20662" x1="79.5887" y1="130.508" x2="140.24" y2="364.014" gradientUnits="userSpaceOnUse">
<stop stop-color="#4F52FF"/>
<stop offset="1" stop-color="#4042E2"/>
</linearGradient>
<linearGradient id="paint15_linear_122_20662" x1="133.578" y1="122.916" x2="184.769" y2="123.398" gradientUnits="userSpaceOnUse">
<stop stop-color="#FEBBBA"/>
<stop offset="1" stop-color="#FF928E"/>
</linearGradient>
<linearGradient id="paint16_linear_122_20662" x1="173.412" y1="115.406" x2="138.279" y2="193.22" gradientUnits="userSpaceOnUse">
<stop stop-color="#FEBBBA"/>
<stop offset="1" stop-color="#FF928E"/>
</linearGradient>
<linearGradient id="paint17_linear_122_20662" x1="184.846" y1="89.2767" x2="199.386" y2="67.3746" gradientUnits="userSpaceOnUse">
<stop stop-color="#FEBBBA"/>
<stop offset="1" stop-color="#FF928E"/>
</linearGradient>
<linearGradient id="paint18_linear_122_20662" x1="33.4112" y1="142.559" x2="92.7269" y2="370.925" gradientUnits="userSpaceOnUse">
<stop stop-color="#4F52FF"/>
<stop offset="1" stop-color="#4042E2"/>
</linearGradient>
<linearGradient id="paint19_linear_122_20662" x1="20.8731" y1="194.852" x2="85.6543" y2="195.463" gradientUnits="userSpaceOnUse">
<stop stop-color="#FEBBBA"/>
<stop offset="1" stop-color="#FF928E"/>
</linearGradient>
<linearGradient id="paint20_linear_122_20662" x1="71.2715" y1="126.067" x2="96.8847" y2="126.309" gradientUnits="userSpaceOnUse">
<stop stop-color="#FEBBBA"/>
<stop offset="1" stop-color="#FF928E"/>
</linearGradient>
<linearGradient id="paint21_linear_122_20662" x1="103.103" y1="108.486" x2="75.0879" y2="91.126" gradientUnits="userSpaceOnUse">
<stop stop-color="#FEBBBA"/>
<stop offset="1" stop-color="#FF928E"/>
</linearGradient>
<linearGradient id="paint22_linear_122_20662" x1="60.3225" y1="72.9299" x2="96.4681" y2="101.897" gradientUnits="userSpaceOnUse">
<stop stop-color="#09005D"/>
<stop offset="1" stop-color="#1A0F91"/>
</linearGradient>
<linearGradient id="paint23_linear_122_20662" x1="95.6671" y1="114.833" x2="70.4618" y2="99.2141" gradientUnits="userSpaceOnUse">
<stop stop-color="#FEBBBA"/>
<stop offset="1" stop-color="#FF928E"/>
</linearGradient>
<linearGradient id="paint24_linear_122_20662" x1="103.055" y1="153.77" x2="138.802" y2="302.719" gradientUnits="userSpaceOnUse">
<stop stop-color="#09005D"/>
<stop offset="1" stop-color="#1A0F91"/>
</linearGradient>
<linearGradient id="paint25_linear_122_20662" x1="78.5593" y1="193.175" x2="98.8136" y2="193.175" gradientUnits="userSpaceOnUse">
<stop stop-color="#FEBBBA"/>
<stop offset="1" stop-color="#FF928E"/>
</linearGradient>
</defs>
</svg>
