<svg width="24" height="24" viewBox="0 0 24 24" fill="none" xmlns="http://www.w3.org/2000/svg">
<path fill-rule="evenodd" clip-rule="evenodd" d="M16.3498 14.7388L23.662 22.0396C23.8783 22.2542 24 22.5462 24 22.8508C24 23.1555 23.8783 23.4475 23.662 23.662C23.4475 23.8783 23.1555 24 22.8508 24C22.5462 24 22.2542 23.8783 22.0396 23.662L14.7388 16.3498C13.142 17.6031 11.1702 18.2832 9.14033 18.2807C4.09227 18.2807 0 14.1884 0 9.14033C0 4.09227 4.09227 0 9.14033 0C14.1884 0 18.2807 4.09227 18.2807 9.14033C18.2832 11.1702 17.6031 13.142 16.3498 14.7388ZM9.14033 2.28508C5.35428 2.28508 2.28508 5.35428 2.28508 9.14033C2.28508 10.9585 3.00733 12.7021 4.29294 13.9877C5.57855 15.2733 7.32221 15.9956 9.14033 15.9956C12.9264 15.9956 15.9956 12.9264 15.9956 9.14033C15.9956 5.35428 12.9264 2.28508 9.14033 2.28508Z" fill="#FF9595"/>
</svg>
