<svg width="276" height="250" viewBox="0 0 276 250" fill="none" xmlns="http://www.w3.org/2000/svg">
<path d="M117.708 18.3157C117.708 18.3157 38.4023 21.7626 33.903 91.5095C29.4037 161.257 8.5923 227.624 59.2129 231.581C109.833 235.538 228.51 243.237 245.383 201.685C262.257 160.134 270.696 3.68384 117.708 18.3157Z" fill="#F4F7FA"/>
<path d="M95.9982 98.7253C95.0241 97.4106 94.0628 93.6926 94.2116 92.6202C95.2041 85.4818 96.1925 71.9975 101.982 67.0448C102.97 66.1987 107.865 69.5439 109.288 69.3032C112.926 70.678 114.103 71.3825 118.204 70.9891C130.312 69.8318 131.227 44.9978 149.679 55.0984C163.194 62.4959 168.16 74.9549 183.507 57.9822C198.855 41.0095 241.368 25.1972 246.616 53.6029C249.629 69.9054 225.907 73.2539 220.532 88.3112C215.423 102.62 203.354 106.235 187.447 101.488C171.541 96.7404 172.375 106.655 165.975 118.649C158.288 133.056 139.735 117.756 131.771 109.962C125.356 103.686 104.793 92.03 95.9982 98.7253Z" fill="url(#paint0_linear_122_20817)"/>
<mask id="mask0_122_20817" style="mask-type:luminance" maskUnits="userSpaceOnUse" x="84" y="37" width="163" height="88">
<path d="M100.848 63.0349C95.5527 72.9564 89.7555 82.8347 84.3733 92.7977C88.4359 97.7649 93.3367 103.509 99.9832 99.0732C109.224 92.9065 125.427 103.656 131.801 109.962C139.689 117.766 158.309 133.051 165.979 118.648C172.365 106.659 171.546 96.7356 187.451 101.488C203.355 106.241 215.422 102.619 220.534 88.3112C225.913 73.2547 249.625 69.9094 246.619 53.6029C241.38 25.1892 198.832 41.0223 183.52 57.979C168.208 74.9357 163.111 62.5375 149.71 55.0872C131.414 44.9162 129.925 70.011 118.401 70.8867C109.36 71.5737 107.122 67.4103 100.848 63.0349Z" fill="white"/>
</mask>
<g mask="url(#mask0_122_20817)">
<path d="M97.7656 80.4328L97.8848 80.1057C148.21 98.5219 204.009 85.084 247.145 44.1602L247.385 44.4129C226.941 63.808 202.715 77.5217 177.324 84.0795C150.629 90.9716 123.119 89.7105 97.7656 80.4328Z" fill="#FCFDFE"/>
<path d="M163.465 125.004C157.096 111.803 141.028 94.9344 127.646 87.4081L127.817 87.105C141.253 94.6632 157.383 111.598 163.778 124.852L163.465 125.004Z" fill="#FCFDFE"/>
<path d="M107.686 83.9347L107.71 83.5876C115.672 84.1474 123.609 80.6574 131.302 73.2199C136.943 67.7657 142.324 60.3554 147.297 51.1929L147.602 51.3584C142.614 60.5553 137.211 67.9928 131.544 73.4694C123.777 80.9789 115.751 84.5001 107.686 83.9347Z" fill="#FCFDFE"/>
<path d="M180.891 83.0095L180.897 82.6616C195.959 82.9415 208.82 92.1888 216.957 99.8974L216.717 100.15C208.626 92.4839 195.841 83.287 180.891 83.0095Z" fill="#FCFDFE"/>
<path d="M212.796 69.9203L212.573 69.6532C225.616 58.7961 229.607 41.4347 230.821 32.0522L231.167 32.097C229.941 41.5307 225.928 58.9872 212.796 69.9203Z" fill="#FCFDFE"/>
</g>
<mask id="mask1_122_20817" style="mask-type:luminance" maskUnits="userSpaceOnUse" x="46" y="16" width="159" height="180">
<path d="M70.8745 195.713C62.6885 190.544 54.6032 185.179 46.6187 179.617C46.4195 179.683 51.9857 159.378 65.4515 153.404C91.9003 141.991 87.5513 119.298 88.6741 107.492C89.6042 90.5544 100.234 74.1783 114.745 84.5596C129.045 94.2995 145.605 63.3115 153.858 37.4434C156.886 24.4166 174.679 14.8678 187.464 16.5472C200.645 17.9748 208.817 30.6345 201.737 56.1403C194.794 86.2302 167.155 93.9796 153.504 104.557C140.086 114.934 152.336 133.574 133.18 139.546C116.81 145.144 98.7572 146.378 98.1286 162.242C97.7143 178.018 91.5644 188.34 70.8745 195.713Z" fill="white"/>
</mask>
<g mask="url(#mask1_122_20817)">
<path d="M70.874 195.713C62.688 190.544 54.6027 185.179 46.6182 179.617C46.4191 179.683 51.9852 159.378 65.4511 153.404C91.8998 141.991 87.5508 119.298 88.6737 107.492C89.6541 90.5896 99.47 76.1672 114.323 82.4723C130.935 89.1453 145.902 63.3859 153.854 37.4474C156.886 24.4166 174.678 14.8678 187.464 16.5472C200.644 17.9748 208.816 30.6345 201.736 56.1403C194.794 86.2302 167.154 93.9796 153.503 104.557C140.085 114.934 152.335 133.574 133.18 139.546C116.81 145.144 98.7567 146.378 98.1281 162.242C97.7138 178.018 91.5639 188.34 70.874 195.713Z" fill="url(#paint1_linear_122_20817)"/>
<path d="M58.2239 191.452C58.2959 191.282 84.4143 154.938 116.134 122.345C120.921 116.921 125.908 111.515 130.729 106.288C157.583 77.1781 182.947 49.6825 187.036 8.41797L187.609 8.47475C183.502 49.9312 158.074 77.4964 131.153 106.682C126.333 111.906 121.349 117.309 116.556 122.74C84.6654 155.509 58.8797 191.466 58.7445 191.701L58.2239 191.452Z" fill="#BEB8F2"/>
<path d="M155.423 79.2277L155.188 78.7014C169.754 72.1836 188.361 61.9919 198.359 56.5169C206.449 52.0864 206.47 52.0984 206.72 52.2607L206.56 52.5006L206.582 52.783C206.21 52.8693 202.865 54.7023 198.631 57.0215C188.631 62.5021 170.01 72.7003 155.423 79.2277Z" fill="#BEB8F2"/>
<path d="M164.839 65.5501C168.312 52.2914 166.838 41.8925 164.993 35.5042C162.982 28.5465 160.001 24.4335 159.545 24.1256L159.671 23.9401L159.608 23.5826C159.779 23.553 159.912 23.657 160.099 23.8601C162.771 26.7655 171.504 42.3819 165.397 65.6965L164.839 65.5501Z" fill="#BEB8F2"/>
<path d="M96.7544 144.303L96.2585 144.009C110.174 120.573 103.599 90.0397 100.128 77.9997C99.9421 77.3536 99.8821 77.144 99.8717 77.0401L100.444 76.9777L100.158 77.0089L100.444 76.9761C100.455 77.0473 100.56 77.4135 100.684 77.8366C103.188 86.5201 104.708 95.154 105.202 103.501C106.146 119.537 103.304 133.264 96.7544 144.303Z" fill="#BEB8F2"/>
<path d="M106.066 133.905L105.741 133.426C123.73 121.136 146.346 129.696 146.687 129.895L146.774 130.229L146.479 130.407L146.506 130.123L146.372 130.375C146.168 130.282 123.876 121.739 106.066 133.905Z" fill="#BEB8F2"/>
<path d="M62.5857 185.557C64.9953 180.618 66.993 171.26 62.8256 154.726C62.5857 153.788 62.5857 153.788 62.6657 153.661L63.1543 153.967L62.9096 153.814H63.1959C63.2031 153.882 63.2855 154.21 63.3814 154.589C67.592 171.292 65.5535 180.789 63.1015 185.814L62.5857 185.557Z" fill="#BEB8F2"/>
<path d="M69.5185 177.33L69.0779 176.959C75.6437 169.153 91.0449 168.142 99.6412 168.234C99.9139 168.234 100.089 168.239 100.154 168.234L100.187 168.809C100.117 168.813 99.9283 168.809 99.6348 168.809C91.1401 168.719 75.9324 169.705 69.5185 177.33Z" fill="#BEB8F2"/>
</g>
<path d="M35.9288 209.536C31.5126 209.795 27.9019 206.707 27.9019 202.653V56.5423C27.9019 52.4884 31.5126 49.3207 35.9288 49.4814L244.4 57.0461C247.777 57.1685 250.513 60.1339 250.513 63.6559V190.611C250.513 194.134 247.777 197.159 244.4 197.357L35.9288 209.536Z" fill="url(#paint2_linear_122_20817)"/>
<path d="M171.843 225.709C168.511 224.55 166.021 221.583 165.318 217.936L160.468 192.752L118.982 194.298L113.877 220.53C113.162 224.203 116.024 227.887 119.321 229.247L136.675 236.371C139.884 237.694 143.365 238.223 146.823 237.915L183.504 234.622C184.576 234.526 185.436 233.642 185.561 232.507C185.686 231.372 186.441 230.099 185.414 229.743L171.843 225.709Z" fill="url(#paint3_linear_122_20817)"/>
<path d="M172.253 224.177C168.925 223.032 166.437 220.102 165.735 216.499L160.893 191.635L120.418 193.162L115.317 219.068C114.603 222.696 116.494 226.334 119.787 227.671L137.126 234.708C140.335 236.014 143.809 236.537 147.261 236.233L183.905 232.982C184.976 232.887 185.836 232.014 185.96 230.894C186.084 229.773 185.44 228.716 184.419 228.365L172.253 224.177Z" fill="url(#paint4_linear_122_20817)"/>
<path d="M37.5792 209.536C33.1622 209.795 29.5522 206.707 29.5522 202.653V56.5423C29.5522 52.4884 33.1622 49.3207 37.5792 49.4814L246.05 57.0461C249.427 57.1685 252.164 60.1339 252.164 63.6559V190.611C252.164 194.134 249.427 197.159 246.05 197.357L37.5792 209.536Z" fill="url(#paint5_linear_122_20817)"/>
<path d="M246.05 60.0284L37.5793 52.8836C35.2177 52.8036 33.2983 54.4927 33.2983 56.6583V202.449C33.2983 204.615 35.2177 206.262 37.5793 206.128L246.05 194.372C247.86 194.27 249.324 192.656 249.324 190.766V63.5616C249.324 61.6726 247.86 60.0908 246.05 60.0284Z" fill="url(#paint6_linear_122_20817)"/>
<path d="M37.5794 193.707C36.6597 193.752 35.9111 193.103 35.9111 192.261V56.7417C35.9111 55.8996 36.6597 55.2382 37.5794 55.2686L246.05 62.1191C246.756 62.1423 247.33 62.7589 247.33 63.4978V182.08C247.33 182.817 246.756 183.446 246.05 183.48L37.5794 193.707Z" fill="white"/>
<path d="M238.95 176.173L46.7234 184.615V75.522L238.95 79.5574V176.173Z" fill="url(#paint7_linear_122_20817)"/>
<path d="M238.95 76.2571L46.7234 71.7962V62.4785L238.95 68.0055V76.2571Z" fill="url(#paint8_linear_122_20817)"/>
<path d="M224.351 71.7518C224.353 71.889 224.328 72.0253 224.277 72.1525C224.226 72.2798 224.149 72.3954 224.052 72.4925C223.955 72.5895 223.839 72.666 223.712 72.7174C223.585 72.7687 223.449 72.7939 223.311 72.7914C223.03 72.7792 222.764 72.6582 222.57 72.454C222.376 72.2498 222.269 71.9782 222.272 71.6966C222.269 71.5593 222.294 71.423 222.345 71.2957C222.397 71.1683 222.473 71.0527 222.57 70.9556C222.667 70.8586 222.783 70.7821 222.91 70.7308C223.038 70.6794 223.174 70.6543 223.311 70.6569C223.593 70.6691 223.858 70.7901 224.052 70.9943C224.246 71.1986 224.353 71.4701 224.351 71.7518Z" fill="white"/>
<path d="M228.605 71.8624C228.608 71.9991 228.583 72.1349 228.533 72.2619C228.482 72.3889 228.407 72.5044 228.31 72.6014C228.214 72.6985 228.099 72.7751 227.973 72.8268C227.846 72.8784 227.711 72.9041 227.574 72.9021C227.294 72.8891 227.031 72.7681 226.838 72.5647C226.646 72.3613 226.54 72.0912 226.542 71.8113C226.539 71.6745 226.564 71.5386 226.614 71.4116C226.665 71.2845 226.741 71.169 226.837 71.072C226.933 70.9749 227.048 70.8983 227.175 70.8467C227.301 70.7951 227.437 70.7695 227.574 70.7716C227.853 70.7848 228.117 70.9058 228.309 71.1092C228.501 71.3126 228.607 71.5826 228.605 71.8624Z" fill="white"/>
<path d="M232.836 71.9684C232.839 72.1044 232.814 72.2395 232.764 72.3659C232.714 72.4922 232.638 72.6071 232.543 72.7037C232.447 72.8003 232.333 72.8766 232.207 72.9281C232.081 72.9796 231.946 73.0051 231.81 73.0033C231.532 72.99 231.269 72.8692 231.078 72.6662C230.886 72.4632 230.781 72.1938 230.784 71.9148C230.781 71.7788 230.806 71.6437 230.856 71.5173C230.906 71.391 230.982 71.2761 231.077 71.1795C231.173 71.0829 231.287 71.0066 231.413 70.9551C231.539 70.9037 231.674 70.8781 231.81 70.88C232.089 70.8938 232.351 71.0149 232.542 71.2178C232.733 71.4207 232.838 71.6897 232.836 71.9684Z" fill="white"/>
<g opacity="0.68">
<path d="M200.045 158.762L50.9165 163.445V78.3564L200.045 81.2427V158.762Z" fill="white"/>
</g>
<path opacity="0.68" d="M236.897 103.778L202.653 103.616V81.2925L236.897 81.9547V103.778Z" fill="white"/>
<path d="M236.897 107.776L202.653 107.706V106.035L236.897 106.141V107.776Z" fill="white"/>
<path d="M224.156 110.597L202.653 110.593V108.922L224.156 108.948V110.597Z" fill="white"/>
<path opacity="0.68" d="M236.897 135.791L202.653 136.366V114.041L236.897 113.968V135.791Z" fill="white"/>
<path d="M236.897 139.789L202.653 140.455V138.783L236.897 138.155V139.789Z" fill="white"/>
<path d="M224.156 142.884L202.653 143.343V141.671L224.156 141.235V142.884Z" fill="white"/>
<path opacity="0.68" d="M236.897 167.805L202.653 169.114V146.79L236.897 145.981V167.805Z" fill="white"/>
<path d="M236.897 171.803L202.653 173.204V171.532L236.897 170.168V171.803Z" fill="white"/>
<path d="M224.156 175.17L202.653 176.091V174.419L224.156 173.522V175.17Z" fill="white"/>
<path d="M154.118 169.2L50.9165 173.031V167.438L154.118 163.951V169.2Z" fill="white"/>
<path d="M200.045 167.496L185.321 168.042V162.896L200.045 162.399V167.496Z" fill="white"/>
<path d="M183.046 168.127L167.991 168.685V163.482L183.046 162.974V168.127Z" fill="white"/>
<path d="M98.131 177.847L50.9165 179.791V176.994L98.131 175.13V177.847Z" fill="white"/>
<path d="M42.6032 223.861L41.6299 222.841C40.0776 221.215 40.2016 218.655 41.9074 217.129L108.776 157.281L114.88 164.223L48.4708 224.031C46.777 225.556 44.1507 225.482 42.6032 223.861Z" fill="url(#paint9_linear_122_20817)"/>
<path d="M176.051 99.5933C159.186 78.833 129.277 75.4806 109.286 92.8283C88.926 110.495 87.2842 142.195 105.557 162.885C123.401 183.087 153.174 184.638 172.129 167.059C190.757 149.783 192.534 119.881 176.051 99.5933ZM111.372 157.663C96.154 140.315 97.5431 113.819 114.517 99.0079C131.232 84.4208 156.343 87.1135 170.571 104.513C184.527 121.579 183.042 146.804 167.293 161.34C151.303 176.094 126.29 174.668 111.372 157.663Z" fill="url(#paint10_linear_122_20817)"/>
<path style="mix-blend-mode:multiply" opacity="0.3" d="M108.776 157.281L100.25 164.912C101.038 168.395 100.555 170.823 99.7345 172.547C96.6475 179.031 87.8472 177.604 80.7656 186.813C77.2116 191.434 78.8247 192.578 75.2219 196.324C69.2655 202.516 64.1264 200.15 58.8882 205.701C53.59 211.316 55.5533 217.228 51.7706 218.737C50.1527 219.383 47.5888 219.178 43.3054 215.876L41.9067 217.128C40.2009 218.654 40.0769 221.214 41.6292 222.84L42.6024 223.86C44.1499 225.481 46.7762 225.555 48.4701 224.03L114.879 164.222L108.776 157.281Z" fill="url(#paint11_linear_122_20817)"/>
<path d="M178.496 100.911C161.63 80.1504 131.722 76.7988 111.73 94.1465C91.3708 111.813 89.729 143.513 108.001 164.203C125.845 184.405 155.618 185.956 174.573 168.377C193.202 151.098 194.978 121.199 178.496 100.911ZM113.816 158.98C98.598 141.632 99.9879 115.137 116.961 100.326C133.676 85.7389 158.787 88.4308 173.015 105.831C186.972 122.896 185.486 148.121 169.737 162.657C153.747 177.408 128.734 175.985 113.816 158.98Z" fill="url(#paint12_linear_122_20817)"/>
<path d="M176.561 102.648C160.625 83.0773 132.416 79.9639 113.584 96.3368C94.4284 112.992 92.8713 142.846 110.066 162.351C126.871 181.424 154.962 182.936 172.87 166.357C190.483 150.048 192.155 121.797 176.561 102.648ZM113.816 158.98C98.5982 141.632 99.9881 115.137 116.962 100.326C133.676 85.7388 158.788 88.4307 173.016 105.83C186.972 122.896 185.487 148.121 169.737 162.657C153.748 177.408 128.734 175.985 113.816 158.98Z" fill="url(#paint13_linear_122_20817)"/>
<path d="M117.436 67.1776C120.097 68.5283 123.44 67.2871 124.902 64.4057C126.364 61.5243 125.392 58.0934 122.732 56.7427C122.593 56.6723 122.452 56.6139 122.312 56.5579C122.802 54.9843 123.176 53.3768 123.431 51.7484C123.583 51.7484 123.737 51.7484 123.892 51.7316C126.931 51.4604 129.337 48.6702 129.273 45.4993C129.209 42.3283 126.696 39.9811 123.66 40.249C123.5 40.2634 123.345 40.2882 123.191 40.3162C122.876 38.7543 122.441 37.219 121.889 35.7241C122.029 35.6442 122.169 35.5578 122.304 35.4634C124.901 33.6432 125.731 30.0508 124.157 27.4405C122.584 24.8302 119.203 24.1896 116.606 26.0098C116.473 26.1034 116.347 26.2041 116.224 26.3065C115.191 25.166 114.064 24.1143 112.855 23.1628C112.94 23.022 113.024 22.8797 113.1 22.7309C114.562 19.8519 116.474 16.7017 113.791 15.3926C107.587 12.3656 104.925 14.9583 103.463 17.8397C103.387 17.9893 103.321 18.1404 103.259 18.2924C101.777 17.8784 100.263 17.5898 98.7324 17.4295C98.742 17.2695 98.7492 17.1096 98.746 16.9496C98.682 13.7787 99.6257 12.0625 96.5747 12.0041C89.9298 11.8761 87.6881 14.7608 87.7521 17.9317C87.7521 18.0973 87.7697 18.2596 87.7857 18.4203C86.2539 18.8579 84.7582 19.4132 83.312 20.0814C83.2424 19.9398 83.1704 19.7991 83.0889 19.6631C81.515 17.0528 78.1345 16.4122 75.537 18.2324C72.9395 20.0526 72.1101 23.6442 73.684 26.2545C73.764 26.3881 73.8528 26.5136 73.9423 26.6368C72.7783 27.8032 71.7014 29.0533 70.7202 30.3771C70.5915 30.2972 70.4611 30.2172 70.3203 30.1476C67.6596 28.7969 64.3168 30.038 62.8541 32.9195C61.3913 35.8009 62.3662 39.2286 65.0237 40.5793C65.1621 40.6489 65.3028 40.7081 65.4436 40.764C64.9537 42.3376 64.5795 43.9448 64.324 45.5728C64.172 45.5728 64.0185 45.5728 63.8633 45.5896C60.8243 45.8607 58.4179 48.651 58.4827 51.8219C58.5475 54.9929 61.0595 57.3401 64.0952 57.0722C64.2552 57.0586 64.4103 57.033 64.5647 57.0058C64.8795 58.5675 65.3145 60.1024 65.8658 61.5971C65.7259 61.677 65.5867 61.7634 65.4516 61.8586C62.8541 63.6787 62.0247 67.2703 63.5978 69.8807C65.1709 72.491 70.3795 73.7034 72.9763 71.88C73.1098 71.7864 71.408 71.1147 71.5319 71.0123C72.5646 72.1528 73.6914 73.2044 74.9004 74.156C74.8148 74.2968 74.7309 74.4383 74.6557 74.5879C73.193 77.4669 74.1647 80.9002 76.8262 82.2509C79.4877 83.6017 82.8305 82.3605 84.2925 79.4782C84.3724 79.3295 84.434 79.1775 84.4964 79.0256C85.9783 79.4398 87.4925 79.7287 89.0229 79.8893C89.0133 80.0493 89.0061 80.2092 89.0093 80.3691C89.0733 83.5401 91.5868 85.8873 94.6226 85.6194C97.6584 85.3515 100.067 82.558 100.003 79.3871C100.003 79.2215 99.9864 79.0592 99.9696 78.8984C101.501 78.4609 102.997 77.9056 104.443 77.2374C104.513 77.3789 104.585 77.5189 104.667 77.6557C106.24 80.266 109.626 80.9066 112.218 79.0864C114.811 77.2662 115.645 73.6746 114.072 71.0635C113.992 70.9299 113.903 70.8052 113.813 70.682C114.977 69.5156 116.054 68.2655 117.035 66.9417C117.167 67.0288 117.298 67.108 117.436 67.1776ZM84.2637 67.6046C74.6013 62.7015 71.0729 50.2449 76.3823 39.782C81.6917 29.3191 93.8293 24.8134 103.493 29.7174C113.157 34.6213 116.684 47.0771 111.375 57.5392C106.065 68.0013 93.926 72.5086 84.2637 67.6046Z" fill="#26264F"/>
<path d="M123.889 51.7358C126.928 51.4647 129.334 48.6744 129.27 45.5035C129.206 42.3326 126.693 39.9854 123.657 40.2533C123.497 40.2677 123.342 40.2933 123.187 40.3204C122.872 38.7585 122.437 37.2233 121.886 35.7284C122.026 35.6484 122.165 35.562 122.3 35.4669C124.898 33.6475 128.111 29.2498 126.278 26.8146C122.799 22.1929 119.2 24.1939 116.601 26.0148C116.468 26.1084 116.342 26.2092 116.219 26.3115C115.186 25.171 114.059 24.1194 112.85 23.1678C112.936 23.0271 113.02 22.8847 113.095 22.7359C113.473 22.0062 113.698 21.2071 113.756 20.3874C113.814 19.5677 113.705 18.7447 113.435 17.9688C110.929 22.3849 108.458 26.8212 106.023 31.2779C113.731 36.9248 116.187 48.0546 111.371 57.5451C107.293 65.5864 99.1754 70.1008 91.2509 69.541C90.8982 70.4583 90.5511 71.3804 90.1728 72.2881C89.146 74.7521 87.9792 77.1665 86.814 79.5753C87.5492 79.7139 88.2868 79.8221 89.0268 79.9C89.0172 80.0599 89.01 80.2198 89.0132 80.3798C89.0772 83.5507 91.003 86.2442 96.5051 85.9515C99.5489 85.7916 100.071 82.5686 100.007 79.3937C100.007 79.2282 99.9903 79.0658 99.9735 78.9051C101.505 78.4672 103.001 77.9119 104.447 77.244C104.517 77.3856 104.589 77.5255 104.671 77.6623C106.244 80.2726 111.702 81.3811 114.298 79.5609C116.895 77.7407 115.649 73.6812 114.076 71.0709C113.996 70.9366 113.906 70.8118 113.817 70.6886C114.981 69.5223 116.058 68.2721 117.039 66.9483C117.168 67.0283 117.299 67.1082 117.439 67.1778C120.1 68.5286 123.443 67.2874 124.905 64.406C126.367 61.5245 125.396 58.0929 122.735 56.7429C122.596 56.6725 122.456 56.6142 122.315 56.5582C122.805 54.9848 123.179 53.3775 123.434 51.7494C123.58 51.7486 123.734 51.7462 123.889 51.7358Z" fill="#26264F"/>
<path d="M120.298 67.5019C122.959 68.8527 126.302 67.6115 127.764 64.7301C129.227 61.8486 128.255 58.4178 125.594 57.067C125.455 56.9975 125.315 56.9383 125.174 56.8823C125.664 55.3089 126.038 53.7017 126.294 52.0735C126.446 52.0735 126.6 52.0735 126.755 52.0567C129.794 51.7856 132.2 48.9953 132.136 45.8244C132.071 42.6535 129.559 40.3063 126.523 40.5742C126.363 40.5878 126.208 40.6134 126.053 40.6406C125.736 39.0786 125.299 37.5436 124.745 36.0493C124.885 35.9693 125.024 35.883 125.16 35.7878C127.757 33.9676 128.586 30.376 127.013 27.7657C125.44 25.1554 122.055 24.514 119.462 26.3342C119.329 26.4277 119.203 26.5285 119.079 26.6309C118.047 25.4903 116.92 24.4387 115.711 23.4871C115.796 23.3472 115.88 23.2048 115.955 23.0553C117.418 20.1762 116.447 16.743 113.785 15.3922C111.123 14.0415 107.781 15.2827 106.319 18.1649C106.239 18.3136 106.177 18.4656 106.115 18.6175C104.633 18.2033 103.119 17.9144 101.588 17.7538C101.598 17.5939 101.605 17.4339 101.602 17.274C101.538 14.1031 99.0244 11.7559 95.9886 12.0238C92.9528 12.2917 90.544 15.0851 90.608 18.2561C90.608 18.4216 90.6248 18.584 90.6416 18.7447C89.1099 19.1826 87.6142 19.7379 86.1679 20.4057C86.0983 20.2642 86.0263 20.1242 85.9448 19.9875C84.3709 17.3772 80.9864 16.7366 78.3929 18.5568C75.7994 20.377 74.966 23.9686 76.5391 26.5789C76.6191 26.7132 76.7087 26.838 76.7982 26.9611C75.6353 28.1279 74.5595 29.3783 73.5793 30.7023C73.4506 30.6223 73.3194 30.5423 73.1794 30.4728C70.5179 29.122 67.1751 30.3632 65.7132 33.2446C64.2512 36.1261 65.2221 39.5569 67.8836 40.9077C68.022 40.978 68.1619 41.0364 68.3035 41.0932C67.8131 42.6666 67.4389 44.2738 67.1839 45.902C67.0319 45.902 66.8784 45.902 66.7232 45.9188C63.6842 46.1899 61.2778 48.9802 61.3418 52.1511C61.4058 55.322 63.9194 57.6692 66.9551 57.4013C67.1151 57.3869 67.2702 57.3621 67.4246 57.3341C67.7395 58.896 68.1745 60.4313 68.7257 61.9262C68.5858 62.0062 68.4466 62.0917 68.3115 62.1869C65.714 64.0071 64.8846 67.5995 66.4577 70.2098C68.0308 72.8201 71.412 73.4607 74.0096 71.6405C74.1423 71.547 74.2679 71.4462 74.391 71.3438C75.4242 72.4842 76.5512 73.5358 77.7603 74.4876C77.6747 74.6283 77.5908 74.7707 77.5156 74.9194C76.0529 77.7985 77.0246 81.2317 79.6861 82.5825C82.3476 83.9332 85.696 82.6848 87.158 79.8058C87.2379 79.6562 87.2995 79.5051 87.3619 79.3531C88.844 79.7667 90.3581 80.0554 91.8884 80.2161C91.8788 80.376 91.8716 80.536 91.8748 80.6959C91.9387 83.8668 94.4523 86.2141 97.4881 85.9461C100.524 85.6782 102.933 82.8848 102.869 79.7138C102.869 79.5483 102.851 79.3867 102.835 79.2252C104.368 78.7886 105.864 78.234 107.311 77.5666C107.381 77.7081 107.453 77.8489 107.534 77.9848C109.108 80.5951 112.493 81.2357 115.086 79.4155C117.68 77.5953 118.513 74.0038 116.939 71.3934C116.859 71.2599 116.77 71.1343 116.681 71.0112C117.845 69.8448 118.922 68.5947 119.903 67.2708C120.027 67.3532 120.16 67.4324 120.298 67.5019ZM87.126 67.929C77.4636 63.0258 73.9352 50.5692 79.2446 40.1071C84.554 29.645 96.6916 25.1378 106.356 30.0417C116.019 34.9457 119.546 47.4015 114.237 57.8644C108.927 68.3273 96.7883 72.8329 87.126 67.929Z" fill="url(#paint14_linear_122_20817)"/>
<path d="M64.3023 113.635C66.2569 114.626 68.7129 113.715 69.7869 111.598C70.8609 109.481 70.1476 106.959 68.1922 105.969C68.0915 105.917 67.9875 105.874 67.8843 105.833C68.2433 104.677 68.5172 103.496 68.7041 102.3C68.816 102.3 68.9288 102.3 69.0432 102.288C71.2728 102.089 73.0418 100.039 72.9954 97.7097C72.949 95.3801 71.1025 93.6534 68.872 93.8526C68.7553 93.8638 68.6409 93.8822 68.5273 93.9022C68.2959 92.7549 67.9764 91.6271 67.5717 90.5289C67.674 90.4689 67.7764 90.4065 67.8764 90.337C69.7837 88.9998 70.3931 86.3615 69.2359 84.4437C68.0787 82.526 65.5963 82.0557 63.6882 83.3929C63.5906 83.4617 63.4986 83.5352 63.4083 83.6104C62.6493 82.7726 61.8214 82 60.9331 81.3008C60.9955 81.1976 61.057 81.0937 61.113 80.9809C62.1871 78.864 63.5922 76.5512 61.6208 75.5899C57.0624 73.3659 55.1078 75.27 54.0338 77.3877C53.9778 77.4973 53.9298 77.6092 53.8834 77.7204C52.7951 77.416 51.683 77.2039 50.559 77.0862C50.5654 76.9686 50.571 76.8511 50.5686 76.7311C50.5214 74.4023 51.2083 73.1411 48.9739 73.0987C44.0955 73.0044 42.4457 75.1237 42.4961 77.4525C42.4961 77.5748 42.5089 77.6924 42.5209 77.8116C41.3954 78.1331 40.2965 78.5411 39.234 79.0319C39.1828 78.928 39.13 78.8248 39.07 78.7248C37.9144 76.8055 35.4304 76.3368 33.5223 77.674C31.6141 79.0112 31.0055 81.6495 32.1627 83.5672C32.2219 83.6648 32.2867 83.7568 32.3523 83.8479C31.4975 84.7047 30.7066 85.6228 29.9859 86.595C29.8907 86.5358 29.7955 86.4782 29.694 86.4263C27.7386 85.4346 25.2835 86.3463 24.2094 88.4632C23.1354 90.5801 23.8487 93.1016 25.8033 94.0917C25.9048 94.1437 26.008 94.1869 26.112 94.2284C25.7526 95.3842 25.4786 96.5649 25.2923 97.7609C25.1803 97.7609 25.0675 97.7609 24.9532 97.7729C22.7227 97.972 20.9545 100.022 21.0009 102.351C21.0473 104.681 22.8939 106.408 25.1243 106.208C25.2403 106.197 25.3554 106.18 25.469 106.159C25.7012 107.306 26.0221 108.434 26.4287 109.532C26.3255 109.592 26.2239 109.654 26.124 109.724C24.2158 111.061 23.6064 113.7 24.7644 115.617C25.9224 117.535 29.7372 118.433 31.6445 117.092C31.7429 117.023 30.4921 116.532 30.5833 116.452C31.342 117.29 32.17 118.063 33.0584 118.762C32.9953 118.865 32.9337 118.969 32.8785 119.082C31.8037 121.199 32.5178 123.72 34.4732 124.711C36.4285 125.702 38.8837 124.791 39.9577 122.675C40.0137 122.565 40.0609 122.454 40.1073 122.342C41.1959 122.647 42.3083 122.859 43.4326 122.976C43.4254 123.094 43.4198 123.216 43.4222 123.331C43.4693 125.66 45.3159 127.388 47.5456 127.188C49.7752 126.988 51.5442 124.939 51.4986 122.61C51.4986 122.489 51.4859 122.37 51.4739 122.251C52.5993 121.93 53.6982 121.522 54.7608 121.031C54.8111 121.135 54.8639 121.238 54.9247 121.338C56.0803 123.257 58.5643 123.727 60.4716 122.389C62.379 121.051 62.9892 118.413 61.8312 116.495C61.772 116.398 61.7064 116.306 61.6408 116.215C62.496 115.358 63.2872 114.44 64.008 113.468C64.1048 113.526 64.2008 113.584 64.3023 113.635ZM39.9337 113.948C32.8361 110.349 30.2442 101.196 34.1445 93.5095C38.0448 85.8233 46.961 82.514 54.0578 86.116C61.1546 89.718 63.7481 98.8685 59.8478 106.555C55.9476 114.241 47.0321 117.553 39.9337 113.949V113.948Z" fill="#26264F"/>
<path d="M69.0431 102.289C71.2727 102.09 73.0418 100.04 72.9954 97.7103C72.949 95.3807 71.1024 93.6541 68.872 93.854C68.7552 93.8644 68.6408 93.8828 68.5273 93.9028C68.2958 92.7555 67.9763 91.6277 67.5716 90.5295C67.674 90.4695 67.7763 90.4071 67.8763 90.3376C69.7836 89.0004 72.1437 85.7703 70.7969 83.9813C68.2418 80.5856 65.5987 82.0564 63.6897 83.3935C63.5921 83.4623 63.5002 83.5359 63.4098 83.611C62.6509 82.7732 61.8229 82.0006 60.9346 81.3014C60.997 81.1982 61.0586 81.0943 61.1146 80.9815C61.3919 80.4454 61.557 79.8583 61.5999 79.2562C61.6428 78.6541 61.5626 78.0496 61.3641 77.4795C59.5215 80.7232 57.7066 83.9821 55.9195 87.2562C61.5824 91.4044 63.3866 99.5809 59.8486 106.552C56.8504 112.46 50.8916 115.777 45.0679 115.363C44.8088 116.036 44.5537 116.714 44.2754 117.38C43.5213 119.19 42.6648 120.963 41.8066 122.734C42.3467 122.835 42.8887 122.915 43.4325 122.974C43.4253 123.091 43.4197 123.214 43.4221 123.329C43.4693 125.658 44.884 127.637 48.9259 127.422C51.1651 127.303 51.5458 124.936 51.4986 122.608C51.4986 122.486 51.4858 122.368 51.4738 122.248C52.5992 121.927 53.6981 121.519 54.7607 121.028C54.8111 121.132 54.8639 121.235 54.9246 121.335C56.0802 123.255 60.0893 124.067 61.9967 122.73C63.904 121.393 62.9891 118.411 61.8367 116.492C61.7775 116.394 61.712 116.302 61.6464 116.211C62.5016 115.355 63.2928 114.437 64.0136 113.464C64.108 113.523 64.2039 113.582 64.3055 113.633C66.26 114.625 68.716 113.713 69.79 111.596C70.8641 109.479 70.1507 106.958 68.1954 105.968C68.0946 105.916 67.9906 105.872 67.8875 105.832C68.2463 104.676 68.5203 103.495 68.7072 102.299C68.816 102.301 68.9287 102.299 69.0431 102.289Z" fill="#26264F"/>
<path d="M66.4048 113.875C68.3593 114.867 70.8153 113.955 71.8893 111.839C72.9634 109.723 72.25 107.2 70.2947 106.209C70.1931 106.158 70.0899 106.115 69.9868 106.073C70.3457 104.918 70.6197 103.737 70.8065 102.541C70.9184 102.541 71.0312 102.541 71.1448 102.528C73.3752 102.329 75.1434 100.279 75.0978 97.9506C75.0522 95.6218 73.2049 93.8944 70.9744 94.0935C70.8577 94.1039 70.7433 94.1223 70.6297 94.1423C70.3971 92.9951 70.0763 91.8676 69.6701 90.7698C69.7724 90.7098 69.8748 90.6474 69.9748 90.5779C71.8821 89.2407 72.4915 86.6016 71.3343 84.6846C70.1771 82.7677 67.6947 82.2958 65.7866 83.633C65.689 83.7018 65.597 83.7761 65.5067 83.8505C64.7463 83.013 63.917 82.2407 63.0275 81.5417C63.0907 81.4385 63.1515 81.3338 63.2074 81.2218C64.2815 79.1049 63.5681 76.5834 61.6128 75.5925C59.6574 74.6016 57.2023 75.5125 56.1282 77.6294C56.0722 77.739 56.0242 77.8501 55.9779 77.9621C54.8896 77.6573 53.7774 77.4452 52.6534 77.3279C52.6598 77.2096 52.6654 77.088 52.663 76.9728C52.6158 74.6432 50.77 72.9166 48.5396 73.1157C46.3091 73.3149 44.5409 75.3646 44.5873 77.6942C44.5873 77.8158 44.5993 77.9341 44.6121 78.0533C43.4866 78.3748 42.3877 78.7828 41.3252 79.2737C41.274 79.1697 41.2212 79.0665 41.1652 78.9658C40.0096 77.0464 37.5257 76.5778 35.6175 77.9149C33.7093 79.2521 33.1007 81.8904 34.258 83.8081C34.3171 83.9065 34.3819 83.9985 34.4483 84.0889C33.5931 84.9457 32.8019 85.8641 32.0811 86.8367C31.9859 86.7767 31.8908 86.7192 31.7892 86.668C29.8338 85.6755 27.3787 86.588 26.3046 88.7041C25.2306 90.8202 25.944 93.3425 27.8985 94.3334C28.0001 94.3846 28.1032 94.4278 28.2072 94.4694C27.848 95.6252 27.574 96.8059 27.3875 98.0018C27.2755 98.0018 27.1627 98.0018 27.0484 98.0146C24.8187 98.2137 23.0497 100.263 23.0961 102.592C23.1425 104.921 24.9891 106.648 27.2195 106.449C27.3355 106.439 27.4506 106.421 27.5642 106.401C27.7952 107.548 28.1147 108.675 28.5199 109.773C28.4167 109.833 28.3152 109.895 28.2152 109.965C26.307 111.302 25.6976 113.941 26.8556 115.858C28.0137 117.775 30.4952 118.247 32.4026 116.91C32.5001 116.841 32.5921 116.767 32.6833 116.692C33.4435 117.53 34.2728 118.302 35.1625 119.001C35.0993 119.104 35.0377 119.209 34.9825 119.321C33.9077 121.438 34.6218 123.959 36.5772 124.95C38.5325 125.941 40.9877 125.03 42.0617 122.913C42.1177 122.804 42.1649 122.693 42.2113 122.582C43.3 122.886 44.4123 123.098 45.5366 123.215C45.5294 123.333 45.5238 123.455 45.5262 123.57C45.5734 125.9 47.4199 127.626 49.6496 127.427C51.8792 127.228 53.6482 125.178 53.6027 122.849C53.6027 122.727 53.5899 122.609 53.5779 122.49C54.7033 122.168 55.8022 121.76 56.8648 121.269C56.9151 121.373 56.9679 121.476 57.0247 121.577C58.1803 123.496 60.6643 123.965 62.5716 122.628C64.479 121.291 65.0892 118.652 63.9312 116.735C63.872 116.636 63.8072 116.544 63.7409 116.454C64.5959 115.597 65.387 114.679 66.1081 113.706C66.2048 113.765 66.3032 113.823 66.4048 113.875ZM42.0361 114.188C34.9385 110.59 32.3466 101.436 36.2469 93.7504C40.1472 86.065 49.0634 82.7541 56.1602 86.3569C63.257 89.9597 65.8505 99.1094 61.9503 106.795C58.05 114.48 49.1346 117.794 42.0361 114.188V114.188Z" fill="url(#paint15_linear_122_20817)"/>
<path d="M236.308 151.348L243.067 227.191C243.169 228.339 242.372 229.36 241.293 229.46L204.724 233.226C202.536 233.343 201.379 232.156 201.281 230.963L194.794 152.219C194.698 151.057 195.784 149.961 197.946 149.881L234.178 149.348C235.251 149.328 236.208 150.227 236.308 151.348Z" fill="url(#paint16_linear_122_20817)"/>
<path d="M237.969 151.16L244.789 227.454C244.892 228.609 244.09 229.636 243.005 229.736L205.061 233.238C203.898 233.346 202.863 232.451 202.764 231.251L196.219 152.032C196.123 150.862 196.99 149.888 198.145 149.866L235.827 149.146C236.905 149.127 237.868 150.033 237.969 151.16Z" fill="url(#paint17_linear_122_20817)"/>
<path d="M237.125 155.37L243.432 226.088C243.529 227.166 242.779 228.124 241.765 228.215L206.091 231.455C205.009 231.554 204.046 230.719 203.953 229.602L197.885 156.34C197.794 155.25 198.604 154.336 199.677 154.312L235.123 153.497C236.131 153.473 237.031 154.316 237.125 155.37Z" fill="white"/>
<path d="M237.125 155.37C237.031 154.316 236.131 153.473 235.126 153.497L199.68 154.312C198.605 154.336 197.797 155.25 197.888 156.34L198.756 166.826L238.065 165.876L237.125 155.37Z" fill="url(#paint18_linear_122_20817)"/>
<path d="M218.199 151.804C218.21 151.896 218.202 151.988 218.175 152.076C218.148 152.163 218.103 152.245 218.042 152.314C217.982 152.383 217.908 152.439 217.825 152.478C217.742 152.517 217.651 152.538 217.56 152.54C217.367 152.539 217.182 152.466 217.041 152.335C216.9 152.205 216.813 152.026 216.797 151.834C216.786 151.743 216.794 151.651 216.822 151.563C216.849 151.475 216.894 151.394 216.954 151.325C217.014 151.256 217.088 151.2 217.171 151.161C217.254 151.122 217.345 151.101 217.437 151.099C217.629 151.1 217.814 151.173 217.955 151.304C218.096 151.434 218.183 151.613 218.199 151.804Z" fill="url(#paint19_linear_122_20817)"/>
<path d="M223.103 194.915L205.366 195.79L202.917 170.724L220.752 170.269L223.103 194.915Z" fill="url(#paint20_linear_122_20817)"/>
<path d="M236.257 194.265L225.837 194.78L223.502 170.198L233.978 169.931L236.257 194.265Z" fill="url(#paint21_linear_122_20817)"/>
<path d="M238.093 213.877L207.339 215.99L205.684 199.052L236.552 197.432L238.093 213.877Z" fill="url(#paint22_linear_122_20817)"/>
<path d="M239.051 224.115L208.369 226.533L207.628 218.945L238.361 216.747L239.051 224.115Z" fill="url(#paint23_linear_122_20817)"/>
<g style="mix-blend-mode:soft-light" opacity="0.48">
<path d="M228.852 203.536C225.173 190.684 214.448 191.969 211.241 180.356C208.607 170.818 214.68 165.79 210.996 157.803C209.263 154.045 206.228 151.508 203.079 149.772L198.145 149.867C196.99 149.889 196.123 150.863 196.219 152.033L202.764 231.252C202.863 232.452 203.898 233.347 205.061 233.24L236.17 230.369C234.181 227.845 232.293 224.756 230.983 221.047C228.212 213.196 230.886 210.642 228.852 203.536Z" fill="white"/>
</g>
<defs>
<linearGradient id="paint0_linear_122_20817" x1="241.282" y1="82.3784" x2="-47.4442" y2="75.2741" gradientUnits="userSpaceOnUse">
<stop stop-color="#FFC444"/>
<stop offset="1" stop-color="#F36F56"/>
</linearGradient>
<linearGradient id="paint1_linear_122_20817" x1="186.096" y1="20.038" x2="68.3489" y2="191.068" gradientUnits="userSpaceOnUse">
<stop stop-color="#AA80F9"/>
<stop offset="1" stop-color="#6165D7"/>
</linearGradient>
<linearGradient id="paint2_linear_122_20817" x1="51.162" y1="132.676" x2="88.132" y2="128.813" gradientUnits="userSpaceOnUse">
<stop stop-color="#26264F"/>
<stop offset="1" stop-color="#444B8C"/>
</linearGradient>
<linearGradient id="paint3_linear_122_20817" x1="129.97" y1="245.619" x2="137.802" y2="234.399" gradientUnits="userSpaceOnUse">
<stop stop-color="#444B8C"/>
<stop offset="1" stop-color="#26264F"/>
</linearGradient>
<linearGradient id="paint4_linear_122_20817" x1="153.68" y1="242.742" x2="141.693" y2="177.666" gradientUnits="userSpaceOnUse">
<stop stop-color="#444B8C"/>
<stop offset="1" stop-color="#26264F"/>
</linearGradient>
<linearGradient id="paint5_linear_122_20817" x1="183.253" y1="63.0953" x2="243.244" y2="-22.5256" gradientUnits="userSpaceOnUse">
<stop stop-color="#444B8C"/>
<stop offset="1" stop-color="#26264F"/>
</linearGradient>
<linearGradient id="paint6_linear_122_20817" x1="157.197" y1="73.2607" x2="82.1563" y2="311.599" gradientUnits="userSpaceOnUse">
<stop stop-color="#444B8C"/>
<stop offset="1" stop-color="#26264F"/>
</linearGradient>
<linearGradient id="paint7_linear_122_20817" x1="161.265" y1="87.8506" x2="90.9158" y2="232.908" gradientUnits="userSpaceOnUse">
<stop stop-color="#E38DDD"/>
<stop offset="1" stop-color="#9571F6"/>
</linearGradient>
<linearGradient id="paint8_linear_122_20817" x1="142.688" y1="70.6046" x2="138.537" y2="104.967" gradientUnits="userSpaceOnUse">
<stop stop-color="#FF9085"/>
<stop offset="1" stop-color="#FB6FBB"/>
</linearGradient>
<linearGradient id="paint9_linear_122_20817" x1="40.5423" y1="191.205" x2="114.88" y2="191.205" gradientUnits="userSpaceOnUse">
<stop stop-color="#FFC444"/>
<stop offset="1" stop-color="#F36F56"/>
</linearGradient>
<linearGradient id="paint10_linear_122_20817" x1="92.8647" y1="130.445" x2="187.343" y2="130.445" gradientUnits="userSpaceOnUse">
<stop stop-color="#FFC444"/>
<stop offset="1" stop-color="#F36F56"/>
</linearGradient>
<linearGradient id="paint11_linear_122_20817" x1="40.5423" y1="191.205" x2="114.88" y2="191.205" gradientUnits="userSpaceOnUse">
<stop stop-color="#FFC444"/>
<stop offset="1" stop-color="#F36F56"/>
</linearGradient>
<linearGradient id="paint12_linear_122_20817" x1="173.941" y1="173.142" x2="130.907" y2="116.382" gradientUnits="userSpaceOnUse">
<stop stop-color="#FFC444"/>
<stop offset="1" stop-color="#F36F56"/>
</linearGradient>
<linearGradient id="paint13_linear_122_20817" x1="98.1279" y1="131.793" x2="187.248" y2="131.793" gradientUnits="userSpaceOnUse">
<stop stop-color="#FFC444"/>
<stop offset="1" stop-color="#F36F56"/>
</linearGradient>
<linearGradient id="paint14_linear_122_20817" x1="61.3466" y1="48.9858" x2="132.133" y2="48.9858" gradientUnits="userSpaceOnUse">
<stop stop-color="#AA80F9"/>
<stop offset="1" stop-color="#6165D7"/>
</linearGradient>
<linearGradient id="paint15_linear_122_20817" x1="23.0985" y1="100.272" x2="75.0986" y2="100.272" gradientUnits="userSpaceOnUse">
<stop stop-color="#AA80F9"/>
<stop offset="1" stop-color="#6165D7"/>
</linearGradient>
<linearGradient id="paint16_linear_122_20817" x1="193.372" y1="190.321" x2="244.395" y2="192.219" gradientUnits="userSpaceOnUse">
<stop stop-color="#444B8C"/>
<stop offset="1" stop-color="#26264F"/>
</linearGradient>
<linearGradient id="paint17_linear_122_20817" x1="215.032" y1="203.373" x2="222.809" y2="184.068" gradientUnits="userSpaceOnUse">
<stop stop-color="#444B8C"/>
<stop offset="1" stop-color="#26264F"/>
</linearGradient>
<linearGradient id="paint18_linear_122_20817" x1="207.617" y1="175.748" x2="234.172" y2="137.22" gradientUnits="userSpaceOnUse">
<stop stop-color="#FF9085"/>
<stop offset="1" stop-color="#FB6FBB"/>
</linearGradient>
<linearGradient id="paint19_linear_122_20817" x1="218.693" y1="148.936" x2="171.014" y2="264.638" gradientUnits="userSpaceOnUse">
<stop stop-color="#FFC444"/>
<stop offset="1" stop-color="#F36F56"/>
</linearGradient>
<linearGradient id="paint20_linear_122_20817" x1="209.418" y1="174.483" x2="230.952" y2="219.457" gradientUnits="userSpaceOnUse">
<stop stop-color="#E38DDD"/>
<stop offset="1" stop-color="#9571F6"/>
</linearGradient>
<linearGradient id="paint21_linear_122_20817" x1="218.246" y1="159.671" x2="243.034" y2="211.44" gradientUnits="userSpaceOnUse">
<stop stop-color="#E38DDD"/>
<stop offset="1" stop-color="#9571F6"/>
</linearGradient>
<linearGradient id="paint22_linear_122_20817" x1="211.796" y1="186.449" x2="228.953" y2="222.28" gradientUnits="userSpaceOnUse">
<stop stop-color="#E38DDD"/>
<stop offset="1" stop-color="#9571F6"/>
</linearGradient>
<linearGradient id="paint23_linear_122_20817" x1="216.887" y1="207.706" x2="228.328" y2="231.598" gradientUnits="userSpaceOnUse">
<stop stop-color="#E38DDD"/>
<stop offset="1" stop-color="#9571F6"/>
</linearGradient>
</defs>
</svg>
