<svg width="24" height="24" viewBox="0 0 24 24" fill="none" xmlns="http://www.w3.org/2000/svg">
<path fill-rule="evenodd" clip-rule="evenodd" d="M23.5836 0.416435C23.1746 0.031054 22.5872 -0.0990615 22.0537 0.0775318L2.62009 5.3741C2.02164 5.47241 1.56445 5.9614 1.50655 6.5651C1.48487 7.17549 1.88574 7.72069 2.47484 7.88198L11.3638 11.9294L11.4412 11.9779L9.78546 16.9452C9.70235 17.2282 9.75277 17.5337 9.92243 17.775C10.0921 18.0163 10.3625 18.1671 10.6569 18.1846C10.8085 18.1837 10.9578 18.1472 11.0927 18.0781L13.9201 16.6644L16.1568 21.5737C16.3284 22.1072 16.8167 22.4754 17.3769 22.4935H17.435C18.0237 22.4194 18.493 21.9658 18.5872 21.38L23.9225 1.94634C24.0991 1.41283 23.969 0.825453 23.5836 0.416435ZM4.78883 6.79737L19.9814 2.69181L12.3609 10.322C12.2813 10.2664 12.1971 10.2178 12.1091 10.1767L4.78883 6.79737ZM12.7291 14.0213L12.3127 15.2801L13.1164 14.8734L12.7291 14.0213ZM17.2025 19.1526L13.8716 11.8904C13.8305 11.8024 13.7819 11.7182 13.7263 11.6386L21.3081 4.01817L17.2025 19.1526ZM5.86953 19.0945C5.86953 18.8363 5.76642 18.5888 5.58311 18.407L5.5347 18.4651C5.1775 18.0978 4.59607 18.0724 4.20814 18.407L0.33496 22.2802C0.15165 22.462 0.0485408 22.7095 0.0485408 22.9676C0.0485408 23.2258 0.15165 23.4733 0.33496 23.6551C0.516774 23.8384 0.764265 23.9416 1.02245 23.9416C1.28063 23.9416 1.52812 23.8384 1.70994 23.6551L5.58311 19.782C5.76642 19.6001 5.86953 19.3526 5.86953 19.0945ZM11.3929 20.3436C11.5762 20.5254 11.6793 20.7729 11.6793 21.0311C11.6793 21.2892 11.5762 21.5367 11.3929 21.7185L9.45629 23.6551C9.27447 23.8384 9.02698 23.9415 8.7688 23.9415C8.51062 23.9415 8.26312 23.8384 8.08131 23.6551C7.898 23.4733 7.79489 23.2258 7.79489 22.9676C7.79489 22.7095 7.898 22.462 8.08131 22.2802L10.0179 20.3436C10.4058 20.009 10.9873 20.0344 11.3445 20.4017L11.3929 20.3436ZM0 15.2798C0 15.538 0.103109 15.7855 0.28642 15.9673C0.468233 16.1506 0.715725 16.2537 0.973908 16.2537C1.23209 16.2537 1.47958 16.1506 1.6614 15.9673L3.59798 14.0307C3.97767 13.651 3.97767 13.0354 3.59798 12.6557C3.21829 12.276 2.6027 12.276 2.22301 12.6557L0.28642 14.5923C0.103109 14.7741 0 15.0216 0 15.2798Z" fill="#FF9595"/>
</svg>
