<svg width="276" height="250" viewBox="0 0 276 250" fill="none" xmlns="http://www.w3.org/2000/svg">
<path d="M136.5 237C202.498 237 256 186.856 256 125C256 63.1441 202.498 13 136.5 13C70.502 13 17 63.1441 17 125C17 186.856 70.502 237 136.5 237Z" fill="#F4F7FA"/>
<path d="M260 216.506L20.1321 214.532V220.374C20.1321 221.96 21.1781 223.307 22.5949 223.548L90.4224 235.051C91.2261 235.188 92.0436 235.224 92.8562 235.159L257.393 222.043C258.862 221.926 260 220.574 260 218.945V216.506Z" fill="url(#paint0_linear_122_21377)"/>
<path d="M172.955 207.037L22.6127 217.724C19.9223 217.914 17.7349 215.883 17.7349 213.184V105.079C17.7344 103.784 18.2479 102.542 19.1626 101.626C20.0773 100.71 21.3182 100.195 22.6127 100.193H172.955C175.172 100.193 176.962 102.171 176.962 104.61V202.335C176.962 204.774 175.172 206.879 172.955 207.037Z" fill="url(#paint1_linear_122_21377)"/>
<path d="M175.35 207.037L25.01 217.724C22.3195 217.914 20.1321 215.883 20.1321 213.184V105.079C20.1316 103.784 20.6452 102.542 21.5598 101.626C22.4745 100.71 23.7154 100.195 25.01 100.193H175.35C177.566 100.193 179.356 102.171 179.356 104.61V202.335C179.358 204.774 177.566 206.879 175.35 207.037Z" fill="url(#paint2_linear_122_21377)"/>
<path d="M173.978 110.088V196.294C173.978 198.3 172.5 200.025 170.67 200.147L142.658 202.003L41.2753 208.729L30.6389 209.434C28.4523 209.578 26.6724 207.909 26.6724 205.707V111.057C26.6708 110.001 27.0869 108.987 27.83 108.237C28.573 107.486 29.5828 107.06 30.6389 107.051L83.7007 106.832L101.688 106.757L116.016 106.698L128.617 106.645L170.661 106.469C172.496 106.463 173.978 108.083 173.978 110.088Z" fill="url(#paint3_linear_122_21377)"/>
<g style="mix-blend-mode:multiply" opacity="0.3">
<path d="M159.991 166.658C162.482 166.236 164.321 163.864 164.099 161.358L163.341 152.815C163.118 150.309 160.919 148.611 158.428 149.027L153.621 149.823C152.61 146.015 151.18 142.331 149.358 138.838L153.45 135.629C155.496 134.022 155.995 131.124 154.559 129.15L149.646 122.431C148.203 120.457 145.365 120.156 143.31 121.763L139.001 125.127C136.219 122.498 133.155 120.184 129.864 118.229L132.144 113.124C133.207 110.743 132.214 108.074 129.928 107.156L128.628 106.638L116.027 106.691L113.681 111.923C109.858 111.121 105.962 110.723 102.055 110.738L101.701 106.747L83.7142 106.823C83.6544 107.196 83.6415 107.574 83.6758 107.95L84.1737 113.565C80.2912 114.801 76.5393 116.415 72.9721 118.384L69.7327 114.002C68.2545 112.002 65.3467 111.695 63.2393 113.32L56.0342 118.861C53.9166 120.486 53.4017 123.431 54.8859 125.433L58.0657 129.723C55.1342 132.711 52.4951 135.973 50.1845 139.463L45.2691 137.549C42.918 136.632 40.1218 137.85 39.0238 140.272L35.2797 148.53C34.1783 150.957 35.1945 153.662 37.5567 154.573L42.253 156.391C41.0575 160.392 40.2804 164.506 39.9343 168.667L34.9388 169.495C32.3447 169.921 30.4206 172.349 30.6525 174.908L31.4257 183.635C31.6542 186.192 33.9405 187.912 36.5346 187.476L41.2454 186.683C42.1816 190.668 43.5693 194.533 45.3816 198.204L41.6759 201.102C39.5447 202.763 39.0332 205.725 40.5216 207.719L41.2769 208.729L142.655 202.006C143.963 200.283 145.184 198.495 146.312 196.649L150.08 198.107C152.357 198.985 155.057 197.762 156.114 195.37L159.709 187.228C160.763 184.841 159.777 182.189 157.505 181.305L153.543 179.759C154.609 175.726 155.25 171.592 155.455 167.425L159.991 166.658ZM101.221 203.499C82.0143 206.824 64.9784 193.97 63.2743 174.771C61.5702 155.571 75.8637 137.48 95.0871 134.368C114.196 131.276 130.969 144.172 132.652 163.162C134.336 182.151 120.312 200.204 101.221 203.499Z" fill="url(#paint4_linear_122_21377)"/>
</g>
<path d="M105.489 103.151C105.489 104.155 104.716 104.972 103.76 104.974C102.805 104.977 102.027 104.163 102.027 103.157C102.027 102.15 102.803 101.333 103.76 101.332C104.718 101.331 105.489 102.146 105.489 103.151Z" fill="white"/>
<g style="mix-blend-mode:soft-light" opacity="0.48">
<path d="M139.128 177.387C127.534 171.114 118.425 179.063 109.632 171.221C104.3 166.467 106.918 162.921 100.356 155.817C93.0881 147.947 88.3577 150.59 81.0579 143.515C71.8239 134.563 76.4417 127.593 68.4881 121.163C58.8389 113.363 48.4327 120.583 39.2481 113.102C35.2866 109.877 33.1102 105.185 31.9773 100.198H22.9862C22.2275 100.2 21.5007 100.503 20.9655 101.041C20.4303 101.578 20.1305 102.307 20.1321 103.065V215.123C20.1321 216.707 21.4108 217.899 22.9862 217.787L176.207 206.847C176.959 206.793 177.626 206.352 178.054 205.711C166.838 205.3 159.947 201.518 155.542 197.609C146.926 189.958 148.42 182.416 139.128 177.387Z" fill="white"/>
</g>
<path d="M181.342 206.552L20.1321 217.805L90.4224 229.726C91.2261 229.862 92.0436 229.898 92.8562 229.833L260 216.51L183.907 206.632C183.057 206.52 182.197 206.493 181.342 206.552Z" fill="url(#paint5_linear_122_21377)"/>
<path style="mix-blend-mode:multiply" opacity="0.3" d="M43.6553 218.084L177.867 208.579L219.405 213.928L86.3483 224.087L43.6553 218.084Z" fill="url(#paint6_linear_122_21377)"/>
<path d="M213.299 31.7173L94.2713 27.6629C90.2885 27.5274 87.0465 30.6645 87.0465 34.6712V121.539C87.0407 122.483 87.2247 123.418 87.5875 124.29C87.9502 125.161 88.4844 125.951 89.1583 126.612C89.8322 127.273 90.632 127.792 91.5104 128.138C92.3887 128.484 93.3276 128.65 94.2713 128.626L213.295 125.889C216.745 125.81 219.532 122.74 219.532 119.032V38.6437C219.535 34.9354 216.749 31.835 213.299 31.7173Z" fill="url(#paint7_linear_122_21377)"/>
<g style="mix-blend-mode:soft-light" opacity="0.74">
<path d="M89.3634 119.715V36.5286C89.3634 32.8212 92.3599 29.9134 96.0426 30.0344L211.757 33.822C214.961 33.9268 217.549 36.8005 217.549 40.2403V117.422C217.549 120.863 214.961 123.707 211.757 123.776L96.0426 126.287C95.169 126.307 94.3002 126.152 93.4877 125.83C92.6752 125.509 91.9356 125.027 91.3127 124.414C90.6898 123.801 90.1963 123.07 89.8615 122.262C89.5266 121.455 89.3573 120.589 89.3634 119.715Z" fill="white"/>
</g>
<path d="M213.299 31.7173L94.2711 27.6629C90.2884 27.5274 87.0464 30.6645 87.0464 34.6712V39.8713L219.532 43.4517V38.6429C219.535 34.9354 216.749 31.835 213.299 31.7173Z" fill="url(#paint8_linear_122_21377)"/>
<path d="M99.8978 34.3614C99.9006 34.6674 99.8415 34.9708 99.7241 35.2534C99.6066 35.5359 99.4332 35.7918 99.2143 36.0056C98.9953 36.2195 98.7354 36.3868 98.4502 36.4976C98.1649 36.6084 97.8602 36.6603 97.5544 36.6503C96.9247 36.6265 96.3286 36.3603 95.8907 35.9071C95.4529 35.454 95.2071 34.8491 95.2049 34.219C95.2021 33.9125 95.2614 33.6086 95.3792 33.3256C95.4971 33.0426 95.671 32.7865 95.8906 32.5726C96.1101 32.3587 96.3708 32.1915 96.6567 32.081C96.9427 31.9706 97.248 31.9193 97.5544 31.9301C98.1829 31.9556 98.7774 32.2226 99.214 32.6755C99.6505 33.1284 99.8955 33.7323 99.8978 34.3614Z" fill="white"/>
<path d="M108.076 34.6096C108.08 34.9134 108.022 35.2148 107.906 35.4957C107.79 35.7766 107.619 36.0312 107.402 36.244C107.185 36.4569 106.927 36.6237 106.644 36.7344C106.361 36.8451 106.059 36.8974 105.755 36.8882C105.13 36.8631 104.539 36.5973 104.105 36.1462C103.671 35.6951 103.428 35.0938 103.428 34.468C103.424 34.1637 103.482 33.8618 103.599 33.5805C103.715 33.2993 103.887 33.0445 104.105 32.8316C104.322 32.6187 104.581 32.4521 104.864 32.3419C105.148 32.2317 105.451 32.1801 105.755 32.1902C106.379 32.2166 106.969 32.4829 107.402 32.9337C107.834 33.3845 108.076 33.9849 108.076 34.6096Z" fill="white"/>
<path d="M116.18 34.8548C116.184 35.1568 116.128 35.4565 116.013 35.736C115.899 36.0155 115.729 36.2689 115.514 36.481C115.299 36.6931 115.043 36.8595 114.762 36.9702C114.481 37.0808 114.18 37.1335 113.878 37.1249C112.606 37.0874 111.577 36.009 111.577 34.7158C111.572 34.4139 111.629 34.1143 111.744 33.835C111.858 33.5558 112.028 33.3026 112.243 33.0907C112.458 32.8788 112.714 32.7127 112.995 32.6022C113.276 32.4918 113.577 32.4394 113.878 32.4482C115.157 32.4874 116.18 33.5658 116.18 34.8548Z" fill="white"/>
<path d="M212.256 95.7155L95.4717 96.267V61.9189L212.256 63.635V95.7155Z" fill="url(#paint9_linear_122_21377)"/>
<path d="M212.256 103.816L95.4717 104.94V101.252L212.256 100.372V103.816Z" fill="white"/>
<path d="M212.256 112.267L95.4717 113.988V110.299L212.256 108.822V112.267Z" fill="white"/>
<path d="M158.28 54.4765L95.4717 53.2446V56.9333L158.28 58.0339V54.4765Z" fill="white"/>
<path d="M205.592 55.4043V58.8628L212.256 58.9796V55.5347L205.592 55.4043Z" fill="white"/>
<g style="mix-blend-mode:soft-light" opacity="0.5">
<path d="M166.974 76.2142C153.069 55.9814 129.017 62.3665 113.813 40.0307C111.322 36.3496 109.345 32.3461 107.937 28.1309L94.2713 27.6629C90.2885 27.5274 87.0465 30.6645 87.0465 34.6712V121.539C87.0407 122.483 87.2247 123.418 87.5875 124.29C87.9502 125.161 88.4844 125.951 89.1583 126.612C89.8322 127.273 90.632 127.792 91.5104 128.138C92.3887 128.484 93.3276 128.65 94.2713 128.626L184.799 126.55C181.93 122.433 179.476 118.041 177.473 113.439C169.358 94.7982 175.367 88.4268 166.974 76.2142Z" fill="white"/>
</g>
<g style="mix-blend-mode:soft-light">
<path d="M111.776 70.5381L97.5498 70.3864V66.3064L111.776 66.4897V70.5381Z" fill="white"/>
<path d="M187.772 71.3468L120.857 70.6342V66.6062L187.772 67.4672V71.3468Z" fill="white"/>
<path d="M134.726 77.61L120.857 77.5145V73.4866L134.726 73.6127V77.61Z" fill="white"/>
<path d="M208.862 78.1189L143.581 77.6705V73.6929L208.862 74.2854V78.1189Z" fill="white"/>
<path d="M134.726 84.4383L120.857 84.3956V80.3677L134.726 80.441V84.4383Z" fill="white"/>
<path d="M208.862 84.666L143.581 84.4657V80.488L208.862 80.8333V84.666Z" fill="white"/>
<path d="M111.776 91.2831L97.5498 91.2925V87.2134L111.776 87.2347V91.2831Z" fill="white"/>
<path d="M187.772 91.2283L120.857 91.276V87.248L187.772 87.3486V91.2283Z" fill="white"/>
</g>
<path d="M250.777 52.3385L174.362 51.5321C170.748 51.4946 167.807 54.5567 167.807 58.3724V179.003C167.807 182.819 170.748 185.71 174.362 185.461L250.777 180.197C254.057 179.971 256.705 176.858 256.705 173.242V58.9486C256.705 55.3324 254.057 52.3735 250.777 52.3385Z" fill="url(#paint10_linear_122_21377)"/>
<path d="M247.593 124.626C247.593 124.077 247.193 123.641 246.672 123.652L223.441 124.173C222.893 124.185 222.533 124.652 222.533 125.214V171.717C222.533 172.281 222.904 172.707 223.452 172.667L246.711 170.962C247.231 170.924 247.596 170.447 247.596 169.898L247.593 124.626Z" fill="#B7C0CE"/>
<path d="M241.713 151.191L228.159 151.869V149.53L241.713 148.885V151.191Z" fill="white"/>
<path d="M241.713 155.895L228.159 156.643V154.289L241.713 153.574V155.895Z" fill="white"/>
<path d="M241.713 160.597L228.159 161.417V159.048L241.713 158.262V160.597Z" fill="white"/>
<path d="M245.55 145.777L224.579 146.754V129.444L245.55 128.852V145.777Z" fill="white"/>
<path d="M245.747 146.242L224.153 130.017L224.393 129.278L245.976 145.516L245.747 146.242Z" fill="#B7C0CE"/>
<path d="M224.393 147.18L224.153 146.461L245.747 128.681L245.976 129.389L224.393 147.18Z" fill="#B7C0CE"/>
<path d="M245.55 166.095L224.579 167.554V165.124L245.55 163.718V166.095Z" fill="white"/>
<path d="M246.222 71.2679C246.208 70.7574 245.823 70.3398 245.338 70.3364L223.734 70.166C223.224 70.1621 222.885 70.5811 222.9 71.1055L224.143 114.295C224.159 114.819 224.516 115.229 225.025 115.206L246.64 114.276C247.123 114.255 247.45 113.826 247.435 113.316L246.222 71.2679Z" fill="#B7C0CE"/>
<path d="M239.251 84.1507C239.32 86.5687 237.499 88.5571 235.17 88.5841C232.83 88.6155 230.866 86.6614 230.796 84.2192C230.726 81.7771 232.576 79.7926 234.917 79.7854C237.246 79.7778 239.181 81.7321 239.251 84.1507Z" fill="white"/>
<path d="M244.498 94.0259L225.712 94.3919L225.626 91.426L244.415 91.1244L244.498 94.0259Z" fill="white"/>
<path d="M244.665 99.8304L225.883 100.323L225.797 97.3569L244.582 96.9282L244.665 99.8304Z" fill="white"/>
<path d="M208.212 70.4276C208.197 69.897 207.828 69.4638 207.304 69.4595L183.801 69.2836C183.248 69.2795 182.734 69.7202 182.749 70.2646L184.042 115.159C184.057 115.704 184.614 116.124 185.164 116.1L208.552 115.093C208.805 115.081 209.044 114.968 209.216 114.781C209.387 114.594 209.478 114.346 209.469 114.092L208.212 70.4276Z" fill="#B7C0CE"/>
<path d="M201.068 91.1318C201.087 91.7269 200.988 92.32 200.777 92.8766C200.565 93.4333 200.245 93.9423 199.835 94.3743C199.425 94.8063 198.934 95.1526 198.389 95.3932C197.844 95.6337 197.257 95.7638 196.662 95.7757C195.442 95.7975 194.263 95.3376 193.38 94.4958C192.498 93.654 191.983 92.4981 191.947 91.2789C191.927 90.6798 192.027 90.0828 192.241 89.523C192.456 88.9632 192.78 88.4519 193.195 88.0192C193.609 87.5865 194.106 87.241 194.657 87.0032C195.207 86.7654 195.799 86.64 196.398 86.6343C197.61 86.6253 198.777 87.0908 199.65 87.9314C200.522 88.7719 201.031 89.9207 201.068 91.1318Z" fill="white"/>
<path d="M209.807 125.395C209.791 124.826 209.502 124.358 208.979 124.354L185.725 124.174C185.178 124.169 184.78 124.637 184.797 125.221L186.181 173.277C186.187 173.552 186.302 173.812 186.501 174.002C186.699 174.192 186.965 174.295 187.239 174.289L210.363 173.292C210.883 173.27 211.164 172.795 211.147 172.226L209.807 125.395Z" fill="#B7C0CE"/>
<path d="M203.297 137.834L192.584 137.896L192.497 134.887L203.211 134.858L203.297 137.834Z" fill="white"/>
<path d="M208.675 152.883L187.809 153.337L187.476 141.784L208.35 141.575L208.675 152.883Z" fill="white"/>
<path d="M209.109 167.96L188.252 168.741L187.92 157.188L208.784 156.652L209.109 167.96Z" fill="white"/>
<path d="M202.198 137.841L193.958 137.888L193.871 134.881L202.112 134.861L202.198 137.841Z" fill="white"/>
<path d="M208.817 153.117L187.569 142.027L187.787 141.534L209.025 152.632L208.817 153.117Z" fill="#B7C0CE"/>
<path d="M188.134 153.573L187.888 153.088L208.477 141.33L208.714 141.808L188.134 153.573Z" fill="#B7C0CE"/>
<path d="M209.251 168.193L188.013 157.429L188.231 156.933L209.459 167.704L209.251 168.193Z" fill="#B7C0CE"/>
<path d="M188.577 168.972L188.331 168.49L208.912 156.406L209.148 156.88L188.577 168.972Z" fill="#B7C0CE"/>
<path d="M250.777 52.3385L174.362 51.5321C170.748 51.4946 167.807 54.5567 167.807 58.3724V63.3278L256.705 63.6424V58.9486C256.705 55.3324 254.057 52.3735 250.777 52.3385Z" fill="url(#paint11_linear_122_21377)"/>
<path d="M250.803 57.8845C250.803 59.1138 249.865 60.1052 248.713 60.101C247.561 60.0967 246.619 59.0899 246.619 57.8581C246.619 56.6263 247.556 55.634 248.713 55.6416C249.87 55.6493 250.803 56.6552 250.803 57.8845Z" fill="white"/>
<path d="M58.2906 164.287C58.2906 164.287 19.7645 108.459 57.4006 64.0922L47.7599 62.3583L77.6478 53.5181L68.7062 77.5154L64.8607 69.988C64.8607 69.988 36.6087 97.4864 58.2906 164.287Z" fill="url(#paint12_linear_122_21377)"/>
<path d="M89.2656 190.742C89.2656 190.742 148.482 210.86 178.361 166.31L182.323 174.425L182.644 145.689L163.609 159.661L171.254 161.177C171.254 161.177 153.975 193.159 89.2656 190.742Z" fill="url(#paint13_linear_122_21377)"/>
<path d="M42.0996 165.935L42.5744 171.286C42.7133 172.856 44.1165 173.911 45.7072 173.643L48.5971 173.155C49.1711 175.6 50.0223 177.971 51.1341 180.222L48.8614 181.997C47.5554 183.016 47.2417 184.833 48.153 186.055L51.268 190.216C52.181 191.436 53.9771 191.596 55.2746 190.576L57.4246 188.89C59.2198 190.641 61.2153 192.174 63.3698 193.458L62.2999 195.845C61.6316 197.337 62.253 198.985 63.6877 199.527L68.5707 201.368C70.0012 201.908 71.6993 201.137 72.3643 199.648L73.3872 197.356C75.9237 197.883 78.5121 198.12 81.1022 198.061L81.3127 200.432C81.4508 201.988 82.8284 203.024 84.3885 202.747L89.6977 201.802C91.2518 201.526 92.4001 200.044 92.2628 198.494L92.0523 196.13C94.5903 195.274 97.0315 194.155 99.3358 192.79L100.711 194.645C101.603 195.848 103.354 196.009 104.622 194.995L108.939 191.559C110.203 190.552 110.508 188.763 109.621 187.561L108.199 185.636C110.018 183.678 111.636 181.544 113.032 179.266L115.343 180.16C116.739 180.7 118.396 179.949 119.043 178.482L121.248 173.488C121.894 172.024 121.29 170.398 119.897 169.855L117.466 168.908C118.12 166.434 118.513 163.899 118.639 161.343L121.423 160.874C122.95 160.618 124.078 159.162 123.942 157.624L123.477 152.385C123.341 150.85 121.991 149.807 120.464 150.06L117.516 150.548C116.895 148.214 116.018 145.955 114.901 143.814L117.412 141.846C118.669 140.859 118.972 139.081 118.089 137.873L115.075 133.752C114.19 132.542 112.45 132.357 111.19 133.342L108.547 135.405C106.84 133.793 104.961 132.374 102.943 131.175L104.342 128.043C104.994 126.584 104.385 124.947 102.978 124.387L98.1867 122.473C96.7793 121.91 95.1058 122.639 94.4503 124.102L93.0122 127.312C90.6674 126.819 88.2771 126.575 85.8812 126.584L85.576 123.15C85.4387 121.598 84.0654 120.539 82.5071 120.782L77.1876 121.615C75.625 121.86 74.469 123.32 74.6071 124.875L74.9123 128.319C72.531 129.077 70.2299 130.066 68.0422 131.274L66.0559 128.585C65.1506 127.359 63.3672 127.171 62.0731 128.166L57.6547 131.563C56.3564 132.56 56.041 134.366 56.9514 135.593L58.9011 138.226C57.1028 140.058 55.4842 142.058 54.0675 144.199L51.0523 143.024C49.6099 142.462 47.8981 143.209 47.2221 144.694L44.9247 149.76C44.2504 151.248 44.8761 152.907 46.3219 153.467L49.2033 154.581C48.4705 157.034 47.994 159.557 47.7813 162.108L44.7209 162.62C43.1345 162.877 41.9572 164.363 42.0996 165.935ZM62.1081 165.85C61.0638 154.076 69.829 142.978 81.6205 141.071C93.3404 139.174 103.626 147.085 104.66 158.729C105.693 170.373 97.0904 181.444 85.3816 183.469C73.5987 185.506 63.1498 177.623 62.1047 165.85H62.1081Z" fill="white"/>
<defs>
<linearGradient id="paint0_linear_122_21377" x1="121.481" y1="225.617" x2="104.639" y2="232.69" gradientUnits="userSpaceOnUse">
<stop stop-color="#40447E"/>
<stop offset="1" stop-color="#3C3B6B"/>
</linearGradient>
<linearGradient id="paint1_linear_122_21377" x1="94.175" y1="155.032" x2="76.9702" y2="162.259" gradientUnits="userSpaceOnUse">
<stop stop-color="#40447E"/>
<stop offset="1" stop-color="#3C3B6B"/>
</linearGradient>
<linearGradient id="paint2_linear_122_21377" x1="20.1321" y1="158.965" x2="179.358" y2="158.965" gradientUnits="userSpaceOnUse">
<stop stop-color="#40447E"/>
<stop offset="1" stop-color="#3C3B6B"/>
</linearGradient>
<linearGradient id="paint3_linear_122_21377" x1="120.778" y1="120.244" x2="-1.63593" y2="320.366" gradientUnits="userSpaceOnUse">
<stop stop-color="#FFC444"/>
<stop offset="1" stop-color="#F36F56"/>
</linearGradient>
<linearGradient id="paint4_linear_122_21377" x1="28.5512" y1="164.415" x2="161.904" y2="148.251" gradientUnits="userSpaceOnUse">
<stop stop-color="#FFC444"/>
<stop offset="1" stop-color="#F36F56"/>
</linearGradient>
<linearGradient id="paint5_linear_122_21377" x1="20.1321" y1="218.191" x2="260" y2="218.191" gradientUnits="userSpaceOnUse">
<stop stop-color="#40447E"/>
<stop offset="1" stop-color="#3C3B6B"/>
</linearGradient>
<linearGradient id="paint6_linear_122_21377" x1="43.6553" y1="216.333" x2="219.405" y2="216.333" gradientUnits="userSpaceOnUse">
<stop stop-color="#40447E"/>
<stop offset="1" stop-color="#3C3B6B"/>
</linearGradient>
<linearGradient id="paint7_linear_122_21377" x1="190.966" y1="1.51739" x2="82.1269" y2="219.196" gradientUnits="userSpaceOnUse">
<stop stop-color="#FF9085"/>
<stop offset="1" stop-color="#FB6FBB"/>
</linearGradient>
<linearGradient id="paint8_linear_122_21377" x1="141.891" y1="-6.79684" x2="164.376" y2="83.1465" gradientUnits="userSpaceOnUse">
<stop stop-color="#AB316D"/>
<stop offset="1" stop-color="#792D3D"/>
</linearGradient>
<linearGradient id="paint9_linear_122_21377" x1="95.4717" y1="79.093" x2="212.256" y2="79.093" gradientUnits="userSpaceOnUse">
<stop stop-color="#FF9085"/>
<stop offset="1" stop-color="#FB6FBB"/>
</linearGradient>
<linearGradient id="paint10_linear_122_21377" x1="167.807" y1="118.505" x2="256.705" y2="118.505" gradientUnits="userSpaceOnUse">
<stop stop-color="#E38DDD"/>
<stop offset="1" stop-color="#9571F6"/>
</linearGradient>
<linearGradient id="paint11_linear_122_21377" x1="212.802" y1="55.878" x2="203.968" y2="135.718" gradientUnits="userSpaceOnUse">
<stop stop-color="#40447E"/>
<stop offset="1" stop-color="#3C3B6B"/>
</linearGradient>
<linearGradient id="paint12_linear_122_21377" x1="78.5141" y1="40.3404" x2="14.4587" y2="219.696" gradientUnits="userSpaceOnUse">
<stop stop-color="#FB6FBB"/>
<stop offset="1" stop-color="#FF9085"/>
</linearGradient>
<linearGradient id="paint13_linear_122_21377" x1="89.2656" y1="170.481" x2="182.644" y2="170.481" gradientUnits="userSpaceOnUse">
<stop stop-color="#E38DDD"/>
<stop offset="1" stop-color="#9571F6"/>
</linearGradient>
</defs>
</svg>
