<svg width="24" height="24" viewBox="0 0 24 24" fill="none" xmlns="http://www.w3.org/2000/svg">
<path fill-rule="evenodd" clip-rule="evenodd" d="M22.9404 6.0281L12.8668 16.1016C12.7388 16.2282 12.5764 16.3142 12.3998 16.3489L7.82092 17.2647L7.63776 17.283C7.39435 17.2844 7.16039 17.1888 6.98756 17.0174C6.76353 16.8026 6.66357 16.4889 6.72199 16.1841L7.63776 11.6052C7.6725 11.4286 7.7585 11.2661 7.88502 11.1381L17.9586 1.06459C18.6051 0.384816 19.5022 0 20.4403 0C21.3785 0 22.2755 0.384816 22.9221 1.06459C23.6067 1.70727 23.9965 2.60342 24 3.5424C24.0034 4.48138 23.6202 5.38039 22.9404 6.0281ZM19.6253 6.75156L17.2534 4.3797L9.39605 12.2371L8.8008 15.2042L11.7679 14.6089L19.6253 6.75156ZM20.4541 1.8265C20.9085 1.8265 21.3409 2.02281 21.64 2.36499C21.9818 2.6624 22.178 3.09327 22.178 3.54634C22.178 3.99942 21.9818 4.43028 21.64 4.72769L20.9165 5.46032L18.5447 3.08846L19.2681 2.36499C19.5672 2.02281 19.9996 1.8265 20.4541 1.8265Z" fill="#FF9595"/>
<path d="M22.4417 13.7144V20.2599C22.4417 22.3256 20.7671 24.0002 18.7014 24.0002H3.74028C1.67458 24.0002 0 22.3256 0 20.2599V5.29874C0 3.23303 1.67458 1.55845 3.74028 1.55845H10.2858C10.8022 1.55845 11.2209 1.9771 11.2209 2.49352C11.2209 3.00995 10.8022 3.42859 10.2858 3.42859H3.74028C2.70743 3.42859 1.87014 4.26588 1.87014 5.29874V20.2599C1.87014 21.2927 2.70743 22.13 3.74028 22.13H18.7014C19.7343 22.13 20.5716 21.2927 20.5716 20.2599V13.7144C20.5716 13.1979 20.9902 12.7793 21.5066 12.7793C22.0231 12.7793 22.4417 13.1979 22.4417 13.7144Z" fill="#FF9595"/>
</svg>
