<svg width="24" height="19" viewBox="0 0 24 19" fill="none" xmlns="http://www.w3.org/2000/svg">
<path fill-rule="evenodd" clip-rule="evenodd" d="M12 5.33333C14.2056 5.33333 16 7.12773 16 9.33333C16 11.5389 14.2056 13.3333 12 13.3333C9.7944 13.3333 8 11.5389 8 9.33333C8 7.12773 9.7944 5.33333 12 5.33333ZM12 7.33333C10.899 7.33333 10 8.2323 10 9.33333C10 10.4343 10.899 11.3333 12 11.3333C13.101 11.3333 14 10.4343 14 9.33333C14 8.2323 13.101 7.33333 12 7.33333Z" fill="#FF9595"/>
<path fill-rule="evenodd" clip-rule="evenodd" d="M12 0C7.11045 0 2.46809 3.56605 0.218499 8.35126C-0.0728253 8.97097 -0.0728253 9.69563 0.218452 10.3154C2.47455 15.1143 7.12107 18.6667 12 18.6667C17.096 18.6667 21.6434 14.8636 23.7815 10.3154C24.0728 9.69568 24.0728 8.97098 23.7815 8.35127C21.5255 3.55239 16.8789 0 12 0ZM12.3404 2.67457C15.8573 2.83733 19.3502 5.49827 21.1949 9.13122L21.2933 9.332L21.3682 9.18091C19.627 12.8847 15.9021 16 12 16L11.6596 15.9921C8.14269 15.8293 4.64979 13.1684 2.8051 9.53548L2.70533 9.33333L2.6318 9.48576C4.4747 5.56564 8.24865 2.66667 12 2.66667L12.3404 2.67457Z" fill="#FF9595"/>
</svg>
