<svg width="276" height="250" viewBox="0 0 276 250" fill="none" xmlns="http://www.w3.org/2000/svg">
<path d="M222.661 202.367C216.892 208.312 211.732 211.807 207.78 214.445C169.239 240.178 125.053 237.124 111.433 234.589C89.4589 230.499 71.0442 223.251 55.107 208.852C18.892 176.134 20.6537 107.881 48.3257 65.6005C51.6069 60.5874 79.2378 19.6305 123.386 13.8597C124.466 13.7188 125.271 13.6383 125.978 13.5634C132.807 12.8387 175.13 9.02375 209.637 37.9357C214.577 42.0744 223.368 49.0369 229.899 60.9247C253.273 103.473 256.942 167.034 222.661 202.367Z" fill="url(#paint0_linear_122_21458)"/>
<path d="M220.711 103.572C220.645 103.288 220.579 103.003 220.51 102.719C210.075 59.7622 166.412 33.4905 122.985 44.0393L142.085 122.668L220.711 103.572Z" fill="#91B3FA"/>
<path d="M141.852 122.366L218.395 148.645C223.15 134.837 224.227 119.572 220.725 104.289C220.614 103.806 220.499 103.329 220.38 102.852L141.852 122.366Z" fill="#91B3FA"/>
<path d="M142.084 122.667L157.639 202.075C158.138 201.978 158.636 201.876 159.134 201.769C187.861 195.577 209.71 174.843 218.628 148.949L142.084 122.667Z" fill="#7D97F4"/>
<path d="M132.138 116.116L115.983 37.8357C79.4573 45.3731 53.8087 76.4317 51.5679 111.941L131.692 116.628C131.757 116.632 131.823 116.621 131.883 116.595C131.943 116.57 131.997 116.531 132.04 116.481C132.083 116.432 132.115 116.373 132.131 116.31C132.148 116.246 132.15 116.18 132.138 116.116Z" fill="url(#paint1_linear_122_21458)"/>
<path d="M142.133 122.333L61.393 119.649C61.0475 126.723 61.6836 132.651 63.294 139.898C70.8097 173.708 98.4648 197.829 130.835 202.461L142.133 122.333Z" fill="url(#paint2_linear_122_21458)"/>
<path d="M130.155 202.703C139.319 204.089 148.652 203.884 157.746 202.099L142.274 122.676L130.155 202.703Z" fill="url(#paint3_linear_122_21458)"/>
<g opacity="0.61">
<path d="M113.235 195.277C113.164 195.277 113.094 195.263 113.029 195.236C101.813 190.593 91.8181 183.427 83.8194 174.295C75.621 164.908 69.7222 153.5 66.7599 141.305C66.4942 140.212 66.2494 139.102 66.0352 138.008C66.0074 137.868 66.0363 137.723 66.1155 137.605C66.1947 137.486 66.3178 137.404 66.4575 137.376C66.5973 137.349 66.7424 137.377 66.8608 137.457C66.9793 137.536 67.0614 137.659 67.0892 137.799C67.3034 138.878 67.5449 139.973 67.8066 141.052C70.7278 153.079 76.5462 164.33 84.6351 173.588C92.5226 182.594 102.379 189.662 113.439 194.243C113.554 194.291 113.65 194.376 113.708 194.486C113.767 194.596 113.786 194.723 113.762 194.845C113.738 194.967 113.672 195.077 113.575 195.156C113.479 195.234 113.358 195.277 113.234 195.277H113.235Z" fill="white"/>
</g>
<g opacity="0.61">
<path d="M171.655 195.623C171.53 195.623 171.409 195.579 171.313 195.5C171.217 195.42 171.151 195.309 171.128 195.187C171.104 195.064 171.124 194.937 171.184 194.828C171.244 194.718 171.34 194.633 171.456 194.586C191.443 186.654 207.333 170.525 215.05 150.335C215.1 150.202 215.202 150.095 215.332 150.037C215.462 149.978 215.61 149.974 215.743 150.025C215.876 150.076 215.984 150.178 216.042 150.308C216.1 150.438 216.105 150.586 216.054 150.719C208.23 171.188 192.119 187.542 171.849 195.585C171.787 195.61 171.721 195.623 171.655 195.623Z" fill="white"/>
</g>
<g opacity="0.61">
<path d="M204.978 76.51C204.894 76.51 204.812 76.4908 204.738 76.4538C204.663 76.4167 204.599 76.363 204.548 76.2966C194.892 63.5062 181.701 54.1539 166.402 49.2422C166.267 49.1987 166.154 49.103 166.089 48.9762C166.024 48.8494 166.011 48.702 166.055 48.5663C166.099 48.4306 166.194 48.3177 166.321 48.2526C166.448 48.1874 166.595 48.1753 166.731 48.2188C182.241 53.1973 195.615 62.6833 205.406 75.6517C205.466 75.7315 205.502 75.8263 205.511 75.9257C205.52 76.025 205.502 76.1249 205.457 76.2142C205.413 76.3035 205.344 76.3787 205.26 76.4314C205.175 76.484 205.077 76.5121 204.978 76.5124V76.51Z" fill="white"/>
</g>
<g opacity="0.74">
<path d="M95.5502 111.567H95.5148L54.4058 108.915L54.4992 108.335C55.5805 101.365 57.3608 94.6164 60.1001 87.0967C60.1232 87.0291 60.1596 86.9669 60.2071 86.9135C60.2546 86.8602 60.3123 86.8169 60.3767 86.7861C60.4412 86.7553 60.5111 86.7377 60.5824 86.7343C60.6538 86.7308 60.7251 86.7417 60.7922 86.7662C60.8593 86.7906 60.9208 86.8282 60.9732 86.8768C61.0256 86.9253 61.0678 86.9838 61.0973 87.0489C61.1268 87.1139 61.143 87.1842 61.145 87.2556C61.147 87.327 61.1348 87.3981 61.109 87.4647C58.4712 94.7114 56.7312 101.225 55.653 107.917L95.5905 110.493C95.7306 110.501 95.8622 110.563 95.9571 110.666C96.052 110.77 96.1027 110.906 96.0982 111.046C96.0938 111.187 96.0347 111.32 95.9335 111.417C95.8322 111.514 95.697 111.568 95.5566 111.566L95.5502 111.567Z" fill="white"/>
</g>
<g opacity="0.74">
<path d="M127.795 113.645C127.776 113.645 127.757 113.645 127.738 113.645L119.352 113.103C119.281 113.098 119.212 113.08 119.149 113.049C119.086 113.018 119.029 112.974 118.983 112.921C118.936 112.868 118.9 112.807 118.878 112.74C118.855 112.673 118.846 112.602 118.85 112.532C118.855 112.461 118.873 112.393 118.904 112.329C118.935 112.266 118.979 112.209 119.032 112.163C119.085 112.116 119.146 112.081 119.213 112.058C119.28 112.035 119.351 112.026 119.421 112.03L127.53 112.555L118.808 71.7184C118.783 71.5807 118.812 71.4385 118.89 71.3221C118.968 71.2056 119.088 71.1241 119.225 71.0949C119.362 71.0656 119.505 71.0909 119.623 71.1654C119.742 71.2399 119.827 71.3577 119.86 71.4937L128.636 112.602C128.664 112.728 128.662 112.858 128.633 112.984C128.603 113.109 128.546 113.227 128.465 113.327C128.384 113.427 128.281 113.508 128.165 113.564C128.049 113.62 127.921 113.649 127.793 113.649L127.795 113.645Z" fill="white"/>
</g>
<path d="M142.616 105.518L142.23 104.811L168.357 90.5348L192.638 101.207L213.482 80.7614L213.524 80.7364L238.006 66.2881L238.416 66.9822L213.976 81.4055L192.813 102.164L168.396 91.4318L142.616 105.518Z" fill="url(#paint4_linear_122_21458)"/>
<path d="M143.23 107.869C144.715 107.42 145.555 105.852 145.105 104.367C144.656 102.882 143.087 102.042 141.602 102.492C140.117 102.941 139.278 104.509 139.727 105.994C140.177 107.479 141.745 108.319 143.23 107.869Z" fill="url(#paint5_linear_122_21458)"/>
<path d="M171.077 91.8118C171.527 90.3268 170.688 88.7585 169.203 88.3088C167.718 87.859 166.15 88.6982 165.7 90.1831C165.25 91.668 166.09 93.2364 167.574 93.6862C169.059 94.1359 170.628 93.2967 171.077 91.8118Z" fill="url(#paint6_linear_122_21458)"/>
<path d="M195.12 102.637C195.935 101.317 195.527 99.5862 194.207 98.7704C192.887 97.9547 191.156 98.3633 190.34 99.6831C189.525 101.003 189.933 102.734 191.253 103.55C192.573 104.366 194.304 103.957 195.12 102.637Z" fill="url(#paint7_linear_122_21458)"/>
<path d="M213.06 83.8928C214.611 83.8928 215.869 82.635 215.869 81.0835C215.869 79.5319 214.611 78.2742 213.06 78.2742C211.508 78.2742 210.25 79.5319 210.25 81.0835C210.25 82.635 211.508 83.8928 213.06 83.8928Z" fill="url(#paint8_linear_122_21458)"/>
<path d="M239.942 68.8576C241.165 67.9028 241.382 66.1374 240.428 64.9145C239.473 63.6915 237.707 63.4741 236.484 64.4289C235.261 65.3837 235.044 67.1491 235.999 68.3721C236.954 69.595 238.719 69.8124 239.942 68.8576Z" fill="url(#paint9_linear_122_21458)"/>
<path d="M71.1226 234.53C68.5154 234.755 63.991 235.121 60.424 235.278C58.2798 235.373 57.0422 235.162 56.3345 234.875C56.3345 234.955 56.3345 235.031 56.3409 235.101C56.351 235.284 56.4283 235.456 56.5578 235.584C56.6873 235.713 56.8599 235.789 57.0422 235.799C61.7084 236.064 66.3858 236.069 71.0526 235.812C71.1426 235.808 71.2301 235.78 71.3064 235.732C71.3827 235.684 71.4454 235.617 71.4883 235.538C71.5313 235.459 71.5531 235.37 71.5517 235.279C71.5502 235.189 71.5256 235.101 71.4801 235.023C71.373 234.85 71.2535 234.685 71.1226 234.53Z" fill="url(#paint10_linear_122_21458)"/>
<path d="M60.4237 235.278C63.9907 235.116 68.5151 234.755 71.1223 234.529C68.5593 231.384 60.4237 229.265 60.4237 229.265H58.1225C56.5427 231.543 56.314 233.712 56.3309 234.877C57.0451 235.162 58.2835 235.373 60.4237 235.278Z" fill="url(#paint11_linear_122_21458)"/>
<path d="M57.7397 225.514L57.9547 229.769C57.9658 229.994 58.0545 230.208 58.2057 230.375C58.357 230.541 58.5614 230.65 58.7841 230.683C59.3629 230.77 59.9538 230.72 60.5104 230.54C60.707 230.475 60.8826 230.359 61.0186 230.203C61.1547 230.047 61.2462 229.858 61.2834 229.654L62.0266 225.511L57.7397 225.514Z" fill="url(#paint12_linear_122_21458)"/>
<path d="M27.8951 235.246C26.7678 235.085 26.2533 234.501 26.0383 233.877V233.894C25.8716 234.556 26.2573 235.243 27.0287 235.569C27.9603 235.963 28.9789 236.031 29.7663 235.998C30.615 235.963 31.3944 235.612 31.822 235.05L31.8284 235.042C30.9757 235.459 29.78 235.509 27.8951 235.246Z" fill="url(#paint13_linear_122_21458)"/>
<path d="M33.2252 225.49H31.3306C28.444 225.432 26.6315 231.52 26.0381 233.877C26.2531 234.505 26.7628 235.092 27.8949 235.246C29.7806 235.509 30.9755 235.459 31.8274 235.038C33.3871 232.986 34.1625 229.98 34.532 228.226C34.954 226.232 33.2252 225.49 33.2252 225.49Z" fill="url(#paint14_linear_122_21458)"/>
<path d="M31.5742 221.538L30.5218 225.725C30.4597 225.975 30.4844 226.238 30.5918 226.472C30.6991 226.706 30.8829 226.897 31.1128 227.013C31.7014 227.315 32.5307 227.632 33.2924 227.54C33.4676 227.517 33.6328 227.446 33.7695 227.334C33.9062 227.222 34.009 227.074 34.0662 226.907L35.6106 222.505L31.5742 221.538Z" fill="url(#paint15_linear_122_21458)"/>
<path d="M30.3188 222.747C31.6281 223.908 35.8867 224.062 35.8867 224.062C51.2248 187.248 57.4989 182.019 57.4989 182.019C55.2846 195.913 57.1422 226.675 57.1422 226.675C59.6729 227.792 62.9395 226.675 62.9395 226.675C63.1261 207.017 65.757 187.458 70.7716 168.449C60.4048 168.215 54.8925 164.669 53.0921 163.244C44.4475 177.179 30.3188 222.747 30.3188 222.747Z" fill="url(#paint16_linear_122_21458)"/>
<path d="M55.7217 120.909C53.7595 130.697 54.4624 148.215 54.9246 156.205C55.0542 158.451 53.4865 161.565 52.2191 163.688C52.1721 163.766 52.1416 163.854 52.1297 163.944C52.1178 164.035 52.1247 164.127 52.1499 164.215C52.1751 164.303 52.2181 164.385 52.2763 164.455C52.3345 164.526 52.4066 164.584 52.4881 164.625C54.6098 165.715 61.7977 169.095 70.1274 169.516C70.3976 169.526 70.6634 169.444 70.8807 169.283C71.0979 169.122 71.2537 168.892 71.3223 168.63C77.5013 145.559 84.6788 130.816 84.6788 130.816C76.7549 118.158 55.7217 120.909 55.7217 120.909Z" fill="url(#paint17_linear_122_21458)"/>
<path d="M58.5455 181.147C58.458 181.148 58.3718 181.125 58.2961 181.081C58.2203 181.037 58.1576 180.974 58.1144 180.898C58.0713 180.822 58.0494 180.735 58.0509 180.648C58.0523 180.56 58.0772 180.475 58.1228 180.4C58.2033 180.265 60.1897 177.058 64.2044 175.12C64.2626 175.092 64.3257 175.076 64.3901 175.072C64.4546 175.069 64.5191 175.078 64.5801 175.099C64.641 175.12 64.6971 175.154 64.7453 175.197C64.7934 175.24 64.8326 175.292 64.8606 175.35C64.8887 175.408 64.905 175.471 64.9086 175.535C64.9122 175.6 64.9031 175.664 64.8818 175.725C64.8605 175.786 64.8274 175.842 64.7844 175.891C64.7414 175.939 64.6893 175.978 64.6312 176.006C60.8886 177.812 58.9811 180.881 58.9618 180.912C58.9182 180.983 58.8571 181.042 58.7842 181.084C58.7114 181.125 58.6292 181.147 58.5455 181.147Z" fill="url(#paint18_linear_122_21458)"/>
<path d="M43.4131 148.997C44.0436 153.556 45.9092 158.53 49.6308 163.813L51.0471 162.658C51.0471 162.658 49.4126 156.026 50.3418 148.498C48.0437 148.053 45.3294 148.514 43.4131 148.997Z" fill="url(#paint19_linear_122_21458)"/>
<path d="M57.9134 132.986L55.7217 120.908C55.7217 120.908 41.0777 132.1 43.4136 148.999C45.3299 148.516 48.0442 148.052 50.3382 148.5C51.0113 143.078 53.0114 137.192 57.9134 132.986Z" fill="url(#paint20_linear_122_21458)"/>
<path d="M84.6788 130.814L79.0264 142.987C79.9403 150.336 83.8881 153.514 88.1452 154.733C88.3547 152.006 88.9955 149.33 90.0438 146.805C84.6039 141.187 84.6788 130.814 84.6788 130.814Z" fill="url(#paint21_linear_122_21458)"/>
<path d="M90.0441 146.805C88.9959 149.33 88.355 152.006 88.1455 154.733C99.5027 159.139 102.508 150.593 102.508 150.593L100.409 150.223C95.6684 150.722 92.3575 149.194 90.0441 146.805Z" fill="url(#paint22_linear_122_21458)"/>
<path d="M79.4707 115.785L76.7419 125.816C76.6697 126.082 76.5421 126.329 76.3674 126.542C76.1927 126.755 75.975 126.928 75.7285 127.051C75.482 127.173 75.2123 127.243 74.9372 127.254C74.6621 127.265 74.3878 127.217 74.1323 127.115C72.9623 126.647 71.4752 126.008 70.1989 125.318C69.877 125.143 69.5951 124.903 69.3713 124.613C69.1476 124.323 68.9869 123.989 68.8995 123.634C68.8122 123.278 68.8002 122.908 68.8642 122.547C68.9282 122.186 69.0669 121.843 69.2714 121.539L74.9447 113.079L79.4707 115.785Z" fill="url(#paint23_linear_122_21458)"/>
<path d="M107.713 143.88L37.7902 169.329C37.0967 169.582 36.4628 169.975 35.9285 170.484C35.3942 170.993 34.9709 171.607 34.6851 172.288C34.3994 172.968 34.2574 173.7 34.2681 174.438C34.2788 175.176 34.442 175.904 34.7473 176.576L34.9599 177.043C35.2316 177.64 35.6187 178.178 36.0991 178.625C36.5794 179.072 37.1434 179.42 37.7587 179.648C38.3739 179.876 39.0282 179.981 39.6839 179.955C40.3397 179.929 40.9838 179.774 41.5794 179.499L109.474 148.091L107.713 143.88Z" fill="url(#paint24_linear_122_21458)"/>
<path opacity="0.23" d="M139.852 162.466C158.915 162.466 174.369 147.291 174.369 128.572C174.369 109.852 158.915 94.6772 139.852 94.6772C120.789 94.6772 105.335 109.852 105.335 128.572C105.335 147.291 120.789 162.466 139.852 162.466Z" fill="url(#paint25_linear_122_21458)"/>
<path d="M139.849 90.8562C118.638 90.8562 101.442 107.743 101.442 128.572C101.442 149.402 118.638 166.287 139.849 166.287C161.061 166.287 178.257 149.402 178.257 128.572C178.257 107.743 161.065 90.8562 139.849 90.8562ZM139.849 160.747C121.753 160.747 107.083 146.341 107.083 128.571C107.083 110.802 121.753 96.3959 139.849 96.3959C157.946 96.3959 172.621 110.802 172.621 128.572C172.621 146.342 157.949 160.748 139.849 160.748V160.747Z" fill="url(#paint26_linear_122_21458)"/>
<path d="M104.364 133.244C104.301 133.244 104.241 133.221 104.193 133.179C104.146 133.138 104.116 133.081 104.108 133.018C103.994 132.12 103.913 131.21 103.866 130.314C103.863 130.247 103.887 130.18 103.932 130.13C103.977 130.079 104.04 130.048 104.108 130.044C104.142 130.04 104.177 130.043 104.21 130.054C104.243 130.064 104.274 130.082 104.299 130.105C104.325 130.128 104.345 130.157 104.359 130.189C104.373 130.22 104.379 130.255 104.379 130.289C104.421 131.171 104.501 132.068 104.614 132.954C104.622 133.022 104.603 133.09 104.561 133.144C104.519 133.198 104.458 133.233 104.39 133.242C104.381 133.243 104.373 133.244 104.364 133.244ZM104.627 122.696C104.612 122.696 104.597 122.694 104.581 122.692C104.548 122.686 104.516 122.673 104.488 122.655C104.459 122.637 104.435 122.613 104.415 122.585C104.396 122.557 104.382 122.526 104.375 122.493C104.368 122.46 104.368 122.425 104.374 122.392C104.81 119.961 105.504 117.584 106.446 115.3C111.982 101.869 125.095 93.1895 139.851 93.1895C146.691 93.1776 153.395 95.0937 159.196 98.7179C159.25 98.756 159.288 98.8134 159.301 98.8784C159.314 98.9434 159.302 99.011 159.267 99.0671C159.231 99.1233 159.176 99.1637 159.112 99.1801C159.047 99.1965 158.979 99.1876 158.921 99.1552C153.203 95.5827 146.593 93.6945 139.85 93.7072C125.303 93.7072 112.377 102.262 106.917 115.499C105.991 117.748 105.306 120.09 104.876 122.484C104.866 122.543 104.836 122.597 104.79 122.636C104.745 122.675 104.687 122.697 104.627 122.698V122.696Z" fill="#91B3FA"/>
<path d="M85.4416 108.163C85.4658 108.335 83.1645 119.608 83.1645 119.608L76.7544 118.158L77.3478 107.148C77.3478 107.148 85.0253 105.279 85.4416 108.163Z" fill="url(#paint27_linear_122_21458)"/>
<path d="M78.7893 109.603L78.0236 115.375C78.0131 115.448 78.0131 115.522 78.0236 115.596C78.088 116.048 78.4262 117.588 79.9794 117.148C81.3901 116.745 82.684 116.405 83.577 116.678C83.7705 116.737 83.9352 116.866 84.0386 117.04C84.1421 117.214 84.177 117.42 84.1366 117.618C83.9272 118.642 83.4119 120.942 82.6607 122.871C82.5869 123.06 82.4447 123.215 82.2624 123.305C82.08 123.394 81.8707 123.412 81.6759 123.354C80.4601 123 77.9173 122.18 76.0259 121.043C75.9001 120.968 75.7969 120.86 75.7272 120.731C75.6575 120.602 75.6238 120.457 75.6298 120.311C75.6909 118.853 75.8616 114.425 75.7183 113.183C75.583 112.017 74.153 111.319 73.5314 111.069C73.431 111.028 73.3398 110.968 73.2634 110.891C73.187 110.815 73.1269 110.723 73.087 110.623C72.7995 109.898 72.4025 108.233 74.5057 107.549C74.6098 107.516 74.7061 107.461 74.7888 107.39C74.8715 107.318 74.9389 107.23 74.9869 107.132C75.035 107.034 75.0628 106.927 75.0687 106.818C75.0745 106.708 75.0583 106.599 75.021 106.496C74.7094 105.629 74.5782 104.306 76.2046 103.576C77.8585 102.836 79.0929 103.717 79.7596 104.433C79.8906 104.572 80.0663 104.66 80.2559 104.683C80.4455 104.705 80.6369 104.66 80.7967 104.556C80.9875 104.436 81.2323 104.394 81.5286 104.58C81.6245 104.637 81.7312 104.673 81.8418 104.686C81.9525 104.7 82.0647 104.69 82.1713 104.658C82.2779 104.625 82.3767 104.571 82.4614 104.499C82.546 104.426 82.6147 104.337 82.6631 104.237C83.0592 103.424 83.866 102.554 85.4813 102.831C88.3534 103.323 88.6787 106.506 87.921 108.371C87.1633 110.235 84.0794 109.526 82.5318 108.586C81.3563 107.871 79.8304 108.62 79.1661 109.02C79.0638 109.083 78.9769 109.168 78.9117 109.269C78.8465 109.37 78.8047 109.484 78.7893 109.603Z" fill="url(#paint28_linear_122_21458)"/>
<path d="M75.4607 115.284C75.4607 115.284 76.6419 111.977 75.4285 111.167C74.2151 110.357 72.4187 110.778 72.814 113.174C73.306 116.153 75.4607 115.284 75.4607 115.284Z" fill="url(#paint29_linear_122_21458)"/>
<path d="M50.4638 162.459L57.0761 161.921L59.9385 164.559C59.9385 164.559 59.2613 165.496 57.1445 164.958C55.0277 164.42 52.1266 164.288 52.1266 164.288C52.1266 164.288 49.2037 165.605 49.1675 163.14L50.4638 162.459Z" fill="url(#paint30_linear_122_21458)"/>
<path d="M101.665 152.157C102.236 152.603 104.195 151.674 105.393 151.03C105.677 150.878 105.899 150.633 106.021 150.335C106.142 150.037 106.156 149.707 106.06 149.4C105.772 148.491 105.291 147.317 104.699 147.169C103.716 146.92 99.3095 150.316 101.665 152.157Z" fill="url(#paint31_linear_122_21458)"/>
<path d="M39.1693 178.522C39.1405 178.522 39.1119 178.517 39.0847 178.508C36.3535 177.563 35.7182 175.949 35.6667 174.762C35.5918 173.027 36.6821 171.416 38.3794 170.754L46.7751 167.48C46.8392 167.456 46.9105 167.457 46.9734 167.485C47.0363 167.513 47.0856 167.564 47.1105 167.628C47.1354 167.692 47.1338 167.764 47.1061 167.827C47.0784 167.889 47.0268 167.939 46.9627 167.964L38.5662 171.237C37.075 171.819 36.1168 173.227 36.1828 174.742C36.2473 176.237 37.2803 177.34 39.2538 178.022C39.3111 178.042 39.3595 178.082 39.3906 178.134C39.4217 178.186 39.4334 178.247 39.4238 178.307C39.4142 178.367 39.3839 178.421 39.3381 178.461C39.2923 178.501 39.234 178.523 39.1733 178.524L39.1693 178.522Z" fill="#91B3FA"/>
<path d="M49.4554 166.97C49.395 166.97 49.3362 166.95 49.2895 166.911C49.2428 166.873 49.211 166.819 49.1998 166.76C49.1886 166.701 49.1986 166.639 49.2281 166.586C49.2576 166.534 49.3047 166.493 49.3612 166.471L50.4498 166.047C50.4815 166.035 50.5154 166.029 50.5494 166.03C50.5834 166.03 50.617 166.038 50.6481 166.052C50.6792 166.065 50.7074 166.085 50.7309 166.11C50.7544 166.134 50.7729 166.163 50.7852 166.195C50.7975 166.227 50.8035 166.26 50.8027 166.294C50.8019 166.328 50.7945 166.362 50.7808 166.393C50.767 166.424 50.7473 166.452 50.7227 166.476C50.6981 166.499 50.6691 166.518 50.6374 166.53L49.5488 166.953C49.519 166.964 49.4873 166.97 49.4554 166.97Z" fill="#91B3FA"/>
<path d="M220.521 227.458C220.521 227.458 221.004 230.175 221.236 232.865C221.258 233.115 221.228 233.366 221.15 233.603C221.071 233.841 220.946 234.06 220.78 234.248C220.615 234.436 220.413 234.588 220.187 234.695C219.961 234.803 219.715 234.863 219.465 234.873C215.883 235.022 208.22 235.313 205.47 235.19C205.374 235.185 205.28 235.158 205.197 235.11C205.114 235.062 205.043 234.994 204.992 234.914C204.94 234.833 204.908 234.741 204.899 234.645C204.89 234.549 204.904 234.453 204.939 234.364C205.068 234.043 205.315 233.783 205.629 233.639L218.287 227.821L220.521 227.458Z" fill="url(#paint32_linear_122_21458)"/>
<path d="M220.915 225.861L220.53 229.114C220.53 229.114 218.312 230.146 216.798 228.983L217.717 225.36L220.915 225.861Z" fill="url(#paint33_linear_122_21458)"/>
<path d="M220.625 164.749C220.791 165.598 221.518 207.11 217.082 225.712C217.046 225.858 217.063 226.013 217.131 226.148C217.199 226.283 217.313 226.389 217.452 226.447C218.607 226.893 219.829 227.141 221.066 227.181C221.307 227.189 221.544 227.117 221.739 226.975C221.934 226.834 222.077 226.632 222.145 226.4C223.414 222.084 229.491 200.459 230.285 179.801C231.17 156.718 230.285 179.016 230.285 179.016L229.764 164.747L220.625 164.749Z" fill="url(#paint34_linear_122_21458)"/>
<path d="M235.082 228.872C235.082 228.872 235.846 230.241 236.585 233.889C236.618 234.044 236.617 234.205 236.584 234.36C236.55 234.515 236.484 234.661 236.391 234.789C236.297 234.917 236.177 235.023 236.039 235.101C235.901 235.18 235.748 235.228 235.591 235.244C234.408 235.359 232.586 235.509 231.127 235.5C230.969 235.499 230.812 235.465 230.667 235.4C230.523 235.334 230.393 235.239 230.288 235.121C230.183 235.002 230.104 234.862 230.056 234.711C230.008 234.559 229.993 234.4 230.011 234.242C230.173 232.911 230.677 230.728 232.231 229.026L235.082 228.872Z" fill="url(#paint35_linear_122_21458)"/>
<path d="M235.752 224.694L234.851 229.606C234.851 229.606 233.96 230.268 232.194 229.789L232.625 224.499L235.752 224.694Z" fill="url(#paint36_linear_122_21458)"/>
<path d="M238.187 166.023C241.816 187.924 237.4 220.155 235.91 226.463C235.867 226.652 235.768 226.824 235.627 226.957C235.485 227.09 235.308 227.178 235.116 227.21C234.451 227.321 233.357 227.411 232.277 227.097C232.096 227.044 231.936 226.935 231.82 226.786C231.703 226.637 231.637 226.455 231.629 226.267C231.43 221.166 231.79 189.857 228.408 177.484C228.237 176.857 227.854 176.309 227.325 175.933L220.762 171.263L220.258 163.721L238.187 166.023Z" fill="url(#paint37_linear_122_21458)"/>
<path d="M215.062 124.52C225.938 124.34 237.938 127.376 237.938 127.376C241.18 146.291 238.502 168.109 238.502 168.109C230.082 170.317 220.584 166.76 220.584 166.76C219.185 158.853 212.655 136.601 212.655 136.601C207.341 135.942 202.964 134.409 199.359 132.382C202.109 129.195 203.405 125.136 203.968 122.742C207.817 123.94 211.708 124.578 215.062 124.52Z" fill="url(#paint38_linear_122_21458)"/>
<path d="M182.938 108.503C184.006 107.215 185.358 107.824 185.358 107.824C186.959 114.587 195.351 120.063 203.972 122.745C203.408 125.143 202.113 129.198 199.363 132.385C185.055 124.341 182.938 108.503 182.938 108.503Z" fill="url(#paint39_linear_122_21458)"/>
<path d="M183.197 108.832C183.085 109.187 184.38 109.728 185.141 108.275C185.168 107.578 185.592 104.593 185.176 104.026C182.958 101.004 178.66 97.2146 178.66 97.2146C177.936 97.9312 178.532 98.6358 178.532 98.6358L180.618 100.81C180.181 101.597 179.651 102.259 179.4 103.216C179.217 103.944 179.322 104.714 179.692 105.366C180.057 106.026 180.556 106.883 181.029 107.554C181.922 108.822 183.197 108.832 183.197 108.832Z" fill="url(#paint40_linear_122_21458)"/>
<path d="M181.53 102.216L183.43 103.826L184.026 105.43L182.336 107.309C182.336 107.309 181.766 104.127 181.343 103.439C180.919 102.75 181.136 102.419 181.53 102.216Z" fill="url(#paint41_linear_122_21458)"/>
<path d="M233.767 137.909L237.938 127.379C237.938 127.379 248.097 134.281 249.767 143.032C247.848 143.173 244.355 143.673 240.936 145.399C240.185 141.267 233.767 137.909 233.767 137.909Z" fill="url(#paint42_linear_122_21458)"/>
<path d="M224.89 147.819C224.89 147.819 236.295 154.265 240.143 148.761C240.942 147.618 241.134 146.482 240.936 145.399C244.355 143.673 247.848 143.173 249.768 143.032C250.271 145.67 250.009 148.476 248.454 151.312C241.713 163.644 223.38 150.631 223.38 150.631L224.89 147.819Z" fill="url(#paint43_linear_122_21458)"/>
<path d="M226.26 155.973L220.035 134.233C220.001 134.113 219.932 134.005 219.836 133.924C219.741 133.843 219.623 133.792 219.499 133.777C218.372 133.645 215.104 133.276 211.33 132.957C206.785 132.572 201.507 132.261 198.353 132.526C198.25 132.534 198.15 132.568 198.062 132.624C197.975 132.679 197.902 132.756 197.851 132.846C197.8 132.936 197.771 133.037 197.768 133.141C197.765 133.245 197.788 133.348 197.834 133.441C199.627 137.07 207.004 151.83 210.699 156.665C210.759 156.744 210.837 156.808 210.926 156.852C211.015 156.895 211.113 156.918 211.212 156.917L225.655 156.783C225.752 156.782 225.849 156.758 225.936 156.714C226.023 156.67 226.099 156.606 226.157 156.528C226.216 156.449 226.256 156.359 226.274 156.262C226.291 156.166 226.287 156.067 226.26 155.973Z" fill="url(#paint44_linear_122_21458)"/>
<path d="M210.685 131.074L206.172 130.322C206.117 130.313 206.06 130.318 206.007 130.337C205.955 130.355 205.908 130.388 205.872 130.43C205.835 130.472 205.81 130.523 205.8 130.578C205.789 130.633 205.793 130.69 205.811 130.743L206.258 132.097C206.277 132.155 206.311 132.206 206.358 132.245C206.405 132.283 206.462 132.308 206.522 132.316L210.867 132.893C210.92 132.901 210.973 132.895 211.022 132.878C211.072 132.86 211.116 132.83 211.152 132.791C211.187 132.752 211.212 132.705 211.225 132.654C211.238 132.603 211.238 132.549 211.226 132.498L210.949 131.317C210.934 131.255 210.901 131.198 210.854 131.155C210.807 131.112 210.748 131.083 210.685 131.074Z" fill="url(#paint45_linear_122_21458)"/>
<path d="M214.064 134.895L213.692 132.962C213.674 132.868 213.626 132.781 213.555 132.716C213.484 132.651 213.393 132.611 213.298 132.601L204.185 131.672C204.113 131.665 204.041 131.674 203.974 131.7C203.907 131.726 203.848 131.768 203.8 131.822C203.753 131.876 203.719 131.94 203.702 132.01C203.685 132.08 203.685 132.152 203.701 132.222L204.281 134.638C204.304 134.732 204.356 134.816 204.43 134.878C204.505 134.94 204.597 134.976 204.693 134.981L213.601 135.428C213.669 135.432 213.737 135.42 213.8 135.393C213.863 135.367 213.919 135.326 213.963 135.275C214.008 135.223 214.04 135.162 214.058 135.096C214.075 135.03 214.077 134.961 214.064 134.895Z" fill="url(#paint46_linear_122_21458)"/>
<path d="M224.756 150.721C224.756 150.721 225.623 147.156 225.273 145.89C224.922 144.624 224.245 142.999 221.987 143.36C219.728 143.722 217.063 144.674 217.063 144.674C217.063 144.674 217.197 146.321 218.915 145.79L217.85 146.613C217.85 146.613 218.002 147.932 219.452 147.228L218.462 148.32C218.462 148.32 219.085 149.403 220.153 148.708C221.222 148.014 221.73 151.151 224.756 150.721Z" fill="url(#paint47_linear_122_21458)"/>
<path d="M226.079 115.694L229.542 125.701C229.57 125.781 229.57 125.868 229.54 125.947C229.511 126.027 229.454 126.094 229.38 126.136C228.438 126.657 225.039 128.165 220.944 125.572C220.732 125.44 220.553 125.262 220.417 125.053C220.282 124.843 220.195 124.606 220.162 124.359L219.041 115.698L226.079 115.694Z" fill="url(#paint48_linear_122_21458)"/>
<path d="M218.549 106.426C218.549 106.426 214.749 113.579 215.236 116.468C215.724 119.357 220.433 119.15 224.545 116.804L227.419 109.08L218.549 106.426Z" fill="url(#paint49_linear_122_21458)"/>
<path d="M224.364 113.011C224.325 112.994 224.29 112.968 224.261 112.936C224.233 112.904 224.212 112.866 224.199 112.825C224.187 112.784 224.184 112.741 224.19 112.698C224.196 112.656 224.212 112.615 224.235 112.579C224.539 112.114 225.11 111.165 225.292 110.334C225.292 110.334 225.975 109.897 223.553 109.317C221.131 108.738 217.52 107.838 216.761 105.775C216.021 103.762 217.969 98.7098 221.068 102.737C221.096 102.773 221.131 102.802 221.172 102.822C221.212 102.842 221.257 102.852 221.302 102.852C221.347 102.852 221.391 102.842 221.432 102.822C221.472 102.802 221.508 102.773 221.535 102.737C222.043 102.076 223.381 100.701 225.239 101.534C226.976 102.314 227.172 103.587 227.148 104.229C227.146 104.273 227.155 104.317 227.172 104.357C227.19 104.398 227.216 104.434 227.249 104.463C227.283 104.491 227.322 104.512 227.365 104.524C227.407 104.535 227.452 104.537 227.495 104.529C228.374 104.361 230.481 104.217 231.465 106.381C232.276 108.162 231.748 109.17 231.269 109.664C231.234 109.7 231.208 109.744 231.195 109.793C231.182 109.842 231.181 109.894 231.194 109.943C231.207 109.992 231.232 110.037 231.267 110.074C231.302 110.11 231.346 110.137 231.395 110.152C231.972 110.328 232.718 110.817 232.643 112.17C232.54 114.04 230.45 113.875 229.855 113.789C229.807 113.782 229.757 113.787 229.712 113.803C229.666 113.819 229.625 113.846 229.592 113.882C229.082 114.446 226.783 116.845 224.295 117.134C224.245 117.139 224.195 117.132 224.149 117.112C224.103 117.093 224.062 117.062 224.031 117.023C224 116.984 223.979 116.938 223.971 116.888C223.962 116.839 223.966 116.789 223.982 116.741L225.06 113.611C225.084 113.54 225.08 113.464 225.051 113.396C225.021 113.328 224.967 113.273 224.899 113.244L224.364 113.011Z" fill="url(#paint50_linear_122_21458)"/>
<path d="M223.93 113.455C223.93 113.455 226.636 111.599 226.834 113.162C227.032 114.726 224.397 115.426 223.092 114.843L223.93 113.455Z" fill="url(#paint51_linear_122_21458)"/>
<path d="M93.4561 67.2158L103.853 67.9236C103.962 67.933 104.07 67.9084 104.164 67.8533C104.257 67.7982 104.332 67.7152 104.376 67.616C104.42 67.5168 104.432 67.4063 104.411 67.2998C104.389 67.1933 104.335 67.0961 104.256 67.0218L94.2854 59.6382L93.4561 67.2158Z" fill="#91B3FA"/>
<path d="M34.0548 33.9355L92.6139 33.5772C93.9545 33.5691 95.044 34.5628 95.0335 35.7842L94.7871 65.2679C94.7766 66.4974 93.6598 67.4781 92.3111 67.4419L34.3865 65.8549C33.0982 65.8203 32.0716 64.8669 32.0515 63.6937L31.6642 36.1562C31.6505 34.9428 32.7222 33.9468 34.0548 33.9355Z" fill="#91B3FA"/>
<path opacity="0.14" d="M35.8685 35.7425L90.702 35.4292C91.9573 35.422 92.9775 36.29 92.9678 37.3617L92.7367 63.1222C92.727 64.1963 93.6458 65.7068 92.384 65.6746L36.1817 63.6343C34.9739 63.6037 34.0149 62.7711 33.9988 61.7453L33.6365 37.6846C33.6172 36.6193 34.6196 35.7497 35.8685 35.7425Z" fill="white"/>
<path opacity="0.77" d="M92.3853 65.6705L34.4446 64.0835C34.3324 64.0851 34.2238 64.0435 34.1415 63.9672C34.0591 63.8908 34.0094 63.7857 34.0026 63.6736L33.6153 36.1361C33.6146 36.0804 33.6259 36.0252 33.6484 35.9742C33.6709 35.9232 33.7041 35.8777 33.7457 35.8406C33.833 35.7591 33.9483 35.7141 34.0678 35.715L92.6261 35.3567C92.745 35.3558 92.8599 35.3994 92.9481 35.4791C92.9906 35.5161 93.0244 35.562 93.0474 35.6134C93.0703 35.6649 93.0818 35.7207 93.081 35.777L92.8395 65.2575C92.8332 65.3722 92.782 65.4798 92.6971 65.5571C92.6121 65.6344 92.5001 65.6751 92.3853 65.6705ZM34.4688 63.6575L92.3926 65.2438L92.6196 35.7738L34.071 36.141L34.4688 63.6575Z" fill="white"/>
<path opacity="0.77" d="M37.4292 42.4053C37.4292 43.452 38.0371 44.2942 38.7859 44.2942H88.5934C89.3423 44.2942 89.9502 43.4488 89.9502 42.4053C89.9502 41.3617 89.3423 40.5171 88.5934 40.5171H38.7892C38.0403 40.5171 37.4292 41.3625 37.4292 42.4053Z" fill="white"/>
<path opacity="0.77" d="M40.1603 47.5151H86.8566C87.8727 47.5151 88.6964 48.0224 88.6964 48.648C88.6964 49.2737 87.8727 49.7809 86.8566 49.7809H40.1603C39.1442 49.7809 38.3213 49.2737 38.3213 48.648C38.3213 48.0224 39.1442 47.5151 40.1603 47.5151Z" fill="white"/>
<path opacity="0.77" d="M38.3213 53.8076C38.3213 54.4324 39.1434 54.9349 40.1571 54.9349H86.8582C87.8727 54.9349 88.6948 54.4292 88.6948 53.8076V53.1087C88.6948 52.4734 87.8453 51.9629 86.8139 51.9814L40.1128 52.6804C39.12 52.6965 38.3213 53.1941 38.3213 53.8076Z" fill="white"/>
<path opacity="0.77" d="M40.3452 57.373H87.0415C88.0576 57.373 88.8813 57.8803 88.8813 58.506C88.8813 59.1316 88.0576 59.638 87.0415 59.638H40.3452C39.3291 59.638 38.5054 59.1316 38.5054 58.506C38.5054 57.8803 39.3291 57.373 40.3452 57.373Z" fill="white"/>
<defs>
<linearGradient id="paint0_linear_122_21458" x1="269.708" y1="268.972" x2="113.458" y2="102.642" gradientUnits="userSpaceOnUse">
<stop stop-color="#DAE3FE"/>
<stop offset="1" stop-color="#E9EFFD"/>
</linearGradient>
<linearGradient id="paint1_linear_122_21458" x1="102.927" y1="24.9204" x2="79.8252" y2="209.733" gradientUnits="userSpaceOnUse">
<stop stop-color="#FF928E"/>
<stop offset="1" stop-color="#FE7062"/>
</linearGradient>
<linearGradient id="paint2_linear_122_21458" x1="265.552" y1="234.583" x2="115.66" y2="153.997" gradientUnits="userSpaceOnUse">
<stop stop-color="#4F52FF"/>
<stop offset="1" stop-color="#4042E2"/>
</linearGradient>
<linearGradient id="paint3_linear_122_21458" x1="160.559" y1="151.281" x2="251.891" y2="55.1135" gradientUnits="userSpaceOnUse">
<stop stop-color="#4F52FF"/>
<stop offset="1" stop-color="#4042E2"/>
</linearGradient>
<linearGradient id="paint4_linear_122_21458" x1="224.49" y1="52.4718" x2="156.137" y2="119.339" gradientUnits="userSpaceOnUse">
<stop stop-color="#2B3582"/>
<stop offset="1" stop-color="#150E42"/>
</linearGradient>
<linearGradient id="paint5_linear_122_21458" x1="146.909" y1="100.784" x2="140.238" y2="107.309" gradientUnits="userSpaceOnUse">
<stop stop-color="#09005D"/>
<stop offset="1" stop-color="#1A0F91"/>
</linearGradient>
<linearGradient id="paint6_linear_122_21458" x1="172.879" y1="86.5982" x2="166.208" y2="93.1242" gradientUnits="userSpaceOnUse">
<stop stop-color="#09005D"/>
<stop offset="1" stop-color="#1A0F91"/>
</linearGradient>
<linearGradient id="paint7_linear_122_21458" x1="197.217" y1="96.7679" x2="190.546" y2="103.294" gradientUnits="userSpaceOnUse">
<stop stop-color="#09005D"/>
<stop offset="1" stop-color="#1A0F91"/>
</linearGradient>
<linearGradient id="paint8_linear_122_21458" x1="217.541" y1="76.7" x2="210.87" y2="83.2261" gradientUnits="userSpaceOnUse">
<stop stop-color="#09005D"/>
<stop offset="1" stop-color="#1A0F91"/>
</linearGradient>
<linearGradient id="paint9_linear_122_21458" x1="242.697" y1="62.2517" x2="236.026" y2="68.7778" gradientUnits="userSpaceOnUse">
<stop stop-color="#09005D"/>
<stop offset="1" stop-color="#1A0F91"/>
</linearGradient>
<linearGradient id="paint10_linear_122_21458" x1="56.3345" y1="235.265" x2="71.5526" y2="235.265" gradientUnits="userSpaceOnUse">
<stop stop-color="#4F52FF"/>
<stop offset="1" stop-color="#4042E2"/>
</linearGradient>
<linearGradient id="paint11_linear_122_21458" x1="56.3333" y1="232.283" x2="71.1231" y2="232.283" gradientUnits="userSpaceOnUse">
<stop stop-color="#09005D"/>
<stop offset="1" stop-color="#1A0F91"/>
</linearGradient>
<linearGradient id="paint12_linear_122_21458" x1="57.7397" y1="228.119" x2="62.0266" y2="228.119" gradientUnits="userSpaceOnUse">
<stop stop-color="#FEBBBA"/>
<stop offset="1" stop-color="#FF928E"/>
</linearGradient>
<linearGradient id="paint13_linear_122_21458" x1="25.9964" y1="234.938" x2="31.8284" y2="234.938" gradientUnits="userSpaceOnUse">
<stop stop-color="#4F52FF"/>
<stop offset="1" stop-color="#4042E2"/>
</linearGradient>
<linearGradient id="paint14_linear_122_21458" x1="26.0389" y1="230.447" x2="34.5989" y2="230.447" gradientUnits="userSpaceOnUse">
<stop stop-color="#09005D"/>
<stop offset="1" stop-color="#1A0F91"/>
</linearGradient>
<linearGradient id="paint15_linear_122_21458" x1="30.488" y1="224.545" x2="35.6114" y2="224.545" gradientUnits="userSpaceOnUse">
<stop stop-color="#FEBBBA"/>
<stop offset="1" stop-color="#FF928E"/>
</linearGradient>
<linearGradient id="paint16_linear_122_21458" x1="-22.3173" y1="281.915" x2="81.9082" y2="169.093" gradientUnits="userSpaceOnUse">
<stop stop-color="#4F52FF"/>
<stop offset="1" stop-color="#4042E2"/>
</linearGradient>
<linearGradient id="paint17_linear_122_21458" x1="-161.118" y1="318.991" x2="-109.81" y2="279.235" gradientUnits="userSpaceOnUse">
<stop stop-color="#FF928E"/>
<stop offset="1" stop-color="#FE7062"/>
</linearGradient>
<linearGradient id="paint18_linear_122_21458" x1="58.8024" y1="134.764" x2="60.4144" y2="160.821" gradientUnits="userSpaceOnUse">
<stop stop-color="#4F52FF"/>
<stop offset="1" stop-color="#4042E2"/>
</linearGradient>
<linearGradient id="paint19_linear_122_21458" x1="53.9579" y1="149.872" x2="35.7211" y2="166.021" gradientUnits="userSpaceOnUse">
<stop stop-color="#FEBBBA"/>
<stop offset="1" stop-color="#FF928E"/>
</linearGradient>
<linearGradient id="paint20_linear_122_21458" x1="-170.001" y1="307.526" x2="-118.695" y2="267.77" gradientUnits="userSpaceOnUse">
<stop stop-color="#FF928E"/>
<stop offset="1" stop-color="#FE7062"/>
</linearGradient>
<linearGradient id="paint21_linear_122_21458" x1="-153.572" y1="328.73" x2="-102.265" y2="288.973" gradientUnits="userSpaceOnUse">
<stop stop-color="#FF928E"/>
<stop offset="1" stop-color="#FE7062"/>
</linearGradient>
<linearGradient id="paint22_linear_122_21458" x1="88.1455" y1="151.4" x2="102.508" y2="151.4" gradientUnits="userSpaceOnUse">
<stop stop-color="#FEBBBA"/>
<stop offset="1" stop-color="#FF928E"/>
</linearGradient>
<linearGradient id="paint23_linear_122_21458" x1="74.1846" y1="113.019" x2="74.0284" y2="139.839" gradientUnits="userSpaceOnUse">
<stop stop-color="#FEBBBA"/>
<stop offset="1" stop-color="#FF928E"/>
</linearGradient>
<linearGradient id="paint24_linear_122_21458" x1="113.409" y1="147.118" x2="33.6273" y2="176.666" gradientUnits="userSpaceOnUse">
<stop stop-color="#09005D"/>
<stop offset="1" stop-color="#1A0F91"/>
</linearGradient>
<linearGradient id="paint25_linear_122_21458" x1="105.335" y1="128.572" x2="174.37" y2="128.572" gradientUnits="userSpaceOnUse">
<stop stop-color="#B37CFF"/>
<stop offset="1" stop-color="#F895E7"/>
</linearGradient>
<linearGradient id="paint26_linear_122_21458" x1="101.444" y1="128.572" x2="178.26" y2="128.572" gradientUnits="userSpaceOnUse">
<stop stop-color="#09005D"/>
<stop offset="1" stop-color="#1A0F91"/>
</linearGradient>
<linearGradient id="paint27_linear_122_21458" x1="82.8961" y1="108.623" x2="72.3236" y2="127.794" gradientUnits="userSpaceOnUse">
<stop stop-color="#FEBBBA"/>
<stop offset="1" stop-color="#FF928E"/>
</linearGradient>
<linearGradient id="paint28_linear_122_21458" x1="70.8509" y1="111.483" x2="116.657" y2="117.274" gradientUnits="userSpaceOnUse">
<stop stop-color="#09005D"/>
<stop offset="1" stop-color="#1A0F91"/>
</linearGradient>
<linearGradient id="paint29_linear_122_21458" x1="65.733" y1="125.074" x2="74.6629" y2="112.809" gradientUnits="userSpaceOnUse">
<stop stop-color="#FEBBBA"/>
<stop offset="1" stop-color="#FF928E"/>
</linearGradient>
<linearGradient id="paint30_linear_122_21458" x1="61.16" y1="158.005" x2="42.9232" y2="174.154" gradientUnits="userSpaceOnUse">
<stop stop-color="#FEBBBA"/>
<stop offset="1" stop-color="#FF928E"/>
</linearGradient>
<linearGradient id="paint31_linear_122_21458" x1="100.981" y1="149.713" x2="106.125" y2="149.713" gradientUnits="userSpaceOnUse">
<stop stop-color="#FEBBBA"/>
<stop offset="1" stop-color="#FF928E"/>
</linearGradient>
<linearGradient id="paint32_linear_122_21458" x1="205.869" y1="223.701" x2="252.221" y2="274.12" gradientUnits="userSpaceOnUse">
<stop stop-color="#4F52FF"/>
<stop offset="1" stop-color="#4042E2"/>
</linearGradient>
<linearGradient id="paint33_linear_122_21458" x1="220.915" y1="227.446" x2="216.797" y2="227.446" gradientUnits="userSpaceOnUse">
<stop stop-color="#FEBBBA"/>
<stop offset="1" stop-color="#FF928E"/>
</linearGradient>
<linearGradient id="paint34_linear_122_21458" x1="230.677" y1="195.964" x2="217.063" y2="195.964" gradientUnits="userSpaceOnUse">
<stop stop-color="#09005D"/>
<stop offset="1" stop-color="#1A0F91"/>
</linearGradient>
<linearGradient id="paint35_linear_122_21458" x1="216.267" y1="214.142" x2="262.619" y2="264.56" gradientUnits="userSpaceOnUse">
<stop stop-color="#4F52FF"/>
<stop offset="1" stop-color="#4042E2"/>
</linearGradient>
<linearGradient id="paint36_linear_122_21458" x1="235.752" y1="227.235" x2="232.198" y2="227.235" gradientUnits="userSpaceOnUse">
<stop stop-color="#FEBBBA"/>
<stop offset="1" stop-color="#FF928E"/>
</linearGradient>
<linearGradient id="paint37_linear_122_21458" x1="239.584" y1="195.519" x2="220.257" y2="195.519" gradientUnits="userSpaceOnUse">
<stop stop-color="#09005D"/>
<stop offset="1" stop-color="#1A0F91"/>
</linearGradient>
<linearGradient id="paint38_linear_122_21458" x1="194.887" y1="185.237" x2="232.76" y2="128.023" gradientUnits="userSpaceOnUse">
<stop stop-color="#FF928E"/>
<stop offset="1" stop-color="#FE7062"/>
</linearGradient>
<linearGradient id="paint39_linear_122_21458" x1="203.972" y1="120.032" x2="182.938" y2="120.032" gradientUnits="userSpaceOnUse">
<stop stop-color="#FEBBBA"/>
<stop offset="1" stop-color="#FF928E"/>
</linearGradient>
<linearGradient id="paint40_linear_122_21458" x1="187.623" y1="116.506" x2="201.737" y2="148.62" gradientUnits="userSpaceOnUse">
<stop stop-color="#FEBBBA"/>
<stop offset="1" stop-color="#FF928E"/>
</linearGradient>
<linearGradient id="paint41_linear_122_21458" x1="183.038" y1="105.812" x2="177.149" y2="96.7566" gradientUnits="userSpaceOnUse">
<stop stop-color="#FEBBBA"/>
<stop offset="1" stop-color="#FF928E"/>
</linearGradient>
<linearGradient id="paint42_linear_122_21458" x1="205.905" y1="192.531" x2="243.779" y2="135.316" gradientUnits="userSpaceOnUse">
<stop stop-color="#FF928E"/>
<stop offset="1" stop-color="#FE7062"/>
</linearGradient>
<linearGradient id="paint43_linear_122_21458" x1="249.999" y1="149.827" x2="223.38" y2="149.827" gradientUnits="userSpaceOnUse">
<stop stop-color="#FEBBBA"/>
<stop offset="1" stop-color="#FF928E"/>
</linearGradient>
<linearGradient id="paint44_linear_122_21458" x1="215.327" y1="130.901" x2="200.69" y2="191.888" gradientUnits="userSpaceOnUse">
<stop stop-color="#09005D"/>
<stop offset="1" stop-color="#1A0F91"/>
</linearGradient>
<linearGradient id="paint45_linear_122_21458" x1="206.163" y1="121.288" x2="209.28" y2="134.977" gradientUnits="userSpaceOnUse">
<stop stop-color="#4F52FF"/>
<stop offset="1" stop-color="#4042E2"/>
</linearGradient>
<linearGradient id="paint46_linear_122_21458" x1="207.794" y1="127.03" x2="209.285" y2="135.976" gradientUnits="userSpaceOnUse">
<stop stop-color="#4F52FF"/>
<stop offset="1" stop-color="#4042E2"/>
</linearGradient>
<linearGradient id="paint47_linear_122_21458" x1="225.356" y1="147.036" x2="217.063" y2="147.036" gradientUnits="userSpaceOnUse">
<stop stop-color="#FEBBBA"/>
<stop offset="1" stop-color="#FF928E"/>
</linearGradient>
<linearGradient id="paint48_linear_122_21458" x1="228.231" y1="137.237" x2="221.515" y2="113.061" gradientUnits="userSpaceOnUse">
<stop stop-color="#FEBBBA"/>
<stop offset="1" stop-color="#FF928E"/>
</linearGradient>
<linearGradient id="paint49_linear_122_21458" x1="220.591" y1="116.12" x2="232.232" y2="109.026" gradientUnits="userSpaceOnUse">
<stop stop-color="#FEBBBA"/>
<stop offset="1" stop-color="#FF928E"/>
</linearGradient>
<linearGradient id="paint50_linear_122_21458" x1="238.394" y1="101.547" x2="223.356" y2="113.416" gradientUnits="userSpaceOnUse">
<stop stop-color="#09005D"/>
<stop offset="1" stop-color="#1A0F91"/>
</linearGradient>
<linearGradient id="paint51_linear_122_21458" x1="223.647" y1="118.769" x2="234.119" y2="112.386" gradientUnits="userSpaceOnUse">
<stop stop-color="#FEBBBA"/>
<stop offset="1" stop-color="#FF928E"/>
</linearGradient>
</defs>
</svg>
