<svg width="276" height="250" viewBox="0 0 276 250" fill="none" xmlns="http://www.w3.org/2000/svg">
<path d="M240.117 161.696C217.377 214.849 157.35 237.679 110.318 233.787C97.4752 232.724 71.6377 230.585 51.4633 211.507C12.7195 174.871 18.6867 98.2834 55.7748 53.1945C60.5516 47.3876 93.6123 8.48431 145.131 9.00518C182.847 9.38649 209.325 30.694 212.544 33.3457C216.615 36.6994 225.58 44.6678 233.664 57.3091C252.658 87.0145 254.328 128.481 240.117 161.696Z" fill="url(#paint0_linear_122_20818)"/>
<path d="M119.474 190.482L114.421 225.352H173.042L165.407 190.482H119.474Z" fill="url(#paint1_linear_122_20818)"/>
<path d="M21 78.8342V182.619C20.9997 186.724 22.6032 190.668 25.4685 193.608C28.3339 196.548 32.2345 198.253 36.3387 198.359C74.2459 199.336 206.827 201.706 242.913 201.174C245.898 201.129 248.75 199.934 250.875 197.837C253 195.74 254.233 192.903 254.318 189.919C255.014 165.809 256.145 107.831 251.962 80.9135C251.536 78.1666 250.164 75.6548 248.083 73.8123C246.001 71.9699 243.341 70.9126 240.563 70.8234C208.801 69.8074 68.2563 66.5808 32.1875 67.3908C29.1971 67.4577 26.3517 68.6928 24.2607 70.8316C22.1697 72.9705 20.9993 75.843 21 78.8342Z" fill="url(#paint2_linear_122_20818)"/>
<path d="M27.5122 78.3292V176.932C27.5122 179.327 28.4546 181.627 30.136 183.334C31.8174 185.041 34.1027 186.017 36.4983 186.053L237.721 188.539C238.895 188.556 240.061 188.341 241.151 187.905C242.242 187.468 243.234 186.82 244.072 185.998C244.91 185.175 245.577 184.195 246.033 183.113C246.49 182.031 246.727 180.87 246.731 179.695L247.064 81.9736C247.07 80.2748 246.41 78.6412 245.226 77.4232C244.042 76.2051 242.428 75.4997 240.729 75.4582L34.7147 71.2962C33.777 71.2738 32.8443 71.4392 31.9715 71.7826C31.0986 72.126 30.3033 72.6404 29.6322 73.2957C28.9611 73.951 28.4278 74.7339 28.0638 75.5983C27.6997 76.4627 27.5122 77.3912 27.5122 78.3292Z" fill="url(#paint3_linear_122_20818)"/>
<path d="M248.247 192.58H248.238L27.5121 188.819C27.4754 188.818 27.4392 188.81 27.4056 188.796C27.3719 188.781 27.3414 188.76 27.3159 188.734C27.2904 188.708 27.2703 188.677 27.2567 188.643C27.2432 188.608 27.2365 188.572 27.2371 188.535C27.2397 188.462 27.2707 188.392 27.3238 188.341C27.3768 188.29 27.4475 188.261 27.5212 188.261L248.255 192.022C248.329 192.022 248.4 192.052 248.452 192.105C248.504 192.158 248.532 192.229 248.532 192.303C248.531 192.377 248.501 192.448 248.449 192.5C248.396 192.552 248.325 192.581 248.251 192.58H248.247Z" fill="#91B3FA"/>
<path d="M140.057 197.173C139.547 197.173 139.049 197.022 138.626 196.739C138.202 196.456 137.872 196.054 137.677 195.584C137.483 195.113 137.432 194.595 137.531 194.096C137.63 193.596 137.876 193.137 138.236 192.777C138.596 192.417 139.055 192.172 139.554 192.072C140.054 191.973 140.572 192.024 141.042 192.219C141.513 192.414 141.915 192.744 142.198 193.167C142.481 193.591 142.632 194.089 142.632 194.598C142.632 195.281 142.361 195.936 141.878 196.419C141.395 196.902 140.74 197.173 140.057 197.173ZM140.057 192.58C139.658 192.58 139.267 192.698 138.936 192.92C138.604 193.142 138.345 193.457 138.192 193.826C138.04 194.195 138 194.6 138.078 194.992C138.156 195.383 138.348 195.743 138.63 196.025C138.912 196.307 139.272 196.499 139.663 196.577C140.054 196.655 140.46 196.615 140.829 196.462C141.198 196.31 141.513 196.051 141.735 195.719C141.956 195.387 142.075 194.997 142.075 194.598C142.074 194.063 141.861 193.55 141.483 193.172C141.105 192.794 140.592 192.581 140.057 192.58Z" fill="#91B3FA"/>
<path d="M185.669 234.623H99.8732C97.5422 234.623 95.7918 232.961 96.2421 231.182L97.3436 226.828C97.6759 225.518 99.1148 224.557 100.826 224.502L183.536 221.921C185.324 221.865 186.907 222.814 187.296 224.175L189.281 231.11C189.796 232.913 188.037 234.623 185.669 234.623Z" fill="url(#paint4_linear_122_20818)"/>
<path d="M146.058 225.683C145.984 225.683 145.913 225.653 145.861 225.601C145.808 225.548 145.779 225.477 145.779 225.403C145.779 225.329 145.808 225.258 145.861 225.206C145.913 225.154 145.984 225.124 146.058 225.124L149.602 225.073C149.675 225.073 149.746 225.102 149.799 225.153C149.852 225.204 149.883 225.274 149.885 225.348C149.886 225.384 149.879 225.421 149.866 225.455C149.852 225.489 149.832 225.52 149.807 225.547C149.781 225.573 149.751 225.594 149.717 225.608C149.683 225.623 149.647 225.631 149.61 225.631L146.066 225.683H146.058Z" fill="#91B3FA"/>
<path d="M99.419 232.219C99.4043 232.22 99.3896 232.22 99.3749 232.219C99.3387 232.213 99.304 232.2 99.2728 232.181C99.2415 232.162 99.2143 232.137 99.1928 232.107C99.1713 232.078 99.1558 232.044 99.1473 232.008C99.1388 231.973 99.1374 231.936 99.1432 231.9L99.6491 228.733C99.779 227.91 100.196 227.16 100.826 226.614C101.455 226.069 102.258 225.764 103.091 225.753L140.683 225.203C140.755 225.206 140.822 225.237 140.871 225.288C140.921 225.34 140.949 225.408 140.949 225.48C140.95 225.551 140.923 225.62 140.874 225.672C140.826 225.725 140.759 225.756 140.687 225.761L103.095 226.31C102.393 226.32 101.718 226.577 101.187 227.036C100.656 227.495 100.305 228.127 100.196 228.82L99.6898 231.987C99.6787 232.051 99.6456 232.109 99.5962 232.152C99.5467 232.194 99.484 232.218 99.419 232.219Z" fill="#91B3FA"/>
<path d="M199.308 188.19L64.386 186.313V41.0118C64.3858 39.5323 64.9731 38.1133 66.0189 37.0667C67.0646 36.0202 68.4832 35.4318 69.9627 35.4309H194.216C195.6 35.4309 196.928 35.9809 197.908 36.9598C198.887 37.9388 199.437 39.2666 199.438 40.6512L199.308 188.19Z" fill="#91B3FA"/>
<path d="M194.982 188.153L68.3784 186.369V44.8613C68.3784 41.8066 70.8241 39.3311 73.8405 39.3311H189.87C192.695 39.3311 194.982 41.648 194.982 44.5065V188.153Z" fill="#BDD0FB"/>
<g opacity="0.75">
<path opacity="0.76" d="M183.899 79.563H82.1976C81.7948 79.563 81.4683 79.8895 81.4683 80.2924V128.732C81.4683 129.135 81.7948 129.461 82.1976 129.461H183.899C184.302 129.461 184.628 129.135 184.628 128.732V80.2924C184.628 79.8895 184.302 79.563 183.899 79.563Z" fill="white"/>
<path opacity="0.76" d="M189.096 138.438H75.1313C74.9308 138.438 74.7683 138.601 74.7683 138.802V149.122C74.7683 149.322 74.9308 149.485 75.1313 149.485H189.096C189.296 149.485 189.459 149.322 189.459 149.122V138.802C189.459 138.601 189.296 138.438 189.096 138.438Z" fill="white"/>
<path opacity="0.76" d="M188.654 156.745H75.1238C74.8036 156.745 74.5439 157.004 74.5439 157.324V167.211C74.5439 167.531 74.8036 167.791 75.1238 167.791H188.654C188.975 167.791 189.234 167.531 189.234 167.211V157.324C189.234 157.004 188.975 156.745 188.654 156.745Z" fill="white"/>
<path opacity="0.76" d="M188.829 173.822H75.4642C75.0981 173.822 74.8013 174.119 74.8013 174.485V184.206C74.8013 184.572 75.0981 184.869 75.4642 184.869H188.829C189.195 184.869 189.492 184.572 189.492 184.206V174.485C189.492 174.119 189.195 173.822 188.829 173.822Z" fill="white"/>
</g>
<path d="M34.3892 133.722C34.3892 133.722 48.8664 171.907 53.4404 179.848C58.7505 189.069 74.257 183.193 73.4852 175.477C72.7134 167.761 54.5943 135.866 54.5943 135.866L34.3892 133.722Z" fill="url(#paint5_linear_122_20818)"/>
<path d="M53.9513 105.909L143.935 74.7097L142.99 159.139L51.4915 138.724L53.9513 105.909Z" fill="url(#paint6_linear_122_20818)"/>
<path d="M144.019 160.558C148.902 160.558 152.86 141.132 152.86 117.169C152.86 93.2064 148.902 73.7808 144.019 73.7808C139.137 73.7808 135.178 93.2064 135.178 117.169C135.178 141.132 139.137 160.558 144.019 160.558Z" fill="#7D97F4"/>
<path d="M144.691 157.591C143.891 156.779 142.151 153.644 140.659 145.537C139.216 137.703 138.422 127.541 138.422 116.924C138.422 106.308 139.216 96.1469 140.659 88.3123C142.154 80.206 143.891 77.0708 144.691 76.2583C145.49 77.0708 147.23 80.206 148.723 88.3123C150.165 96.1469 150.959 106.308 150.959 116.924C150.959 127.541 150.165 137.703 148.723 145.537C147.23 153.644 145.49 156.779 144.691 157.591Z" fill="url(#paint7_linear_122_20818)"/>
<mask id="mask0_122_20818" style="mask-type:luminance" maskUnits="userSpaceOnUse" x="138" y="76" width="24" height="82">
<path d="M144.691 157.591C143.891 156.779 142.151 153.644 140.659 145.537C139.216 137.703 138.422 127.541 138.422 116.924C138.422 106.308 139.216 96.1469 140.659 88.3123C142.154 80.206 143.891 77.0708 144.691 76.2583C145.49 77.0708 147.23 80.206 148.723 88.3123C150.165 96.1469 161.546 106.308 161.546 116.924C161.546 127.541 150.165 137.703 148.723 145.537C147.23 153.644 145.49 156.779 144.691 157.591Z" fill="white"/>
</mask>
<g mask="url(#mask0_122_20818)">
<path d="M156.022 116.601C156.022 123.974 152.051 129.95 144.191 129.95C136.33 129.95 129.958 123.974 129.958 116.601C129.958 109.228 136.33 103.253 144.191 103.253C152.051 103.253 156.022 109.229 156.022 116.601Z" fill="url(#paint8_linear_122_20818)"/>
</g>
<path d="M39.438 104.094C43.6747 103.603 49.7391 103.429 56.3019 104.924C54.142 116.222 54.466 127.992 56.9665 140.183H38.4577C37.0289 140.184 35.6467 139.675 34.5598 138.748C33.4729 137.82 32.7527 136.535 32.5288 135.124C31.6067 129.281 30.4785 119.46 31.6814 111.571C31.9757 109.647 32.8943 107.872 34.2958 106.521C35.6974 105.17 37.5041 104.317 39.438 104.094Z" fill="url(#paint9_linear_122_20818)"/>
<path d="M50.5474 112.745H36.125C35.8884 112.745 35.6562 112.681 35.4529 112.56C35.2495 112.439 35.0825 112.266 34.9694 112.058C34.8563 111.85 34.8013 111.616 34.8103 111.379C34.8192 111.143 34.8917 110.913 35.0202 110.714C35.0749 110.635 35.1587 110.579 35.2536 110.56C35.3485 110.541 35.4471 110.56 35.5284 110.613C35.6096 110.665 35.6671 110.748 35.6885 110.842C35.71 110.936 35.6937 111.036 35.6432 111.118C35.5871 111.205 35.5555 111.305 35.5516 111.408C35.5477 111.511 35.5716 111.613 35.621 111.704C35.6703 111.794 35.7432 111.87 35.8319 111.923C35.9206 111.975 36.0219 112.003 36.125 112.003H50.5474C50.6994 112.003 50.8451 111.942 50.9525 111.835C51.06 111.727 51.1204 111.582 51.1206 111.43V110.403C51.1204 110.251 51.06 110.105 50.9525 109.998C50.8451 109.89 50.6994 109.83 50.5474 109.83H36.0179C35.9677 109.832 35.9175 109.824 35.8705 109.807C35.8234 109.789 35.7804 109.762 35.744 109.727C35.7077 109.693 35.6787 109.651 35.6589 109.605C35.6392 109.559 35.629 109.509 35.629 109.459C35.629 109.408 35.6392 109.359 35.6589 109.313C35.6787 109.266 35.7077 109.225 35.744 109.19C35.7804 109.155 35.8234 109.128 35.8705 109.111C35.9175 109.093 35.9677 109.085 36.0179 109.088H50.5474C50.8961 109.088 51.2303 109.227 51.4768 109.473C51.7233 109.72 51.862 110.054 51.8625 110.403V111.43C51.862 111.778 51.7233 112.113 51.4768 112.359C51.2303 112.606 50.8961 112.744 50.5474 112.745Z" fill="#91B3FA"/>
<path d="M49.2618 119.132H34.8386C34.602 119.132 34.3699 119.068 34.1667 118.947C33.9634 118.826 33.7965 118.653 33.6835 118.445C33.5706 118.237 33.5157 118.003 33.5246 117.767C33.5336 117.53 33.6061 117.301 33.7345 117.102C33.7893 117.022 33.873 116.967 33.968 116.948C34.0629 116.929 34.1615 116.948 34.2427 117C34.324 117.053 34.3814 117.135 34.4029 117.23C34.4243 117.324 34.4081 117.423 34.3576 117.506C34.3015 117.592 34.2699 117.692 34.2659 117.795C34.262 117.898 34.2859 118.001 34.3351 118.091C34.3844 118.182 34.4571 118.257 34.5457 118.31C34.6343 118.363 34.7355 118.391 34.8386 118.391H49.2618C49.4137 118.39 49.5594 118.33 49.6669 118.222C49.7743 118.115 49.8348 117.969 49.835 117.817V116.791C49.8348 116.639 49.7743 116.493 49.6669 116.385C49.5594 116.278 49.4137 116.218 49.2618 116.217H34.7322C34.682 116.22 34.6319 116.212 34.5848 116.194C34.5378 116.177 34.4947 116.15 34.4584 116.115C34.422 116.08 34.3931 116.039 34.3733 115.993C34.3535 115.946 34.3433 115.897 34.3433 115.846C34.3433 115.796 34.3535 115.746 34.3733 115.7C34.3931 115.654 34.422 115.612 34.4584 115.578C34.4947 115.543 34.5378 115.516 34.5848 115.499C34.6319 115.481 34.682 115.473 34.7322 115.476H49.2618C49.6104 115.476 49.9447 115.615 50.1912 115.861C50.4377 116.108 50.5764 116.442 50.5768 116.791V117.817C50.5764 118.166 50.4377 118.5 50.1912 118.747C49.9447 118.993 49.6104 119.132 49.2618 119.132Z" fill="#91B3FA"/>
<path d="M67.0259 103.621C66.9378 103.62 66.8528 103.588 66.7861 103.531C66.7194 103.473 66.6753 103.394 66.6618 103.306C66.6484 103.219 66.6663 103.13 66.7125 103.055C66.7586 102.98 66.83 102.924 66.9138 102.897L135.066 81.2094C135.159 81.1844 135.257 81.1961 135.341 81.2419C135.425 81.2877 135.488 81.3641 135.517 81.4552C135.546 81.5463 135.539 81.6451 135.497 81.731C135.455 81.8169 135.381 81.8833 135.292 81.9163L67.1381 103.606C67.1017 103.617 67.0639 103.622 67.0259 103.621Z" fill="#BDD0FB"/>
<path d="M57.8098 107.391C57.7238 107.391 57.6405 107.361 57.5741 107.306C57.5077 107.252 57.4623 107.176 57.4457 107.092C57.4291 107.007 57.4423 106.92 57.4831 106.844C57.5239 106.769 57.5898 106.709 57.6694 106.677L61.1767 105.243C61.2218 105.225 61.27 105.215 61.3187 105.216C61.3674 105.216 61.4156 105.226 61.4604 105.244C61.5053 105.263 61.5461 105.291 61.5804 105.325C61.6146 105.36 61.6418 105.401 61.6602 105.446C61.6787 105.491 61.688 105.539 61.6878 105.588C61.6876 105.637 61.6778 105.685 61.659 105.73C61.6402 105.775 61.6127 105.815 61.5781 105.85C61.5436 105.884 61.5026 105.911 61.4575 105.929L57.9502 107.363C57.9056 107.382 57.8579 107.391 57.8098 107.391Z" fill="#BDD0FB"/>
<path d="M50.5474 126.613H36.125C35.8884 126.613 35.6562 126.549 35.4529 126.428C35.2495 126.308 35.0825 126.134 34.9694 125.926C34.8563 125.718 34.8013 125.484 34.8103 125.248C34.8192 125.011 34.8917 124.781 35.0202 124.583C35.0756 124.505 35.159 124.451 35.2529 124.433C35.3469 124.415 35.4442 124.434 35.5246 124.486C35.6049 124.538 35.6621 124.619 35.6842 124.712C35.7063 124.805 35.6916 124.903 35.6432 124.986C35.5872 125.072 35.5556 125.173 35.5517 125.276C35.5478 125.379 35.5718 125.481 35.6211 125.572C35.6704 125.662 35.7433 125.738 35.8319 125.791C35.9206 125.843 36.0219 125.871 36.125 125.871H50.5474C50.6995 125.871 50.8451 125.81 50.9526 125.703C51.06 125.595 51.1204 125.449 51.1206 125.297V124.271C51.1204 124.119 51.06 123.974 50.9525 123.866C50.8451 123.759 50.6994 123.698 50.5474 123.698H36.0179C35.9677 123.7 35.9175 123.693 35.8705 123.675C35.8234 123.657 35.7804 123.631 35.744 123.596C35.7077 123.561 35.6787 123.519 35.6589 123.473C35.6392 123.427 35.629 123.377 35.629 123.327C35.629 123.277 35.6392 123.227 35.6589 123.181C35.6787 123.135 35.7077 123.093 35.744 123.058C35.7804 123.024 35.8234 122.997 35.8705 122.979C35.9175 122.962 35.9677 122.954 36.0179 122.956H50.5474C50.8961 122.957 51.2303 123.095 51.4768 123.342C51.7233 123.588 51.862 123.923 51.8625 124.271V125.297C51.8623 125.646 51.7237 125.98 51.4771 126.227C51.2306 126.474 50.8962 126.613 50.5474 126.613Z" fill="#91B3FA"/>
<path d="M51.8976 134.916H37.4752C37.2386 134.917 37.0063 134.853 36.8029 134.732C36.5995 134.611 36.4325 134.437 36.3194 134.23C36.2064 134.022 36.1515 133.787 36.1606 133.551C36.1698 133.314 36.2425 133.085 36.3712 132.886C36.4246 132.804 36.5086 132.746 36.6048 132.725C36.6524 132.715 36.7015 132.714 36.7494 132.723C36.7972 132.732 36.8429 132.75 36.8838 132.776C36.9246 132.803 36.9599 132.837 36.9875 132.877C37.0151 132.917 37.0346 132.962 37.0447 133.01C37.0549 133.058 37.0556 133.107 37.0468 133.155C37.038 133.202 37.0199 133.248 36.9934 133.289C36.9377 133.376 36.9063 133.476 36.9026 133.579C36.8989 133.682 36.9229 133.784 36.9721 133.874C37.0214 133.965 37.0941 134.041 37.1826 134.093C37.2711 134.146 37.3722 134.174 37.4752 134.175H51.8976C52.0497 134.174 52.1954 134.114 52.303 134.006C52.4106 133.899 52.4712 133.753 52.4717 133.601V132.575C52.4714 132.422 52.4109 132.277 52.3032 132.169C52.1956 132.062 52.0497 132.001 51.8976 132.001H37.3681C37.2727 131.997 37.1828 131.956 37.1169 131.887C37.0511 131.818 37.0143 131.726 37.0143 131.63C37.0143 131.535 37.0511 131.443 37.1169 131.374C37.1828 131.305 37.2727 131.264 37.3681 131.26H51.8976C52.2463 131.26 52.5805 131.399 52.827 131.645C53.0735 131.892 53.2122 132.226 53.2127 132.575V133.601C53.2122 133.95 53.0735 134.284 52.827 134.531C52.5805 134.777 52.2463 134.916 51.8976 134.916Z" fill="#91B3FA"/>
<path d="M64.7789 180.061C64.1043 180.06 63.4317 179.987 62.7727 179.843C61.3398 179.539 59.9994 178.899 58.861 177.977C57.7227 177.055 56.8187 175.876 56.2232 174.538L44.7001 148.939C44.6801 148.895 44.6691 148.847 44.6676 148.798C44.6662 148.749 44.6743 148.701 44.6916 148.655C44.7089 148.61 44.735 148.568 44.7684 148.533C44.8017 148.497 44.8418 148.469 44.8862 148.449C44.9306 148.429 44.9785 148.418 45.0271 148.416C45.0758 148.415 45.1243 148.423 45.1698 148.44C45.2153 148.458 45.257 148.484 45.2924 148.517C45.3278 148.551 45.3563 148.591 45.3763 148.635L56.8994 174.233C57.4479 175.466 58.2803 176.55 59.3286 177.399C60.3768 178.248 61.6111 178.837 62.9306 179.117C64.2201 179.407 65.56 179.388 66.8406 179.06C68.1212 178.733 69.3061 178.107 70.2983 177.234C70.4072 177.138 70.516 177.04 70.6306 176.941C70.7039 176.879 70.7981 176.849 70.8935 176.855C70.9889 176.861 71.078 176.905 71.1424 176.975C71.2068 177.046 71.2413 177.139 71.2388 177.234C71.2363 177.33 71.197 177.421 71.1291 177.488C71.0155 177.592 70.9023 177.694 70.7893 177.792C69.1294 179.256 66.992 180.062 64.7789 180.061Z" fill="#91B3FA"/>
<path d="M43.3351 145.373C43.2636 145.373 43.1936 145.352 43.1335 145.313C43.0735 145.274 43.0258 145.219 42.9961 145.154L41.711 142.299C41.691 142.255 41.6799 142.207 41.6784 142.158C41.6769 142.109 41.685 142.061 41.7022 142.015C41.7195 141.97 41.7455 141.928 41.7789 141.892C41.8122 141.857 41.8523 141.828 41.8967 141.808C41.9411 141.788 41.989 141.777 42.0377 141.776C42.0863 141.774 42.1348 141.782 42.1804 141.8C42.2259 141.817 42.2677 141.843 42.3031 141.876C42.3386 141.91 42.3672 141.95 42.3872 141.994L43.6732 144.849C43.6988 144.906 43.7098 144.968 43.7052 145.03C43.7006 145.091 43.6805 145.151 43.6469 145.203C43.6133 145.255 43.5671 145.298 43.5126 145.328C43.4581 145.357 43.3971 145.373 43.3351 145.373Z" fill="#91B3FA"/>
<path d="M153.915 116.217C153.821 116.217 153.731 116.181 153.662 116.117C153.594 116.053 153.552 115.966 153.545 115.872C153.289 112.26 152.037 109.567 149.824 107.868C145.997 104.93 140.537 105.939 140.482 105.95C140.434 105.959 140.385 105.959 140.337 105.949C140.29 105.94 140.244 105.92 140.204 105.893C140.164 105.866 140.129 105.831 140.103 105.79C140.076 105.75 140.057 105.704 140.048 105.656C140.039 105.609 140.039 105.56 140.049 105.512C140.059 105.464 140.078 105.419 140.105 105.379C140.132 105.338 140.167 105.304 140.208 105.277C140.248 105.25 140.294 105.232 140.342 105.222C140.578 105.177 146.188 104.142 150.276 107.279C152.665 109.114 154.014 111.987 154.286 115.82C154.292 115.918 154.26 116.015 154.196 116.089C154.131 116.164 154.04 116.209 153.942 116.216L153.915 116.217Z" fill="#BDD0FB"/>
<path d="M107.407 47.2441H112.087C113.993 47.2441 115.381 47.6141 116.251 48.354C117.121 49.0939 117.556 50.2711 117.555 51.8855C117.555 52.9471 117.326 53.8355 116.866 54.5505C116.406 55.2654 115.78 55.6983 114.989 55.8489V55.9743C116.025 56.2335 116.773 56.7187 117.231 57.4298C117.69 58.1409 117.92 59.0857 117.921 60.2642C117.921 61.929 117.476 63.2305 116.585 64.1687C115.695 65.1069 114.476 65.5776 112.93 65.5809H107.411L107.407 47.2441ZM110.619 54.6194H112.187C112.907 54.6194 113.413 54.4272 113.705 54.0429C113.997 53.6585 114.143 53.0856 114.144 52.3241C114.144 51.5631 113.978 51.0173 113.645 50.6867C113.313 50.3561 112.787 50.1899 112.067 50.1883H110.619V54.6194ZM110.619 57.4672V62.5978H112.338C113.048 62.5978 113.577 62.3804 113.924 61.9457C114.272 61.5109 114.445 60.8377 114.445 59.9261C114.445 58.2868 113.725 57.4672 112.285 57.4672H110.619Z" fill="url(#paint10_linear_122_20818)"/>
<path d="M120.428 65.5834V47.2441H123.841V62.5978H128.569V65.5834H120.428Z" fill="url(#paint11_linear_122_20818)"/>
<path d="M143.372 56.3878C143.372 59.4244 142.803 61.7576 141.666 63.3875C140.528 65.0174 138.902 65.833 136.786 65.8341C134.662 65.8341 133.031 65.0208 131.894 63.3942C130.757 61.7676 130.189 59.4238 130.191 56.3629C130.191 53.3274 130.76 51.0013 131.897 49.3847C133.035 47.7681 134.674 46.9589 136.814 46.9573C138.93 46.9573 140.552 47.7706 141.682 49.3971C142.811 51.0237 143.374 53.3539 143.372 56.3878ZM133.675 56.3878C133.675 58.4785 133.939 60.0718 134.466 61.1678C134.993 62.2638 135.767 62.8116 136.786 62.811C138.843 62.811 139.872 60.6699 139.872 56.3878C139.873 52.1056 138.852 49.9648 136.811 49.9654C135.774 49.9654 134.993 50.5112 134.466 51.6027C133.939 52.6943 133.676 54.2893 133.675 56.3878Z" fill="url(#paint12_linear_122_20818)"/>
<path d="M151.588 55.4103H157.195V64.8183C155.593 65.4982 153.869 65.844 152.128 65.8343C149.995 65.8343 148.353 65.023 147.204 63.4003C146.055 61.7776 145.479 59.4402 145.476 56.3881C145.476 53.4445 146.135 51.1406 147.453 49.4763C148.77 47.8121 150.612 46.98 152.978 46.98C154.449 46.9821 155.895 47.3715 157.168 48.109L156.088 50.8944C155.051 50.2924 154.082 49.9911 153.181 49.9906C151.884 49.9906 150.858 50.5699 150.101 51.7285C149.344 52.8871 148.966 54.4655 148.965 56.4636C148.965 58.5211 149.239 60.0976 149.787 61.193C150.335 62.2885 151.131 62.8362 152.177 62.8362C152.744 62.8346 153.308 62.7629 153.858 62.6227V58.4209H151.587L151.588 55.4103Z" fill="url(#paint13_linear_122_20818)"/>
<path d="M190.265 94.2594L168.51 95.4947C167.635 95.5445 166.775 95.248 166.117 94.6691C165.458 94.0902 165.054 93.2755 164.991 92.401L163.176 67.1642C163.143 66.7068 163.205 66.2475 163.357 65.8151C163.51 65.3826 163.75 64.9861 164.062 64.6504C164.374 64.3147 164.753 64.047 165.173 63.8639C165.593 63.6808 166.047 63.5863 166.506 63.5862H190.075C190.514 63.5861 190.948 63.6723 191.353 63.84C191.758 64.0077 192.126 64.2536 192.436 64.5635C192.746 64.8735 192.992 65.2415 193.16 65.6465C193.328 66.0516 193.414 66.4857 193.414 66.9241V90.9265C193.414 91.7791 193.088 92.5994 192.502 93.2191C191.916 93.8388 191.116 94.211 190.265 94.2594Z" fill="#7D97F4"/>
<path d="M178.29 92.4893C177.754 92.4916 177.227 92.3544 176.76 92.0912C176.293 91.828 175.902 91.4479 175.626 90.9881C172.419 85.688 168.595 78.7082 168.595 75.5514C168.595 70.6185 172.945 66.6052 178.29 66.6052C183.636 66.6052 187.986 70.6185 187.986 75.5514C187.986 78.7082 184.165 85.6864 180.955 90.9881C180.679 91.4479 180.288 91.8281 179.821 92.0913C179.354 92.3545 178.827 92.4916 178.29 92.4893ZM178.29 67.8455C173.628 67.8455 169.836 71.303 169.836 75.5514C169.836 77.7587 172.333 83.151 176.688 90.3451C176.855 90.621 177.09 90.8491 177.371 91.0074C177.651 91.1658 177.968 91.249 178.29 91.249C178.613 91.249 178.93 91.1658 179.21 91.0074C179.491 90.8491 179.726 90.621 179.893 90.3451C184.248 83.151 186.746 77.7587 186.746 75.5514C186.746 71.2989 182.953 67.8414 178.29 67.8414V67.8455Z" fill="white"/>
<path d="M177.543 81.7931C175.949 81.7914 174.421 81.1575 173.294 80.0306C172.167 78.9036 171.533 77.3757 171.532 75.782C171.529 75.6986 171.542 75.6155 171.572 75.5376C171.602 75.4597 171.647 75.3886 171.705 75.3285C171.763 75.2685 171.832 75.2208 171.909 75.1881C171.986 75.1555 172.068 75.1387 172.152 75.1387C172.235 75.1387 172.318 75.1555 172.395 75.1881C172.471 75.2208 172.541 75.2685 172.599 75.3285C172.656 75.3886 172.702 75.4597 172.731 75.5376C172.761 75.6155 172.775 75.6986 172.772 75.782C172.772 76.9151 173.176 78.0111 173.911 78.8736C174.646 79.7361 175.664 80.3088 176.782 80.489C177.901 80.6693 179.048 80.4454 180.016 79.8573C180.985 79.2693 181.712 78.3556 182.069 77.28C182.425 76.2043 182.386 75.0369 181.96 73.987C181.534 72.937 180.748 72.0731 179.743 71.55C178.738 71.0268 177.579 70.8787 176.475 71.132C175.37 71.3853 174.392 72.0236 173.716 72.9325C173.617 73.0647 173.47 73.1524 173.307 73.1763C173.144 73.2003 172.979 73.1584 172.846 73.0601C172.714 72.9617 172.626 72.8148 172.602 72.6518C172.579 72.4887 172.62 72.3229 172.719 72.1907C173.331 71.3683 174.144 70.7163 175.08 70.2967C176.016 69.8772 177.044 69.7041 178.065 69.7938C179.087 69.8835 180.069 70.2332 180.917 70.8094C181.765 71.3857 182.452 72.1694 182.912 73.086C183.372 74.0027 183.59 75.0218 183.545 76.0463C183.5 77.0709 183.193 78.0669 182.654 78.9396C182.116 79.8122 181.363 80.5326 180.467 81.032C179.571 81.5315 178.563 81.7935 177.537 81.7931H177.543Z" fill="white"/>
<path d="M241.084 110.604L214.55 110.168C214.099 110.16 213.654 110.061 213.242 109.877C212.83 109.692 212.459 109.426 212.153 109.094C211.847 108.763 211.611 108.372 211.46 107.947C211.309 107.521 211.245 107.069 211.274 106.619L213.019 78.9695C213.067 78.1979 213.383 77.4671 213.91 76.902C214.438 76.3369 215.145 75.9725 215.912 75.8709L245.788 71.9133C246.303 71.8446 246.828 71.8973 247.319 72.0672C247.811 72.237 248.256 72.5193 248.619 72.8916C248.982 73.2639 249.253 73.7159 249.41 74.2115C249.568 74.7071 249.608 75.2327 249.526 75.7463L244.438 107.79C244.312 108.585 243.903 109.307 243.287 109.824C242.67 110.341 241.888 110.618 241.084 110.604Z" fill="#7D97F4"/>
<g opacity="0.9">
<path d="M228.978 103.224C226.914 103.224 224.896 102.612 223.18 101.465C221.463 100.319 220.126 98.6888 219.336 96.7819C218.546 94.875 218.339 92.7767 218.742 90.7523C219.144 88.7279 220.138 86.8683 221.598 85.4088C223.057 83.9493 224.917 82.9554 226.941 82.5528C228.966 82.1501 231.064 82.3569 232.971 83.1468C234.878 83.9368 236.508 85.2745 237.654 86.9907C238.801 88.707 239.413 90.7248 239.413 92.7888C239.409 95.5553 238.309 98.2075 236.353 100.164C234.396 102.12 231.744 103.22 228.978 103.224ZM228.978 84.1018C227.26 84.1017 225.58 84.611 224.151 85.5654C222.723 86.5199 221.609 87.8765 220.951 89.4639C220.294 91.0512 220.122 92.7979 220.457 94.4831C220.792 96.1682 221.619 97.7162 222.834 98.9312C224.049 100.146 225.597 100.974 227.282 101.309C228.967 101.644 230.714 101.472 232.301 100.815C233.889 100.157 235.245 99.0437 236.2 97.6151C237.154 96.1866 237.664 94.507 237.664 92.7888C237.662 90.4853 236.747 88.2765 235.118 86.6473C233.49 85.018 231.281 84.1014 228.978 84.0985V84.1018Z" fill="white"/>
<path fill-rule="evenodd" clip-rule="evenodd" d="M225.709 96.8088V89.3073C225.709 89.1247 225.757 88.9454 225.849 88.7875C225.941 88.6297 226.073 88.4989 226.231 88.4085C226.39 88.3182 226.57 88.2714 226.752 88.273C226.935 88.2746 227.114 88.3245 227.271 88.4176L233.593 92.1684C233.747 92.2599 233.875 92.3901 233.964 92.5461C234.053 92.7021 234.1 92.8785 234.1 93.0581C234.1 93.2376 234.053 93.4141 233.964 93.5701C233.875 93.7261 233.747 93.8562 233.593 93.9478L227.271 97.6986C227.114 97.7917 226.935 97.8416 226.752 97.8432C226.57 97.8447 226.39 97.798 226.231 97.7076C226.073 97.6172 225.941 97.4865 225.849 97.3286C225.757 97.1707 225.709 96.9914 225.709 96.8088Z" fill="white"/>
</g>
<path d="M178.154 150.401L162.217 152.08C161.752 152.129 161.281 152.08 160.836 151.935C160.39 151.791 159.981 151.554 159.633 151.24C159.285 150.927 159.007 150.544 158.817 150.116C158.627 149.689 158.528 149.225 158.529 148.757V130.366C158.529 129.563 158.818 128.786 159.344 128.179C159.87 127.572 160.597 127.175 161.392 127.061L177.328 124.767C177.802 124.698 178.285 124.733 178.744 124.867C179.203 125.002 179.628 125.234 179.99 125.547C180.352 125.861 180.642 126.248 180.841 126.684C181.039 127.119 181.142 127.592 181.142 128.07V147.082C181.142 147.906 180.837 148.702 180.285 149.315C179.733 149.928 178.974 150.315 178.154 150.401Z" fill="#7D97F4"/>
<path d="M168.552 144.3C166.759 144.3 164.897 143.525 164.344 142.371C163.713 141.05 164.97 140.11 165.371 139.853C166.586 139.074 167.667 138.807 168.583 139.058C168.873 139.134 169.144 139.268 169.382 139.451C169.619 139.635 169.817 139.864 169.963 140.126L168.726 140.745L168.734 140.76C168.607 140.569 168.412 140.435 168.19 140.386C167.832 140.297 167.183 140.335 166.118 141.018C165.667 141.307 165.491 141.561 165.593 141.774C165.949 142.522 168.145 143.277 169.764 142.738C170.303 142.558 170.772 140.987 170.318 137.151C170.083 135.282 169.746 133.426 169.311 131.593C169.281 131.469 169.285 131.34 169.324 131.218C169.362 131.097 169.434 130.988 169.53 130.905C169.627 130.821 169.744 130.766 169.87 130.745C169.996 130.724 170.125 130.739 170.243 130.787C170.409 130.853 174.279 132.456 175.331 135.481C175.809 136.855 175.637 138.282 174.82 139.724C174.727 139.879 174.577 139.991 174.403 140.037C174.228 140.083 174.043 140.059 173.886 139.97C173.729 139.881 173.613 139.734 173.562 139.561C173.512 139.388 173.531 139.202 173.616 139.042C174.237 137.948 174.37 136.933 174.026 135.94C173.515 134.467 172.059 133.364 170.981 132.719C171.207 133.805 171.5 135.371 171.692 136.989C172.202 141.297 171.729 143.541 170.202 144.05C169.669 144.221 169.112 144.305 168.552 144.3Z" fill="white"/>
<path d="M229.048 67.7862H204.944C204.059 67.7859 203.21 67.4341 202.584 66.808C201.958 66.1819 201.606 65.3328 201.606 64.4474V40.2731C201.606 39.4342 201.921 38.6261 202.49 38.0094C203.059 37.3927 203.839 37.0128 204.675 36.9451L230.359 34.8683C230.836 34.8297 231.315 34.8939 231.764 35.0565C232.214 35.2191 232.623 35.4763 232.965 35.8107C233.306 36.1451 233.572 36.5489 233.744 36.9949C233.916 37.4408 233.99 37.9185 233.961 38.3956L232.383 64.6468C232.332 65.4965 231.958 66.2946 231.339 66.8781C230.719 67.4616 229.9 67.7864 229.048 67.7862Z" fill="#7D97F4"/>
<path d="M223.365 45.511C221.605 43.7814 218.86 44.3015 216.969 45.8882C216.838 45.9983 216.672 46.0593 216.501 46.0607C216.33 46.062 216.164 46.0037 216.031 45.8957C214.116 44.3422 211.374 43.8695 209.644 45.629C209.197 46.0833 208.845 46.6211 208.606 47.2117C208.367 47.8024 208.247 48.4343 208.253 49.0713C208.258 49.7084 208.389 50.3381 208.638 50.9245C208.887 51.511 209.249 52.0427 209.703 52.4892L216.096 58.7737C216.235 58.9105 216.424 58.9863 216.619 58.9846C216.815 58.9829 217.002 58.9038 217.139 58.7646L223.423 52.3679C224.324 51.4508 224.824 50.2134 224.813 48.9276C224.803 47.6419 224.282 46.413 223.365 45.511Z" fill="white"/>
<path d="M209.299 114.026C211.194 107.419 207.373 100.527 200.766 98.6319C194.158 96.7372 187.266 100.558 185.371 107.165C183.477 113.773 187.297 120.665 193.905 122.56C200.512 124.454 207.404 120.634 209.299 114.026Z" fill="#7D97F4"/>
<path d="M193.744 105.889H191.637C191.316 105.889 191.056 106.149 191.056 106.469V115.661C191.056 115.981 191.316 116.241 191.637 116.241H193.744C194.065 116.241 194.325 115.981 194.325 115.661V106.469C194.325 106.149 194.065 105.889 193.744 105.889Z" fill="white"/>
<path d="M201.461 105.889H199.411V103.41C199.411 102.605 198.936 102.075 198.131 102.075H198.079C197.274 102.075 196.621 102.666 196.621 103.471L195.9 105.957C195.58 105.957 195.052 106.186 195.052 106.507V116.035C195.052 116.355 195.848 116.782 196.169 116.782H201.461C202.665 116.782 203.589 115.634 203.589 114.43V108.107C203.589 106.903 202.665 105.889 201.461 105.889Z" fill="white"/>
<path d="M224.61 234.979C224.61 234.979 225.033 237.241 225.251 239.484C225.27 239.692 225.248 239.902 225.184 240.101C225.12 240.3 225.017 240.484 224.88 240.642C224.743 240.8 224.576 240.928 224.388 241.02C224.2 241.111 223.996 241.164 223.787 241.174C220.797 241.327 214.408 241.63 212.114 241.55C212.034 241.546 211.955 241.524 211.886 241.485C211.816 241.445 211.757 241.39 211.713 241.323C211.669 241.256 211.641 241.179 211.633 241.099C211.625 241.02 211.635 240.939 211.664 240.864C211.768 240.594 211.972 240.375 212.234 240.252L222.749 235.298L224.61 234.979Z" fill="url(#paint14_linear_122_20818)"/>
<path d="M224.926 233.642L224.631 236.357C224.631 236.357 222.789 237.236 221.516 236.279L222.253 233.25L224.926 233.642Z" fill="url(#paint15_linear_122_20818)"/>
<path d="M224.198 182.658C224.344 183.365 225.278 217.993 221.727 233.549C221.698 233.672 221.714 233.801 221.772 233.912C221.83 234.024 221.925 234.112 222.042 234.159C223.009 234.522 224.031 234.718 225.063 234.741C225.264 234.745 225.461 234.683 225.623 234.563C225.785 234.444 225.902 234.274 225.957 234.081C226.981 230.47 231.88 212.379 232.376 195.137C232.932 175.871 232.371 194.482 232.371 194.482L231.823 182.581L224.198 182.658Z" fill="url(#paint16_linear_122_20818)"/>
<path d="M236.774 236.045C236.774 236.045 237.423 237.183 238.069 240.22C238.097 240.349 238.098 240.482 238.071 240.612C238.044 240.741 237.99 240.863 237.913 240.97C237.835 241.078 237.737 241.167 237.622 241.234C237.508 241.301 237.382 241.342 237.25 241.357C236.264 241.463 234.746 241.606 233.529 241.606C233.396 241.607 233.265 241.58 233.144 241.527C233.023 241.473 232.914 241.395 232.825 241.297C232.736 241.199 232.669 241.083 232.628 240.957C232.587 240.831 232.573 240.698 232.587 240.566C232.712 239.454 233.114 237.629 234.398 236.196L236.774 236.045Z" fill="url(#paint17_linear_122_20818)"/>
<path d="M237.297 232.551L236.585 236.66C236.585 236.66 235.846 237.22 234.372 236.833L234.688 232.417L237.297 232.551Z" fill="url(#paint18_linear_122_20818)"/>
<path d="M238.861 183.581C242.064 201.825 238.635 228.751 237.443 234.026C237.408 234.184 237.327 234.329 237.21 234.441C237.093 234.553 236.945 234.628 236.786 234.656C236.233 234.753 235.32 234.836 234.417 234.584C234.265 234.542 234.13 234.452 234.032 234.329C233.934 234.205 233.877 234.054 233.87 233.896C233.662 229.643 233.713 203.518 230.796 193.221C230.649 192.7 230.326 192.246 229.883 191.936L224.37 188.095L223.89 181.806L238.861 183.581Z" fill="url(#paint19_linear_122_20818)"/>
<path d="M219.237 149.14C228.31 148.904 238.344 151.341 238.344 151.341C241.199 167.097 239.142 185.322 239.142 185.322C232.134 187.233 224.182 184.338 224.182 184.338C222.951 177.753 217.327 159.24 217.327 159.24C212.888 158.732 209.224 157.488 206.2 155.825C208.468 153.144 209.518 149.75 209.968 147.745C213.188 148.712 216.439 149.213 219.237 149.14Z" fill="url(#paint20_linear_122_20818)"/>
<path d="M192.307 136.031C193.188 134.945 194.321 135.444 194.321 135.444C195.71 141.072 202.756 145.579 209.97 147.745C209.519 149.75 208.47 153.145 206.201 155.825C194.2 149.228 192.307 136.031 192.307 136.031Z" fill="url(#paint21_linear_122_20818)"/>
<path d="M192.526 136.303C192.435 136.6 193.523 137.041 194.144 135.823C194.161 135.241 194.491 132.749 194.139 132.277C192.265 129.773 188.649 126.646 188.649 126.646C188.048 127.25 188.553 127.833 188.553 127.833L190.31 129.629C189.953 130.293 189.515 130.849 189.314 131.647C189.167 132.255 189.26 132.897 189.574 133.439C189.884 133.985 190.307 134.697 190.707 135.253C191.463 136.305 192.526 136.303 192.526 136.303Z" fill="url(#paint22_linear_122_20818)"/>
<path d="M191.084 130.798L192.681 132.127L193.192 133.456L191.794 135.034C191.794 135.034 191.295 132.384 190.934 131.813C190.573 131.241 190.755 130.969 191.084 130.798Z" fill="url(#paint23_linear_122_20818)"/>
<path d="M234.947 160.161L238.343 151.341C238.343 151.341 246.873 157.019 248.336 164.307C246.736 164.44 243.826 164.884 240.988 166.352C240.331 162.91 234.947 160.161 234.947 160.161Z" fill="url(#paint24_linear_122_20818)"/>
<path d="M227.622 168.501C227.622 168.501 237.189 173.788 240.356 169.166C241.013 168.206 241.164 167.255 240.991 166.356C243.83 164.888 246.74 164.445 248.34 164.31C248.782 166.508 248.581 168.851 247.31 171.229C241.784 181.571 226.385 170.86 226.385 170.86L227.622 168.501Z" fill="url(#paint25_linear_122_20818)"/>
<path d="M228.358 141.686L231.325 150.008C231.349 150.075 231.349 150.148 231.325 150.215C231.3 150.281 231.253 150.337 231.192 150.372C230.408 150.814 227.585 152.099 224.148 149.965C223.97 149.857 223.818 149.711 223.703 149.537C223.588 149.363 223.513 149.166 223.483 148.96L222.486 141.743L228.358 141.686Z" fill="url(#paint26_linear_122_20818)"/>
<path d="M222.002 134.014C222.002 134.014 218.888 140.012 219.318 142.42C219.747 144.827 223.675 144.616 227.088 142.625L229.424 136.158L222.002 134.014Z" fill="url(#paint27_linear_122_20818)"/>
<path d="M226.906 139.462C226.873 139.448 226.844 139.426 226.82 139.4C226.797 139.373 226.779 139.342 226.769 139.307C226.758 139.273 226.755 139.237 226.76 139.202C226.764 139.167 226.777 139.133 226.795 139.102C227.045 138.712 227.514 137.916 227.659 137.222C227.659 137.222 228.226 136.851 226.201 136.391C224.175 135.931 221.155 135.205 220.505 133.491C219.872 131.82 221.454 127.588 224.077 130.923C224.101 130.952 224.13 130.976 224.164 130.992C224.198 131.008 224.235 131.017 224.272 131.017C224.309 131.017 224.346 131.008 224.38 130.992C224.414 130.976 224.443 130.952 224.467 130.923C224.882 130.367 225.99 129.21 227.546 129.89C229.002 130.527 229.175 131.588 229.16 132.123C229.159 132.159 229.166 132.196 229.18 132.23C229.195 132.264 229.217 132.294 229.246 132.318C229.274 132.342 229.307 132.36 229.343 132.369C229.378 132.378 229.416 132.379 229.452 132.372C230.184 132.226 231.944 132.088 232.779 133.885C233.47 135.364 233.038 136.211 232.642 136.626C232.614 136.657 232.594 136.694 232.584 136.735C232.574 136.776 232.574 136.818 232.585 136.859C232.596 136.899 232.617 136.937 232.646 136.967C232.675 136.997 232.711 137.02 232.751 137.032C233.234 137.175 233.859 137.578 233.808 138.707C233.737 140.268 231.992 140.147 231.494 140.08C231.454 140.075 231.413 140.08 231.375 140.095C231.337 140.109 231.303 140.133 231.276 140.163C230.855 140.638 228.956 142.655 226.882 142.918C226.84 142.922 226.799 142.916 226.76 142.9C226.722 142.885 226.688 142.859 226.662 142.827C226.636 142.795 226.618 142.756 226.61 142.716C226.603 142.675 226.606 142.633 226.618 142.593L227.492 139.972C227.511 139.913 227.508 139.85 227.483 139.794C227.458 139.737 227.413 139.692 227.356 139.667L226.906 139.462Z" fill="url(#paint28_linear_122_20818)"/>
<path d="M226.548 139.836C226.548 139.836 228.791 138.266 228.968 139.568C229.146 140.871 226.953 141.479 225.86 141.001L226.548 139.836Z" fill="url(#paint29_linear_122_20818)"/>
<path d="M229.577 176.854L224.366 158.654C224.337 158.553 224.279 158.463 224.199 158.395C224.119 158.327 224.02 158.284 223.916 158.272C222.972 158.162 220.236 157.852 217.077 157.586C213.272 157.263 208.852 157.004 206.212 157.224C206.126 157.231 206.042 157.259 205.969 157.306C205.895 157.352 205.834 157.416 205.791 157.492C205.748 157.568 205.725 157.653 205.722 157.74C205.72 157.827 205.739 157.913 205.777 157.991C207.278 161.029 213.456 173.387 216.548 177.435C216.599 177.501 216.664 177.555 216.738 177.591C216.813 177.628 216.895 177.647 216.978 177.646L229.07 177.533C229.152 177.532 229.233 177.513 229.306 177.476C229.379 177.439 229.443 177.385 229.492 177.32C229.541 177.254 229.574 177.178 229.589 177.097C229.604 177.016 229.599 176.933 229.577 176.854Z" fill="url(#paint30_linear_122_20818)"/>
<path d="M228.318 172.457C228.318 172.457 229.044 169.471 228.751 168.412C228.458 167.353 227.89 165.992 226 166.295C224.109 166.598 221.877 167.394 221.877 167.394C221.877 167.394 221.99 168.774 223.428 168.328L222.536 169.018C222.536 169.018 222.663 170.123 223.878 169.532L223.047 170.446C223.047 170.446 223.568 171.353 224.459 170.772C225.351 170.19 225.784 172.821 228.318 172.457Z" fill="url(#paint31_linear_122_20818)"/>
<path d="M217.425 163.018C217.425 163.321 217.335 163.617 217.167 163.869C216.999 164.12 216.76 164.316 216.48 164.432C216.2 164.548 215.893 164.578 215.596 164.519C215.299 164.46 215.026 164.315 214.812 164.101C214.598 163.887 214.453 163.614 214.394 163.317C214.335 163.02 214.365 162.713 214.481 162.433C214.597 162.153 214.793 161.914 215.044 161.746C215.296 161.578 215.592 161.488 215.894 161.488C216.095 161.488 216.294 161.528 216.48 161.605C216.666 161.682 216.834 161.794 216.976 161.936C217.119 162.079 217.231 162.247 217.308 162.433C217.385 162.619 217.425 162.818 217.425 163.018Z" fill="#7D97F4"/>
<path d="M223.778 164.026L224.165 163.912L223.103 160.313C223.021 160.027 222.863 159.77 222.646 159.568C222.429 159.365 222.16 159.226 221.87 159.164C218.507 158.463 209.648 158.319 209.273 158.313L209.267 158.717C209.358 158.717 218.462 158.865 221.787 159.56C222.006 159.607 222.208 159.712 222.372 159.865C222.535 160.018 222.654 160.212 222.716 160.427L223.778 164.026Z" fill="#91B3FA"/>
<defs>
<linearGradient id="paint0_linear_122_20818" x1="263.18" y1="263.491" x2="97.6838" y2="84.8596" gradientUnits="userSpaceOnUse">
<stop stop-color="#DAE3FE"/>
<stop offset="1" stop-color="#E9EFFD"/>
</linearGradient>
<linearGradient id="paint1_linear_122_20818" x1="143.136" y1="183.105" x2="144.268" y2="263.409" gradientUnits="userSpaceOnUse">
<stop stop-color="#09005D"/>
<stop offset="1" stop-color="#1A0F91"/>
</linearGradient>
<linearGradient id="paint2_linear_122_20818" x1="154.064" y1="-3.38281" x2="133.705" y2="167.405" gradientUnits="userSpaceOnUse">
<stop stop-color="#09005D"/>
<stop offset="1" stop-color="#1A0F91"/>
</linearGradient>
<linearGradient id="paint3_linear_122_20818" x1="252.946" y1="193.604" x2="35.2206" y2="74.2793" gradientUnits="userSpaceOnUse">
<stop stop-color="#FE7062"/>
<stop offset="1" stop-color="#FF928E"/>
</linearGradient>
<linearGradient id="paint4_linear_122_20818" x1="138.869" y1="182.317" x2="143.959" y2="246.787" gradientUnits="userSpaceOnUse">
<stop stop-color="#09005D"/>
<stop offset="1" stop-color="#1A0F91"/>
</linearGradient>
<linearGradient id="paint5_linear_122_20818" x1="32.0257" y1="108.979" x2="61.9986" y2="173.448" gradientUnits="userSpaceOnUse">
<stop stop-color="#09005D"/>
<stop offset="1" stop-color="#1A0F91"/>
</linearGradient>
<linearGradient id="paint6_linear_122_20818" x1="84.6776" y1="83.4989" x2="142.261" y2="186.056" gradientUnits="userSpaceOnUse">
<stop stop-color="#4042E2"/>
<stop offset="1" stop-color="#4F52FF"/>
</linearGradient>
<linearGradient id="paint7_linear_122_20818" x1="143.506" y1="118.179" x2="181.962" y2="77.4612" gradientUnits="userSpaceOnUse">
<stop stop-color="#4042E2"/>
<stop offset="1" stop-color="#4F52FF"/>
</linearGradient>
<linearGradient id="paint8_linear_122_20818" x1="164.961" y1="104.296" x2="118.166" y2="131.624" gradientUnits="userSpaceOnUse">
<stop stop-color="#09005D"/>
<stop offset="1" stop-color="#1A0F91"/>
</linearGradient>
<linearGradient id="paint9_linear_122_20818" x1="87.4702" y1="41.9572" x2="70.505" y2="74.7571" gradientUnits="userSpaceOnUse">
<stop stop-color="#09005D"/>
<stop offset="1" stop-color="#1A0F91"/>
</linearGradient>
<linearGradient id="paint10_linear_122_20818" x1="113.192" y1="49.6981" x2="123.937" y2="-37.9577" gradientUnits="userSpaceOnUse">
<stop stop-color="#4042E2"/>
<stop offset="1" stop-color="#4F52FF"/>
</linearGradient>
<linearGradient id="paint11_linear_122_20818" x1="125.143" y1="51.1627" x2="135.887" y2="-36.4931" gradientUnits="userSpaceOnUse">
<stop stop-color="#4042E2"/>
<stop offset="1" stop-color="#4F52FF"/>
</linearGradient>
<linearGradient id="paint12_linear_122_20818" x1="137.237" y1="52.6453" x2="147.982" y2="-35.0105" gradientUnits="userSpaceOnUse">
<stop stop-color="#4042E2"/>
<stop offset="1" stop-color="#4F52FF"/>
</linearGradient>
<linearGradient id="paint13_linear_122_20818" x1="152.024" y1="54.4583" x2="162.769" y2="-33.1976" gradientUnits="userSpaceOnUse">
<stop stop-color="#4042E2"/>
<stop offset="1" stop-color="#4F52FF"/>
</linearGradient>
<linearGradient id="paint14_linear_122_20818" x1="212.485" y1="232.408" x2="251.578" y2="274.085" gradientUnits="userSpaceOnUse">
<stop stop-color="#09005D"/>
<stop offset="1" stop-color="#1A0F91"/>
</linearGradient>
<linearGradient id="paint15_linear_122_20818" x1="225.069" y1="235.406" x2="221.634" y2="235.441" gradientUnits="userSpaceOnUse">
<stop stop-color="#FEBBBA"/>
<stop offset="1" stop-color="#FF928E"/>
</linearGradient>
<linearGradient id="paint16_linear_122_20818" x1="-935.7" y1="-1229.02" x2="-966.804" y2="-1267.47" gradientUnits="userSpaceOnUse">
<stop stop-color="#09005D"/>
<stop offset="1" stop-color="#1A0F91"/>
</linearGradient>
<linearGradient id="paint17_linear_122_20818" x1="221.081" y1="224.344" x2="260.175" y2="266.023" gradientUnits="userSpaceOnUse">
<stop stop-color="#09005D"/>
<stop offset="1" stop-color="#1A0F91"/>
</linearGradient>
<linearGradient id="paint18_linear_122_20818" x1="237.447" y1="235.106" x2="234.481" y2="235.135" gradientUnits="userSpaceOnUse">
<stop stop-color="#FEBBBA"/>
<stop offset="1" stop-color="#FF928E"/>
</linearGradient>
<linearGradient id="paint19_linear_122_20818" x1="-930.211" y1="-1233.46" x2="-961.314" y2="-1271.92" gradientUnits="userSpaceOnUse">
<stop stop-color="#09005D"/>
<stop offset="1" stop-color="#1A0F91"/>
</linearGradient>
<linearGradient id="paint20_linear_122_20818" x1="196.381" y1="100.413" x2="236.61" y2="183.026" gradientUnits="userSpaceOnUse">
<stop stop-color="#4042E2"/>
<stop offset="1" stop-color="#4F52FF"/>
</linearGradient>
<linearGradient id="paint21_linear_122_20818" x1="210.034" y1="145.93" x2="192.484" y2="146.105" gradientUnits="userSpaceOnUse">
<stop stop-color="#FEBBBA"/>
<stop offset="1" stop-color="#FF928E"/>
</linearGradient>
<linearGradient id="paint22_linear_122_20818" x1="195.819" y1="140.953" x2="189.315" y2="127.663" gradientUnits="userSpaceOnUse">
<stop stop-color="#FEBBBA"/>
<stop offset="1" stop-color="#FF928E"/>
</linearGradient>
<linearGradient id="paint23_linear_122_20818" x1="192.449" y1="134.241" x2="187.459" y2="126.734" gradientUnits="userSpaceOnUse">
<stop stop-color="#FEBBBA"/>
<stop offset="1" stop-color="#FF928E"/>
</linearGradient>
<linearGradient id="paint24_linear_122_20818" x1="208.818" y1="94.3566" x2="249.047" y2="176.969" gradientUnits="userSpaceOnUse">
<stop stop-color="#4042E2"/>
<stop offset="1" stop-color="#4F52FF"/>
</linearGradient>
<linearGradient id="paint25_linear_122_20818" x1="248.685" y1="170.403" x2="226.476" y2="170.625" gradientUnits="userSpaceOnUse">
<stop stop-color="#FEBBBA"/>
<stop offset="1" stop-color="#FF928E"/>
</linearGradient>
<linearGradient id="paint26_linear_122_20818" x1="232.6" y1="158.539" x2="224.117" y2="141.856" gradientUnits="userSpaceOnUse">
<stop stop-color="#FEBBBA"/>
<stop offset="1" stop-color="#FF928E"/>
</linearGradient>
<linearGradient id="paint27_linear_122_20818" x1="393.825" y1="-813.207" x2="396.551" y2="-828.493" gradientUnits="userSpaceOnUse">
<stop stop-color="#FEBBBA"/>
<stop offset="1" stop-color="#FF928E"/>
</linearGradient>
<linearGradient id="paint28_linear_122_20818" x1="234.904" y1="127.397" x2="222.513" y2="137.326" gradientUnits="userSpaceOnUse">
<stop stop-color="#09005D"/>
<stop offset="1" stop-color="#1A0F91"/>
</linearGradient>
<linearGradient id="paint29_linear_122_20818" x1="397.067" y1="-812.628" x2="399.794" y2="-827.914" gradientUnits="userSpaceOnUse">
<stop stop-color="#FEBBBA"/>
<stop offset="1" stop-color="#FF928E"/>
</linearGradient>
<linearGradient id="paint30_linear_122_20818" x1="220.424" y1="155.863" x2="208.169" y2="206.925" gradientUnits="userSpaceOnUse">
<stop stop-color="#09005D"/>
<stop offset="1" stop-color="#1A0F91"/>
</linearGradient>
<linearGradient id="paint31_linear_122_20818" x1="228.821" y1="169.371" x2="221.877" y2="169.371" gradientUnits="userSpaceOnUse">
<stop stop-color="#FEBBBA"/>
<stop offset="1" stop-color="#FF928E"/>
</linearGradient>
</defs>
</svg>
