<svg width="24" height="24" viewBox="0 0 24 24" fill="none" xmlns="http://www.w3.org/2000/svg">
<path fill-rule="evenodd" clip-rule="evenodd" d="M7.71429 14.0683L4.89429 16.8943C4.73253 17.0547 4.51355 17.1442 4.28571 17.1429C4.17328 17.1458 4.06173 17.1223 3.96 17.0743C3.63992 16.9428 3.4303 16.6317 3.42857 16.2857V12.8571C1.53502 12.8571 0 11.3221 0 9.42857V3.42857C0 1.53502 1.53502 0 3.42857 0H12.8571C14.7507 0 16.2857 1.53502 16.2857 3.42857V6.85714H20.5714C22.465 6.85714 24 8.39217 24 10.2857V16.2857C24 18.1793 22.465 19.7143 20.5714 19.7143V23.1429C20.5697 23.4889 20.3601 23.7999 20.04 23.9314C19.9383 23.9794 19.8267 24.0029 19.7143 24C19.4865 24.0013 19.2675 23.9119 19.1057 23.7514L15.0771 19.7143H11.1429C9.24931 19.7143 7.71429 18.1793 7.71429 16.2857V14.0683ZM9.42857 12.8571V16.2857C9.42857 17.2325 10.1961 18 11.1429 18H15.4286C15.6564 17.9987 15.8754 18.0881 16.0371 18.2486L18.8571 21.0771V18.8571C18.8571 18.3838 19.2409 18 19.7143 18H20.5714C21.5182 18 22.2857 17.2325 22.2857 16.2857V10.2857C22.2857 9.33894 21.5182 8.57143 20.5714 8.57143H16.2857V9.42857C16.2857 11.3221 14.7507 12.8571 12.8571 12.8571H9.42857ZM12.8571 11.1429H8.57143C8.3436 11.1415 8.12462 11.231 7.96286 11.3914L5.14286 14.22V12C5.14286 11.5266 4.7591 11.1429 4.28571 11.1429H3.42857C2.4818 11.1429 1.71429 10.3753 1.71429 9.42857V3.42857C1.71429 2.4818 2.4818 1.71429 3.42857 1.71429H12.8571C13.8039 1.71429 14.5714 2.4818 14.5714 3.42857V9.42857C14.5714 10.3753 13.8039 11.1429 12.8571 11.1429Z" fill="#FF9595"/>
</svg>
