<svg width="1360" height="449" viewBox="0 0 1360 449" fill="none" xmlns="http://www.w3.org/2000/svg">
<rect width="1360" height="449" fill="url(#paint0_linear_143_21774)"/>
<path fill-rule="evenodd" clip-rule="evenodd" d="M1134 372C1137.87 372 1141 368.866 1141 365C1141 361.134 1137.87 358 1134 358C1130.13 358 1127 361.134 1127 365C1127 368.866 1130.13 372 1134 372ZM1137.35 363.354C1137.55 363.158 1137.55 362.842 1137.35 362.646C1137.16 362.451 1136.84 362.451 1136.65 362.646L1133 366.293L1131.35 364.646C1131.16 364.451 1130.84 364.451 1130.65 364.646C1130.45 364.842 1130.45 365.158 1130.65 365.354L1132.65 367.354C1132.84 367.549 1133.16 367.549 1133.35 367.354L1137.35 363.354Z" fill="white"/>
<path fill-rule="evenodd" clip-rule="evenodd" d="M1132.47 387.744C1133.04 386.752 1134.48 386.752 1135.06 387.744L1140.32 396.76C1140.9 397.76 1140.18 399.015 1139.02 399.015H1128.5C1127.34 399.015 1126.62 397.76 1127.21 396.76L1132.47 387.744ZM1133.76 394.515C1134.04 394.515 1134.26 394.292 1134.26 394.015V390.515C1134.26 390.239 1134.04 390.015 1133.76 390.015C1133.49 390.015 1133.26 390.239 1133.26 390.515V394.015C1133.26 394.292 1133.49 394.515 1133.76 394.515ZM1134.51 396.265C1134.51 395.851 1134.18 395.515 1133.76 395.515C1133.35 395.515 1133.01 395.851 1133.01 396.265C1133.01 396.68 1133.35 397.015 1133.76 397.015C1134.18 397.015 1134.51 396.68 1134.51 396.265Z" fill="white"/>
<circle cx="1232.8" cy="308.168" r="2.77623" stroke="white" stroke-width="2"/>
<path d="M1227.07 318.481C1227.22 313.912 1230.89 312.033 1232.71 311.664C1237.8 312.217 1238.35 317.56 1238.53 318.481C1238.71 319.403 1234.89 320.324 1232.71 320.324C1229.36 320.471 1227.55 319.157 1227.07 318.481Z" stroke="white" stroke-width="2"/>
<path d="M1247.35 306.769C1251.64 306.723 1260.24 306.741 1260.36 307.189" stroke="white" stroke-width="2"/>
<path d="M1247.35 315.597C1251.64 315.551 1260.24 315.57 1260.36 316.017" stroke="white" stroke-width="2"/>
<path d="M1229.03 329.029C1239.36 328.969 1260.09 328.993 1260.36 329.566" stroke="white" stroke-width="2"/>
<path d="M1229.03 338.261C1239.36 338.201 1260.09 338.225 1260.36 338.798" stroke="white" stroke-width="2"/>
<path d="M1229.03 347.211C1239.36 347.151 1260.09 347.175 1260.36 347.748" stroke="white" stroke-width="2"/>
<rect x="1218" y="297" width="50.5875" height="60.9371" stroke="white" stroke-width="2"/>
<rect x="1104" y="15" width="215" height="34" rx="15" stroke="white" stroke-width="2"/>
<path fill-rule="evenodd" clip-rule="evenodd" d="M1129.9 33.8259L1134.77 38.6931C1134.92 38.8361 1135 39.0308 1135 39.2339C1135 39.437 1134.92 39.6317 1134.77 39.7747C1134.63 39.9189 1134.44 40 1134.23 40C1134.03 40 1133.84 39.9189 1133.69 39.7747L1128.83 34.8998C1127.76 35.7354 1126.45 36.1888 1125.09 36.1871C1121.73 36.1871 1119 33.4589 1119 30.0936C1119 26.7282 1121.73 24 1125.09 24C1128.46 24 1131.19 26.7282 1131.19 30.0936C1131.19 31.4468 1130.74 32.7614 1129.9 33.8259ZM1125.09 25.5234C1122.57 25.5234 1120.52 27.5695 1120.52 30.0936C1120.52 31.3056 1121 32.4681 1121.86 33.3252C1122.72 34.1822 1123.88 34.6637 1125.09 34.6637C1127.62 34.6637 1129.66 32.6176 1129.66 30.0936C1129.66 27.5695 1127.62 25.5234 1125.09 25.5234Z" fill="white"/>
<rect x="1147" y="25" width="162" height="14" rx="7" fill="white"/>
<path d="M1086 1V63H1273" stroke="white" stroke-width="2" stroke-dasharray="4 4"/>
<path fill-rule="evenodd" clip-rule="evenodd" d="M1291.2 170C1291.63 170 1291.99 170.411 1292 170.92L1292 170.937V191.063C1292 191.574 1291.65 191.991 1291.21 192L1291.2 192H1270.8C1270.37 192 1270.01 191.589 1270 191.08L1270 191.063V170.937C1270 170.426 1270.35 170.009 1270.79 170L1270.8 170H1291.2ZM1286.18 179.675L1280.44 186.843C1280.32 187.003 1280.15 187.091 1279.96 187.091C1279.79 187.091 1279.62 187.008 1279.5 186.858L1279.48 186.842L1275.82 182.264L1271.29 187.931V190.675H1290.71V185.342L1286.18 179.675ZM1290.71 171.425H1271.29V186.55L1275.34 181.554C1275.47 181.396 1275.64 181.309 1275.82 181.309C1276 181.309 1276.16 181.39 1276.29 181.539L1276.3 181.554L1279.96 186.068L1285.7 179.001C1285.96 178.68 1286.38 178.675 1286.64 178.987L1286.66 179L1290.71 183.997V171.425ZM1279.62 175.5C1280.38 175.5 1281 176.117 1281 176.875C1281 177.633 1280.38 178.25 1279.62 178.25C1278.87 178.25 1278.25 177.633 1278.25 176.875C1278.25 176.117 1278.87 175.5 1279.62 175.5Z" fill="#E8E8E8"/>
<path d="M1224 158.86C1224 165.987 1218.38 171.72 1211.5 171.72C1204.62 171.72 1199 165.987 1199 158.86C1199 151.733 1204.62 146 1211.5 146C1218.38 146 1224 151.733 1224 158.86Z" stroke="white" stroke-width="2"/>
<circle cx="1211.5" cy="154.54" r="2.78" stroke="white" stroke-width="2"/>
<path d="M1205.92 164.62C1206.06 160.156 1209.7 158.32 1211.5 157.96C1216.54 158.5 1217.08 163.72 1217.26 164.62C1217.44 165.52 1213.66 166.42 1211.5 166.42C1208.19 166.564 1206.4 165.28 1205.92 164.62Z" stroke="white" stroke-width="2"/>
<path d="M1300 380H1194L1194 207" stroke="white" stroke-width="2" stroke-dasharray="4 4"/>
<path fill-rule="evenodd" clip-rule="evenodd" d="M1281 121C1278.24 121 1276 123.239 1276 126C1276 128.761 1278.24 131 1281 131C1283.76 131 1286 128.761 1286 126C1286 123.239 1283.76 121 1281 121ZM1281 122C1283.21 122 1285 123.791 1285 126C1285 128.209 1283.21 130 1281 130C1278.79 130 1277 128.209 1277 126C1277 123.791 1278.79 122 1281 122ZM1281 128.5C1282.38 128.5 1283.5 127.381 1283.5 126C1283.5 124.619 1282.38 123.5 1281 123.5C1279.62 123.5 1278.5 124.619 1278.5 126C1278.5 127.381 1279.62 128.5 1281 128.5Z" fill="white"/>
<path fill-rule="evenodd" clip-rule="evenodd" d="M1281 95C1278.24 95 1276 97.2386 1276 100C1276 102.761 1278.24 105 1281 105C1283.76 105 1286 102.761 1286 100C1286 97.2386 1283.76 95 1281 95ZM1281 96C1283.21 96 1285 97.7909 1285 100C1285 102.209 1283.21 104 1281 104C1278.79 104 1277 102.209 1277 100C1277 97.7909 1278.79 96 1281 96Z" fill="white"/>
<path d="M1335 81H1251V196" stroke="white" stroke-width="2" stroke-dasharray="4 4"/>
<path d="M1287.75 143.5H1274.25C1272.59 143.5 1271.25 144.84 1271.25 146.5V155.5C1271.25 157.16 1272.59 158.5 1274.25 158.5H1287.75C1289.41 158.5 1290.75 157.16 1290.75 155.5V146.5C1290.75 144.84 1289.41 143.5 1287.75 143.5ZM1274.25 145H1287.75C1288.22 145 1288.66 145.22 1288.94 145.6L1281 151.56L1273.06 145.6C1273.34 145.22 1273.78 145 1274.25 145ZM1289.25 150.29V155.5C1289.25 156.33 1288.58 157 1287.75 157H1274.25C1273.42 157 1272.75 156.33 1272.75 155.5V147.25L1281 153.44L1289.25 147.25V150.29Z" fill="white"/>
<path fill-rule="evenodd" clip-rule="evenodd" d="M1214.88 401.978V405.062C1214.88 405.546 1215.27 405.938 1215.75 405.938H1224.5C1224.98 405.938 1225.38 405.546 1225.38 405.062V403.75H1226.25C1226.73 403.75 1227.12 403.358 1227.12 402.875V401.125C1227.12 400.642 1226.73 400.25 1226.25 400.25H1225.38V398.938C1225.38 398.454 1224.98 398.062 1224.5 398.062H1215.75C1215.27 398.062 1214.88 398.454 1214.88 398.938V399.813H1215.75V398.938H1224.5V401.125V402.875V405.062H1215.75V401.978C1215.75 401.737 1215.55 401.541 1215.31 401.541C1215.07 401.541 1214.88 401.737 1214.88 401.978ZM1225.38 401.125V402.875H1226.25V401.125H1225.38Z" fill="white"/>
<path fill-rule="evenodd" clip-rule="evenodd" d="M1216.62 399.812H1218.37V404.187H1216.62V399.812Z" fill="white" fill-opacity="0.5"/>
<path fill-rule="evenodd" clip-rule="evenodd" d="M1226.13 419.022L1226.13 415.938C1226.13 415.454 1225.73 415.062 1225.25 415.062L1216.5 415.062C1216.02 415.062 1215.63 415.454 1215.63 415.937L1215.63 417.25L1214.75 417.25C1214.27 417.25 1213.88 417.642 1213.88 418.125L1213.88 419.875C1213.88 420.358 1214.27 420.75 1214.75 420.75L1215.63 420.75L1215.63 422.062C1215.63 422.546 1216.02 422.937 1216.5 422.937L1225.25 422.937C1225.73 422.937 1226.13 422.546 1226.13 422.062L1226.13 421.187L1225.25 421.187L1225.25 422.062L1216.5 422.062L1216.5 419.875L1216.5 418.125L1216.5 415.937L1225.25 415.937L1225.25 419.022C1225.25 419.263 1225.45 419.459 1225.69 419.459C1225.93 419.459 1226.13 419.263 1226.13 419.022ZM1215.63 419.875L1215.63 418.125L1214.75 418.125L1214.75 419.875L1215.63 419.875Z" fill="white"/>
<path fill-rule="evenodd" clip-rule="evenodd" d="M1224.38 421.188L1222.63 421.187L1222.63 416.812L1224.38 416.813L1224.38 421.188Z" fill="white" fill-opacity="0.5"/>
<path fill-rule="evenodd" clip-rule="evenodd" d="M1195.94 401.978V405.062C1195.94 405.546 1196.36 405.938 1196.88 405.938H1206.25C1206.77 405.938 1207.19 405.546 1207.19 405.062V403.75H1208.12C1208.64 403.75 1209.06 403.358 1209.06 402.875V401.125C1209.06 400.642 1208.64 400.25 1208.12 400.25H1207.19V398.938C1207.19 398.454 1206.77 398.062 1206.25 398.062H1196.88C1196.36 398.062 1195.94 398.454 1195.94 398.938V399.813H1196.88V398.938H1206.25V401.125V402.875V405.062H1196.88V401.978C1196.88 401.737 1196.67 401.541 1196.41 401.541C1196.15 401.541 1195.94 401.737 1195.94 401.978ZM1207.19 401.125V402.875H1208.12V401.125H1207.19Z" fill="white"/>
<path fill-rule="evenodd" clip-rule="evenodd" d="M1197.81 399.812H1201.56V404.187H1197.81V399.812Z" fill="white" fill-opacity="0.5"/>
<path fill-rule="evenodd" clip-rule="evenodd" d="M1207.06 419.022L1207.06 415.938C1207.06 415.454 1206.64 415.062 1206.13 415.062L1196.75 415.062C1196.23 415.062 1195.81 415.454 1195.81 415.937L1195.81 417.25L1194.88 417.25C1194.36 417.25 1193.94 417.642 1193.94 418.125L1193.94 419.875C1193.94 420.358 1194.36 420.75 1194.88 420.75L1195.81 420.75L1195.81 422.062C1195.81 422.546 1196.23 422.937 1196.75 422.937L1206.12 422.937C1206.64 422.937 1207.06 422.546 1207.06 422.062L1207.06 421.187L1206.13 421.187L1206.13 422.062L1196.75 422.062L1196.75 419.875L1196.75 418.125L1196.75 415.937L1206.13 415.937L1206.13 419.022C1206.13 419.263 1206.33 419.459 1206.59 419.459C1206.85 419.459 1207.06 419.263 1207.06 419.022ZM1195.81 419.875L1195.81 418.125L1194.88 418.125L1194.88 419.875L1195.81 419.875Z" fill="white"/>
<path fill-rule="evenodd" clip-rule="evenodd" d="M1205.19 421.188L1201.44 421.187L1201.44 416.812L1205.19 416.813L1205.19 421.188Z" fill="white" fill-opacity="0.5"/>
<path fill-rule="evenodd" clip-rule="evenodd" d="M1176.88 401.978V405.062C1176.88 405.546 1177.27 405.938 1177.75 405.938H1186.5C1186.98 405.938 1187.38 405.546 1187.38 405.062V403.75H1188.25C1188.73 403.75 1189.12 403.358 1189.12 402.875V401.125C1189.12 400.642 1188.73 400.25 1188.25 400.25H1187.38V398.938C1187.38 398.454 1186.98 398.062 1186.5 398.062H1177.75C1177.27 398.062 1176.88 398.454 1176.88 398.938V399.813H1177.75V398.938H1186.5V401.125V402.875V405.062H1177.75V401.978C1177.75 401.737 1177.55 401.541 1177.31 401.541C1177.07 401.541 1176.88 401.737 1176.88 401.978ZM1187.38 401.125V402.875H1188.25V401.125H1187.38Z" fill="white"/>
<path fill-rule="evenodd" clip-rule="evenodd" d="M1178.62 399.812H1185.62V404.187H1178.62V399.812Z" fill="white" fill-opacity="0.5"/>
<path fill-rule="evenodd" clip-rule="evenodd" d="M1188.13 419.022L1188.13 415.938C1188.13 415.454 1187.73 415.062 1187.25 415.062L1178.5 415.062C1178.02 415.062 1177.63 415.454 1177.63 415.937L1177.63 417.25L1176.75 417.25C1176.27 417.25 1175.88 417.642 1175.88 418.125L1175.88 419.875C1175.88 420.358 1176.27 420.75 1176.75 420.75L1177.63 420.75L1177.63 422.062C1177.63 422.546 1178.02 422.937 1178.5 422.937L1187.25 422.937C1187.73 422.937 1188.13 422.546 1188.13 422.062L1188.13 421.187L1187.25 421.187L1187.25 422.062L1178.5 422.062L1178.5 419.875L1178.5 418.125L1178.5 415.937L1187.25 415.937L1187.25 419.022C1187.25 419.263 1187.45 419.459 1187.69 419.459C1187.93 419.459 1188.13 419.263 1188.13 419.022ZM1177.63 419.875L1177.63 418.125L1176.75 418.125L1176.75 419.875L1177.63 419.875Z" fill="white"/>
<path fill-rule="evenodd" clip-rule="evenodd" d="M1186.38 421.188L1179.38 421.187L1179.38 416.812L1186.38 416.813L1186.38 421.188Z" fill="white" fill-opacity="0.5"/>
<path fill-rule="evenodd" clip-rule="evenodd" d="M1111 291C1112.65 291 1114 292.346 1114 294C1114 295.654 1112.65 297 1111 297C1109.35 297 1108 295.654 1108 294C1108 292.346 1109.35 291 1111 291ZM1111 292.5C1110.17 292.5 1109.5 293.174 1109.5 294C1109.5 294.826 1110.17 295.5 1111 295.5C1111.83 295.5 1112.5 294.826 1112.5 294C1112.5 293.174 1111.83 292.5 1111 292.5Z" fill="white"/>
<path fill-rule="evenodd" clip-rule="evenodd" d="M1111 287C1107.33 287 1103.85 289.675 1102.16 293.263C1101.95 293.728 1101.95 294.272 1102.16 294.737C1103.86 298.336 1107.34 301 1111 301C1114.82 301 1118.23 298.148 1119.84 294.737C1120.05 294.272 1120.05 293.728 1119.84 293.263C1118.14 289.664 1114.66 287 1111 287ZM1111.26 289.006C1113.89 289.128 1116.51 291.124 1117.9 293.848L1117.97 293.999L1118.03 293.886C1116.72 296.664 1113.93 299 1111 299L1110.74 298.994C1108.11 298.872 1105.49 296.876 1104.1 294.152L1104.03 294L1103.97 294.114C1105.36 291.174 1108.19 289 1111 289L1111.26 289.006Z" fill="white"/>
<rect x="1258" y="410" width="34" height="18" rx="9" stroke="white" stroke-width="2"/>
<circle cx="1267" cy="419" r="6" fill="white"/>
<path d="M1148.36 197.022V189.884H1086C1086.57 207.47 1087.36 243.821 1086 248.538C1087.94 248.621 1128.38 248.573 1148.36 248.538V209.539" stroke="white" stroke-width="2"/>
<path d="M1107.23 231.986H1129.18" stroke="white" stroke-width="2"/>
<path d="M1107.23 222.263H1124.88" stroke="white" stroke-width="2"/>
<path d="M1107.23 212.952H1127.12" stroke="white" stroke-width="2"/>
<path d="M1107.23 202.607H1132.59" stroke="white" stroke-width="2"/>
<path d="M1131.78 229.297L1133.13 226.608M1133.13 226.608C1132.71 225.918 1132.07 224.228 1132.86 222.987C1133.65 221.746 1139.64 212.401 1142.53 207.884L1146.65 210.78L1136.53 225.47C1136.2 226.228 1135.06 227.518 1133.13 226.608Z" stroke="white" stroke-width="2"/>
<path d="M1157.05 192.47C1158.66 193.401 1157.23 196.504 1156.51 197.332C1155.94 197.994 1150.06 206.918 1147.19 211.297L1141.91 207.159C1144.12 203.78 1148.98 196.339 1150.78 193.608C1153.02 190.194 1155.43 191.539 1157.05 192.47ZM1157.05 192.47C1157.38 192.056 1158.23 191.042 1159.02 190.297C1160 189.366 1159.29 188.642 1159.02 188.228C1158.37 187.815 1157.08 188.056 1156.51 188.228L1154.99 191.228" stroke="white" stroke-width="2"/>
<path d="M1157.32 192.47C1158.24 192.78 1160.04 193.835 1159.82 195.573C1159.56 197.746 1159.73 198.987 1157.05 201.47C1154.36 203.952 1149.97 206.849 1149.88 208.194C1149.88 208.814 1149.61 209.952 1150.87 210.47C1151.4 210.366 1151.94 210.263 1152.03 209.849" stroke="white" stroke-width="2"/>
<path d="M1096.12 201.573C1096.75 202.883 1098.06 205.483 1098.27 205.401C1099.06 204.076 1101.05 201.125 1101.95 199.814" stroke="white" stroke-width="2"/>
<path d="M1096.12 211.814C1096.75 213.125 1098.06 215.725 1098.27 215.642C1099.06 214.318 1101.05 211.366 1101.95 210.056" stroke="white" stroke-width="2"/>
<path d="M1096.12 222.366C1096.75 223.676 1098.06 226.276 1098.27 226.194C1099.06 224.869 1101.05 221.918 1101.95 220.607" stroke="white" stroke-width="2"/>
<path d="M1096.57 236.021C1097.83 234.4 1100.51 231.055 1101.23 230.642" stroke="white" stroke-width="2"/>
<path d="M1097.11 231.263L1101.5 235.711" stroke="white" stroke-width="2"/>
<rect x="189" y="22" width="140" height="37.6524" rx="15" stroke="white" stroke-opacity="0.7" stroke-width="2"/>
<rect x="195.607" y="40.0342" width="27.8929" height="3.70089" rx="1.85044" fill="white"/>
<rect x="313.834" y="40.0342" width="8.55803" height="3.70089" rx="1.85044" fill="white"/>
<rect x="195.607" y="49.0215" width="43.4241" height="3.70089" rx="1.85044" fill="white"/>
<rect x="275.798" y="49.0215" width="46.5938" height="3.70089" rx="1.85044" fill="white"/>
<rect x="195.607" y="29.459" width="74.4866" height="4.62611" rx="2.31306" fill="white"/>
<circle cx="1074.98" cy="107.146" r="5.84341" fill="white" stroke="white" stroke-width="2"/>
<circle cx="1074.98" cy="107.146" r="11.783" stroke="white" stroke-width="2"/>
<path d="M1092.96 107.146C1092.96 117.543 1084.87 125.902 1074.98 125.902C1065.09 125.902 1057 117.543 1057 107.146C1057 96.7497 1065.09 88.3906 1074.98 88.3906C1084.87 88.3906 1092.96 96.7497 1092.96 107.146Z" stroke="white" stroke-width="2"/>
<path d="M1091.12 93.4588L1091.64 88.0357L1098.22 83L1097.71 88.4231" stroke="white" stroke-width="2"/>
<path d="M1097.71 88.6816L1103 89.3272L1096.54 94.7503L1091.12 93.5882" stroke="white" stroke-width="2"/>
<path d="M1075.63 106.371L1100.68 85.9697" stroke="white" stroke-width="2"/>
<path d="M1104 107.278C1113.13 105.819 1139.22 109.534 1144.94 132.188C1146.18 135.792 1146.42 146.861 1141.49 148.985C1139.02 149.435 1126.94 139.461 1139.27 124.53C1143.22 119.752 1175.03 104.189 1196 137.911" stroke="white" stroke-width="2" stroke-dasharray="4 4"/>
<rect x="1224" y="257" width="101" height="1" fill="white"/>
<path d="M1224.73 252V244.842H1225.68V251.155H1229.21V252H1224.73ZM1233.61 251.36C1233.28 251.637 1232.97 251.832 1232.67 251.946C1232.37 252.06 1232.05 252.117 1231.7 252.117C1231.13 252.117 1230.69 251.979 1230.39 251.702C1230.08 251.422 1229.93 251.066 1229.93 250.633C1229.93 250.379 1229.98 250.148 1230.1 249.939C1230.22 249.728 1230.37 249.559 1230.55 249.432C1230.74 249.305 1230.95 249.209 1231.19 249.144C1231.36 249.098 1231.62 249.054 1231.97 249.012C1232.68 248.927 1233.2 248.826 1233.54 248.709C1233.54 248.589 1233.54 248.512 1233.54 248.479C1233.54 248.121 1233.46 247.869 1233.29 247.723C1233.07 247.524 1232.73 247.425 1232.29 247.425C1231.88 247.425 1231.57 247.498 1231.37 247.645C1231.18 247.788 1231.03 248.043 1230.94 248.411L1230.08 248.294C1230.16 247.926 1230.29 247.63 1230.46 247.405C1230.64 247.177 1230.9 247.003 1231.24 246.883C1231.58 246.759 1231.97 246.697 1232.42 246.697C1232.86 246.697 1233.22 246.749 1233.5 246.854C1233.77 246.958 1233.98 247.09 1234.11 247.249C1234.24 247.405 1234.33 247.604 1234.38 247.845C1234.41 247.994 1234.42 248.265 1234.42 248.655V249.827C1234.42 250.644 1234.44 251.162 1234.48 251.38C1234.52 251.595 1234.59 251.801 1234.7 252H1233.79C1233.69 251.818 1233.64 251.604 1233.61 251.36ZM1233.54 249.397C1233.22 249.528 1232.74 249.638 1232.1 249.729C1231.74 249.782 1231.48 249.84 1231.33 249.905C1231.18 249.97 1231.07 250.066 1230.99 250.193C1230.91 250.317 1230.87 250.455 1230.87 250.608C1230.87 250.843 1230.95 251.038 1231.13 251.194C1231.31 251.351 1231.57 251.429 1231.91 251.429C1232.25 251.429 1232.55 251.355 1232.81 251.209C1233.08 251.059 1233.27 250.856 1233.39 250.599C1233.49 250.4 1233.54 250.107 1233.54 249.72V249.397ZM1236.6 252H1235.79V244.842H1236.67V247.396C1237.04 246.93 1237.51 246.697 1238.09 246.697C1238.41 246.697 1238.71 246.762 1238.99 246.893C1239.28 247.02 1239.51 247.2 1239.69 247.435C1239.88 247.666 1240.02 247.946 1240.13 248.274C1240.23 248.603 1240.28 248.955 1240.28 249.329C1240.28 250.218 1240.06 250.905 1239.62 251.39C1239.19 251.875 1238.66 252.117 1238.04 252.117C1237.43 252.117 1236.95 251.862 1236.6 251.351V252ZM1236.59 249.368C1236.59 249.99 1236.68 250.439 1236.85 250.716C1237.12 251.168 1237.5 251.395 1237.97 251.395C1238.35 251.395 1238.69 251.229 1238.97 250.896C1239.25 250.561 1239.39 250.063 1239.39 249.402C1239.39 248.725 1239.25 248.226 1238.98 247.903C1238.71 247.581 1238.39 247.42 1238.01 247.42C1237.62 247.42 1237.29 247.588 1237.01 247.923C1236.73 248.255 1236.59 248.737 1236.59 249.368ZM1244.91 250.33L1245.82 250.442C1245.67 250.973 1245.41 251.385 1245.02 251.678C1244.63 251.971 1244.14 252.117 1243.54 252.117C1242.78 252.117 1242.18 251.884 1241.73 251.419C1241.29 250.95 1241.07 250.294 1241.07 249.451C1241.07 248.579 1241.29 247.902 1241.74 247.42C1242.19 246.938 1242.77 246.697 1243.49 246.697C1244.18 246.697 1244.75 246.933 1245.19 247.405C1245.63 247.877 1245.85 248.541 1245.85 249.397C1245.85 249.45 1245.84 249.528 1245.84 249.632H1241.97C1242.01 250.201 1242.17 250.638 1242.46 250.94C1242.75 251.243 1243.11 251.395 1243.54 251.395C1243.86 251.395 1244.14 251.31 1244.37 251.141C1244.59 250.971 1244.77 250.701 1244.91 250.33ZM1242.02 248.909H1244.92C1244.88 248.473 1244.77 248.146 1244.59 247.928C1244.31 247.589 1243.94 247.42 1243.5 247.42C1243.09 247.42 1242.75 247.555 1242.48 247.825C1242.2 248.095 1242.05 248.457 1242.02 248.909ZM1246.91 252V244.842H1247.78V252H1246.91Z" fill="white"/>
<path fill-rule="evenodd" clip-rule="evenodd" d="M1316.67 248C1316.67 247.632 1316.37 247.333 1316 247.333H1314C1313.63 247.333 1313.33 247.632 1313.33 248C1313.33 248.368 1313.63 248.666 1314 248.666H1316C1316.37 248.666 1316.67 248.368 1316.67 248V248ZM1326 247.333H1324C1323.63 247.333 1323.33 247.632 1323.33 248C1323.33 248.368 1323.63 248.666 1324 248.666H1326C1326.37 248.666 1326.67 248.368 1326.67 248C1326.67 247.632 1326.37 247.333 1326 247.333V247.333ZM1320 251.333C1319.63 251.333 1319.33 251.632 1319.33 252V254C1319.33 254.368 1319.63 254.666 1320 254.666C1320.37 254.666 1320.67 254.368 1320.67 254V252C1320.67 251.632 1320.37 251.333 1320 251.333V251.333ZM1320 241.333C1319.63 241.333 1319.33 241.632 1319.33 242V244C1319.33 244.368 1319.63 244.666 1320 244.666C1320.37 244.666 1320.67 244.368 1320.67 244V242C1320.67 241.632 1320.37 241.333 1320 241.333V241.333ZM1317.58 242.47C1317.39 242.152 1316.99 242.042 1316.67 242.226C1316.35 242.41 1316.24 242.818 1316.42 243.137L1317.42 244.869C1317.61 245.188 1318.01 245.297 1318.33 245.113C1318.65 244.929 1318.76 244.521 1318.58 244.202L1317.58 242.47ZM1322.58 251.13C1322.39 250.812 1321.99 250.702 1321.67 250.886C1321.35 251.07 1321.24 251.478 1321.42 251.797L1322.42 253.529C1322.61 253.848 1323.01 253.958 1323.33 253.773C1323.65 253.589 1323.76 253.181 1323.58 252.862L1322.58 251.13ZM1317.11 249.666C1316.93 249.347 1316.52 249.238 1316.2 249.422L1314.47 250.422C1314.15 250.606 1314.04 251.014 1314.23 251.333C1314.41 251.652 1314.82 251.761 1315.14 251.577L1316.87 250.577C1317.19 250.393 1317.3 249.986 1317.11 249.666V249.666ZM1322.89 246.333C1323.07 246.652 1323.48 246.761 1323.8 246.577L1325.53 245.577C1325.85 245.393 1325.96 244.986 1325.77 244.666C1325.59 244.347 1325.18 244.238 1324.86 244.422L1323.13 245.422C1322.81 245.606 1322.7 246.014 1322.89 246.333V246.333ZM1314.47 245.577L1316.2 246.577C1316.52 246.761 1316.93 246.652 1317.11 246.333C1317.3 246.014 1317.19 245.606 1316.87 245.422L1315.14 244.422C1314.82 244.238 1314.41 244.347 1314.23 244.666C1314.04 244.986 1314.15 245.393 1314.47 245.577V245.577ZM1325.53 250.422L1323.8 249.422C1323.48 249.238 1323.07 249.347 1322.89 249.666C1322.7 249.986 1322.81 250.393 1323.13 250.577L1324.86 251.577C1325.18 251.761 1325.59 251.652 1325.77 251.333C1325.96 251.014 1325.85 250.606 1325.53 250.422V250.422ZM1318.33 250.886C1318.01 250.702 1317.61 250.812 1317.42 251.13L1316.42 252.862C1316.24 253.181 1316.35 253.589 1316.67 253.773C1316.99 253.958 1317.39 253.848 1317.58 253.529L1318.58 251.797C1318.76 251.478 1318.65 251.07 1318.33 250.886V250.886ZM1321.67 245.113C1321.99 245.297 1322.39 245.188 1322.58 244.869L1323.58 243.137C1323.76 242.818 1323.65 242.41 1323.33 242.226C1323.01 242.042 1322.61 242.152 1322.42 242.47L1321.42 244.202C1321.24 244.521 1321.35 244.929 1321.67 245.113V245.113Z" fill="white" fill-opacity="0.8"/>
<rect x="52.5" y="388.5" width="196" height="28" stroke="white"/>
<path fill-rule="evenodd" clip-rule="evenodd" d="M232.857 399.625C232.857 399.211 233.224 398.875 233.678 398.875C234.131 398.875 234.499 399.211 234.499 399.625C234.499 400.039 234.131 400.375 233.678 400.375C233.224 400.375 232.857 400.039 232.857 399.625ZM233.678 402.25C233.224 402.25 232.857 402.586 232.857 403C232.857 403.414 233.224 403.75 233.678 403.75C234.131 403.75 234.499 403.414 234.499 403C234.499 402.586 234.131 402.25 233.678 402.25ZM233.678 405.625C233.224 405.625 232.857 405.961 232.857 406.375C232.857 406.789 233.224 407.125 233.678 407.125C234.131 407.125 234.499 406.789 234.499 406.375C234.499 405.961 234.131 405.625 233.678 405.625Z" fill="white"/>
<rect x="61.2554" y="395.5" width="156.6" height="15" rx="7.5" stroke="white"/>
<path fill-rule="evenodd" clip-rule="evenodd" d="M72.384 401.875H71.9736V400.75C71.9736 399.507 70.8711 398.5 69.5111 398.5C68.1511 398.5 67.0486 399.507 67.0486 400.75V401.875H66.6382C66.1849 401.875 65.8174 402.211 65.8174 402.625V406.375C65.8174 406.789 66.1849 407.125 66.6382 407.125H72.384C72.8374 407.125 73.2049 406.789 73.2049 406.375V402.625C73.2049 402.211 72.8374 401.875 72.384 401.875ZM69.5111 399.25C68.6045 399.25 67.8695 399.922 67.8695 400.75V401.875H71.1528V400.75C71.1528 399.922 70.4178 399.25 69.5111 399.25ZM66.6382 406.375H72.384V402.625H66.6382V406.375ZM70.7424 404.5C70.7424 404.293 70.5586 404.125 70.332 404.125H68.6903C68.4636 404.125 68.2799 404.293 68.2799 404.5C68.2799 404.707 68.4636 404.875 68.6903 404.875H70.332C70.5586 404.875 70.7424 404.707 70.7424 404.5Z" fill="white"/>
<path fill-rule="evenodd" clip-rule="evenodd" d="M219.703 377.5V367.513H219.491L215.608 368.941V370.343L218.049 369.509V377.5H219.703ZM226.539 377.637C227.555 377.637 228.355 377.337 228.938 376.738C229.522 376.139 229.813 375.333 229.813 374.321C229.813 373.296 229.55 372.48 229.024 371.874C228.498 371.268 227.76 370.965 226.812 370.965C226.234 370.965 225.714 371.097 225.254 371.361V371.361L225.527 368.982H229.492V367.547H224.146L223.606 372.564L224.933 372.893C225.179 372.66 225.407 372.504 225.616 372.424C225.826 372.345 226.081 372.305 226.382 372.305C226.933 372.305 227.366 372.481 227.681 372.834C227.995 373.188 228.152 373.667 228.152 374.273C228.152 374.902 228.01 375.399 227.725 375.764C227.44 376.128 227.043 376.311 226.532 376.311C226.076 376.311 225.707 376.182 225.425 375.924C225.142 375.667 224.969 375.297 224.905 374.813V374.813H223.299C223.349 375.661 223.674 376.344 224.273 376.861C224.872 377.378 225.628 377.637 226.539 377.637ZM232.227 371.771C232.536 371.771 232.776 371.686 232.944 371.515C233.113 371.344 233.197 371.129 233.197 370.869C233.197 370.605 233.113 370.385 232.944 370.209C232.776 370.034 232.536 369.946 232.227 369.946C231.921 369.946 231.684 370.034 231.516 370.209C231.347 370.385 231.263 370.605 231.263 370.869C231.263 371.133 231.349 371.35 231.522 371.519C231.696 371.687 231.93 371.771 232.227 371.771ZM232.227 377.575C232.536 377.575 232.776 377.49 232.944 377.319C233.113 377.148 233.197 376.933 233.197 376.673C233.197 376.409 233.113 376.189 232.944 376.013C232.776 375.838 232.536 375.75 232.227 375.75C231.921 375.75 231.684 375.838 231.516 376.013C231.347 376.189 231.263 376.409 231.263 376.673C231.263 376.937 231.349 377.154 231.522 377.322C231.696 377.491 231.93 377.575 232.227 377.575ZM241.523 377.5V376.174H236.902L239.336 373.569C239.974 372.877 240.433 372.258 240.713 371.713C240.994 371.169 241.134 370.648 241.134 370.151C241.134 369.295 240.855 368.624 240.296 368.138C239.738 367.653 238.976 367.41 238.01 367.41C237.34 367.41 236.749 367.545 236.236 367.813C235.723 368.082 235.329 368.459 235.053 368.945C234.778 369.43 234.64 369.976 234.64 370.582V370.582H236.301C236.301 370.012 236.449 369.563 236.745 369.235C237.041 368.907 237.458 368.743 237.996 368.743C238.447 368.743 238.806 368.889 239.073 369.181C239.339 369.472 239.473 369.855 239.473 370.329C239.473 370.689 239.371 371.048 239.168 371.406C238.966 371.764 238.625 372.209 238.146 372.742V372.742L234.831 376.358V377.5H241.523ZM246.028 377.637C247.122 377.637 247.937 377.273 248.472 376.546C249.008 375.819 249.275 374.741 249.275 373.31V373.31V371.587C249.262 370.197 248.987 369.153 248.452 368.456C247.916 367.759 247.104 367.41 246.015 367.41C244.916 367.41 244.099 367.768 243.564 368.483C243.028 369.199 242.761 370.272 242.761 371.703V371.703V373.426C242.774 374.816 243.054 375.865 243.598 376.574C244.143 377.282 244.953 377.637 246.028 377.637ZM246.028 376.311C245.472 376.311 245.064 376.083 244.805 375.627C244.545 375.171 244.415 374.479 244.415 373.549V373.549V371.293C244.429 370.418 244.563 369.774 244.818 369.362C245.074 368.949 245.472 368.743 246.015 368.743C246.571 368.743 246.976 368.961 247.231 369.396C247.487 369.831 247.614 370.516 247.614 371.45V371.45V373.699C247.601 374.597 247.466 375.257 247.211 375.678C246.956 376.1 246.562 376.311 246.028 376.311Z" fill="white"/>
<path fill-rule="evenodd" clip-rule="evenodd" d="M164.008 379.617L173 368.456C172.652 368.194 169.188 365.375 164 365.375C158.804 365.375 155.348 368.194 155 368.456L163.992 379.617L164 379.625L164.008 379.617V379.617Z" fill="white"/>
<path fill-rule="evenodd" clip-rule="evenodd" d="M174.5 380H189.5V365L174.5 380Z" fill="white"/>
<path fill-rule="evenodd" clip-rule="evenodd" d="M203.5 366.266V365.375H200.5V366.266H197.5V379.625H206.5V366.266H203.5Z" fill="white"/>
<rect x="1051.5" y="394.5" width="50" height="27" rx="13.5" stroke="white"/>
<path d="M1063.83 412V404.126H1064.88V411.071H1068.75V412H1063.83ZM1073.6 411.296C1073.24 411.601 1072.9 411.816 1072.56 411.941C1072.23 412.066 1071.88 412.129 1071.5 412.129C1070.87 412.129 1070.39 411.977 1070.05 411.672C1069.72 411.364 1069.55 410.972 1069.55 410.496C1069.55 410.217 1069.61 409.963 1069.74 409.733C1069.87 409.501 1070.03 409.314 1070.24 409.175C1070.44 409.035 1070.68 408.93 1070.94 408.858C1071.13 408.808 1071.41 408.759 1071.79 408.713C1072.58 408.62 1073.15 408.509 1073.52 408.38C1073.52 408.247 1073.52 408.163 1073.52 408.127C1073.52 407.734 1073.43 407.456 1073.25 407.295C1073 407.076 1072.64 406.967 1072.15 406.967C1071.69 406.967 1071.36 407.048 1071.14 407.209C1070.92 407.367 1070.77 407.648 1070.66 408.052L1069.72 407.923C1069.8 407.519 1069.94 407.193 1070.14 406.946C1070.34 406.695 1070.62 406.504 1070.99 406.371C1071.37 406.235 1071.8 406.167 1072.29 406.167C1072.78 406.167 1073.17 406.224 1073.48 406.339C1073.78 406.453 1074 406.598 1074.15 406.774C1074.29 406.946 1074.39 407.164 1074.45 407.429C1074.48 407.594 1074.5 407.891 1074.5 408.321V409.61C1074.5 410.509 1074.52 411.078 1074.56 411.318C1074.6 411.554 1074.68 411.782 1074.8 412H1073.79C1073.69 411.799 1073.63 411.565 1073.6 411.296ZM1073.52 409.137C1073.17 409.28 1072.64 409.402 1071.94 409.502C1071.54 409.56 1071.26 409.624 1071.1 409.696C1070.93 409.767 1070.8 409.873 1070.72 410.013C1070.63 410.149 1070.58 410.301 1070.58 410.469C1070.58 410.727 1070.68 410.942 1070.87 411.114C1071.07 411.286 1071.35 411.372 1071.73 411.372C1072.1 411.372 1072.43 411.291 1072.72 411.13C1073.01 410.965 1073.23 410.741 1073.36 410.458C1073.47 410.24 1073.52 409.918 1073.52 409.492V409.137ZM1076.89 412H1076V404.126H1076.96V406.935C1077.37 406.423 1077.89 406.167 1078.52 406.167C1078.88 406.167 1079.21 406.239 1079.52 406.382C1079.83 406.521 1080.09 406.72 1080.29 406.978C1080.5 407.232 1080.66 407.54 1080.77 407.902C1080.88 408.264 1080.94 408.65 1080.94 409.062C1080.94 410.04 1080.7 410.795 1080.22 411.329C1079.73 411.862 1079.15 412.129 1078.48 412.129C1077.8 412.129 1077.28 411.848 1076.89 411.286V412ZM1076.88 409.105C1076.88 409.789 1076.97 410.283 1077.16 410.587C1077.47 411.085 1077.88 411.334 1078.4 411.334C1078.82 411.334 1079.18 411.151 1079.49 410.786C1079.8 410.417 1079.95 409.869 1079.95 409.143C1079.95 408.398 1079.81 407.848 1079.51 407.494C1079.21 407.139 1078.86 406.962 1078.44 406.962C1078.02 406.962 1077.65 407.146 1077.34 407.515C1077.04 407.88 1076.88 408.41 1076.88 409.105ZM1086.03 410.163L1087.03 410.287C1086.87 410.87 1086.58 411.323 1086.15 411.646C1085.73 411.968 1085.18 412.129 1084.52 412.129C1083.68 412.129 1083.02 411.873 1082.53 411.361C1082.04 410.845 1081.8 410.124 1081.8 409.196C1081.8 408.237 1082.05 407.492 1082.54 406.962C1083.04 406.432 1083.68 406.167 1084.47 406.167C1085.23 406.167 1085.85 406.427 1086.33 406.946C1086.82 407.465 1087.06 408.195 1087.06 409.137C1087.06 409.194 1087.06 409.28 1087.05 409.395H1082.8C1082.84 410.022 1083.01 410.501 1083.33 410.834C1083.65 411.167 1084.05 411.334 1084.52 411.334C1084.88 411.334 1085.18 411.241 1085.43 411.055C1085.68 410.868 1085.88 410.571 1086.03 410.163ZM1082.85 408.6H1086.04C1086 408.12 1085.87 407.76 1085.67 407.521C1085.37 407.148 1084.97 406.962 1084.48 406.962C1084.03 406.962 1083.66 407.111 1083.35 407.408C1083.05 407.705 1082.89 408.102 1082.85 408.6ZM1088.23 412V404.126H1089.19V412H1088.23Z" fill="white"/>
<rect x="217.5" y="277.5" width="50" height="27" rx="13.5" stroke="white"/>
<path fill-rule="evenodd" clip-rule="evenodd" d="M250.5 291C250.5 295.418 246.918 299 242.5 299C238.082 299 234.5 295.418 234.5 291H235.955C235.955 294.615 238.885 297.545 242.5 297.545C246.115 297.545 249.045 294.615 249.045 291C249.045 287.385 246.115 284.455 242.5 284.455V283C246.918 283 250.5 286.582 250.5 291Z" fill="white"/>
<path d="M309 329H33V429" stroke="white" stroke-width="2" stroke-dasharray="4 4"/>
<path d="M287.9 372L275.3 372" stroke="white" stroke-width="2"/>
<path d="M293.9 382.8L275.3 382.8" stroke="white" stroke-width="2"/>
<path d="M290.6 393.6L275 393.6" stroke="white" stroke-width="2"/>
<path d="M297.8 404.4L275.3 404.4" stroke="white" stroke-width="2"/>
<path d="M290.6 414L275 414" stroke="white" stroke-width="2"/>
<rect x="1311" y="329" width="18" height="18" rx="4" stroke="white" stroke-width="2"/>
<path fill-rule="evenodd" clip-rule="evenodd" d="M1326.25 335.346L1319.39 342.187C1319.23 342.349 1319.02 342.44 1318.79 342.44C1318.56 342.44 1318.34 342.349 1318.18 342.187L1314.75 338.766C1314.42 338.431 1314.42 337.887 1314.75 337.552C1315.09 337.217 1315.63 337.217 1315.97 337.552L1318.79 340.374L1325.03 334.131C1325.37 333.796 1325.91 333.796 1326.25 334.131C1326.58 334.467 1326.58 335.01 1326.25 335.346Z" fill="white"/>
<path fill-rule="evenodd" clip-rule="evenodd" d="M1327 310C1327 311.103 1326.1 312 1325 312H1315C1313.9 312 1313 311.103 1313 310V300C1313 298.896 1313.9 298 1315 298H1325C1326.1 298 1327 298.896 1327 300V310ZM1325 296H1315C1312.79 296 1311 297.791 1311 300V310C1311 312.209 1312.79 314 1315 314H1325C1327.21 314 1329 312.209 1329 310V300C1329 297.791 1327.21 296 1325 296V296Z" fill="white"/>
<path fill-rule="evenodd" clip-rule="evenodd" d="M271.25 221C271.248 220.525 271.205 220.05 271.122 219.582L273.02 217.857L272.847 217.385C272.442 216.243 271.837 215.182 271.062 214.25L270.74 213.86L268.287 214.677C267.558 214.064 266.729 213.582 265.835 213.252L265.287 210.747L264.792 210.665C263.608 210.44 262.392 210.44 261.207 210.665L260.75 210.747L260.202 213.252C259.309 213.582 258.479 214.064 257.75 214.677L255.26 213.89L254.937 214.25C254.166 215.172 253.561 216.223 253.152 217.355L252.98 217.827L254.877 219.552C254.707 220.49 254.707 221.45 254.877 222.387L252.98 224.112L253.152 224.585C253.555 225.737 254.159 226.809 254.937 227.75L255.26 228.14L257.75 227.322C258.479 227.935 259.309 228.417 260.202 228.747L260.75 231.252L261.245 231.335C262.43 231.555 263.645 231.555 264.83 231.335L265.325 231.252L265.872 228.747C266.766 228.417 267.596 227.935 268.325 227.322L270.777 228.11L271.1 227.72C271.872 226.797 272.476 225.746 272.885 224.615L273.057 224.142L271.16 222.417C271.23 221.948 271.26 221.474 271.25 221ZM259.25 221C259.25 218.929 260.929 217.25 263 217.25C263.995 217.25 264.948 217.645 265.652 218.348C266.355 219.051 266.75 220.005 266.75 221C266.75 223.071 265.071 224.75 263 224.75C260.929 224.75 259.25 223.071 259.25 221ZM260.75 221C260.75 222.242 261.757 223.25 263 223.25C264.243 223.25 265.25 222.242 265.25 221C265.25 219.757 264.243 218.75 263 218.75C261.757 218.75 260.75 219.757 260.75 221ZM270.215 226.37C270.626 225.808 270.974 225.202 271.25 224.562L269.465 222.912L269.563 222.485C269.798 221.499 269.798 220.471 269.563 219.485L269.465 219.057L271.25 217.437C270.976 216.798 270.631 216.192 270.223 215.63L267.92 216.38L267.598 216.08C266.846 215.39 265.949 214.877 264.973 214.58L264.553 214.452L264.043 212.105C263.35 212.015 262.65 212.015 261.958 212.105L261.448 214.452L261.028 214.58C260.051 214.877 259.154 215.39 258.403 216.08L258.08 216.38L255.778 215.63C255.369 216.192 255.024 216.798 254.75 217.437L256.528 219.072L256.43 219.5C256.195 220.486 256.195 221.514 256.43 222.5L256.535 222.942L254.75 224.562C255.022 225.201 255.364 225.807 255.77 226.37L258.073 225.62L258.395 225.92C259.147 226.61 260.044 227.123 261.02 227.42L261.44 227.547L261.95 229.895C262.642 229.985 263.343 229.985 264.035 229.895L264.545 227.547L264.965 227.42C265.941 227.123 266.838 226.61 267.59 225.92L267.913 225.62L270.215 226.37Z" fill="white"/>
<path d="M172 5V86H277" stroke="white" stroke-width="2" stroke-dasharray="4 4"/>
<path d="M1109.59 312.414C1110.37 311.633 1111.63 311.633 1112.41 312.414L1118 318L1119 319L1103 319L1104 318L1109.59 312.414Z" fill="white" fill-opacity="0.8"/>
<rect x="1087" y="319" width="89" height="17" rx="8.5" fill="white" fill-opacity="0.8"/>
<rect x="49.5" y="231.5" width="126" height="18" rx="9" stroke="white"/>
<path d="M102.656 243.5V237.82H103.812V242.535H106.688V243.5H102.656ZM108.328 240.617L107.332 240.438C107.444 240.036 107.637 239.74 107.91 239.547C108.184 239.354 108.59 239.258 109.129 239.258C109.618 239.258 109.983 239.316 110.223 239.434C110.462 239.548 110.63 239.695 110.727 239.875C110.826 240.052 110.875 240.379 110.875 240.855L110.863 242.137C110.863 242.501 110.88 242.771 110.914 242.945C110.951 243.117 111.017 243.302 111.113 243.5H110.027C109.999 243.427 109.964 243.319 109.922 243.176C109.904 243.111 109.891 243.068 109.883 243.047C109.695 243.229 109.495 243.366 109.281 243.457C109.068 243.548 108.84 243.594 108.598 243.594C108.171 243.594 107.833 243.478 107.586 243.246C107.341 243.014 107.219 242.721 107.219 242.367C107.219 242.133 107.275 241.924 107.387 241.742C107.499 241.557 107.655 241.417 107.855 241.32C108.059 241.221 108.35 241.135 108.73 241.062C109.243 240.966 109.599 240.876 109.797 240.793V240.684C109.797 240.473 109.745 240.323 109.641 240.234C109.536 240.143 109.34 240.098 109.051 240.098C108.855 240.098 108.703 240.137 108.594 240.215C108.484 240.29 108.396 240.424 108.328 240.617ZM109.797 241.508C109.656 241.555 109.434 241.611 109.129 241.676C108.824 241.741 108.625 241.805 108.531 241.867C108.388 241.969 108.316 242.098 108.316 242.254C108.316 242.408 108.374 242.54 108.488 242.652C108.603 242.764 108.749 242.82 108.926 242.82C109.124 242.82 109.312 242.755 109.492 242.625C109.625 242.526 109.712 242.405 109.754 242.262C109.783 242.168 109.797 241.99 109.797 241.727V241.508ZM111.914 243.5V237.773H113.012V239.836C113.35 239.451 113.751 239.258 114.215 239.258C114.72 239.258 115.138 239.441 115.469 239.809C115.799 240.173 115.965 240.698 115.965 241.383C115.965 242.091 115.796 242.637 115.457 243.02C115.121 243.402 114.712 243.594 114.23 243.594C113.993 243.594 113.759 243.535 113.527 243.418C113.298 243.298 113.1 243.122 112.934 242.891V243.5H111.914ZM113.004 241.336C113.004 241.766 113.072 242.083 113.207 242.289C113.397 242.581 113.65 242.727 113.965 242.727C114.207 242.727 114.413 242.624 114.582 242.418C114.754 242.21 114.84 241.883 114.84 241.438C114.84 240.964 114.754 240.622 114.582 240.414C114.41 240.203 114.19 240.098 113.922 240.098C113.659 240.098 113.44 240.201 113.266 240.406C113.091 240.609 113.004 240.919 113.004 241.336ZM119.254 242.18L120.348 242.363C120.207 242.764 119.984 243.07 119.68 243.281C119.378 243.49 118.999 243.594 118.543 243.594C117.822 243.594 117.288 243.358 116.941 242.887C116.668 242.509 116.531 242.033 116.531 241.457C116.531 240.77 116.711 240.232 117.07 239.844C117.43 239.453 117.884 239.258 118.434 239.258C119.051 239.258 119.538 239.462 119.895 239.871C120.251 240.277 120.422 240.901 120.406 241.742H117.656C117.664 242.068 117.753 242.322 117.922 242.504C118.091 242.684 118.302 242.773 118.555 242.773C118.727 242.773 118.871 242.727 118.988 242.633C119.105 242.539 119.194 242.388 119.254 242.18ZM119.316 241.07C119.309 240.753 119.227 240.512 119.07 240.348C118.914 240.181 118.724 240.098 118.5 240.098C118.26 240.098 118.062 240.185 117.906 240.359C117.75 240.534 117.673 240.771 117.676 241.07H119.316ZM121.305 243.5V237.773H122.402V243.5H121.305Z" fill="white"/>
<path d="M242.339 220.812C214.029 223.102 191.608 200.684 198.918 178.674C201.421 171.136 208.57 159.728 220.609 159.879C228.842 160.654 231.477 183.733 208.413 194.205C197.562 199.131 152.146 192.202 135.607 170.371" stroke="white" stroke-width="2" stroke-dasharray="4 4"/>
<g clip-path="url(#clip0_143_21774)">
<rect x="78" y="92" width="26" height="26" rx="13" fill="white"/>
<rect x="68.5" y="125" width="45" height="11" rx="4" fill="white"/>
</g>
<path d="M103.813 46.2314H91.6431H80.162C79.0598 46.2314 78.0188 45.0119 77.6361 44.4022V40.2865C77.6361 38.8231 75.9522 38.1524 75.1103 38H59.496C53.8014 38 51.4592 43.4876 51 46.2314V195.311C51 200.982 56.664 203.466 59.496 204H121.264C128.612 204 130.143 197.141 129.99 193.711C129.913 147.828 129.806 54.4628 129.99 48.0606C130.174 41.6584 124.402 38.686 121.494 38H108.865C107.211 38 106.339 39.5243 106.109 40.2865V43.7163C106.109 46.0942 104.578 46.3838 103.813 46.2314Z" stroke="white" stroke-width="2"/>
<path d="M25 35L25 209" stroke="white" stroke-opacity="0.75"/>
<path d="M19 35L30 35" stroke="white" stroke-opacity="0.75" stroke-dasharray="2 2"/>
<path d="M19 209L30 209" stroke="white" stroke-opacity="0.75" stroke-dasharray="2 2"/>
<rect width="24" height="9" rx="4.5" transform="matrix(-4.37114e-08 1 1 4.37114e-08 20 114)" fill="white"/>
<path d="M178.801 126V118.842H179.748V121.781H183.469V118.842H184.416V126H183.469V122.626H179.748V126H178.801ZM188.952 126H188.073V120.399C187.862 120.601 187.583 120.803 187.238 121.005C186.896 121.207 186.589 121.358 186.315 121.459V120.609C186.807 120.378 187.237 120.098 187.604 119.77C187.972 119.441 188.233 119.122 188.386 118.812H188.952V126ZM193.884 124.452L194.753 124.315C194.802 124.664 194.937 124.931 195.158 125.116C195.383 125.302 195.695 125.395 196.096 125.395C196.499 125.395 196.799 125.313 196.994 125.15C197.189 124.984 197.287 124.791 197.287 124.569C197.287 124.371 197.201 124.215 197.028 124.101C196.908 124.022 196.608 123.923 196.13 123.803C195.485 123.64 195.038 123.5 194.787 123.383C194.54 123.262 194.351 123.098 194.221 122.89C194.094 122.678 194.03 122.445 194.03 122.191C194.03 121.96 194.082 121.747 194.187 121.552C194.294 121.353 194.439 121.189 194.621 121.059C194.758 120.958 194.943 120.873 195.178 120.805C195.415 120.733 195.669 120.697 195.939 120.697C196.346 120.697 196.703 120.756 197.009 120.873C197.318 120.99 197.546 121.15 197.692 121.352C197.839 121.55 197.94 121.817 197.995 122.152L197.136 122.27C197.097 122.003 196.983 121.794 196.794 121.645C196.608 121.495 196.345 121.42 196.003 121.42C195.599 121.42 195.311 121.487 195.139 121.62C194.966 121.754 194.88 121.91 194.88 122.089C194.88 122.203 194.916 122.305 194.987 122.396C195.059 122.491 195.171 122.569 195.324 122.631C195.412 122.663 195.671 122.738 196.101 122.855C196.722 123.021 197.155 123.158 197.399 123.266C197.647 123.37 197.84 123.523 197.98 123.725C198.12 123.926 198.19 124.177 198.19 124.477C198.19 124.77 198.104 125.046 197.932 125.307C197.762 125.564 197.517 125.764 197.194 125.907C196.872 126.047 196.507 126.117 196.101 126.117C195.427 126.117 194.912 125.977 194.558 125.697C194.206 125.417 193.981 125.002 193.884 124.452ZM202.785 124.33L203.693 124.442C203.55 124.973 203.285 125.385 202.897 125.678C202.51 125.971 202.015 126.117 201.413 126.117C200.655 126.117 200.052 125.884 199.606 125.419C199.164 124.95 198.942 124.294 198.942 123.451C198.942 122.579 199.167 121.902 199.616 121.42C200.065 120.938 200.648 120.697 201.364 120.697C202.058 120.697 202.624 120.933 203.063 121.405C203.503 121.877 203.723 122.541 203.723 123.397C203.723 123.45 203.721 123.528 203.718 123.632H199.851C199.883 124.201 200.044 124.638 200.334 124.94C200.624 125.243 200.985 125.395 201.418 125.395C201.74 125.395 202.015 125.31 202.243 125.141C202.471 124.971 202.652 124.701 202.785 124.33ZM199.899 122.909H202.795C202.756 122.473 202.645 122.146 202.463 121.928C202.183 121.589 201.82 121.42 201.374 121.42C200.97 121.42 200.63 121.555 200.354 121.825C200.08 122.095 199.929 122.457 199.899 122.909ZM204.802 126V120.814H205.588V121.542C205.751 121.288 205.967 121.085 206.237 120.932C206.507 120.775 206.815 120.697 207.16 120.697C207.544 120.697 207.858 120.777 208.103 120.937C208.35 121.096 208.524 121.319 208.625 121.605C209.035 121 209.569 120.697 210.227 120.697C210.741 120.697 211.136 120.84 211.413 121.127C211.69 121.41 211.828 121.848 211.828 122.44V126H210.954V122.733C210.954 122.382 210.925 122.13 210.866 121.977C210.811 121.82 210.708 121.695 210.559 121.601C210.409 121.506 210.233 121.459 210.031 121.459C209.667 121.459 209.364 121.581 209.123 121.825C208.882 122.066 208.762 122.453 208.762 122.987V126H207.883V122.631C207.883 122.24 207.811 121.947 207.668 121.752C207.525 121.557 207.29 121.459 206.965 121.459C206.717 121.459 206.488 121.524 206.276 121.654C206.068 121.785 205.917 121.975 205.822 122.226C205.728 122.476 205.681 122.838 205.681 123.31V126H204.802ZM213.137 119.853V118.842H214.016V119.853H213.137ZM213.137 126V120.814H214.016V126H213.137ZM216.169 126H215.354V118.842H216.232V121.396C216.604 120.93 217.077 120.697 217.653 120.697C217.972 120.697 218.273 120.762 218.557 120.893C218.843 121.02 219.077 121.2 219.26 121.435C219.445 121.666 219.59 121.946 219.694 122.274C219.799 122.603 219.851 122.955 219.851 123.329C219.851 124.218 219.631 124.905 219.191 125.39C218.752 125.875 218.225 126.117 217.609 126.117C216.997 126.117 216.517 125.862 216.169 125.351V126ZM216.159 123.368C216.159 123.99 216.244 124.439 216.413 124.716C216.69 125.168 217.064 125.395 217.536 125.395C217.92 125.395 218.252 125.229 218.532 124.896C218.812 124.561 218.952 124.063 218.952 123.402C218.952 122.725 218.817 122.226 218.547 121.903C218.28 121.581 217.956 121.42 217.575 121.42C217.191 121.42 216.859 121.588 216.579 121.923C216.299 122.255 216.159 122.737 216.159 123.368ZM220.598 123.407C220.598 122.447 220.865 121.736 221.398 121.273C221.844 120.889 222.388 120.697 223.029 120.697C223.742 120.697 224.325 120.932 224.777 121.4C225.23 121.866 225.456 122.51 225.456 123.334C225.456 124.001 225.355 124.527 225.153 124.911C224.955 125.292 224.663 125.588 224.279 125.8C223.898 126.011 223.482 126.117 223.029 126.117C222.303 126.117 221.716 125.884 221.267 125.419C220.821 124.953 220.598 124.283 220.598 123.407ZM221.501 123.407C221.501 124.071 221.646 124.569 221.936 124.901C222.225 125.23 222.59 125.395 223.029 125.395C223.465 125.395 223.828 125.229 224.118 124.896C224.408 124.564 224.553 124.058 224.553 123.378C224.553 122.737 224.406 122.252 224.113 121.923C223.824 121.591 223.462 121.425 223.029 121.425C222.59 121.425 222.225 121.589 221.936 121.918C221.646 122.247 221.501 122.743 221.501 123.407ZM226.472 126V118.842H227.351V126H226.472ZM232.082 126V125.346C231.753 125.86 231.27 126.117 230.632 126.117C230.218 126.117 229.838 126.003 229.489 125.775C229.144 125.548 228.876 125.23 228.684 124.823C228.495 124.413 228.4 123.943 228.4 123.412C228.4 122.895 228.487 122.426 228.659 122.006C228.832 121.583 229.09 121.259 229.436 121.034C229.781 120.81 230.166 120.697 230.593 120.697C230.905 120.697 231.184 120.764 231.428 120.897C231.672 121.028 231.87 121.199 232.023 121.41V118.842H232.897V126H232.082ZM229.304 123.412C229.304 124.076 229.444 124.573 229.724 124.901C230.004 125.23 230.334 125.395 230.715 125.395C231.099 125.395 231.424 125.238 231.691 124.926C231.962 124.61 232.097 124.13 232.097 123.485C232.097 122.776 231.96 122.255 231.687 121.923C231.413 121.591 231.076 121.425 230.676 121.425C230.285 121.425 229.958 121.584 229.694 121.903C229.434 122.222 229.304 122.725 229.304 123.412Z" fill="white"/>
<path fill-rule="evenodd" clip-rule="evenodd" d="M136.75 279.25H130.75C129.922 279.25 129.25 279.922 129.25 280.75V289.75C129.25 290.578 129.922 291.25 130.75 291.25H136.75C137.578 291.25 138.25 290.578 138.25 289.75V280.75C138.25 279.922 137.578 279.25 136.75 279.25ZM136.75 289.75H130.75V280.75H136.75V289.75ZM141.25 279.25H147.25C148.078 279.25 148.75 279.922 148.75 280.75V283.75C148.75 284.578 148.078 285.25 147.25 285.25H141.25C140.422 285.25 139.75 284.578 139.75 283.75V280.75C139.75 279.922 140.422 279.25 141.25 279.25ZM147.25 283.75H141.25V280.75H147.25V283.75ZM130.75 292.75H136.75C137.578 292.75 138.25 293.422 138.25 294.25V297.25C138.25 298.078 137.578 298.75 136.75 298.75H130.75C129.922 298.75 129.25 298.078 129.25 297.25V294.25C129.25 293.422 129.922 292.75 130.75 292.75ZM136.75 297.25H130.75V294.25H136.75V297.25ZM147.25 298.75C148.078 298.75 148.75 298.078 148.75 297.25V288.25C148.75 287.422 148.078 286.75 147.25 286.75H141.25C140.422 286.75 139.75 287.422 139.75 288.25V297.25C139.75 298.078 140.422 298.75 141.25 298.75H147.25ZM147.25 297.25H141.25V288.25H147.25V297.25Z" fill="white"/>
<path fill-rule="evenodd" clip-rule="evenodd" d="M98.8413 280.971C99.1155 280.855 99.4174 280.79 99.7345 280.79C100.984 280.79 102 281.793 102 283.027V288.155C102 290.042 100.415 294.928 100.234 295.479C100.132 295.789 99.8374 296 99.5045 296H89.8157C89.5199 296 89.2503 295.833 89.1236 295.571C89.1232 295.57 89.1216 295.567 89.1189 295.561C89.045 295.409 88.1239 293.51 87.769 292.909C87.3455 292.194 86.7665 291.328 86.1534 290.412L86.1499 290.406L86.1492 290.405C85.3086 289.149 84.356 287.725 83.4797 286.215C82.8026 285.048 82.844 283.957 83.5932 283.222C84.0181 282.805 84.5849 282.576 85.1904 282.576H85.202C85.8089 282.579 86.3791 282.812 86.8075 283.232C86.8196 283.244 86.8313 283.256 86.8427 283.269L88.4744 285.1V276.237C88.4744 275.004 89.4906 274 90.7398 274C91.9891 274 93.0054 275.004 93.0054 276.237V278.7C93.2354 278.622 93.4817 278.579 93.7381 278.579C94.6105 278.579 95.3688 279.069 95.7472 279.784C96.0462 279.64 96.3818 279.56 96.7362 279.56C97.6903 279.56 98.508 280.145 98.8413 280.971ZM99.7345 282.292C99.3305 282.292 99.0018 282.622 99.0018 283.027H99.002V285.214C99.002 285.629 98.6589 285.965 98.2357 285.965C97.8125 285.965 97.4694 285.629 97.4694 285.214V281.797C97.4694 281.392 97.1406 281.062 96.7363 281.062C96.3323 281.062 96.0036 281.392 96.0036 281.797V284.233C96.0036 284.648 95.6604 284.984 95.2373 284.984C94.8142 284.984 94.4711 284.648 94.4711 284.233V280.816C94.4711 280.411 94.1424 280.082 93.7382 280.082C93.3342 280.082 93.0054 280.411 93.0054 280.816V283.253C93.0054 283.668 92.6623 284.004 92.2392 284.004C91.8161 284.004 91.473 283.668 91.473 283.253V276.237C91.473 275.832 91.1441 275.503 90.7399 275.503C90.3357 275.503 90.0069 275.832 90.0069 276.237V287.101C90.0069 287.414 89.8089 287.694 89.5099 287.804C89.2113 287.914 88.8738 287.831 88.6638 287.595L85.7086 284.28C85.5694 284.151 85.3877 284.08 85.1946 284.079C84.9967 284.081 84.8133 284.151 84.6771 284.284C84.3851 284.571 84.589 285.088 84.8115 285.472C85.6642 286.941 86.6028 288.344 87.4312 289.582L87.4349 289.587C88.0599 290.522 88.65 291.404 89.0946 292.155C89.3858 292.648 89.9812 293.849 90.2989 294.497H98.9424C99.4847 292.78 100.467 289.409 100.467 288.155V283.027C100.467 282.622 100.139 282.292 99.7345 282.292Z" fill="white"/>
<path fill-rule="evenodd" clip-rule="evenodd" d="M31 269C31 265.134 34.134 262 38 262C39.8565 262 41.637 262.737 42.9497 264.05C44.2625 265.363 45 267.143 45 269C45 272.866 41.866 276 38 276C34.134 276 31 272.866 31 269ZM41.5029 272C41.5029 271.867 41.4497 271.739 41.355 271.645L38.5 268.795V265C38.5 264.724 38.2762 264.5 38 264.5C37.7239 264.5 37.5 264.724 37.5 265V269C37.4992 269.133 37.5514 269.261 37.645 269.355L40.645 272.355C40.7389 272.45 40.8667 272.503 41 272.503C41.1333 272.503 41.2611 272.45 41.355 272.355C41.4497 272.261 41.5029 272.133 41.5029 272Z" fill="white"/>
<path fill-rule="evenodd" clip-rule="evenodd" d="M38 305C41.866 305 45 301.866 45 298C45 294.134 41.866 291 38 291C34.134 291 31 294.134 31 298C31 301.866 34.134 305 38 305ZM38 299C38.2761 299 38.5 298.776 38.5 298.5V295C38.5 294.724 38.2761 294.5 38 294.5C37.7239 294.5 37.5 294.724 37.5 295V298.5C37.5 298.776 37.7239 299 38 299ZM38.75 300.75C38.75 300.336 38.4142 300 38 300C37.5858 300 37.25 300.336 37.25 300.75C37.25 301.164 37.5858 301.5 38 301.5C38.4142 301.5 38.75 301.164 38.75 300.75Z" fill="white"/>
<defs>
<linearGradient id="paint0_linear_143_21774" x1="0" y1="224.5" x2="1360" y2="224.5" gradientUnits="userSpaceOnUse">
<stop stop-color="#007989"/>
<stop offset="1" stop-color="#004494"/>
</linearGradient>
<clipPath id="clip0_143_21774">
<rect width="48" height="54" fill="white" transform="translate(67 82)"/>
</clipPath>
</defs>
</svg>
