<svg width="1316" height="430" viewBox="0 0 1316 430" fill="none" xmlns="http://www.w3.org/2000/svg">
<path fill-rule="evenodd" clip-rule="evenodd" d="M1115 371C1118.87 371 1122 367.866 1122 364C1122 360.134 1118.87 357 1115 357C1111.13 357 1108 360.134 1108 364C1108 367.866 1111.13 371 1115 371ZM1118.35 362.354C1118.55 362.158 1118.55 361.842 1118.35 361.646C1118.16 361.451 1117.84 361.451 1117.65 361.646L1114 365.293L1112.35 363.646C1112.16 363.451 1111.84 363.451 1111.65 363.646C1111.45 363.842 1111.45 364.158 1111.65 364.354L1113.65 366.354C1113.84 366.549 1114.16 366.549 1114.35 366.354L1118.35 362.354Z" fill="white"/>
<path fill-rule="evenodd" clip-rule="evenodd" d="M1113.47 386.744C1114.04 385.752 1115.48 385.752 1116.06 386.744L1121.32 395.76C1121.9 396.76 1121.18 398.015 1120.02 398.015H1109.5C1108.34 398.015 1107.62 396.76 1108.21 395.76L1113.47 386.744ZM1114.76 393.515C1115.04 393.515 1115.26 393.292 1115.26 393.015V389.515C1115.26 389.239 1115.04 389.015 1114.76 389.015C1114.49 389.015 1114.26 389.239 1114.26 389.515V393.015C1114.26 393.292 1114.49 393.515 1114.76 393.515ZM1115.51 395.265C1115.51 394.851 1115.18 394.515 1114.76 394.515C1114.35 394.515 1114.01 394.851 1114.01 395.265C1114.01 395.68 1114.35 396.015 1114.76 396.015C1115.18 396.015 1115.51 395.68 1115.51 395.265Z" fill="white"/>
<circle cx="1213.8" cy="307.168" r="2.77623" stroke="white" stroke-width="2"/>
<path d="M1208.07 317.481C1208.22 312.912 1211.89 311.033 1213.71 310.664C1218.8 311.217 1219.35 316.56 1219.53 317.481C1219.71 318.403 1215.89 319.324 1213.71 319.324C1210.36 319.471 1208.55 318.157 1208.07 317.481Z" stroke="white" stroke-width="2"/>
<path d="M1228.35 305.769C1232.64 305.723 1241.24 305.741 1241.36 306.189" stroke="white" stroke-width="2"/>
<path d="M1228.35 314.597C1232.64 314.551 1241.24 314.57 1241.36 315.017" stroke="white" stroke-width="2"/>
<path d="M1210.03 328.029C1220.36 327.969 1241.09 327.993 1241.36 328.566" stroke="white" stroke-width="2"/>
<path d="M1210.03 337.261C1220.36 337.201 1241.09 337.225 1241.36 337.798" stroke="white" stroke-width="2"/>
<path d="M1210.03 346.211C1220.36 346.151 1241.09 346.175 1241.36 346.748" stroke="white" stroke-width="2"/>
<rect x="1199" y="296" width="50.5875" height="60.9371" stroke="white" stroke-width="2"/>
<rect x="1085" y="14" width="215" height="34" rx="15" stroke="white" stroke-width="2"/>
<path fill-rule="evenodd" clip-rule="evenodd" d="M1110.9 32.8259L1115.77 37.6931C1115.92 37.8361 1116 38.0308 1116 38.2339C1116 38.437 1115.92 38.6317 1115.77 38.7747C1115.63 38.9189 1115.44 39 1115.23 39C1115.03 39 1114.84 38.9189 1114.69 38.7747L1109.83 33.8998C1108.76 34.7354 1107.45 35.1888 1106.09 35.1871C1102.73 35.1871 1100 32.4589 1100 29.0936C1100 25.7282 1102.73 23 1106.09 23C1109.46 23 1112.19 25.7282 1112.19 29.0936C1112.19 30.4468 1111.74 31.7614 1110.9 32.8259ZM1106.09 24.5234C1103.57 24.5234 1101.52 26.5695 1101.52 29.0936C1101.52 30.3056 1102 31.4681 1102.86 32.3252C1103.72 33.1822 1104.88 33.6637 1106.09 33.6637C1108.62 33.6637 1110.66 31.6176 1110.66 29.0936C1110.66 26.5695 1108.62 24.5234 1106.09 24.5234Z" fill="white"/>
<rect x="1128" y="24" width="162" height="14" rx="7" fill="white"/>
<path d="M1067 0V62H1254" stroke="white" stroke-width="2" stroke-dasharray="4 4"/>
<path fill-rule="evenodd" clip-rule="evenodd" d="M1272.2 169C1272.63 169 1272.99 169.411 1273 169.92L1273 169.937V190.063C1273 190.574 1272.65 190.991 1272.21 191L1272.2 191H1251.8C1251.37 191 1251.01 190.589 1251 190.08L1251 190.063V169.937C1251 169.426 1251.35 169.009 1251.79 169L1251.8 169H1272.2ZM1267.18 178.675L1261.44 185.843C1261.32 186.003 1261.15 186.091 1260.96 186.091C1260.79 186.091 1260.62 186.008 1260.5 185.858L1260.48 185.842L1256.82 181.264L1252.29 186.931V189.675H1271.71V184.342L1267.18 178.675ZM1271.71 170.425H1252.29V185.55L1256.34 180.554C1256.47 180.396 1256.64 180.309 1256.82 180.309C1257 180.309 1257.16 180.39 1257.29 180.539L1257.3 180.554L1260.96 185.068L1266.7 178.001C1266.96 177.68 1267.38 177.675 1267.64 177.987L1267.66 178L1271.71 182.997V170.425ZM1260.62 174.5C1261.38 174.5 1262 175.117 1262 175.875C1262 176.633 1261.38 177.25 1260.62 177.25C1259.87 177.25 1259.25 176.633 1259.25 175.875C1259.25 175.117 1259.87 174.5 1260.62 174.5Z" fill="#E8E8E8"/>
<path d="M1205 157.86C1205 164.987 1199.38 170.72 1192.5 170.72C1185.62 170.72 1180 164.987 1180 157.86C1180 150.733 1185.62 145 1192.5 145C1199.38 145 1205 150.733 1205 157.86Z" stroke="white" stroke-width="2"/>
<circle cx="1192.5" cy="153.54" r="2.78" stroke="white" stroke-width="2"/>
<path d="M1186.92 163.62C1187.06 159.156 1190.7 157.32 1192.5 156.96C1197.54 157.5 1198.08 162.72 1198.26 163.62C1198.44 164.52 1194.66 165.42 1192.5 165.42C1189.19 165.564 1187.4 164.28 1186.92 163.62Z" stroke="white" stroke-width="2"/>
<path d="M1281 379H1175L1175 206" stroke="white" stroke-width="2" stroke-dasharray="4 4"/>
<path fill-rule="evenodd" clip-rule="evenodd" d="M1262 120C1259.24 120 1257 122.239 1257 125C1257 127.761 1259.24 130 1262 130C1264.76 130 1267 127.761 1267 125C1267 122.239 1264.76 120 1262 120ZM1262 121C1264.21 121 1266 122.791 1266 125C1266 127.209 1264.21 129 1262 129C1259.79 129 1258 127.209 1258 125C1258 122.791 1259.79 121 1262 121ZM1262 127.5C1263.38 127.5 1264.5 126.381 1264.5 125C1264.5 123.619 1263.38 122.5 1262 122.5C1260.62 122.5 1259.5 123.619 1259.5 125C1259.5 126.381 1260.62 127.5 1262 127.5Z" fill="white"/>
<path fill-rule="evenodd" clip-rule="evenodd" d="M1262 94C1259.24 94 1257 96.2386 1257 99C1257 101.761 1259.24 104 1262 104C1264.76 104 1267 101.761 1267 99C1267 96.2386 1264.76 94 1262 94ZM1262 95C1264.21 95 1266 96.7909 1266 99C1266 101.209 1264.21 103 1262 103C1259.79 103 1258 101.209 1258 99C1258 96.7909 1259.79 95 1262 95Z" fill="white"/>
<path d="M1316 80H1232V195" stroke="white" stroke-width="2" stroke-dasharray="4 4"/>
<path d="M1268.75 142.5H1255.25C1253.59 142.5 1252.25 143.84 1252.25 145.5V154.5C1252.25 156.16 1253.59 157.5 1255.25 157.5H1268.75C1270.41 157.5 1271.75 156.16 1271.75 154.5V145.5C1271.75 143.84 1270.41 142.5 1268.75 142.5ZM1255.25 144H1268.75C1269.22 144 1269.66 144.22 1269.94 144.6L1262 150.56L1254.06 144.6C1254.34 144.22 1254.78 144 1255.25 144ZM1270.25 149.29V154.5C1270.25 155.33 1269.58 156 1268.75 156H1255.25C1254.42 156 1253.75 155.33 1253.75 154.5V146.25L1262 152.44L1270.25 146.25V149.29Z" fill="white"/>
<path fill-rule="evenodd" clip-rule="evenodd" d="M1195.88 400.978V404.062C1195.88 404.546 1196.27 404.938 1196.75 404.938H1205.5C1205.98 404.938 1206.38 404.546 1206.38 404.062V402.75H1207.25C1207.73 402.75 1208.12 402.358 1208.12 401.875V400.125C1208.12 399.642 1207.73 399.25 1207.25 399.25H1206.38V397.938C1206.38 397.454 1205.98 397.062 1205.5 397.062H1196.75C1196.27 397.062 1195.88 397.454 1195.88 397.938V398.813H1196.75V397.938H1205.5V400.125V401.875V404.062H1196.75V400.978C1196.75 400.737 1196.55 400.541 1196.31 400.541C1196.07 400.541 1195.88 400.737 1195.88 400.978ZM1206.38 400.125V401.875H1207.25V400.125H1206.38Z" fill="white"/>
<path fill-rule="evenodd" clip-rule="evenodd" d="M1197.62 398.812H1199.37V403.187H1197.62V398.812Z" fill="white" fill-opacity="0.5"/>
<path fill-rule="evenodd" clip-rule="evenodd" d="M1207.13 418.022L1207.13 414.938C1207.13 414.454 1206.73 414.062 1206.25 414.062L1197.5 414.062C1197.02 414.062 1196.63 414.454 1196.63 414.937L1196.63 416.25L1195.75 416.25C1195.27 416.25 1194.88 416.642 1194.88 417.125L1194.88 418.875C1194.88 419.358 1195.27 419.75 1195.75 419.75L1196.63 419.75L1196.63 421.062C1196.63 421.546 1197.02 421.937 1197.5 421.937L1206.25 421.937C1206.73 421.937 1207.13 421.546 1207.13 421.062L1207.13 420.187L1206.25 420.187L1206.25 421.062L1197.5 421.062L1197.5 418.875L1197.5 417.125L1197.5 414.937L1206.25 414.937L1206.25 418.022C1206.25 418.263 1206.45 418.459 1206.69 418.459C1206.93 418.459 1207.13 418.263 1207.13 418.022ZM1196.63 418.875L1196.63 417.125L1195.75 417.125L1195.75 418.875L1196.63 418.875Z" fill="white"/>
<path fill-rule="evenodd" clip-rule="evenodd" d="M1205.38 420.188L1203.63 420.187L1203.63 415.812L1205.38 415.813L1205.38 420.188Z" fill="white" fill-opacity="0.5"/>
<path fill-rule="evenodd" clip-rule="evenodd" d="M1176.94 400.978V404.062C1176.94 404.546 1177.36 404.938 1177.88 404.938H1187.25C1187.77 404.938 1188.19 404.546 1188.19 404.062V402.75H1189.12C1189.64 402.75 1190.06 402.358 1190.06 401.875V400.125C1190.06 399.642 1189.64 399.25 1189.12 399.25H1188.19V397.938C1188.19 397.454 1187.77 397.062 1187.25 397.062H1177.88C1177.36 397.062 1176.94 397.454 1176.94 397.938V398.813H1177.88V397.938H1187.25V400.125V401.875V404.062H1177.88V400.978C1177.88 400.737 1177.67 400.541 1177.41 400.541C1177.15 400.541 1176.94 400.737 1176.94 400.978ZM1188.19 400.125V401.875H1189.12V400.125H1188.19Z" fill="white"/>
<path fill-rule="evenodd" clip-rule="evenodd" d="M1178.81 398.812H1182.56V403.187H1178.81V398.812Z" fill="white" fill-opacity="0.5"/>
<path fill-rule="evenodd" clip-rule="evenodd" d="M1188.06 418.022L1188.06 414.938C1188.06 414.454 1187.64 414.062 1187.13 414.062L1177.75 414.062C1177.23 414.062 1176.81 414.454 1176.81 414.937L1176.81 416.25L1175.88 416.25C1175.36 416.25 1174.94 416.642 1174.94 417.125L1174.94 418.875C1174.94 419.358 1175.36 419.75 1175.88 419.75L1176.81 419.75L1176.81 421.062C1176.81 421.546 1177.23 421.937 1177.75 421.937L1187.12 421.937C1187.64 421.937 1188.06 421.546 1188.06 421.062L1188.06 420.187L1187.13 420.187L1187.13 421.062L1177.75 421.062L1177.75 418.875L1177.75 417.125L1177.75 414.937L1187.13 414.937L1187.13 418.022C1187.13 418.263 1187.33 418.459 1187.59 418.459C1187.85 418.459 1188.06 418.263 1188.06 418.022ZM1176.81 418.875L1176.81 417.125L1175.88 417.125L1175.88 418.875L1176.81 418.875Z" fill="white"/>
<path fill-rule="evenodd" clip-rule="evenodd" d="M1186.19 420.188L1182.44 420.187L1182.44 415.812L1186.19 415.813L1186.19 420.188Z" fill="white" fill-opacity="0.5"/>
<path fill-rule="evenodd" clip-rule="evenodd" d="M1157.88 400.978V404.062C1157.88 404.546 1158.27 404.938 1158.75 404.938H1167.5C1167.98 404.938 1168.38 404.546 1168.38 404.062V402.75H1169.25C1169.73 402.75 1170.12 402.358 1170.12 401.875V400.125C1170.12 399.642 1169.73 399.25 1169.25 399.25H1168.38V397.938C1168.38 397.454 1167.98 397.062 1167.5 397.062H1158.75C1158.27 397.062 1157.88 397.454 1157.88 397.938V398.813H1158.75V397.938H1167.5V400.125V401.875V404.062H1158.75V400.978C1158.75 400.737 1158.55 400.541 1158.31 400.541C1158.07 400.541 1157.88 400.737 1157.88 400.978ZM1168.38 400.125V401.875H1169.25V400.125H1168.38Z" fill="white"/>
<path fill-rule="evenodd" clip-rule="evenodd" d="M1159.62 398.812H1166.62V403.187H1159.62V398.812Z" fill="white" fill-opacity="0.5"/>
<path fill-rule="evenodd" clip-rule="evenodd" d="M1169.13 418.022L1169.13 414.938C1169.13 414.454 1168.73 414.062 1168.25 414.062L1159.5 414.062C1159.02 414.062 1158.63 414.454 1158.63 414.937L1158.63 416.25L1157.75 416.25C1157.27 416.25 1156.88 416.642 1156.88 417.125L1156.88 418.875C1156.88 419.358 1157.27 419.75 1157.75 419.75L1158.63 419.75L1158.63 421.062C1158.63 421.546 1159.02 421.937 1159.5 421.937L1168.25 421.937C1168.73 421.937 1169.13 421.546 1169.13 421.062L1169.13 420.187L1168.25 420.187L1168.25 421.062L1159.5 421.062L1159.5 418.875L1159.5 417.125L1159.5 414.937L1168.25 414.937L1168.25 418.022C1168.25 418.263 1168.45 418.459 1168.69 418.459C1168.93 418.459 1169.13 418.263 1169.13 418.022ZM1158.63 418.875L1158.63 417.125L1157.75 417.125L1157.75 418.875L1158.63 418.875Z" fill="white"/>
<path fill-rule="evenodd" clip-rule="evenodd" d="M1167.38 420.188L1160.38 420.187L1160.38 415.812L1167.38 415.813L1167.38 420.188Z" fill="white" fill-opacity="0.5"/>
<path fill-rule="evenodd" clip-rule="evenodd" d="M1092 290C1093.65 290 1095 291.346 1095 293C1095 294.654 1093.65 296 1092 296C1090.35 296 1089 294.654 1089 293C1089 291.346 1090.35 290 1092 290ZM1092 291.5C1091.17 291.5 1090.5 292.174 1090.5 293C1090.5 293.826 1091.17 294.5 1092 294.5C1092.83 294.5 1093.5 293.826 1093.5 293C1093.5 292.174 1092.83 291.5 1092 291.5Z" fill="white"/>
<path fill-rule="evenodd" clip-rule="evenodd" d="M1092 286C1088.33 286 1084.85 288.675 1083.16 292.263C1082.95 292.728 1082.95 293.272 1083.16 293.737C1084.86 297.336 1088.34 300 1092 300C1095.82 300 1099.23 297.148 1100.84 293.737C1101.05 293.272 1101.05 292.728 1100.84 292.263C1099.14 288.664 1095.66 286 1092 286ZM1092.26 288.006C1094.89 288.128 1097.51 290.124 1098.9 292.848L1098.97 292.999L1099.03 292.886C1097.72 295.664 1094.93 298 1092 298L1091.74 297.994C1089.11 297.872 1086.49 295.876 1085.1 293.152L1085.03 293L1084.97 293.114C1086.36 290.174 1089.19 288 1092 288L1092.26 288.006Z" fill="white"/>
<rect x="1239" y="409" width="34" height="18" rx="9" stroke="white" stroke-width="2"/>
<circle cx="1248" cy="418" r="6" fill="white"/>
<path d="M1129.36 196.022V188.884H1067C1067.57 206.47 1068.36 242.821 1067 247.538C1068.94 247.621 1109.38 247.573 1129.36 247.538V208.539" stroke="white" stroke-width="2"/>
<path d="M1088.23 230.986H1110.18" stroke="white" stroke-width="2"/>
<path d="M1088.23 221.263H1105.88" stroke="white" stroke-width="2"/>
<path d="M1088.23 211.952H1108.12" stroke="white" stroke-width="2"/>
<path d="M1088.23 201.607H1113.59" stroke="white" stroke-width="2"/>
<path d="M1112.78 228.297L1114.13 225.608M1114.13 225.608C1113.71 224.918 1113.07 223.228 1113.86 221.987C1114.65 220.746 1120.64 211.401 1123.53 206.884L1127.65 209.78L1117.53 224.47C1117.2 225.228 1116.06 226.518 1114.13 225.608Z" stroke="white" stroke-width="2"/>
<path d="M1138.05 191.47C1139.66 192.401 1138.23 195.504 1137.51 196.332C1136.94 196.994 1131.06 205.918 1128.19 210.297L1122.91 206.159C1125.12 202.78 1129.98 195.339 1131.78 192.608C1134.02 189.194 1136.43 190.539 1138.05 191.47ZM1138.05 191.47C1138.38 191.056 1139.23 190.042 1140.02 189.297C1141 188.366 1140.29 187.642 1140.02 187.228C1139.37 186.815 1138.08 187.056 1137.51 187.228L1135.99 190.228" stroke="white" stroke-width="2"/>
<path d="M1138.32 191.47C1139.24 191.78 1141.04 192.835 1140.82 194.573C1140.56 196.746 1140.73 197.987 1138.05 200.47C1135.36 202.952 1130.97 205.849 1130.88 207.194C1130.88 207.814 1130.61 208.952 1131.87 209.47C1132.4 209.366 1132.94 209.263 1133.03 208.849" stroke="white" stroke-width="2"/>
<path d="M1077.12 200.573C1077.75 201.883 1079.06 204.483 1079.27 204.401C1080.06 203.076 1082.05 200.125 1082.95 198.814" stroke="white" stroke-width="2"/>
<path d="M1077.12 210.814C1077.75 212.125 1079.06 214.725 1079.27 214.642C1080.06 213.318 1082.05 210.366 1082.95 209.056" stroke="white" stroke-width="2"/>
<path d="M1077.12 221.366C1077.75 222.676 1079.06 225.276 1079.27 225.194C1080.06 223.869 1082.05 220.918 1082.95 219.607" stroke="white" stroke-width="2"/>
<path d="M1077.57 235.021C1078.83 233.4 1081.51 230.055 1082.23 229.642" stroke="white" stroke-width="2"/>
<path d="M1078.11 230.263L1082.5 234.711" stroke="white" stroke-width="2"/>
<rect x="170" y="21" width="140" height="37.6524" rx="15" stroke="white" stroke-opacity="0.7" stroke-width="2"/>
<rect x="176.607" y="39.0342" width="27.8929" height="3.70089" rx="1.85044" fill="white"/>
<rect x="294.834" y="39.0342" width="8.55803" height="3.70089" rx="1.85044" fill="white"/>
<rect x="176.607" y="48.0215" width="43.4241" height="3.70089" rx="1.85044" fill="white"/>
<rect x="256.798" y="48.0215" width="46.5938" height="3.70089" rx="1.85044" fill="white"/>
<rect x="176.607" y="28.459" width="74.4866" height="4.62611" rx="2.31306" fill="white"/>
<circle cx="1055.98" cy="106.146" r="5.84341" fill="white" stroke="white" stroke-width="2"/>
<circle cx="1055.98" cy="106.146" r="11.783" stroke="white" stroke-width="2"/>
<path d="M1073.96 106.146C1073.96 116.543 1065.87 124.902 1055.98 124.902C1046.09 124.902 1038 116.543 1038 106.146C1038 95.7497 1046.09 87.3906 1055.98 87.3906C1065.87 87.3906 1073.96 95.7497 1073.96 106.146Z" stroke="white" stroke-width="2"/>
<path d="M1072.12 92.4588L1072.64 87.0357L1079.22 82L1078.71 87.4231" stroke="white" stroke-width="2"/>
<path d="M1078.71 87.6816L1084 88.3272L1077.54 93.7503L1072.12 92.5882" stroke="white" stroke-width="2"/>
<path d="M1056.63 105.371L1081.68 84.9697" stroke="white" stroke-width="2"/>
<path d="M1085 106.278C1094.13 104.819 1120.22 108.534 1125.94 131.188C1127.18 134.792 1127.42 145.861 1122.49 147.985C1120.02 148.435 1107.94 138.461 1120.27 123.53C1124.22 118.752 1156.03 103.189 1177 136.911" stroke="white" stroke-width="2" stroke-dasharray="4 4"/>
<rect x="1205" y="256" width="101" height="1" fill="white"/>
<path d="M1205.73 251V243.842H1206.68V250.155H1210.21V251H1205.73ZM1214.61 250.36C1214.28 250.637 1213.97 250.832 1213.67 250.946C1213.37 251.06 1213.05 251.117 1212.7 251.117C1212.13 251.117 1211.69 250.979 1211.39 250.702C1211.08 250.422 1210.93 250.066 1210.93 249.633C1210.93 249.379 1210.98 249.148 1211.1 248.939C1211.22 248.728 1211.37 248.559 1211.55 248.432C1211.74 248.305 1211.95 248.209 1212.19 248.144C1212.36 248.098 1212.62 248.054 1212.97 248.012C1213.68 247.927 1214.2 247.826 1214.54 247.709C1214.54 247.589 1214.54 247.512 1214.54 247.479C1214.54 247.121 1214.46 246.869 1214.29 246.723C1214.07 246.524 1213.73 246.425 1213.29 246.425C1212.88 246.425 1212.57 246.498 1212.37 246.645C1212.18 246.788 1212.03 247.043 1211.94 247.411L1211.08 247.294C1211.16 246.926 1211.29 246.63 1211.46 246.405C1211.64 246.177 1211.9 246.003 1212.24 245.883C1212.58 245.759 1212.97 245.697 1213.42 245.697C1213.86 245.697 1214.22 245.749 1214.5 245.854C1214.77 245.958 1214.98 246.09 1215.11 246.249C1215.24 246.405 1215.33 246.604 1215.38 246.845C1215.41 246.994 1215.42 247.265 1215.42 247.655V248.827C1215.42 249.644 1215.44 250.162 1215.48 250.38C1215.52 250.595 1215.59 250.801 1215.7 251H1214.79C1214.69 250.818 1214.64 250.604 1214.61 250.36ZM1214.54 248.397C1214.22 248.528 1213.74 248.638 1213.1 248.729C1212.74 248.782 1212.48 248.84 1212.33 248.905C1212.18 248.97 1212.07 249.066 1211.99 249.193C1211.91 249.317 1211.87 249.455 1211.87 249.608C1211.87 249.843 1211.95 250.038 1212.13 250.194C1212.31 250.351 1212.57 250.429 1212.91 250.429C1213.25 250.429 1213.55 250.355 1213.81 250.209C1214.08 250.059 1214.27 249.856 1214.39 249.599C1214.49 249.4 1214.54 249.107 1214.54 248.72V248.397ZM1217.6 251H1216.79V243.842H1217.67V246.396C1218.04 245.93 1218.51 245.697 1219.09 245.697C1219.41 245.697 1219.71 245.762 1219.99 245.893C1220.28 246.02 1220.51 246.2 1220.69 246.435C1220.88 246.666 1221.02 246.946 1221.13 247.274C1221.23 247.603 1221.28 247.955 1221.28 248.329C1221.28 249.218 1221.06 249.905 1220.62 250.39C1220.19 250.875 1219.66 251.117 1219.04 251.117C1218.43 251.117 1217.95 250.862 1217.6 250.351V251ZM1217.59 248.368C1217.59 248.99 1217.68 249.439 1217.85 249.716C1218.12 250.168 1218.5 250.395 1218.97 250.395C1219.35 250.395 1219.69 250.229 1219.97 249.896C1220.25 249.561 1220.39 249.063 1220.39 248.402C1220.39 247.725 1220.25 247.226 1219.98 246.903C1219.71 246.581 1219.39 246.42 1219.01 246.42C1218.62 246.42 1218.29 246.588 1218.01 246.923C1217.73 247.255 1217.59 247.737 1217.59 248.368ZM1225.91 249.33L1226.82 249.442C1226.67 249.973 1226.41 250.385 1226.02 250.678C1225.63 250.971 1225.14 251.117 1224.54 251.117C1223.78 251.117 1223.18 250.884 1222.73 250.419C1222.29 249.95 1222.07 249.294 1222.07 248.451C1222.07 247.579 1222.29 246.902 1222.74 246.42C1223.19 245.938 1223.77 245.697 1224.49 245.697C1225.18 245.697 1225.75 245.933 1226.19 246.405C1226.63 246.877 1226.85 247.541 1226.85 248.397C1226.85 248.45 1226.84 248.528 1226.84 248.632H1222.97C1223.01 249.201 1223.17 249.638 1223.46 249.94C1223.75 250.243 1224.11 250.395 1224.54 250.395C1224.86 250.395 1225.14 250.31 1225.37 250.141C1225.59 249.971 1225.77 249.701 1225.91 249.33ZM1223.02 247.909H1225.92C1225.88 247.473 1225.77 247.146 1225.59 246.928C1225.31 246.589 1224.94 246.42 1224.5 246.42C1224.09 246.42 1223.75 246.555 1223.48 246.825C1223.2 247.095 1223.05 247.457 1223.02 247.909ZM1227.91 251V243.842H1228.78V251H1227.91Z" fill="white"/>
<path fill-rule="evenodd" clip-rule="evenodd" d="M1297.67 247C1297.67 246.632 1297.37 246.333 1297 246.333H1295C1294.63 246.333 1294.33 246.632 1294.33 247C1294.33 247.368 1294.63 247.666 1295 247.666H1297C1297.37 247.666 1297.67 247.368 1297.67 247V247ZM1307 246.333H1305C1304.63 246.333 1304.33 246.632 1304.33 247C1304.33 247.368 1304.63 247.666 1305 247.666H1307C1307.37 247.666 1307.67 247.368 1307.67 247C1307.67 246.632 1307.37 246.333 1307 246.333V246.333ZM1301 250.333C1300.63 250.333 1300.33 250.632 1300.33 251V253C1300.33 253.368 1300.63 253.666 1301 253.666C1301.37 253.666 1301.67 253.368 1301.67 253V251C1301.67 250.632 1301.37 250.333 1301 250.333V250.333ZM1301 240.333C1300.63 240.333 1300.33 240.632 1300.33 241V243C1300.33 243.368 1300.63 243.666 1301 243.666C1301.37 243.666 1301.67 243.368 1301.67 243V241C1301.67 240.632 1301.37 240.333 1301 240.333V240.333ZM1298.58 241.47C1298.39 241.152 1297.99 241.042 1297.67 241.226C1297.35 241.41 1297.24 241.818 1297.42 242.137L1298.42 243.869C1298.61 244.188 1299.01 244.297 1299.33 244.113C1299.65 243.929 1299.76 243.521 1299.58 243.202L1298.58 241.47ZM1303.58 250.13C1303.39 249.812 1302.99 249.702 1302.67 249.886C1302.35 250.07 1302.24 250.478 1302.42 250.797L1303.42 252.529C1303.61 252.848 1304.01 252.958 1304.33 252.773C1304.65 252.589 1304.76 252.181 1304.58 251.862L1303.58 250.13ZM1298.11 248.666C1297.93 248.347 1297.52 248.238 1297.2 248.422L1295.47 249.422C1295.15 249.606 1295.04 250.014 1295.23 250.333C1295.41 250.652 1295.82 250.761 1296.14 250.577L1297.87 249.577C1298.19 249.393 1298.3 248.986 1298.11 248.666V248.666ZM1303.89 245.333C1304.07 245.652 1304.48 245.761 1304.8 245.577L1306.53 244.577C1306.85 244.393 1306.96 243.986 1306.77 243.666C1306.59 243.347 1306.18 243.238 1305.86 243.422L1304.13 244.422C1303.81 244.606 1303.7 245.014 1303.89 245.333V245.333ZM1295.47 244.577L1297.2 245.577C1297.52 245.761 1297.93 245.652 1298.11 245.333C1298.3 245.014 1298.19 244.606 1297.87 244.422L1296.14 243.422C1295.82 243.238 1295.41 243.347 1295.23 243.666C1295.04 243.986 1295.15 244.393 1295.47 244.577V244.577ZM1306.53 249.422L1304.8 248.422C1304.48 248.238 1304.07 248.347 1303.89 248.666C1303.7 248.986 1303.81 249.393 1304.13 249.577L1305.86 250.577C1306.18 250.761 1306.59 250.652 1306.77 250.333C1306.96 250.014 1306.85 249.606 1306.53 249.422V249.422ZM1299.33 249.886C1299.01 249.702 1298.61 249.812 1298.42 250.13L1297.42 251.862C1297.24 252.181 1297.35 252.589 1297.67 252.773C1297.99 252.958 1298.39 252.848 1298.58 252.529L1299.58 250.797C1299.76 250.478 1299.65 250.07 1299.33 249.886V249.886ZM1302.67 244.113C1302.99 244.297 1303.39 244.188 1303.58 243.869L1304.58 242.137C1304.76 241.818 1304.65 241.41 1304.33 241.226C1304.01 241.042 1303.61 241.152 1303.42 241.47L1302.42 243.202C1302.24 243.521 1302.35 243.929 1302.67 244.113V244.113Z" fill="white" fill-opacity="0.8"/>
<rect x="33.5" y="387.5" width="196" height="28" stroke="white"/>
<path fill-rule="evenodd" clip-rule="evenodd" d="M213.857 398.625C213.857 398.211 214.224 397.875 214.678 397.875C215.131 397.875 215.499 398.211 215.499 398.625C215.499 399.039 215.131 399.375 214.678 399.375C214.224 399.375 213.857 399.039 213.857 398.625ZM214.678 401.25C214.224 401.25 213.857 401.586 213.857 402C213.857 402.414 214.224 402.75 214.678 402.75C215.131 402.75 215.499 402.414 215.499 402C215.499 401.586 215.131 401.25 214.678 401.25ZM214.678 404.625C214.224 404.625 213.857 404.961 213.857 405.375C213.857 405.789 214.224 406.125 214.678 406.125C215.131 406.125 215.499 405.789 215.499 405.375C215.499 404.961 215.131 404.625 214.678 404.625Z" fill="white"/>
<rect x="42.2554" y="394.5" width="156.6" height="15" rx="7.5" stroke="white"/>
<path fill-rule="evenodd" clip-rule="evenodd" d="M53.384 400.875H52.9736V399.75C52.9736 398.507 51.8711 397.5 50.5111 397.5C49.1511 397.5 48.0486 398.507 48.0486 399.75V400.875H47.6382C47.1849 400.875 46.8174 401.211 46.8174 401.625V405.375C46.8174 405.789 47.1849 406.125 47.6382 406.125H53.384C53.8374 406.125 54.2049 405.789 54.2049 405.375V401.625C54.2049 401.211 53.8374 400.875 53.384 400.875ZM50.5111 398.25C49.6045 398.25 48.8695 398.922 48.8695 399.75V400.875H52.1528V399.75C52.1528 398.922 51.4178 398.25 50.5111 398.25ZM47.6382 405.375H53.384V401.625H47.6382V405.375ZM51.7424 403.5C51.7424 403.293 51.5586 403.125 51.332 403.125H49.6903C49.4636 403.125 49.2799 403.293 49.2799 403.5C49.2799 403.707 49.4636 403.875 49.6903 403.875H51.332C51.5586 403.875 51.7424 403.707 51.7424 403.5Z" fill="white"/>
<path fill-rule="evenodd" clip-rule="evenodd" d="M200.703 376.5V366.513H200.491L196.608 367.941V369.343L199.049 368.509V376.5H200.703ZM207.539 376.637C208.555 376.637 209.355 376.337 209.938 375.738C210.522 375.139 210.813 374.333 210.813 373.321C210.813 372.296 210.55 371.48 210.024 370.874C209.498 370.268 208.76 369.965 207.812 369.965C207.234 369.965 206.714 370.097 206.254 370.361V370.361L206.527 367.982H210.492V366.547H205.146L204.606 371.564L205.933 371.893C206.179 371.66 206.407 371.504 206.616 371.424C206.826 371.345 207.081 371.305 207.382 371.305C207.933 371.305 208.366 371.481 208.681 371.834C208.995 372.188 209.152 372.667 209.152 373.273C209.152 373.902 209.01 374.399 208.725 374.764C208.44 375.128 208.043 375.311 207.532 375.311C207.076 375.311 206.707 375.182 206.425 374.924C206.142 374.667 205.969 374.297 205.905 373.813V373.813H204.299C204.349 374.661 204.674 375.344 205.273 375.861C205.872 376.378 206.628 376.637 207.539 376.637ZM213.227 370.771C213.536 370.771 213.776 370.686 213.944 370.515C214.113 370.344 214.197 370.129 214.197 369.869C214.197 369.605 214.113 369.385 213.944 369.209C213.776 369.034 213.536 368.946 213.227 368.946C212.921 368.946 212.684 369.034 212.516 369.209C212.347 369.385 212.263 369.605 212.263 369.869C212.263 370.133 212.349 370.35 212.522 370.519C212.696 370.687 212.93 370.771 213.227 370.771ZM213.227 376.575C213.536 376.575 213.776 376.49 213.944 376.319C214.113 376.148 214.197 375.933 214.197 375.673C214.197 375.409 214.113 375.189 213.944 375.013C213.776 374.838 213.536 374.75 213.227 374.75C212.921 374.75 212.684 374.838 212.516 375.013C212.347 375.189 212.263 375.409 212.263 375.673C212.263 375.937 212.349 376.154 212.522 376.322C212.696 376.491 212.93 376.575 213.227 376.575ZM222.523 376.5V375.174H217.902L220.336 372.569C220.974 371.877 221.433 371.258 221.713 370.713C221.994 370.169 222.134 369.648 222.134 369.151C222.134 368.295 221.855 367.624 221.296 367.138C220.738 366.653 219.976 366.41 219.01 366.41C218.34 366.41 217.749 366.545 217.236 366.813C216.723 367.082 216.329 367.459 216.053 367.945C215.778 368.43 215.64 368.976 215.64 369.582V369.582H217.301C217.301 369.012 217.449 368.563 217.745 368.235C218.041 367.907 218.458 367.743 218.996 367.743C219.447 367.743 219.806 367.889 220.073 368.181C220.339 368.472 220.473 368.855 220.473 369.329C220.473 369.689 220.371 370.048 220.168 370.406C219.966 370.764 219.625 371.209 219.146 371.742V371.742L215.831 375.358V376.5H222.523ZM227.028 376.637C228.122 376.637 228.937 376.273 229.472 375.546C230.008 374.819 230.275 373.741 230.275 372.31V372.31V370.587C230.262 369.197 229.987 368.153 229.452 367.456C228.916 366.759 228.104 366.41 227.015 366.41C225.916 366.41 225.099 366.768 224.564 367.483C224.028 368.199 223.761 369.272 223.761 370.703V370.703V372.426C223.774 373.816 224.054 374.865 224.598 375.574C225.143 376.282 225.953 376.637 227.028 376.637ZM227.028 375.311C226.472 375.311 226.064 375.083 225.805 374.627C225.545 374.171 225.415 373.479 225.415 372.549V372.549V370.293C225.429 369.418 225.563 368.774 225.818 368.362C226.074 367.949 226.472 367.743 227.015 367.743C227.571 367.743 227.976 367.961 228.231 368.396C228.487 368.831 228.614 369.516 228.614 370.45V370.45V372.699C228.601 373.597 228.466 374.257 228.211 374.678C227.956 375.1 227.562 375.311 227.028 375.311Z" fill="white"/>
<path fill-rule="evenodd" clip-rule="evenodd" d="M145.008 378.617L154 367.456C153.652 367.194 150.188 364.375 145 364.375C139.804 364.375 136.348 367.194 136 367.456L144.992 378.617L145 378.625L145.008 378.617V378.617Z" fill="white"/>
<path fill-rule="evenodd" clip-rule="evenodd" d="M155.5 379H170.5V364L155.5 379Z" fill="white"/>
<path fill-rule="evenodd" clip-rule="evenodd" d="M184.5 365.266V364.375H181.5V365.266H178.5V378.625H187.5V365.266H184.5Z" fill="white"/>
<rect x="1032.5" y="393.5" width="50" height="27" rx="13.5" stroke="white"/>
<path d="M1044.83 411V403.126H1045.88V410.071H1049.75V411H1044.83ZM1054.6 410.296C1054.24 410.601 1053.9 410.816 1053.56 410.941C1053.23 411.066 1052.88 411.129 1052.5 411.129C1051.87 411.129 1051.39 410.977 1051.05 410.672C1050.72 410.364 1050.55 409.972 1050.55 409.496C1050.55 409.217 1050.61 408.963 1050.74 408.733C1050.87 408.501 1051.03 408.314 1051.24 408.175C1051.44 408.035 1051.68 407.93 1051.94 407.858C1052.13 407.808 1052.41 407.759 1052.79 407.713C1053.58 407.62 1054.15 407.509 1054.52 407.38C1054.52 407.247 1054.52 407.163 1054.52 407.127C1054.52 406.734 1054.43 406.456 1054.25 406.295C1054 406.076 1053.64 405.967 1053.15 405.967C1052.69 405.967 1052.36 406.048 1052.14 406.209C1051.92 406.367 1051.77 406.648 1051.66 407.052L1050.72 406.923C1050.8 406.519 1050.94 406.193 1051.14 405.946C1051.34 405.695 1051.62 405.504 1051.99 405.371C1052.37 405.235 1052.8 405.167 1053.29 405.167C1053.78 405.167 1054.17 405.224 1054.48 405.339C1054.78 405.453 1055 405.598 1055.15 405.774C1055.29 405.946 1055.39 406.164 1055.45 406.429C1055.48 406.594 1055.5 406.891 1055.5 407.321V408.61C1055.5 409.509 1055.52 410.078 1055.56 410.318C1055.6 410.554 1055.68 410.782 1055.8 411H1054.79C1054.69 410.799 1054.63 410.565 1054.6 410.296ZM1054.52 408.137C1054.17 408.28 1053.64 408.402 1052.94 408.502C1052.54 408.56 1052.26 408.624 1052.1 408.696C1051.93 408.767 1051.8 408.873 1051.72 409.013C1051.63 409.149 1051.58 409.301 1051.58 409.469C1051.58 409.727 1051.68 409.942 1051.87 410.114C1052.07 410.286 1052.35 410.372 1052.73 410.372C1053.1 410.372 1053.43 410.291 1053.72 410.13C1054.01 409.965 1054.23 409.741 1054.36 409.458C1054.47 409.24 1054.52 408.918 1054.52 408.492V408.137ZM1057.89 411H1057V403.126H1057.96V405.935C1058.37 405.423 1058.89 405.167 1059.52 405.167C1059.88 405.167 1060.21 405.239 1060.52 405.382C1060.83 405.521 1061.09 405.72 1061.29 405.978C1061.5 406.232 1061.66 406.54 1061.77 406.902C1061.88 407.264 1061.94 407.65 1061.94 408.062C1061.94 409.04 1061.7 409.795 1061.22 410.329C1060.73 410.862 1060.15 411.129 1059.48 411.129C1058.8 411.129 1058.28 410.848 1057.89 410.286V411ZM1057.88 408.105C1057.88 408.789 1057.97 409.283 1058.16 409.587C1058.47 410.085 1058.88 410.334 1059.4 410.334C1059.82 410.334 1060.18 410.151 1060.49 409.786C1060.8 409.417 1060.95 408.869 1060.95 408.143C1060.95 407.398 1060.81 406.848 1060.51 406.494C1060.21 406.139 1059.86 405.962 1059.44 405.962C1059.02 405.962 1058.65 406.146 1058.34 406.515C1058.04 406.88 1057.88 407.41 1057.88 408.105ZM1067.03 409.163L1068.03 409.287C1067.87 409.87 1067.58 410.323 1067.15 410.646C1066.73 410.968 1066.18 411.129 1065.52 411.129C1064.68 411.129 1064.02 410.873 1063.53 410.361C1063.04 409.845 1062.8 409.124 1062.8 408.196C1062.8 407.237 1063.05 406.492 1063.54 405.962C1064.04 405.432 1064.68 405.167 1065.47 405.167C1066.23 405.167 1066.85 405.427 1067.33 405.946C1067.82 406.465 1068.06 407.195 1068.06 408.137C1068.06 408.194 1068.06 408.28 1068.05 408.395H1063.8C1063.84 409.022 1064.01 409.501 1064.33 409.834C1064.65 410.167 1065.05 410.334 1065.52 410.334C1065.88 410.334 1066.18 410.241 1066.43 410.055C1066.68 409.868 1066.88 409.571 1067.03 409.163ZM1063.85 407.6H1067.04C1067 407.12 1066.87 406.76 1066.67 406.521C1066.37 406.148 1065.97 405.962 1065.48 405.962C1065.03 405.962 1064.66 406.111 1064.35 406.408C1064.05 406.705 1063.89 407.102 1063.85 407.6ZM1069.23 411V403.126H1070.19V411H1069.23Z" fill="white"/>
<rect x="198.5" y="276.5" width="50" height="27" rx="13.5" stroke="white"/>
<path fill-rule="evenodd" clip-rule="evenodd" d="M231.5 290C231.5 294.418 227.918 298 223.5 298C219.082 298 215.5 294.418 215.5 290H216.955C216.955 293.615 219.885 296.545 223.5 296.545C227.115 296.545 230.045 293.615 230.045 290C230.045 286.385 227.115 283.455 223.5 283.455V282C227.918 282 231.5 285.582 231.5 290Z" fill="white"/>
<path d="M290 328H14V428" stroke="white" stroke-width="2" stroke-dasharray="4 4"/>
<path d="M268.9 371L256.3 371" stroke="white" stroke-width="2"/>
<path d="M274.9 381.8L256.3 381.8" stroke="white" stroke-width="2"/>
<path d="M271.6 392.6L256 392.6" stroke="white" stroke-width="2"/>
<path d="M278.8 403.4L256.3 403.4" stroke="white" stroke-width="2"/>
<path d="M271.6 413L256 413" stroke="white" stroke-width="2"/>
<rect x="1292" y="328" width="18" height="18" rx="4" stroke="white" stroke-width="2"/>
<path fill-rule="evenodd" clip-rule="evenodd" d="M1307.25 334.346L1300.39 341.187C1300.23 341.349 1300.02 341.44 1299.79 341.44C1299.56 341.44 1299.34 341.349 1299.18 341.187L1295.75 337.766C1295.42 337.431 1295.42 336.887 1295.75 336.552C1296.09 336.217 1296.63 336.217 1296.97 336.552L1299.79 339.374L1306.03 333.131C1306.37 332.796 1306.91 332.796 1307.25 333.131C1307.58 333.467 1307.58 334.01 1307.25 334.346Z" fill="white"/>
<path fill-rule="evenodd" clip-rule="evenodd" d="M1308 309C1308 310.103 1307.1 311 1306 311H1296C1294.9 311 1294 310.103 1294 309V299C1294 297.896 1294.9 297 1296 297H1306C1307.1 297 1308 297.896 1308 299V309ZM1306 295H1296C1293.79 295 1292 296.791 1292 299V309C1292 311.209 1293.79 313 1296 313H1306C1308.21 313 1310 311.209 1310 309V299C1310 296.791 1308.21 295 1306 295V295Z" fill="white"/>
<path fill-rule="evenodd" clip-rule="evenodd" d="M252.25 220C252.248 219.525 252.205 219.05 252.122 218.582L254.02 216.857L253.847 216.385C253.442 215.243 252.837 214.182 252.062 213.25L251.74 212.86L249.287 213.677C248.558 213.064 247.729 212.582 246.835 212.252L246.287 209.747L245.792 209.665C244.608 209.44 243.392 209.44 242.207 209.665L241.75 209.747L241.202 212.252C240.309 212.582 239.479 213.064 238.75 213.677L236.26 212.89L235.937 213.25C235.166 214.172 234.561 215.223 234.152 216.355L233.98 216.827L235.877 218.552C235.707 219.49 235.707 220.45 235.877 221.387L233.98 223.112L234.152 223.585C234.555 224.737 235.159 225.809 235.937 226.75L236.26 227.14L238.75 226.322C239.479 226.935 240.309 227.417 241.202 227.747L241.75 230.252L242.245 230.335C243.43 230.555 244.645 230.555 245.83 230.335L246.325 230.252L246.872 227.747C247.766 227.417 248.596 226.935 249.325 226.322L251.777 227.11L252.1 226.72C252.872 225.797 253.476 224.746 253.885 223.615L254.057 223.142L252.16 221.417C252.23 220.948 252.26 220.474 252.25 220ZM240.25 220C240.25 217.929 241.929 216.25 244 216.25C244.995 216.25 245.948 216.645 246.652 217.348C247.355 218.051 247.75 219.005 247.75 220C247.75 222.071 246.071 223.75 244 223.75C241.929 223.75 240.25 222.071 240.25 220ZM241.75 220C241.75 221.242 242.757 222.25 244 222.25C245.243 222.25 246.25 221.242 246.25 220C246.25 218.757 245.243 217.75 244 217.75C242.757 217.75 241.75 218.757 241.75 220ZM251.215 225.37C251.626 224.808 251.974 224.202 252.25 223.562L250.465 221.912L250.563 221.485C250.798 220.499 250.798 219.471 250.563 218.485L250.465 218.057L252.25 216.437C251.976 215.798 251.631 215.192 251.223 214.63L248.92 215.38L248.598 215.08C247.846 214.39 246.949 213.877 245.973 213.58L245.553 213.452L245.043 211.105C244.35 211.015 243.65 211.015 242.958 211.105L242.448 213.452L242.028 213.58C241.051 213.877 240.154 214.39 239.403 215.08L239.08 215.38L236.778 214.63C236.369 215.192 236.024 215.798 235.75 216.437L237.528 218.072L237.43 218.5C237.195 219.486 237.195 220.514 237.43 221.5L237.535 221.942L235.75 223.562C236.022 224.201 236.364 224.807 236.77 225.37L239.073 224.62L239.395 224.92C240.147 225.61 241.044 226.123 242.02 226.42L242.44 226.547L242.95 228.895C243.642 228.985 244.343 228.985 245.035 228.895L245.545 226.547L245.965 226.42C246.941 226.123 247.838 225.61 248.59 224.92L248.913 224.62L251.215 225.37Z" fill="white"/>
<path d="M153 4V85H258" stroke="white" stroke-width="2" stroke-dasharray="4 4"/>
<path d="M1090.59 311.414C1091.37 310.633 1092.63 310.633 1093.41 311.414L1099 317L1100 318L1084 318L1085 317L1090.59 311.414Z" fill="white" fill-opacity="0.8"/>
<rect x="1068" y="318" width="89" height="17" rx="8.5" fill="white" fill-opacity="0.8"/>
<rect x="30.5" y="230.5" width="126" height="18" rx="9" stroke="white"/>
<path d="M83.6562 242.5V236.82H84.8125V241.535H87.6875V242.5H83.6562ZM89.3281 239.617L88.332 239.438C88.444 239.036 88.6367 238.74 88.9102 238.547C89.1836 238.354 89.5898 238.258 90.1289 238.258C90.6185 238.258 90.9831 238.316 91.2227 238.434C91.4622 238.548 91.6302 238.695 91.7266 238.875C91.8255 239.052 91.875 239.379 91.875 239.855L91.8633 241.137C91.8633 241.501 91.8802 241.771 91.9141 241.945C91.9505 242.117 92.0169 242.302 92.1133 242.5H91.0273C90.9987 242.427 90.9635 242.319 90.9219 242.176C90.9036 242.111 90.8906 242.068 90.8828 242.047C90.6953 242.229 90.4948 242.366 90.2812 242.457C90.0677 242.548 89.8398 242.594 89.5977 242.594C89.1706 242.594 88.8333 242.478 88.5859 242.246C88.3411 242.014 88.2188 241.721 88.2188 241.367C88.2188 241.133 88.2747 240.924 88.3867 240.742C88.4987 240.557 88.6549 240.417 88.8555 240.32C89.0586 240.221 89.3503 240.135 89.7305 240.062C90.2435 239.966 90.599 239.876 90.7969 239.793V239.684C90.7969 239.473 90.7448 239.323 90.6406 239.234C90.5365 239.143 90.3398 239.098 90.0508 239.098C89.8555 239.098 89.7031 239.137 89.5938 239.215C89.4844 239.29 89.3958 239.424 89.3281 239.617ZM90.7969 240.508C90.6562 240.555 90.4336 240.611 90.1289 240.676C89.8242 240.741 89.625 240.805 89.5312 240.867C89.388 240.969 89.3164 241.098 89.3164 241.254C89.3164 241.408 89.3737 241.54 89.4883 241.652C89.6029 241.764 89.7487 241.82 89.9258 241.82C90.1237 241.82 90.3125 241.755 90.4922 241.625C90.625 241.526 90.7122 241.405 90.7539 241.262C90.7826 241.168 90.7969 240.99 90.7969 240.727V240.508ZM92.9141 242.5V236.773H94.0117V238.836C94.3503 238.451 94.7513 238.258 95.2148 238.258C95.7201 238.258 96.138 238.441 96.4688 238.809C96.7995 239.173 96.9648 239.698 96.9648 240.383C96.9648 241.091 96.7956 241.637 96.457 242.02C96.1211 242.402 95.7122 242.594 95.2305 242.594C94.9935 242.594 94.7591 242.535 94.5273 242.418C94.2982 242.298 94.1003 242.122 93.9336 241.891V242.5H92.9141ZM94.0039 240.336C94.0039 240.766 94.0716 241.083 94.207 241.289C94.3971 241.581 94.6497 241.727 94.9648 241.727C95.207 241.727 95.4128 241.624 95.582 241.418C95.7539 241.21 95.8398 240.883 95.8398 240.438C95.8398 239.964 95.7539 239.622 95.582 239.414C95.4102 239.203 95.1901 239.098 94.9219 239.098C94.6589 239.098 94.4401 239.201 94.2656 239.406C94.0911 239.609 94.0039 239.919 94.0039 240.336ZM100.254 241.18L101.348 241.363C101.207 241.764 100.984 242.07 100.68 242.281C100.378 242.49 99.9987 242.594 99.543 242.594C98.8216 242.594 98.2878 242.358 97.9414 241.887C97.668 241.509 97.5312 241.033 97.5312 240.457C97.5312 239.77 97.7109 239.232 98.0703 238.844C98.4297 238.453 98.8841 238.258 99.4336 238.258C100.051 238.258 100.538 238.462 100.895 238.871C101.251 239.277 101.422 239.901 101.406 240.742H98.6562C98.6641 241.068 98.7526 241.322 98.9219 241.504C99.0911 241.684 99.3021 241.773 99.5547 241.773C99.7266 241.773 99.8711 241.727 99.9883 241.633C100.105 241.539 100.194 241.388 100.254 241.18ZM100.316 240.07C100.309 239.753 100.227 239.512 100.07 239.348C99.9141 239.181 99.724 239.098 99.5 239.098C99.2604 239.098 99.0625 239.185 98.9062 239.359C98.75 239.534 98.6732 239.771 98.6758 240.07H100.316ZM102.305 242.5V236.773H103.402V242.5H102.305Z" fill="white"/>
<path d="M223.339 219.812C195.029 222.102 172.608 199.684 179.918 177.674C182.421 170.136 189.57 158.728 201.609 158.879C209.842 159.654 212.477 182.733 189.413 193.205C178.562 198.131 133.146 191.202 116.607 169.371" stroke="white" stroke-width="2" stroke-dasharray="4 4"/>
<g clip-path="url(#clip0_122_21460)">
<rect x="59" y="91" width="26" height="26" rx="13" fill="white"/>
<rect x="49.5" y="124" width="45" height="11" rx="4" fill="white"/>
</g>
<path d="M84.813 45.2314H72.6431H61.162C60.0598 45.2314 59.0188 44.0119 58.6361 43.4022V39.2865C58.6361 37.8231 56.9522 37.1524 56.1103 37H40.496C34.8014 37 32.4592 42.4876 32 45.2314V194.311C32 199.982 37.664 202.466 40.496 203H102.264C109.612 203 111.143 196.141 110.99 192.711C110.913 146.828 110.806 53.4628 110.99 47.0606C111.174 40.6584 105.402 37.686 102.494 37H89.8647C88.2114 37 87.3389 38.5243 87.1092 39.2865V42.7163C87.1092 45.0942 85.5784 45.3838 84.813 45.2314Z" stroke="white" stroke-width="2"/>
<path d="M6 34L5.99999 208" stroke="white" stroke-opacity="0.75"/>
<path d="M0 34L11 34" stroke="white" stroke-opacity="0.75" stroke-dasharray="2 2"/>
<path d="M0 208L11 208" stroke="white" stroke-opacity="0.75" stroke-dasharray="2 2"/>
<rect width="24" height="9" rx="4.5" transform="matrix(-4.37114e-08 1 1 4.37114e-08 1 113)" fill="white"/>
<path d="M159.801 125V117.842H160.748V120.781H164.469V117.842H165.416V125H164.469V121.626H160.748V125H159.801ZM169.952 125H169.073V119.399C168.862 119.601 168.583 119.803 168.238 120.005C167.896 120.207 167.589 120.358 167.315 120.459V119.609C167.807 119.378 168.237 119.098 168.604 118.77C168.972 118.441 169.233 118.122 169.386 117.812H169.952V125ZM174.884 123.452L175.753 123.315C175.802 123.664 175.937 123.931 176.158 124.116C176.383 124.302 176.695 124.395 177.096 124.395C177.499 124.395 177.799 124.313 177.994 124.15C178.189 123.984 178.287 123.791 178.287 123.569C178.287 123.371 178.201 123.215 178.028 123.101C177.908 123.022 177.608 122.923 177.13 122.803C176.485 122.64 176.038 122.5 175.787 122.383C175.54 122.262 175.351 122.098 175.221 121.89C175.094 121.678 175.03 121.445 175.03 121.191C175.03 120.96 175.082 120.747 175.187 120.552C175.294 120.353 175.439 120.189 175.621 120.059C175.758 119.958 175.943 119.873 176.178 119.805C176.415 119.733 176.669 119.697 176.939 119.697C177.346 119.697 177.703 119.756 178.009 119.873C178.318 119.99 178.546 120.15 178.692 120.352C178.839 120.55 178.94 120.817 178.995 121.152L178.136 121.27C178.097 121.003 177.983 120.794 177.794 120.645C177.608 120.495 177.345 120.42 177.003 120.42C176.599 120.42 176.311 120.487 176.139 120.62C175.966 120.754 175.88 120.91 175.88 121.089C175.88 121.203 175.916 121.305 175.987 121.396C176.059 121.491 176.171 121.569 176.324 121.631C176.412 121.663 176.671 121.738 177.101 121.855C177.722 122.021 178.155 122.158 178.399 122.266C178.647 122.37 178.84 122.523 178.98 122.725C179.12 122.926 179.19 123.177 179.19 123.477C179.19 123.77 179.104 124.046 178.932 124.307C178.762 124.564 178.517 124.764 178.194 124.907C177.872 125.047 177.507 125.117 177.101 125.117C176.427 125.117 175.912 124.977 175.558 124.697C175.206 124.417 174.981 124.002 174.884 123.452ZM183.785 123.33L184.693 123.442C184.55 123.973 184.285 124.385 183.897 124.678C183.51 124.971 183.015 125.117 182.413 125.117C181.655 125.117 181.052 124.884 180.606 124.419C180.164 123.95 179.942 123.294 179.942 122.451C179.942 121.579 180.167 120.902 180.616 120.42C181.065 119.938 181.648 119.697 182.364 119.697C183.058 119.697 183.624 119.933 184.063 120.405C184.503 120.877 184.723 121.541 184.723 122.397C184.723 122.45 184.721 122.528 184.718 122.632H180.851C180.883 123.201 181.044 123.638 181.334 123.94C181.624 124.243 181.985 124.395 182.418 124.395C182.74 124.395 183.015 124.31 183.243 124.141C183.471 123.971 183.652 123.701 183.785 123.33ZM180.899 121.909H183.795C183.756 121.473 183.645 121.146 183.463 120.928C183.183 120.589 182.82 120.42 182.374 120.42C181.97 120.42 181.63 120.555 181.354 120.825C181.08 121.095 180.929 121.457 180.899 121.909ZM185.802 125V119.814H186.588V120.542C186.751 120.288 186.967 120.085 187.237 119.932C187.507 119.775 187.815 119.697 188.16 119.697C188.544 119.697 188.858 119.777 189.103 119.937C189.35 120.096 189.524 120.319 189.625 120.605C190.035 120 190.569 119.697 191.227 119.697C191.741 119.697 192.136 119.84 192.413 120.127C192.69 120.41 192.828 120.848 192.828 121.44V125H191.954V121.733C191.954 121.382 191.925 121.13 191.866 120.977C191.811 120.82 191.708 120.695 191.559 120.601C191.409 120.506 191.233 120.459 191.031 120.459C190.667 120.459 190.364 120.581 190.123 120.825C189.882 121.066 189.762 121.453 189.762 121.987V125H188.883V121.631C188.883 121.24 188.811 120.947 188.668 120.752C188.525 120.557 188.29 120.459 187.965 120.459C187.717 120.459 187.488 120.524 187.276 120.654C187.068 120.785 186.917 120.975 186.822 121.226C186.728 121.476 186.681 121.838 186.681 122.31V125H185.802ZM194.137 118.853V117.842H195.016V118.853H194.137ZM194.137 125V119.814H195.016V125H194.137ZM197.169 125H196.354V117.842H197.232V120.396C197.604 119.93 198.077 119.697 198.653 119.697C198.972 119.697 199.273 119.762 199.557 119.893C199.843 120.02 200.077 120.2 200.26 120.435C200.445 120.666 200.59 120.946 200.694 121.274C200.799 121.603 200.851 121.955 200.851 122.329C200.851 123.218 200.631 123.905 200.191 124.39C199.752 124.875 199.225 125.117 198.609 125.117C197.997 125.117 197.517 124.862 197.169 124.351V125ZM197.159 122.368C197.159 122.99 197.244 123.439 197.413 123.716C197.69 124.168 198.064 124.395 198.536 124.395C198.92 124.395 199.252 124.229 199.532 123.896C199.812 123.561 199.952 123.063 199.952 122.402C199.952 121.725 199.817 121.226 199.547 120.903C199.28 120.581 198.956 120.42 198.575 120.42C198.191 120.42 197.859 120.588 197.579 120.923C197.299 121.255 197.159 121.737 197.159 122.368ZM201.598 122.407C201.598 121.447 201.865 120.736 202.398 120.273C202.844 119.889 203.388 119.697 204.029 119.697C204.742 119.697 205.325 119.932 205.777 120.4C206.23 120.866 206.456 121.51 206.456 122.334C206.456 123.001 206.355 123.527 206.153 123.911C205.955 124.292 205.663 124.588 205.279 124.8C204.898 125.011 204.482 125.117 204.029 125.117C203.303 125.117 202.716 124.884 202.267 124.419C201.821 123.953 201.598 123.283 201.598 122.407ZM202.501 122.407C202.501 123.071 202.646 123.569 202.936 123.901C203.225 124.23 203.59 124.395 204.029 124.395C204.465 124.395 204.828 124.229 205.118 123.896C205.408 123.564 205.553 123.058 205.553 122.378C205.553 121.737 205.406 121.252 205.113 120.923C204.824 120.591 204.462 120.425 204.029 120.425C203.59 120.425 203.225 120.589 202.936 120.918C202.646 121.247 202.501 121.743 202.501 122.407ZM207.472 125V117.842H208.351V125H207.472ZM213.082 125V124.346C212.753 124.86 212.27 125.117 211.632 125.117C211.218 125.117 210.838 125.003 210.489 124.775C210.144 124.548 209.876 124.23 209.684 123.823C209.495 123.413 209.4 122.943 209.4 122.412C209.4 121.895 209.487 121.426 209.659 121.006C209.832 120.583 210.09 120.259 210.436 120.034C210.781 119.81 211.166 119.697 211.593 119.697C211.905 119.697 212.184 119.764 212.428 119.897C212.672 120.028 212.87 120.199 213.023 120.41V117.842H213.897V125H213.082ZM210.304 122.412C210.304 123.076 210.444 123.573 210.724 123.901C211.004 124.23 211.334 124.395 211.715 124.395C212.099 124.395 212.424 124.238 212.691 123.926C212.962 123.61 213.097 123.13 213.097 122.485C213.097 121.776 212.96 121.255 212.687 120.923C212.413 120.591 212.076 120.425 211.676 120.425C211.285 120.425 210.958 120.584 210.694 120.903C210.434 121.222 210.304 121.725 210.304 122.412Z" fill="white"/>
<path fill-rule="evenodd" clip-rule="evenodd" d="M117.75 278.25H111.75C110.922 278.25 110.25 278.922 110.25 279.75V288.75C110.25 289.578 110.922 290.25 111.75 290.25H117.75C118.578 290.25 119.25 289.578 119.25 288.75V279.75C119.25 278.922 118.578 278.25 117.75 278.25ZM117.75 288.75H111.75V279.75H117.75V288.75ZM122.25 278.25H128.25C129.078 278.25 129.75 278.922 129.75 279.75V282.75C129.75 283.578 129.078 284.25 128.25 284.25H122.25C121.422 284.25 120.75 283.578 120.75 282.75V279.75C120.75 278.922 121.422 278.25 122.25 278.25ZM128.25 282.75H122.25V279.75H128.25V282.75ZM111.75 291.75H117.75C118.578 291.75 119.25 292.422 119.25 293.25V296.25C119.25 297.078 118.578 297.75 117.75 297.75H111.75C110.922 297.75 110.25 297.078 110.25 296.25V293.25C110.25 292.422 110.922 291.75 111.75 291.75ZM117.75 296.25H111.75V293.25H117.75V296.25ZM128.25 297.75C129.078 297.75 129.75 297.078 129.75 296.25V287.25C129.75 286.422 129.078 285.75 128.25 285.75H122.25C121.422 285.75 120.75 286.422 120.75 287.25V296.25C120.75 297.078 121.422 297.75 122.25 297.75H128.25ZM128.25 296.25H122.25V287.25H128.25V296.25Z" fill="white"/>
<path fill-rule="evenodd" clip-rule="evenodd" d="M79.8413 279.971C80.1155 279.855 80.4174 279.79 80.7345 279.79C81.9837 279.79 82.9998 280.793 83 282.027V287.155C83 289.042 81.4148 293.928 81.2341 294.479C81.132 294.789 80.8374 295 80.5045 295H70.8157C70.5199 295 70.2503 294.833 70.1236 294.571C70.1232 294.57 70.1216 294.567 70.1189 294.561C70.045 294.409 69.1239 292.51 68.769 291.909C68.3455 291.194 67.7665 290.328 67.1534 289.412L67.1499 289.406L67.1492 289.405C66.3086 288.149 65.356 286.725 64.4797 285.215C63.8026 284.048 63.844 282.957 64.5932 282.222C65.0181 281.805 65.5849 281.576 66.1904 281.576H66.202C66.8089 281.579 67.3791 281.812 67.8075 282.232C67.8196 282.244 67.8313 282.256 67.8427 282.269L69.4744 284.1V275.237C69.4744 274.004 70.4906 273 71.7398 273C72.9891 273 74.0054 274.004 74.0054 275.237V277.7C74.2354 277.622 74.4817 277.579 74.7381 277.579C75.6105 277.579 76.3688 278.069 76.7472 278.784C77.0462 278.64 77.3818 278.56 77.7362 278.56C78.6903 278.56 79.508 279.145 79.8413 279.971ZM80.7345 281.292C80.3305 281.292 80.0018 281.622 80.0018 282.027H80.002V284.214C80.002 284.629 79.6589 284.965 79.2357 284.965C78.8125 284.965 78.4694 284.629 78.4694 284.214V280.797C78.4694 280.392 78.1406 280.062 77.7363 280.062C77.3323 280.062 77.0036 280.392 77.0036 280.797V283.233C77.0036 283.648 76.6604 283.984 76.2373 283.984C75.8142 283.984 75.4711 283.648 75.4711 283.233V279.816C75.4711 279.411 75.1424 279.082 74.7382 279.082C74.3342 279.082 74.0054 279.411 74.0054 279.816V282.253C74.0054 282.668 73.6623 283.004 73.2392 283.004C72.8161 283.004 72.473 282.668 72.473 282.253V275.237C72.473 274.832 72.1441 274.503 71.7399 274.503C71.3357 274.503 71.0069 274.832 71.0069 275.237V286.101C71.0069 286.414 70.8089 286.694 70.5099 286.804C70.2113 286.914 69.8738 286.831 69.6638 286.595L66.7086 283.28C66.5694 283.151 66.3877 283.08 66.1946 283.079C65.9967 283.081 65.8133 283.151 65.6771 283.284C65.3851 283.571 65.589 284.088 65.8115 284.472C66.6642 285.941 67.6028 287.344 68.4312 288.582L68.4349 288.587C69.0599 289.522 69.65 290.404 70.0946 291.155C70.3858 291.648 70.9812 292.849 71.2989 293.497H79.9424C80.4847 291.78 81.4674 288.409 81.4674 287.155V282.027C81.4674 281.622 81.1387 281.292 80.7345 281.292Z" fill="white"/>
<path fill-rule="evenodd" clip-rule="evenodd" d="M12 268C12 264.134 15.134 261 19 261C20.8565 261 22.637 261.737 23.9497 263.05C25.2625 264.363 26 266.143 26 268C26 271.866 22.866 275 19 275C15.134 275 12 271.866 12 268ZM22.5029 271C22.5029 270.867 22.4497 270.739 22.355 270.645L19.5 267.795V264C19.5 263.724 19.2762 263.5 19 263.5C18.7239 263.5 18.5 263.724 18.5 264V268C18.4992 268.133 18.5514 268.261 18.645 268.355L21.645 271.355C21.7389 271.45 21.8667 271.503 22 271.503C22.1333 271.503 22.2611 271.45 22.355 271.355C22.4497 271.261 22.5029 271.133 22.5029 271Z" fill="white"/>
<path fill-rule="evenodd" clip-rule="evenodd" d="M19 304C22.866 304 26 300.866 26 297C26 293.134 22.866 290 19 290C15.134 290 12 293.134 12 297C12 300.866 15.134 304 19 304ZM19 298C19.2761 298 19.5 297.776 19.5 297.5V294C19.5 293.724 19.2761 293.5 19 293.5C18.7239 293.5 18.5 293.724 18.5 294V297.5C18.5 297.776 18.7239 298 19 298ZM19.75 299.75C19.75 299.336 19.4142 299 19 299C18.5858 299 18.25 299.336 18.25 299.75C18.25 300.164 18.5858 300.5 19 300.5C19.4142 300.5 19.75 300.164 19.75 299.75Z" fill="white"/>
<defs>
<clipPath id="clip0_122_21460">
<rect width="48" height="54" fill="white" transform="translate(48 81)"/>
</clipPath>
</defs>
</svg>
