<svg width="125" height="84" viewBox="0 0 125 84" fill="none" xmlns="http://www.w3.org/2000/svg">
<path fill-rule="evenodd" clip-rule="evenodd" d="M97.2469 54.9151C95.3197 59.8458 92.321 64.2598 88.5272 67.8747C87.0537 66.9174 84.9918 65.6743 82.5051 64.4309C82.2464 64.3016 81.9827 64.1721 81.7143 64.0427C82.6267 61.2066 83.3684 58.1464 83.9116 54.9151H97.2469ZM103.623 54.9151C98.0995 71.792 82.0415 84 63.0927 84C44.1438 84 28.0858 71.792 22.5621 54.9151L10.7382 54.9151C10.7382 54.9151 0.5 54.9151 0.5 42.35C0.5 29.7849 10.7382 29.7849 10.7382 29.7849H22.3398C27.644 12.5466 43.8828 0 63.0927 0C82.3025 0 98.5413 12.5466 103.845 29.7849H115.447C115.447 29.7849 124.871 30.0176 124.988 42.35C125.104 54.6824 115.447 54.9151 115.447 54.9151L103.623 54.9151ZM97.512 29.7849C95.4471 24.1537 91.9949 19.1667 87.5552 15.2321C86.1964 16.0777 84.4854 17.0677 82.5051 18.0579C82.1075 18.2567 81.6981 18.456 81.2777 18.6544C82.4614 22.0475 83.3944 25.7902 84.0257 29.7849H97.512ZM77.9445 29.7849C77.3926 26.5919 76.6348 23.6194 75.715 20.9279C71.786 22.282 67.3463 23.2695 62.7439 23.2695C58.3841 23.2695 54.1705 22.3834 50.3986 21.139C49.5111 23.7746 48.7782 26.6751 48.2407 29.7849H77.9445ZM42.1595 29.7849C42.7736 25.8996 43.673 22.2526 44.8108 18.934C44.1775 18.6436 43.5674 18.3503 42.9826 18.0579C41.198 17.1656 39.6321 16.2734 38.3456 15.4869C34.0428 19.381 30.6939 24.2746 28.6733 29.7849H42.1595ZM28.9384 54.9151C30.818 59.7241 33.7169 64.0416 37.3786 67.6056C38.814 66.6904 40.7229 65.5608 42.9826 64.4309C43.4333 64.2055 43.8992 63.9796 44.3791 63.7549C43.5086 60.9999 42.7985 58.0374 42.2736 54.9151H28.9384ZM48.3656 54.9151C48.7934 57.2385 49.3309 59.4404 49.9603 61.4966C53.8428 60.1757 58.2145 59.2193 62.7438 59.2193C67.5199 59.2193 72.1206 60.2827 76.1573 61.7156C76.816 59.597 77.3766 57.3212 77.8196 54.9151H48.3656ZM80.736 67.969C82.5466 68.8743 84.1171 69.7797 85.372 70.5574C82.6041 72.6531 79.5214 74.3682 76.2033 75.6216C77.7636 73.3746 79.1624 70.7363 80.3602 67.7828C80.4865 67.8448 80.6118 67.9069 80.736 67.969ZM73.2372 68.9271C69.6564 75.803 65.7636 78 63.0927 78C60.4216 78 56.5288 75.803 52.948 68.9271C52.3511 67.7809 51.7884 66.546 51.2661 65.2308C54.8189 64.0248 58.7446 63.175 62.7438 63.175C66.9743 63.175 71.1225 64.1259 74.834 65.4435C74.3359 66.6793 73.8019 67.8429 73.2372 68.9271ZM49.9819 75.6216C46.5392 74.3211 43.3499 72.5235 40.5027 70.3196C41.6881 69.5981 43.1227 68.7834 44.7516 67.969C45.0651 67.8122 45.3852 67.6558 45.7115 67.5003C46.9341 70.5683 48.372 73.3031 49.9819 75.6216ZM44.7517 14.5198C43.6104 13.9492 42.5645 13.3785 41.6329 12.8398C44.1854 11.0165 46.9878 9.50946 49.9819 8.37843C48.5967 10.3734 47.3388 12.6766 46.2358 15.235C45.7265 14.9988 45.2314 14.7597 44.7517 14.5198ZM79.8309 14.9624C78.7566 12.5127 77.5392 10.3022 76.2033 8.37838C79.0745 9.46301 81.7696 10.8934 84.2369 12.6169C83.2123 13.2197 82.0361 13.8698 80.7361 14.5198C80.4401 14.6678 80.1383 14.8155 79.8309 14.9624ZM74.2774 17.239C73.944 16.486 73.5968 15.7633 73.2372 15.0729C69.6564 8.19698 65.7636 6 63.0926 6C60.4216 6 56.5288 8.19698 52.948 15.0729C52.5563 15.8251 52.1793 16.6155 51.8188 17.4417C55.2241 18.5494 58.9509 19.3138 62.7439 19.3138C66.764 19.3138 70.7099 18.4551 74.2774 17.239ZM116.262 36.7656H113.901V47.9346H116.262V36.7656ZM109.597 36.7656H111.958V44.0189C111.958 44.8333 111.763 45.5459 111.374 46.1567C110.989 46.7675 110.449 47.2438 109.755 47.5855C109.06 47.9237 108.251 48.0927 107.328 48.0927C106.401 48.0927 105.59 47.9237 104.896 47.5855C104.201 47.2438 103.661 46.7675 103.276 46.1567C102.89 45.5459 102.698 44.8333 102.698 44.0189V36.7656H105.059V43.8171C105.059 44.2425 105.152 44.6206 105.337 44.9515C105.526 45.2823 105.792 45.5423 106.134 45.7313C106.475 45.9204 106.873 46.0149 107.328 46.0149C107.786 46.0149 108.184 45.9204 108.522 45.7313C108.864 45.5423 109.128 45.2823 109.313 44.9515C109.502 44.6206 109.597 44.2425 109.597 43.8171V36.7656ZM97.9354 49.6143L101.535 36.2421H99.5333L95.9339 49.6143H97.9354ZM87.9499 36.7656L90.2023 40.5722H90.2895L92.5528 36.7656H95.2196L91.8111 42.3501L95.2959 47.9346H92.58L90.2895 44.1225H90.2023L87.9118 47.9346H85.2068L88.7025 42.3501L85.2722 36.7656H87.9499ZM83.7926 36.7656H81.4312V43.8171C81.4312 44.2425 81.3366 44.6206 81.1476 44.9515C80.9622 45.2823 80.6986 45.5423 80.3568 45.7313C80.0187 45.9204 79.6206 46.0149 79.1625 46.0149C78.708 46.0149 78.3099 45.9204 77.9681 45.7313C77.6264 45.5423 77.361 45.2823 77.1719 44.9515C76.9865 44.6206 76.8938 44.2425 76.8938 43.8171V36.7656H74.5324V44.0189C74.5324 44.8333 74.7251 45.5459 75.1105 46.1567C75.4958 46.7675 76.0357 47.2438 76.7302 47.5855C77.4246 47.9237 78.2354 48.0927 79.1625 48.0927C80.086 48.0927 80.8949 47.9237 81.5893 47.5855C82.2838 47.2438 82.8237 46.7675 83.209 46.1567C83.5981 45.5459 83.7926 44.8333 83.7926 44.0189V36.7656ZM69.2287 42.3496C69.2287 43.5676 68.9978 44.6038 68.5361 45.4582C68.078 46.3126 67.4526 46.9652 66.66 47.416C65.8711 47.8632 64.984 48.0868 63.9987 48.0868C63.0061 48.0868 62.1154 47.8614 61.3264 47.4106C60.5375 46.9597 59.9139 46.3071 59.4558 45.4527C58.9977 44.5983 58.7687 43.564 58.7687 42.3496C58.7687 41.1317 58.9977 40.0955 59.4558 39.2411C59.9139 38.3867 60.5375 37.7359 61.3264 37.2887C62.1154 36.8379 63.0061 36.6124 63.9987 36.6124C64.984 36.6124 65.8711 36.8379 66.66 37.2887C67.4526 37.7359 68.078 38.3867 68.5361 39.2411C68.9978 40.0955 69.2287 41.1317 69.2287 42.3496ZM66.8346 42.3496C66.8346 41.5607 66.7164 40.8953 66.4801 40.3536C66.2474 39.8119 65.9184 39.401 65.493 39.1211C65.0676 38.8411 64.5695 38.7012 63.9987 38.7012C63.4279 38.7012 62.9298 38.8411 62.5044 39.1211C62.079 39.401 61.7482 39.8119 61.5118 40.3536C61.2792 40.8953 61.1628 41.5607 61.1628 42.3496C61.1628 43.1386 61.2792 43.8039 61.5118 44.3456C61.7482 44.8874 62.079 45.2982 62.5044 45.5782C62.9298 45.8581 63.4279 45.9981 63.9987 45.9981C64.5695 45.9981 65.0676 45.8581 65.493 45.5782C65.9184 45.2982 66.2474 44.8874 66.4801 44.3456C66.7164 43.8039 66.8346 43.1386 66.8346 42.3496ZM47.7924 47.9346H51.7518C52.8861 47.9346 53.8605 47.711 54.6749 47.2638C55.4929 46.8166 56.1201 46.1749 56.5564 45.3387C56.9963 44.5024 57.2163 43.5026 57.2163 42.3392C57.2163 41.1794 56.9963 40.1832 56.5564 39.3506C56.1201 38.518 55.4966 37.8799 54.6858 37.4364C53.875 36.9892 52.9079 36.7656 51.7845 36.7656H47.7924V47.9346ZM51.6536 45.9113H50.1538V38.7889H51.659C52.3571 38.7889 52.9443 38.9125 53.4206 39.1597C53.8968 39.407 54.255 39.7923 54.4949 40.3159C54.7385 40.8394 54.8603 41.5139 54.8603 42.3392C54.8603 43.1718 54.7385 43.8516 54.4949 44.3788C54.255 44.9024 53.895 45.2896 53.4151 45.5404C52.9388 45.7877 52.3516 45.9113 51.6536 45.9113ZM45.8412 36.7656V47.9346H43.8015L38.9424 40.9049H38.8606V47.9346H36.4992V36.7656H38.5715L43.3925 43.7898H43.4907V36.7656H45.8412ZM34.5564 36.7656H32.195V43.8171C32.195 44.2425 32.1004 44.6206 31.9114 44.9515C31.726 45.2823 31.4624 45.5423 31.1206 45.7313C30.7825 45.9204 30.3844 46.0149 29.9263 46.0149C29.4718 46.0149 29.0737 45.9204 28.7319 45.7313C28.3902 45.5423 28.1248 45.2823 27.9357 44.9515C27.7503 44.6206 27.6576 44.2425 27.6576 43.8171V36.7656H25.2962V44.0189C25.2962 44.8333 25.4889 45.5459 25.8742 46.1567C26.2596 46.7675 26.7995 47.2438 27.494 47.5855C28.1884 47.9237 28.9992 48.0927 29.9263 48.0927C30.8497 48.0927 31.6587 47.9237 32.3531 47.5855C33.0476 47.2438 33.5875 46.7675 33.9728 46.1567C34.3619 45.5459 34.5564 44.8333 34.5564 44.0189V36.7656ZM11.2434 36.7656H14.1556L17.2315 44.2697H17.3623L20.4382 36.7656H23.3504V47.9346H21.0599V40.6649H20.9672L18.0768 47.88H16.517L13.6266 40.6376H13.5339V47.9346H11.2434V36.7656ZM115.395 32.112L115.391 32.1117H10.7516C10.746 32.1119 10.7348 32.1122 10.7184 32.1129C10.677 32.1145 10.6032 32.1185 10.5015 32.1274C10.2973 32.1453 9.98627 32.1828 9.6048 32.2609C8.83391 32.4185 7.82643 32.731 6.8361 33.3387C5.00387 34.4631 2.82687 36.8312 2.82687 42.35C2.82687 47.8687 5.00387 50.2368 6.8361 51.3612C7.82643 51.9689 8.83391 52.2814 9.6048 52.4391C9.98627 52.5171 10.2973 52.5546 10.5015 52.5725C10.6032 52.5814 10.677 52.5854 10.7184 52.5871C10.7348 52.5877 10.746 52.5881 10.7516 52.5882H115.394L115.401 52.5877C115.437 52.5853 115.503 52.5801 115.595 52.5694C115.781 52.548 116.066 52.5054 116.417 52.4221C117.125 52.2539 118.056 51.9309 118.97 51.3211C120.664 50.192 122.712 47.8172 122.661 42.3719C122.609 36.9007 120.552 34.505 118.872 33.3715C117.97 32.7624 117.06 32.4417 116.374 32.2753C116.033 32.1928 115.758 32.1508 115.58 32.1298C115.491 32.1193 115.428 32.1142 115.395 32.112Z" fill="url(#paint0_linear_86_16194)"/>
<defs>
<linearGradient id="paint0_linear_86_16194" x1="62.7443" y1="0" x2="62.7443" y2="84" gradientUnits="userSpaceOnUse">
<stop stop-color="#004494"/>
<stop offset="0.89" stop-color="#007989"/>
</linearGradient>
</defs>
</svg>
