<svg width="55" height="38" viewBox="0 0 55 38" fill="none" xmlns="http://www.w3.org/2000/svg">
<path fill-rule="evenodd" clip-rule="evenodd" d="M43.2172 24.678C42.357 26.9827 40.9881 29.0477 39.243 30.7388C39.1085 30.646 38.9518 30.5401 38.7744 30.4239C38.1225 29.997 37.1884 29.4294 36.0527 28.8616C35.9391 28.8047 35.8232 28.7478 35.7053 28.691C36.1064 27.4441 36.4325 26.0987 36.6713 24.678H43.2172ZM45.3373 24.678C42.9088 32.0978 35.8491 37.4649 27.5184 37.4649C19.1877 37.4649 12.128 32.0978 9.69952 24.678H4.50113C4.50113 24.678 0 24.678 0 19.1539C0 13.6298 4.50113 13.6298 4.50113 13.6298H9.60183C11.9337 6.05113 19.073 0.535156 27.5184 0.535156C35.9638 0.535156 43.103 6.05113 45.4349 13.6298H50.5355C50.5355 13.6298 54.6785 13.7321 54.7297 19.1539C54.7808 24.5757 50.5355 24.678 50.5355 24.678H45.3373ZM43.3285 13.6298C42.4144 11.0208 40.8527 8.70603 38.8305 6.87481L38.7743 6.91167C38.1224 7.33858 37.1883 7.90626 36.0527 8.47406C35.8779 8.56143 35.698 8.649 35.5133 8.73621C36.0337 10.228 36.4439 11.8735 36.7215 13.6298H43.3285ZM34.695 13.6298C34.445 12.1501 34.0959 10.7701 33.6678 9.51937C31.7986 10.2229 29.6264 10.7653 27.3648 10.7653C25.2125 10.7653 23.1411 10.2741 21.3348 9.62016C20.9224 10.8441 20.5852 12.1897 20.3419 13.6298H34.695ZM18.3154 13.6298C18.5854 11.9217 18.9808 10.3183 19.481 8.85934C19.2025 8.73165 18.9342 8.60264 18.677 8.47406C17.6111 7.94109 16.7226 7.40823 16.0785 6.99179C14.1182 8.80419 12.603 11.076 11.7082 13.6298H18.3154ZM11.8196 24.678C12.6589 26.9269 13.9827 28.9475 15.6677 30.6153C15.7564 30.5553 15.8525 30.4914 15.9554 30.4239C16.6074 29.997 17.5415 29.4294 18.6771 28.8616C18.8753 28.7624 19.0802 28.6631 19.2912 28.5643C18.9085 27.3531 18.5963 26.0507 18.3656 24.678H11.8196ZM20.3956 24.678C20.593 25.775 20.8451 26.8151 21.1435 27.7857C22.9942 27.0971 25.1361 26.5703 27.3649 26.5703C29.7049 26.5703 31.9491 27.1509 33.8611 27.8899C34.1737 26.8897 34.4368 25.8144 34.6413 24.678H20.3956ZM37.8217 31.8788L37.8846 31.9202C36.3217 33.1384 34.5317 34.0877 32.5859 34.696C33.5559 33.5387 34.4108 32.0592 35.1099 30.3352C35.1654 30.3625 35.2204 30.3897 35.275 30.417C36.3388 30.9489 37.2141 31.481 37.8217 31.8788ZM19.877 30.2109C20.5852 31.9881 21.4578 33.5111 22.4511 34.696C20.4472 34.0696 18.6086 33.0815 17.013 31.8106C17.6146 31.4212 18.4507 30.9191 19.4548 30.417C19.5927 30.3481 19.7335 30.2793 19.877 30.2109ZM19.4547 6.91858C18.6928 6.5376 18.0275 6.15654 17.4881 5.82477C18.9698 4.72873 20.6432 3.86923 22.4511 3.30407C21.563 4.36352 20.7714 5.69315 20.1075 7.23314C19.8835 7.12925 19.6657 7.02408 19.4547 6.91858ZM37.4078 5.72166C35.9612 4.67478 34.3366 3.85143 32.5859 3.30411C33.4508 4.33592 34.2242 5.62399 34.8772 7.11306C35.0123 7.04851 35.1449 6.98361 35.2749 6.91858C36.1171 6.49748 36.8412 6.07629 37.4078 5.72166ZM22.4927 6.86718C24.1071 3.76723 25.986 2.53516 27.5184 2.53516C29.0509 2.53516 30.9298 3.76723 32.5442 6.86718C32.7153 7.19583 32.88 7.53986 33.0377 7.89832C31.317 8.54427 29.3617 9.0262 27.3648 9.0262C25.4696 9.0262 23.612 8.59211 21.9567 7.99571C22.1272 7.60207 22.3061 7.22548 22.4927 6.86718ZM33.2784 29.5293C31.5005 28.8376 29.4555 28.3094 27.3649 28.3094C25.378 28.3094 23.4323 28.7865 21.7179 29.4276C21.9577 30.0334 22.2168 30.6031 22.4927 31.1329C24.1071 34.2328 25.986 35.4649 27.5184 35.4649C29.0509 35.4649 30.9298 34.2328 32.5442 31.1329C32.8046 30.6329 33.0501 30.0972 33.2784 29.5293ZM50.8936 16.6989H49.8555V21.6093H50.8936V16.6989ZM47.9633 16.6989H49.0014V19.8878C49.0014 20.2458 48.9159 20.5591 48.7449 20.8277C48.5755 21.0962 48.3381 21.3056 48.0328 21.4558C47.7275 21.6045 47.3719 21.6788 46.9659 21.6788C46.5583 21.6788 46.2018 21.6045 45.8965 21.4558C45.5912 21.3056 45.3539 21.0962 45.1844 20.8277C45.015 20.5591 44.9303 20.2458 44.9303 19.8878V16.6989H45.9685V19.7991C45.9685 19.9861 46.0092 20.1523 46.0907 20.2978C46.1739 20.4432 46.2905 20.5575 46.4408 20.6406C46.591 20.7238 46.7661 20.7653 46.9659 20.7653C47.1673 20.7653 47.3423 20.7238 47.491 20.6406C47.6412 20.5575 47.7571 20.4432 47.8386 20.2978C47.9217 20.1523 47.9633 19.9861 47.9633 19.7991V16.6989ZM42.8365 22.3477L44.4189 16.4687H43.539L41.9566 22.3477H42.8365ZM38.4464 16.6989L39.4367 18.3725H39.475L40.47 16.6989H41.6425L40.144 19.1541L41.676 21.6093H40.482L39.475 19.9333H39.4367L38.4297 21.6093H37.2404L38.7773 19.1541L37.2692 16.6989H38.4464ZM36.6187 16.6989H35.5805V19.7991C35.5805 19.9861 35.539 20.1523 35.4559 20.2978C35.3743 20.4432 35.2585 20.5575 35.1082 20.6406C34.9596 20.7238 34.7845 20.7653 34.5831 20.7653C34.3833 20.7653 34.2083 20.7238 34.0581 20.6406C33.9078 20.5575 33.7911 20.4432 33.708 20.2978C33.6265 20.1523 33.5857 19.9861 33.5857 19.7991V16.6989H32.5476V19.8878C32.5476 20.2458 32.6323 20.5591 32.8017 20.8277C32.9711 21.0962 33.2085 21.3056 33.5138 21.4558C33.8191 21.6045 34.1755 21.6788 34.5831 21.6788C34.9891 21.6788 35.3448 21.6045 35.6501 21.4558C35.9554 21.3056 36.1927 21.0962 36.3622 20.8277C36.5332 20.5591 36.6187 20.2458 36.6187 19.8878V16.6989ZM30.2159 19.1538C30.2159 19.6893 30.1144 20.1448 29.9114 20.5205C29.71 20.8961 29.4351 21.183 29.0866 21.3812C28.7398 21.5778 28.3498 21.6761 27.9166 21.6761C27.4802 21.6761 27.0886 21.577 26.7418 21.3788C26.3949 21.1806 26.1208 20.8937 25.9194 20.5181C25.718 20.1424 25.6173 19.6877 25.6173 19.1538C25.6173 18.6183 25.718 18.1628 25.9194 17.7872C26.1208 17.4115 26.3949 17.1254 26.7418 16.9288C27.0886 16.7306 27.4802 16.6315 27.9166 16.6315C28.3498 16.6315 28.7398 16.7306 29.0866 16.9288C29.4351 17.1254 29.71 17.4115 29.9114 17.7872C30.1144 18.1628 30.2159 18.6183 30.2159 19.1538ZM29.1634 19.1538C29.1634 18.807 29.1114 18.5145 29.0075 18.2763C28.9052 18.0381 28.7606 17.8575 28.5735 17.7344C28.3865 17.6113 28.1675 17.5498 27.9166 17.5498C27.6656 17.5498 27.4467 17.6113 27.2596 17.7344C27.0726 17.8575 26.9272 18.0381 26.8233 18.2763C26.721 18.5145 26.6698 18.807 26.6698 19.1538C26.6698 19.5007 26.721 19.7932 26.8233 20.0313C26.9272 20.2695 27.0726 20.4501 27.2596 20.5732C27.4467 20.6963 27.6656 20.7578 27.9166 20.7578C28.1675 20.7578 28.3865 20.6963 28.5735 20.5732C28.7606 20.4501 28.9052 20.2695 29.0075 20.0313C29.1114 19.7932 29.1634 19.5007 29.1634 19.1538ZM20.7916 21.6093H22.5323C23.031 21.6093 23.4593 21.511 23.8174 21.3144C24.177 21.1178 24.4528 20.8356 24.6446 20.468C24.838 20.1004 24.9347 19.6608 24.9347 19.1493C24.9347 18.6394 24.838 18.2015 24.6446 17.8354C24.4528 17.4694 24.1786 17.1889 23.8222 16.9939C23.4657 16.7972 23.0406 16.6989 22.5466 16.6989H20.7916V21.6093ZM22.4891 20.7198H21.8298V17.5885H22.4915C22.7984 17.5885 23.0565 17.6428 23.2659 17.7515C23.4753 17.8602 23.6328 18.0296 23.7383 18.2598C23.8454 18.49 23.8989 18.7865 23.8989 19.1493C23.8989 19.5154 23.8454 19.8143 23.7383 20.046C23.6328 20.2762 23.4745 20.4464 23.2635 20.5567C23.0541 20.6654 22.796 20.7198 22.4891 20.7198ZM19.9339 16.6989V21.6093H19.0371L16.9009 18.5187H16.8649V21.6093H15.8267V16.6989H16.7378L18.8573 19.7871H18.9005V16.6989H19.9339ZM14.9725 16.6989H13.9343V19.7991C13.9343 19.9861 13.8928 20.1523 13.8097 20.2978C13.7281 20.4432 13.6123 20.5575 13.462 20.6406C13.3134 20.7238 13.1383 20.7653 12.9369 20.7653C12.7371 20.7653 12.5621 20.7238 12.4118 20.6406C12.2616 20.5575 12.1449 20.4432 12.0618 20.2978C11.9803 20.1523 11.9395 19.9861 11.9395 19.7991V16.6989H10.9013V19.8878C10.9013 20.2458 10.9861 20.5591 11.1555 20.8277C11.3249 21.0962 11.5623 21.3056 11.8676 21.4558C12.1729 21.6045 12.5293 21.6788 12.9369 21.6788C13.3429 21.6788 13.6986 21.6045 14.0039 21.4558C14.3092 21.3056 14.5465 21.0962 14.716 20.8277C14.887 20.5591 14.9725 20.2458 14.9725 19.8878V16.6989ZM4.72324 16.6989H6.00357L7.35582 19.9981H7.41337L8.76563 16.6989H10.046V21.6093H9.03895V18.4132H8.99819L7.72746 21.5853H7.04174L5.771 18.4013H5.73024V21.6093H4.72324V16.6989ZM50.5123 14.6529L50.5109 14.6528H4.50703L4.4924 14.6533C4.47423 14.654 4.44176 14.6557 4.39706 14.6596C4.3073 14.6675 4.17054 14.684 4.00283 14.7183C3.66392 14.7876 3.22099 14.925 2.7856 15.1922C1.98008 15.6865 1.02298 16.7276 1.02298 19.1539C1.02298 21.5801 1.98008 22.6213 2.7856 23.1156C3.22099 23.3827 3.66392 23.5201 4.00283 23.5895C4.17054 23.6238 4.3073 23.6403 4.39706 23.6481C4.44176 23.6521 4.47423 23.6538 4.4924 23.6545L4.50703 23.655H50.5119L50.515 23.6548C50.5308 23.6538 50.5599 23.6515 50.6005 23.6468C50.682 23.6374 50.8074 23.6186 50.9617 23.582C51.2732 23.508 51.6822 23.3661 52.0843 23.098C52.8289 22.6016 53.7293 21.5575 53.7068 19.1635C53.6841 16.7582 52.7796 15.7049 52.0412 15.2066C51.6443 14.9388 51.2446 14.7978 50.9427 14.7247C50.793 14.6884 50.6718 14.6699 50.5936 14.6607C50.5547 14.6561 50.527 14.6539 50.5123 14.6529Z" fill="url(#paint0_linear_65_3503)"/>
<defs>
<linearGradient id="paint0_linear_65_3503" x1="27.3651" y1="0.535156" x2="27.3651" y2="37.4649" gradientUnits="userSpaceOnUse">
<stop stop-color="#004494"/>
<stop offset="0.89" stop-color="#007989"/>
</linearGradient>
</defs>
</svg>
